<svg width="268" height="116" viewBox="0 0 268 116" fill="none" xmlns="http://www.w3.org/2000/svg">
<g clip-path="url(#clip0_458_1247)">
<path d="M111.8 6.09C112.68 2.51 115.89 0 119.57 0H258.41C263.6 0 267.42 4.87 266.18 9.91L241.83 108.93C240.95 112.51 237.74 115.02 234.06 115.02H95.22C90.03 115.02 86.21 110.15 87.45 105.11L111.8 6.09Z" fill="#6C79F9"/>
<path d="M264.01 0H256.39C255.065 0 253.99 1.07452 253.99 2.4V5.78C253.99 7.10548 255.065 8.18 256.39 8.18H264.01C265.335 8.18 266.41 7.10548 266.41 5.78V2.4C266.41 1.07452 265.335 0 264.01 0Z" fill="#6C79F9"/>
<path d="M259.47 3.07C259.92 1.26 261.55 0 263.41 0C266.05 0 267.99 2.48 267.35 5.05L240.6 111.94C240.15 113.75 238.52 115.01 236.66 115.01C234.02 115.01 232.08 112.53 232.72 109.96L259.47 3.07Z" fill="#3B48C2"/>
<path d="M0 110.73C0 108.36 1.92 106.44 4.29 106.44H124.3C126.67 106.44 128.59 108.36 128.59 110.73C128.59 113.1 126.67 115.02 124.3 115.02H4.29C1.92 115.02 0 113.1 0 110.73Z" fill="#AFB7FF"/>
<path d="M111.44 110.73C111.44 108.36 113.36 106.44 115.73 106.44H235.75C238.12 106.44 240.04 108.36 240.04 110.73C240.04 113.1 238.12 115.02 235.75 115.02H115.73C113.36 115.02 111.44 113.1 111.44 110.73Z" fill="#3B48C2"/>
<path d="M117.34 19.8201C118.56 14.4301 124.03 10.0701 129.55 10.0701H236.71C242.23 10.0701 245.72 14.4401 244.5 19.8201L228.64 89.6801C227.42 95.0701 221.95 99.4301 216.43 99.4301H109.27C103.75 99.4301 100.26 95.0601 101.48 89.6801L117.34 19.8201V19.8201Z" fill="white"/>
<path opacity="0.4" d="M118.56 14.4501C119.11 12.0301 121.57 10.0601 124.06 10.0601H242.22C244.71 10.0601 246.27 12.0201 245.72 14.4501H118.56Z" fill="#6C79F9"/>
<path d="M234.56 39.99H157.77L157.41 41.59H234.2L234.56 39.99Z" fill="#D5D5DB"/>
<path d="M201.6 43.5801H156.95L156.59 45.1801H201.24L201.6 43.5801Z" fill="#D5D5DB"/>
<path d="M230.48 57.9399H153.69L153.33 59.5399H230.12L230.48 57.9399V57.9399Z" fill="#D5D5DB"/>
<path d="M126.97 21.7202L126.74 21.3702C126.92 21.1902 127.05 20.9502 127.11 20.7102C127.17 20.4402 127.14 20.1802 127.01 19.9802C126.74 19.5802 126.16 19.5802 125.71 19.9802C125.49 20.1702 125.34 20.4302 125.28 20.7102C125.22 20.9802 125.25 21.2402 125.39 21.4402C125.52 21.6302 125.72 21.7402 125.97 21.7402C126.19 21.7402 126.42 21.6502 126.62 21.5002L126.85 21.8502C126.85 21.8502 126.88 21.8802 126.9 21.8802C126.92 21.8802 126.94 21.8802 126.96 21.8502C127 21.8102 127.01 21.7602 126.99 21.7302L126.97 21.7202ZM125.99 21.5602C125.78 21.5602 125.61 21.4702 125.51 21.3102C125.4 21.1502 125.37 20.9302 125.42 20.7102C125.47 20.4802 125.6 20.2702 125.78 20.1102C126.15 19.7802 126.64 19.7802 126.86 20.1102C126.97 20.2702 127 20.4902 126.95 20.7102C126.9 20.9102 126.8 21.1002 126.65 21.2502C126.63 21.2702 126.61 21.3002 126.59 21.3202C126.57 21.3402 126.54 21.3602 126.52 21.3702C126.36 21.5002 126.17 21.5702 125.99 21.5702V21.5602Z" fill="#707070"/>
<path fill-rule="evenodd" clip-rule="evenodd" d="M125.73 20.73C125.76 20.6 125.9 20.49 126.04 20.49H126.5C126.64 20.49 126.72 20.6 126.69 20.73C126.66 20.86 126.52 20.97 126.38 20.97H125.92C125.78 20.97 125.7 20.86 125.73 20.73Z" fill="#707070"/>
<path d="M122.78 21.6701L122.54 21.3201C122.94 20.9201 123.06 20.3101 122.8 19.9301C122.53 19.5301 121.95 19.5301 121.5 19.9301C121.05 20.3301 120.9 20.9801 121.17 21.3801C121.3 21.5701 121.51 21.6801 121.75 21.6801C121.97 21.6801 122.2 21.5901 122.4 21.4401L122.63 21.7901C122.63 21.7901 122.66 21.8201 122.68 21.8201C122.7 21.8201 122.72 21.8201 122.74 21.7901C122.78 21.7601 122.79 21.7001 122.77 21.6701H122.78ZM121.8 21.5101C121.6 21.5101 121.42 21.4201 121.32 21.2601C121.1 20.9301 121.22 20.3801 121.59 20.0501C121.78 19.8801 121.99 19.8001 122.19 19.8001C122.39 19.8001 122.56 19.8801 122.68 20.0501C122.89 20.3601 122.79 20.8601 122.47 21.1901C122.45 21.2101 122.43 21.2401 122.41 21.2601C122.39 21.2801 122.36 21.3001 122.34 21.3101C122.18 21.4401 121.99 21.5101 121.81 21.5101H121.8Z" fill="#707070"/>
<path d="M122.26 20.6001H122.11L122.15 20.4301C122.15 20.4301 122.14 20.3401 122.09 20.3401C122.04 20.3401 122.01 20.3801 121.99 20.4301L121.95 20.6001H121.8C121.8 20.6001 121.72 20.6401 121.7 20.6901C121.69 20.7401 121.71 20.7801 121.76 20.7801H121.91L121.87 20.9501C121.87 20.9501 121.88 21.0401 121.93 21.0401C121.98 21.0401 122.01 21.0001 122.03 20.9501L122.07 20.7801H122.22C122.22 20.7801 122.3 20.7401 122.32 20.6901C122.33 20.6401 122.31 20.6001 122.26 20.6001Z" fill="#707070"/>
<path fill-rule="evenodd" clip-rule="evenodd" d="M129.79 19.8101C129.82 19.6801 129.96 19.5701 130.1 19.5701H130.55C130.69 19.5701 130.77 19.6801 130.74 19.8101C130.71 19.9401 130.57 20.0501 130.44 20.0501H129.99C129.85 20.0501 129.77 19.9401 129.8 19.8101H129.79Z" fill="#707070"/>
<path fill-rule="evenodd" clip-rule="evenodd" d="M130.09 19.5601C130.23 19.5601 130.31 19.6701 130.28 19.8001L130.17 20.3001C130.14 20.4301 130 20.5401 129.86 20.5401C129.72 20.5401 129.64 20.4301 129.67 20.3001L129.78 19.8001C129.81 19.6701 129.95 19.5601 130.09 19.5601Z" fill="#707070"/>
<path fill-rule="evenodd" clip-rule="evenodd" d="M129.91 19.62C130.03 19.53 130.19 19.54 130.26 19.64L130.65 20.23C130.72 20.33 130.67 20.49 130.55 20.57C130.43 20.66 130.27 20.65 130.2 20.55L129.81 19.96C129.74 19.86 129.79 19.7 129.91 19.62Z" fill="#707070"/>
<path fill-rule="evenodd" clip-rule="evenodd" d="M129.79 20.9001C129.93 20.9001 130.02 21.0101 129.98 21.1401L129.87 21.6401C129.84 21.7701 129.7 21.8801 129.57 21.8801C129.44 21.8801 129.34 21.7701 129.37 21.6401L129.48 21.1401C129.51 21.0101 129.65 20.9001 129.79 20.9001Z" fill="#707070"/>
<path fill-rule="evenodd" clip-rule="evenodd" d="M129.37 21.6502C129.4 21.5202 129.54 21.4102 129.68 21.4102H130.13C130.27 21.4102 130.36 21.5202 130.33 21.6502C130.3 21.7802 130.16 21.8902 130.03 21.8902H129.58C129.44 21.8902 129.35 21.7802 129.38 21.6502H129.37Z" fill="#707070"/>
<path fill-rule="evenodd" clip-rule="evenodd" d="M130.48 20.8801C130.56 20.9701 130.54 21.1201 130.43 21.2201L129.77 21.8101C129.66 21.9101 129.5 21.9201 129.41 21.8301C129.33 21.7401 129.35 21.5901 129.46 21.4901L130.12 20.9001C130.23 20.8001 130.39 20.7901 130.48 20.8801Z" fill="#707070"/>
<path fill-rule="evenodd" clip-rule="evenodd" d="M130.57 21.6502C130.6 21.5202 130.74 21.4102 130.87 21.4102H131.32C131.46 21.4102 131.54 21.5202 131.51 21.6502C131.48 21.7802 131.34 21.8902 131.2 21.8902H130.75C130.61 21.8902 130.53 21.7802 130.56 21.6502H130.57Z" fill="#707070"/>
<path fill-rule="evenodd" clip-rule="evenodd" d="M131.43 20.9001C131.57 20.9001 131.66 21.0101 131.63 21.1401L131.52 21.6401C131.49 21.7701 131.35 21.8801 131.21 21.8801C131.07 21.8801 130.98 21.7701 131.02 21.6401L131.13 21.1401C131.16 21.0101 131.3 20.9001 131.43 20.9001Z" fill="#707070"/>
<path fill-rule="evenodd" clip-rule="evenodd" d="M130.75 20.8801C130.87 20.7901 131.03 20.8001 131.1 20.9001L131.49 21.4901C131.56 21.5901 131.51 21.7501 131.39 21.8301C131.27 21.9201 131.11 21.9101 131.04 21.8101L130.65 21.2201C130.58 21.1201 130.63 20.9601 130.75 20.8801Z" fill="#707070"/>
<path fill-rule="evenodd" clip-rule="evenodd" d="M131.74 19.5601C131.88 19.5601 131.97 19.6701 131.94 19.8001L131.83 20.3001C131.8 20.4301 131.66 20.5401 131.52 20.5401C131.38 20.5401 131.29 20.4301 131.33 20.3001L131.44 19.8001C131.47 19.6701 131.61 19.5601 131.74 19.5601Z" fill="#707070"/>
<path fill-rule="evenodd" clip-rule="evenodd" d="M130.99 19.8101C131.02 19.6801 131.16 19.5701 131.29 19.5701H131.74C131.88 19.5701 131.97 19.6801 131.94 19.8101C131.91 19.9401 131.77 20.0501 131.63 20.0501H131.18C131.04 20.0501 130.95 19.9401 130.99 19.8101Z" fill="#707070"/>
<path fill-rule="evenodd" clip-rule="evenodd" d="M131.89 19.62C131.97 19.71 131.95 19.86 131.84 19.96L131.18 20.55C131.07 20.65 130.91 20.66 130.82 20.57C130.74 20.48 130.76 20.33 130.87 20.23L131.53 19.64C131.64 19.54 131.8 19.53 131.89 19.62Z" fill="#707070"/>
<path fill-rule="evenodd" clip-rule="evenodd" d="M136.4 20.8401C136.32 21.1901 135.81 21.5601 135.42 21.4001C135.22 21.3201 135.1 21.5601 135.21 21.7201C135.31 21.8801 135.21 22.0401 135.06 22.0401C134.47 22.0401 134.11 21.5001 134.26 20.8401C134.41 20.1801 135.01 19.6401 135.6 19.6401C136.19 19.6401 136.55 20.1801 136.4 20.8401ZM135.42 20.1201C135.4 20.2101 135.32 20.2801 135.24 20.2801C135.16 20.2801 135.11 20.2101 135.13 20.1201C135.15 20.0301 135.23 19.9601 135.31 19.9601C135.39 19.9601 135.44 20.0301 135.42 20.1201ZM134.74 20.6001C134.82 20.6001 134.9 20.5301 134.92 20.4401C134.94 20.3501 134.89 20.2801 134.81 20.2801C134.73 20.2801 134.65 20.3501 134.63 20.4401C134.61 20.5301 134.66 20.6001 134.74 20.6001ZM135.85 20.1201C135.83 20.2101 135.75 20.2801 135.67 20.2801C135.59 20.2801 135.54 20.2101 135.56 20.1201C135.58 20.0301 135.66 19.9601 135.74 19.9601C135.82 19.9601 135.87 20.0301 135.85 20.1201ZM136.03 20.6001C136.11 20.6001 136.19 20.5301 136.21 20.4401C136.23 20.3501 136.18 20.2801 136.1 20.2801C136.02 20.2801 135.94 20.3501 135.92 20.4401C135.9 20.5301 135.95 20.6001 136.03 20.6001Z" fill="#707070"/>
<path d="M114.12 89.0601C113.47 91.9201 110.86 94.2501 108.3 94.2501C105.74 94.2501 104.18 91.9301 104.83 89.0601C105.48 86.2001 108.09 83.8701 110.65 83.8701C113.21 83.8701 114.77 86.1901 114.12 89.0601Z" fill="#EEEFFA"/>
<path d="M108.08 88.0202C108.55 87.0202 109.69 86.4502 110.63 86.7502C111.57 87.0502 111.95 88.1102 111.49 89.1102L111 90.1602C110.53 91.1602 109.39 91.7302 108.45 91.4302C107.51 91.1302 107.13 90.0702 107.59 89.0702L108.08 88.0202Z" fill="url(#paint0_linear_458_1247)"/>
<path d="M107.89 88.4301C108.36 87.4301 109.5 86.8601 110.44 87.1601C111.38 87.4601 111.76 88.5201 111.3 89.5201L111 90.1601C110.53 91.1601 109.39 91.7301 108.45 91.4301C107.51 91.1301 107.13 90.0701 107.59 89.0701L107.89 88.4301Z" fill="white"/>
<path d="M108.08 88.0202C108.55 87.0202 109.69 86.4502 110.63 86.7502C111.57 87.0502 111.95 88.1102 111.49 89.1102L111 90.1602C110.53 91.1602 109.39 91.7302 108.45 91.4302C107.51 91.1302 107.13 90.0702 107.59 89.0702L108.08 88.0202Z" fill="url(#paint1_linear_458_1247)"/>
<path d="M113.06 87.46C112.91 88.12 112.31 88.66 111.72 88.66C111.13 88.66 110.77 88.12 110.92 87.46C111.07 86.8 111.67 86.26 112.26 86.26C112.85 86.26 113.21 86.8 113.06 87.46Z" fill="#FF0000"/>
<path d="M112.43 87.0601L112.25 87.8601H112.07L111.84 87.3301L111.72 87.8601H111.54L111.72 87.0601H111.9L112.13 87.6001L112.25 87.0601H112.43Z" fill="white"/>
<path d="M164.73 18.1301H181.19C182.02 18.1301 182.54 18.7801 182.36 19.5901L181.8 22.0701C181.62 22.8801 180.8 23.5301 179.97 23.5301H163.51C162.68 23.5301 162.16 22.8801 162.34 22.0701L162.9 19.5901C163.08 18.7801 163.9 18.1301 164.73 18.1301Z" fill="#6C79F9"/>
<path d="M164.73 18.1301H181.19C182.02 18.1301 182.54 18.7801 182.36 19.5901L181.8 22.0701C181.62 22.8801 180.8 23.5301 179.97 23.5301H163.51C162.68 23.5301 162.16 22.8801 162.34 22.0701L162.9 19.5901C163.08 18.7801 163.9 18.1301 164.73 18.1301Z" stroke="#6C79F9"/>
<path d="M154.31 64.01H169.12C169.95 64.01 170.47 64.66 170.29 65.47L169.73 67.95C169.55 68.76 168.73 69.41 167.9 69.41H153.09C152.26 69.41 151.74 68.76 151.92 67.95L152.48 65.47C152.66 64.66 153.48 64.01 154.31 64.01Z" stroke="#6C79F9"/>
<path d="M160.93 26.02H237.72L235 37.99H158.21L160.93 26.02V26.02Z" fill="#EEEFFA"/>
<path fill-rule="evenodd" clip-rule="evenodd" d="M236.51 27H161.72L159.45 37.02H234.24L236.51 27V27ZM160.94 26.02L158.22 37.99H235.01L237.73 26.02H160.94V26.02Z" fill="#DBDCEA"/>
<path d="M156.04 47.5701H232.83L231.11 55.1501H154.32L156.04 47.5701Z" fill="#F7F7F7"/>
<path fill-rule="evenodd" clip-rule="evenodd" d="M231.62 48.5401H156.83L155.55 54.1701H230.34L231.62 48.5401V48.5401ZM156.05 47.5601L154.33 55.1401H231.12L232.84 47.5601H156.05Z" fill="#E0E0E0"/>
<path d="M150.61 71.5H227.4L223.41 89.05H146.62L150.6 71.5H150.61Z" fill="#F7F7F7"/>
<path fill-rule="evenodd" clip-rule="evenodd" d="M226.18 72.48H151.39L147.85 88.08H222.64L226.18 72.48V72.48ZM150.61 71.5L146.63 89.05H223.42L227.41 71.5H150.62H150.61Z" fill="#E0E0E0"/>
<path d="M155.57 18.4399H157.25C158.27 18.4399 158.91 19.2399 158.68 20.2399C158.45 21.2299 157.45 22.0399 156.43 22.0399H154.75C153.73 22.0399 153.09 21.2399 153.32 20.2399C153.55 19.2499 154.55 18.4399 155.57 18.4399Z" fill="#6C79F9"/>
<path d="M139.54 32.1501H130.69C130.48 32.1501 130.27 32.3401 130.22 32.5701L129.64 35.1101C129.59 35.3401 129.71 35.5301 129.92 35.5301H138.77C138.98 35.5301 139.19 35.3401 139.24 35.1101L139.82 32.5701C139.87 32.3401 139.75 32.1501 139.54 32.1501Z" fill="#F9F9FF"/>
<path fill-rule="evenodd" clip-rule="evenodd" d="M130.74 31.9001H139.59C139.97 31.9001 140.14 32.2301 140.06 32.5701L139.48 35.1101C139.4 35.4401 139.08 35.7801 138.7 35.7801H129.85C129.47 35.7801 129.3 35.4501 129.38 35.1101L129.96 32.5701C130.03 32.2401 130.36 31.9001 130.73 31.9001H130.74ZM130.69 32.1401H139.54C139.75 32.1401 139.87 32.3301 139.82 32.5601L139.24 35.1001C139.19 35.3301 138.98 35.5201 138.77 35.5201H129.92C129.71 35.5201 129.59 35.3301 129.64 35.1001L130.22 32.5601C130.27 32.3301 130.48 32.1401 130.69 32.1401Z" fill="#6C79F9"/>
<path d="M138.27 34.6901C138.66 34.6901 139.06 34.3301 139.17 33.8901C139.27 33.4501 139.03 33.0901 138.64 33.0901C138.25 33.0901 137.85 33.4501 137.74 33.8901C137.64 34.3301 137.88 34.6901 138.27 34.6901Z" fill="#6C79F9"/>
<path d="M130.2 32.6401C130.26 32.3701 130.54 32.1501 130.82 32.1501L130.05 35.5401C129.77 35.5401 129.59 35.3201 129.66 35.0501L130.2 32.6501V32.6401Z" fill="#FF7E7E"/>
<path d="M137.87 39.77H129.02C128.81 39.77 128.6 39.96 128.55 40.19L127.97 42.73C127.92 42.96 128.04 43.15 128.25 43.15H137.1C137.31 43.15 137.52 42.96 137.57 42.73L138.15 40.19C138.2 39.96 138.08 39.77 137.87 39.77Z" fill="#F9F9FF"/>
<path fill-rule="evenodd" clip-rule="evenodd" d="M129.08 39.52H137.93C138.31 39.52 138.48 39.85 138.4 40.19L137.82 42.73C137.74 43.06 137.42 43.4 137.04 43.4H128.19C127.81 43.4 127.64 43.07 127.72 42.73L128.3 40.19C128.38 39.86 128.7 39.52 129.07 39.52H129.08ZM129.03 39.76H137.88C138.09 39.76 138.21 39.95 138.16 40.18L137.58 42.72C137.53 42.95 137.32 43.14 137.11 43.14H128.26C128.05 43.14 127.93 42.95 127.98 42.72L128.56 40.18C128.61 39.95 128.82 39.76 129.03 39.76Z" fill="#6C79F9"/>
<path d="M136.6 42.2999C136.99 42.2999 137.39 41.94 137.49 41.5C137.59 41.06 137.35 40.7 136.96 40.7C136.57 40.7 136.17 41.06 136.06 41.5C135.95 41.94 136.2 42.2999 136.59 42.2999H136.6Z" fill="#6C79F9"/>
<path d="M128.54 40.26C128.6 39.99 128.88 39.77 129.16 39.77L128.39 43.16C128.11 43.16 127.94 42.94 128 42.67L128.54 40.27V40.26Z" fill="#FF7E7E"/>
<path d="M136.2 47.4202H127.35C127.14 47.4202 126.93 47.6102 126.88 47.8402L126.3 50.3802C126.25 50.6102 126.37 50.8002 126.58 50.8002H135.43C135.64 50.8002 135.85 50.6102 135.9 50.3802L136.48 47.8402C136.53 47.6102 136.41 47.4202 136.2 47.4202V47.4202Z" fill="#F9F9FF"/>
<path fill-rule="evenodd" clip-rule="evenodd" d="M127.4 47.1802H136.25C136.63 47.1802 136.8 47.5102 136.72 47.8502L136.14 50.3902C136.07 50.7202 135.74 51.0602 135.37 51.0602H126.52C126.14 51.0602 125.97 50.7302 126.05 50.3902L126.63 47.8502C126.71 47.5202 127.03 47.1802 127.41 47.1802H127.4ZM127.34 47.4202H136.19C136.4 47.4202 136.52 47.6102 136.47 47.8402L135.89 50.3802C135.84 50.6102 135.63 50.8002 135.42 50.8002H126.57C126.36 50.8002 126.24 50.6102 126.29 50.3802L126.87 47.8402C126.92 47.6102 127.13 47.4202 127.34 47.4202V47.4202Z" fill="#6C79F9"/>
<path d="M134.93 49.9601C135.32 49.9601 135.72 49.6001 135.83 49.1601C135.93 48.7201 135.69 48.3601 135.3 48.3601C134.91 48.3601 134.51 48.7201 134.4 49.1601C134.3 49.6001 134.54 49.9601 134.93 49.9601Z" fill="#6C79F9"/>
<path d="M126.86 47.9102C126.92 47.6402 127.2 47.4202 127.48 47.4202L126.71 50.8102C126.43 50.8102 126.25 50.5902 126.32 50.3202L126.86 47.9202V47.9102Z" fill="#7ED2FF"/>
<path d="M127.38 56.48H118.53C118.32 56.48 118.11 56.67 118.06 56.9L117.48 59.44C117.43 59.67 117.55 59.86 117.76 59.86H126.61C126.82 59.86 127.03 59.67 127.08 59.44L127.66 56.9C127.71 56.67 127.59 56.48 127.38 56.48Z" fill="#F9F9FF"/>
<path fill-rule="evenodd" clip-rule="evenodd" d="M118.59 56.24H127.44C127.82 56.24 127.99 56.57 127.91 56.91L127.33 59.45C127.25 59.78 126.93 60.12 126.55 60.12H117.7C117.32 60.12 117.15 59.79 117.23 59.45L117.81 56.91C117.88 56.58 118.21 56.24 118.58 56.24H118.59ZM118.53 56.48H127.38C127.59 56.48 127.71 56.67 127.66 56.9L127.08 59.44C127.03 59.67 126.82 59.86 126.61 59.86H117.76C117.55 59.86 117.43 59.67 117.48 59.44L118.06 56.9C118.11 56.67 118.32 56.48 118.53 56.48Z" fill="#6C79F9"/>
<path d="M126.11 59.0202C126.51 59.0202 126.9 58.6602 127.01 58.2202C127.11 57.7802 126.87 57.4202 126.48 57.4202C126.09 57.4202 125.69 57.7802 125.59 58.2202C125.49 58.6602 125.73 59.0202 126.12 59.0202H126.11Z" fill="#6C79F9"/>
<path d="M118.05 56.98C118.11 56.71 118.39 56.49 118.67 56.49L117.9 59.88C117.62 59.88 117.44 59.66 117.51 59.39L118.05 56.99V56.98Z" fill="#7ED2FF"/>
<path d="M140.77 56.48H131.92C131.71 56.48 131.5 56.67 131.45 56.9L130.87 59.44C130.82 59.67 130.94 59.86 131.15 59.86H140C140.21 59.86 140.42 59.67 140.47 59.44L141.05 56.9C141.1 56.67 140.98 56.48 140.77 56.48Z" fill="#F9F9FF"/>
<path fill-rule="evenodd" clip-rule="evenodd" d="M131.98 56.24H140.83C141.21 56.24 141.38 56.57 141.3 56.91L140.72 59.45C140.64 59.78 140.32 60.12 139.94 60.12H131.09C130.71 60.12 130.54 59.79 130.62 59.45L131.2 56.91C131.28 56.58 131.6 56.24 131.97 56.24H131.98ZM131.93 56.48H140.78C140.99 56.48 141.11 56.67 141.06 56.9L140.48 59.44C140.43 59.67 140.22 59.86 140.01 59.86H131.16C130.95 59.86 130.83 59.67 130.88 59.44L131.46 56.9C131.51 56.67 131.72 56.48 131.93 56.48Z" fill="#6C79F9"/>
<path d="M139.5 59.0202C139.89 59.0202 140.29 58.6602 140.4 58.2202C140.5 57.7802 140.26 57.4202 139.87 57.4202C139.48 57.4202 139.08 57.7802 138.97 58.2202C138.87 58.6602 139.11 59.0202 139.5 59.0202Z" fill="#6C79F9"/>
<path d="M131.43 56.98C131.49 56.71 131.77 56.49 132.05 56.49L131.28 59.88C131 59.88 130.82 59.66 130.89 59.39L131.43 56.99V56.98Z" fill="#C87EFF"/>
<path d="M132.01 65.6101H123.16C122.95 65.6101 122.74 65.8001 122.69 66.0301L122.11 68.5701C122.06 68.8001 122.18 68.9901 122.39 68.9901H131.24C131.45 68.9901 131.66 68.8001 131.71 68.5701L132.29 66.0301C132.34 65.8001 132.22 65.6101 132.01 65.6101V65.6101Z" fill="#F9F9FF"/>
<path fill-rule="evenodd" clip-rule="evenodd" d="M123.21 65.3701H132.06C132.44 65.3701 132.61 65.7001 132.53 66.0401L131.95 68.5801C131.87 68.9101 131.55 69.2501 131.17 69.2501H122.32C121.94 69.2501 121.77 68.9201 121.85 68.5801L122.43 66.0401C122.51 65.7101 122.83 65.3701 123.21 65.3701ZM123.15 65.6101H132C132.21 65.6101 132.33 65.8001 132.28 66.0301L131.7 68.5701C131.65 68.8001 131.44 68.9901 131.23 68.9901H122.38C122.17 68.9901 122.05 68.8001 122.1 68.5701L122.68 66.0301C122.73 65.8001 122.94 65.6101 123.15 65.6101Z" fill="#6C79F9"/>
<path d="M130.74 68.15C131.13 68.15 131.53 67.79 131.64 67.35C131.74 66.91 131.5 66.55 131.11 66.55C130.72 66.55 130.32 66.91 130.21 67.35C130.11 67.79 130.35 68.15 130.74 68.15Z" fill="#6C79F9"/>
<path d="M122.67 66.1101C122.73 65.8401 123.01 65.6201 123.29 65.6201L122.52 69.0101C122.24 69.0101 122.06 68.7901 122.13 68.5201L122.67 66.1201V66.1101Z" fill="#41BC70"/>
<path d="M130.27 73.24H121.42C121.21 73.24 121 73.43 120.95 73.66L120.37 76.2C120.32 76.43 120.44 76.62 120.65 76.62H129.5C129.71 76.62 129.92 76.43 129.97 76.2L130.55 73.66C130.6 73.43 130.48 73.24 130.27 73.24V73.24Z" fill="#F9F9FF"/>
<path fill-rule="evenodd" clip-rule="evenodd" d="M121.48 72.99H130.33C130.71 72.99 130.88 73.32 130.8 73.66L130.22 76.2C130.14 76.53 129.82 76.87 129.45 76.87H120.6C120.22 76.87 120.05 76.54 120.13 76.2L120.71 73.66C120.79 73.33 121.11 72.99 121.49 72.99H121.48ZM121.42 73.23H130.27C130.48 73.23 130.6 73.42 130.55 73.65L129.97 76.19C129.92 76.42 129.71 76.61 129.5 76.61H120.65C120.44 76.61 120.32 76.42 120.37 76.19L120.95 73.65C121 73.42 121.21 73.23 121.42 73.23Z" fill="#6C79F9"/>
<path d="M129 75.7802C129.4 75.7802 129.8 75.4202 129.9 74.9802C130 74.5402 129.76 74.1802 129.37 74.1802C128.98 74.1802 128.57 74.5402 128.47 74.9802C128.37 75.4202 128.61 75.7802 129 75.7802Z" fill="#6C79F9"/>
<path d="M120.94 73.73C121 73.46 121.28 73.24 121.56 73.24L120.79 76.63C120.51 76.63 120.33 76.41 120.4 76.14L120.95 73.74L120.94 73.73Z" fill="#41BC70"/>
<path fill-rule="evenodd" clip-rule="evenodd" d="M125.05 51.88C126.27 51.04 127.52 50.74 128.3 50.72L128.25 50.96C127.52 50.98 126.33 51.26 125.17 52.06C124.01 52.86 122.86 54.18 122.21 56.28L121.97 56.26C122.64 54.1 123.83 52.72 125.06 51.88H125.05Z" fill="#6C79F9"/>
<path d="M122.06 56.4101L122.17 56.2501L122.3 56.0601H121.99L122.07 56.4101H122.06Z" fill="#6C79F9"/>
<path fill-rule="evenodd" clip-rule="evenodd" d="M121.46 63.1801C120.97 62.0301 121 60.7201 121.18 59.8701H121.43C121.26 60.6901 121.23 61.9501 121.7 63.0501C122.17 64.1501 123.13 65.0901 124.95 65.2801L124.87 65.5201C122.97 65.3201 121.95 64.3301 121.46 63.1801V63.1801Z" fill="#6C79F9"/>
<path d="M125.04 65.41L124.92 65.33L124.77 65.23L124.69 65.58L125.05 65.4L125.04 65.41Z" fill="#6C79F9"/>
<path fill-rule="evenodd" clip-rule="evenodd" d="M133.92 63.1801C134.93 62.0301 135.49 60.7201 135.7 59.8701H135.45C135.25 60.6901 134.7 61.9501 133.73 63.0501C132.76 64.1501 131.37 65.0901 129.47 65.2801L129.44 65.5201C131.43 65.3201 132.9 64.3301 133.91 63.1801H133.92Z" fill="#6C79F9"/>
<path d="M129.33 65.41L129.49 65.33L129.68 65.23L129.6 65.58L129.33 65.4V65.41Z" fill="#6C79F9"/>
<path fill-rule="evenodd" clip-rule="evenodd" d="M135.39 51.88C134.55 51.04 133.44 50.74 132.67 50.72L132.61 50.96C133.33 50.98 134.39 51.26 135.19 52.06C135.99 52.86 136.54 54.18 136.23 56.28L136.48 56.26C136.79 54.1 136.23 52.72 135.38 51.88H135.39Z" fill="#6C79F9"/>
<path d="M136.33 56.4101L136.29 56.2501L136.25 56.0601H136.57L136.33 56.4101V56.4101Z" fill="#6C79F9"/>
<path fill-rule="evenodd" clip-rule="evenodd" d="M131.59 47.1399L132.49 43.1899H132.74L131.84 47.1399H131.59Z" fill="#6C79F9"/>
<path d="M131.68 47.28L131.77 47.15L131.87 47H131.62L131.68 47.28Z" fill="#6C79F9"/>
<path fill-rule="evenodd" clip-rule="evenodd" d="M125.72 72.99L126.62 69.04H126.87L125.97 72.99H125.72Z" fill="#6C79F9"/>
<path d="M125.81 73.1301L125.9 73.0001L126 72.8501H125.75L125.81 73.1301Z" fill="#6C79F9"/>
<path fill-rule="evenodd" clip-rule="evenodd" d="M133.37 39.5501L134.27 35.6001H134.52L133.62 39.5501H133.37Z" fill="#6C79F9"/>
<path d="M133.46 39.7002L133.55 39.5702L133.65 39.4202H133.4L133.46 39.7002Z" fill="#6C79F9"/>
</g>
<defs>
<linearGradient id="paint0_linear_458_1247" x1="110.32" y1="86.6502" x2="108.76" y2="91.5302" gradientUnits="userSpaceOnUse">
<stop stop-color="#9EA7FF"/>
<stop offset="1" stop-color="#6C79F9"/>
</linearGradient>
<linearGradient id="paint1_linear_458_1247" x1="110.04" y1="87.5202" x2="108.76" y2="91.5302" gradientUnits="userSpaceOnUse">
<stop stop-color="#BCC2FF"/>
<stop offset="1" stop-color="#BCC2FF" stop-opacity="0"/>
</linearGradient>
<clipPath id="clip0_458_1247">
<rect width="267.47" height="115.02" fill="white"/>
</clipPath>
</defs>
</svg>
