<svg width="269" height="116" viewBox="0 0 269 116" fill="none" xmlns="http://www.w3.org/2000/svg">
<path d="M111.8 6.08953C112.679 2.51368 115.886 0 119.568 0L258.403 0C263.595 0 267.411 4.86879 266.172 9.91047L241.821 108.926C240.942 112.502 237.735 115.016 234.053 115.016H95.2176C90.0257 115.016 86.2092 110.147 87.4491 105.105L111.8 6.08953Z" fill="#6C79F9"/>
<path d="M259.468 3.07498C259.92 1.26772 261.544 0 263.407 0V0C266.049 0 267.987 2.48311 267.346 5.04608L240.601 111.941C240.149 113.748 238.525 115.016 236.662 115.016V115.016C234.02 115.016 232.082 112.533 232.723 109.97L259.468 3.07498Z" fill="#3B48C2"/>
<rect y="106.443" width="128.589" height="8.57262" rx="4.28631" fill="#AFB7FF"/>
<rect x="111.444" y="106.443" width="128.589" height="8.57262" rx="4.28631" fill="#3B48C2"/>
<g filter="url(#filter0_b_432_524)">
<g filter="url(#filter1_d_432_524)">
<rect width="127.156" height="91.6367" rx="10" transform="matrix(1 0 -0.221378 0.975188 119.553 10.0664)" fill="white"/>
<path opacity="0.4" d="M118.557 14.4548C119.107 12.0311 121.567 10.0664 124.053 10.0664H242.209C244.694 10.0664 246.263 12.0311 245.713 14.4548V14.4548H118.557V14.4548Z" fill="#6C79F9"/>
</g>
<path d="M234.559 39.9873H157.765L157.403 41.5831H234.197L234.559 39.9873Z" fill="#D5D5DB"/>
<path d="M201.598 43.5776H156.95L156.588 45.1734H201.235L201.598 43.5776Z" fill="#D5D5DB"/>
<path d="M230.483 57.9395H153.69L153.327 59.5352H230.121L230.483 57.9395Z" fill="#D5D5DB"/>
<path d="M126.974 21.7152L126.74 21.365C126.922 21.1806 127.051 20.9483 127.107 20.7024C127.169 20.4291 127.133 20.1712 127.003 19.9765C126.736 19.5768 126.153 19.5768 125.703 19.9765C125.486 20.1712 125.333 20.4291 125.27 20.7041C125.208 20.979 125.245 21.2352 125.375 21.4299C125.505 21.6246 125.71 21.7305 125.956 21.7305C126.177 21.7305 126.402 21.6451 126.605 21.488L126.839 21.8381C126.85 21.8552 126.868 21.8637 126.886 21.8637C126.905 21.8637 126.928 21.8552 126.946 21.8381C126.983 21.8023 126.995 21.7476 126.974 21.7152ZM125.994 21.558C125.789 21.558 125.617 21.4692 125.51 21.307C125.401 21.1447 125.37 20.9312 125.422 20.7024C125.474 20.4735 125.602 20.2583 125.784 20.0978C126.158 19.7647 126.644 19.7647 126.867 20.0978C126.975 20.26 127.006 20.4735 126.954 20.7024C126.909 20.9022 126.802 21.0883 126.656 21.2404C126.634 21.2626 126.615 21.2865 126.592 21.307C126.569 21.3275 126.544 21.3428 126.52 21.3616C126.357 21.488 126.173 21.558 125.994 21.558Z" fill="#707070"/>
<path d="M126.435 20.7271H125.976" stroke="#707070" stroke-width="0.5" stroke-linecap="round"/>
<path d="M122.776 21.6707L122.54 21.3172C122.936 20.9141 123.059 20.3112 122.806 19.9321C122.538 19.5324 121.956 19.5324 121.506 19.9321C121.057 20.3317 120.909 20.9824 121.176 21.3838C121.305 21.5768 121.512 21.6844 121.758 21.6844C121.978 21.6844 122.204 21.599 122.406 21.4419L122.64 21.792C122.652 21.8091 122.67 21.8176 122.688 21.8176C122.706 21.8176 122.73 21.8091 122.747 21.792C122.787 21.7578 122.799 21.7049 122.776 21.6707ZM121.798 21.5136C121.593 21.5136 121.421 21.4248 121.314 21.2625C121.091 20.9295 121.215 20.3864 121.588 20.0533C121.776 19.8859 121.991 19.804 122.186 19.804C122.382 19.804 122.559 19.8877 122.671 20.0533C122.88 20.3659 122.781 20.8612 122.46 21.1959C122.439 21.2181 122.419 21.242 122.396 21.2625C122.373 21.283 122.349 21.2984 122.324 21.3172C122.16 21.4436 121.977 21.5136 121.798 21.5136Z" fill="#707070"/>
<path d="M122.257 20.597H122.104L122.143 20.4262C122.154 20.3784 122.129 20.3408 122.086 20.3408C122.043 20.3408 122.001 20.3784 121.99 20.4262L121.951 20.597H121.798C121.755 20.597 121.713 20.6346 121.702 20.6824C121.692 20.7302 121.717 20.7678 121.759 20.7678H121.912L121.874 20.9386C121.863 20.9864 121.888 21.024 121.931 21.024C121.973 21.024 122.016 20.9864 122.027 20.9386L122.065 20.7678H122.218C122.261 20.7678 122.303 20.7302 122.314 20.6824C122.325 20.6346 122.3 20.597 122.257 20.597Z" fill="#707070"/>
<path d="M130.486 19.8066H130.262H130.037" stroke="#707070" stroke-width="0.5" stroke-linecap="round"/>
<path d="M129.923 20.3083L129.98 20.0575L130.037 19.8066" stroke="#707070" stroke-width="0.5" stroke-linecap="round"/>
<path d="M130.428 20.3919L130.238 20.1076L130.037 19.8066" stroke="#707070" stroke-width="0.5" stroke-linecap="round"/>
<path d="M129.734 21.144L129.677 21.3949L129.62 21.6457" stroke="#707070" stroke-width="0.5" stroke-linecap="round"/>
<path d="M130.069 21.646H129.844H129.62" stroke="#707070" stroke-width="0.5" stroke-linecap="round"/>
<path d="M130.277 21.0605L129.939 21.3615L129.62 21.6458" stroke="#707070" stroke-width="0.5" stroke-linecap="round"/>
<path d="M130.817 21.646H131.042H131.266" stroke="#707070" stroke-width="0.5" stroke-linecap="round"/>
<path d="M131.38 21.144L131.323 21.3949L131.266 21.6457" stroke="#707070" stroke-width="0.5" stroke-linecap="round"/>
<path d="M130.875 21.0605L131.076 21.3615L131.266 21.6458" stroke="#707070" stroke-width="0.5" stroke-linecap="round"/>
<path d="M131.57 20.3083L131.627 20.0575L131.684 19.8066" stroke="#707070" stroke-width="0.5" stroke-linecap="round"/>
<path d="M131.235 19.8066H131.46H131.684" stroke="#707070" stroke-width="0.5" stroke-linecap="round"/>
<path d="M131.027 20.3919L131.365 20.0909L131.684 19.8066" stroke="#707070" stroke-width="0.5" stroke-linecap="round"/>
<path fill-rule="evenodd" clip-rule="evenodd" d="M136.396 20.8375C136.317 21.1842 135.804 21.5555 135.412 21.396C135.216 21.3162 135.09 21.5555 135.201 21.7151C135.303 21.8747 135.199 22.0343 135.053 22.0343C134.461 22.0343 134.103 21.4984 134.253 20.8375C134.403 20.1765 135.004 19.6406 135.596 19.6406C136.188 19.6406 136.546 20.1765 136.396 20.8375ZM135.416 20.1193C135.396 20.2075 135.316 20.2789 135.237 20.2789C135.158 20.2789 135.11 20.2075 135.131 20.1193C135.151 20.0312 135.231 19.9597 135.31 19.9597C135.389 19.9597 135.436 20.0312 135.416 20.1193ZM134.736 20.598C134.815 20.598 134.895 20.5266 134.915 20.4384C134.935 20.3503 134.887 20.2789 134.809 20.2789C134.73 20.2789 134.649 20.3503 134.629 20.4384C134.609 20.5266 134.657 20.598 134.736 20.598ZM135.845 20.1193C135.825 20.2075 135.744 20.2789 135.665 20.2789C135.587 20.2789 135.539 20.2075 135.559 20.1193C135.579 20.0312 135.659 19.9597 135.738 19.9597C135.817 19.9597 135.865 20.0312 135.845 20.1193ZM136.022 20.598C136.101 20.598 136.181 20.5266 136.201 20.4384C136.221 20.3503 136.173 20.2789 136.094 20.2789C136.015 20.2789 135.935 20.3503 135.915 20.4384C135.895 20.5266 135.943 20.598 136.022 20.598Z" fill="#707070"/>
<g filter="url(#filter2_d_432_524)">
<ellipse rx="4.64334" ry="5.3182" transform="matrix(1 0 -0.221378 0.975188 109.48 89.0578)" fill="#EEEFFA"/>
<rect width="3.82567" height="4.93035" rx="1.91283" transform="matrix(0.891044 0.286108 -0.443354 0.949549 108.929 86.2051)" fill="url(#paint0_linear_432_524)"/>
<g filter="url(#filter3_i_432_524)">
<mask id="mask0_432_524" style="mask-type:alpha" maskUnits="userSpaceOnUse" x="107" y="90" width="4" height="2">
<path d="M107.498 90.4961C107.569 90.344 107.742 90.2579 107.885 90.3037L110.537 91.1554L110.28 91.7062L107.628 90.8545C107.485 90.8086 107.427 90.6482 107.498 90.4961V90.4961Z" fill="white"/>
</mask>
<g mask="url(#mask0_432_524)">
<rect width="3.82567" height="4.49532" rx="1.91283" transform="matrix(0.891044 0.286108 -0.443354 0.949549 108.736 86.6182)" fill="white"/>
</g>
</g>
<mask id="mask1_432_524" style="mask-type:alpha" maskUnits="userSpaceOnUse" x="106" y="86" width="4" height="6">
<rect width="0.558805" height="4.93035" transform="matrix(0.891044 0.286108 -0.443354 0.949549 108.928 86.2051)" fill="url(#paint1_linear_432_524)"/>
</mask>
<g mask="url(#mask1_432_524)">
<rect width="3.82567" height="4.93035" rx="1.91283" transform="matrix(0.891044 0.286108 -0.443354 0.949549 108.928 86.2051)" fill="url(#paint2_linear_432_524)"/>
</g>
</g>
<ellipse rx="1.07154" ry="1.22728" transform="matrix(1 0 -0.221378 0.975188 111.985 87.461)" fill="#FF0000"/>
<path d="M112.433 87.0625L112.252 87.8604H112.071L111.84 87.3255L111.718 87.8604H111.538L111.719 87.0625H111.9L112.131 87.5979L112.253 87.0625H112.433Z" fill="white"/>
<rect x="0.389311" y="0.487594" width="19.4637" height="5.54548" rx="1.5" transform="matrix(1 0 -0.221378 0.975188 162.946 17.6586)" fill="#6C79F9"/>
<rect x="0.389311" y="0.487594" width="19.4637" height="5.54548" rx="1.5" transform="matrix(1 0 -0.221378 0.975188 162.946 17.6586)" stroke="#6C79F9"/>
<rect x="0.389311" y="0.487594" width="17.8121" height="5.54548" rx="1.5" transform="matrix(1 0 -0.221378 0.975188 152.53 63.5365)" stroke="#6C79F9"/>
<rect x="0.389311" y="0.487594" width="75.7936" height="11.2728" transform="matrix(1 0 -0.221378 0.975188 161.043 26.0365)" fill="#EEEFFA" stroke="#DBDCEA"/>
<rect x="0.389311" y="0.487594" width="75.7936" height="6.77276" transform="matrix(1 0 -0.221378 0.975188 156.153 47.579)" fill="#F7F7F7" stroke="#E0E0E0"/>
<rect x="0.389311" y="0.487594" width="75.7936" height="17.0001" transform="matrix(1 0 -0.221378 0.975188 150.719 71.5155)" fill="#F7F7F7" stroke="#E0E0E0"/>
<rect width="5.3577" height="3.68183" rx="1.84092" transform="matrix(1 0 -0.221378 0.975188 153.727 18.4443)" fill="#6C79F9"/>
<path d="M139.567 32.0256H130.716C130.423 32.0256 130.157 32.2873 130.093 32.5707L129.516 35.11C129.452 35.3934 129.599 35.6551 129.892 35.6551H138.743C139.035 35.6551 139.301 35.3934 139.366 35.11L139.942 32.5707C140.006 32.2873 139.859 32.0256 139.567 32.0256Z" fill="#F9F9FF" stroke="#6C79F9" stroke-width="0.25"/>
<path d="M138.269 34.6848C138.663 34.6848 139.064 34.3278 139.164 33.8873C139.264 33.4469 139.025 33.0898 138.631 33.0898C138.237 33.0898 137.836 33.4469 137.736 33.8873C137.636 34.3278 137.875 34.6848 138.269 34.6848Z" fill="#6C79F9"/>
<path d="M130.202 32.6401C130.264 32.368 130.54 32.1475 130.819 32.1475V32.1475L130.051 35.5332V35.5332C129.772 35.5332 129.595 35.3126 129.657 35.0405L130.202 32.6401Z" fill="#FF7E7E"/>
<path d="M137.901 39.6432H129.05C128.757 39.6432 128.491 39.9049 128.427 40.1884L127.851 42.7277C127.786 43.0111 127.933 43.2728 128.226 43.2728H137.077C137.369 43.2728 137.635 43.0111 137.7 42.7277L138.276 40.1884C138.341 39.9049 138.193 39.6432 137.901 39.6432Z" fill="#F9F9FF" stroke="#6C79F9" stroke-width="0.25"/>
<path d="M136.604 42.303C136.998 42.303 137.399 41.9459 137.499 41.5055C137.599 41.0651 137.36 40.708 136.966 40.708C136.572 40.708 136.171 41.0651 136.071 41.5055C135.971 41.9459 136.21 42.303 136.604 42.303Z" fill="#6C79F9"/>
<path d="M128.536 40.2578C128.598 39.9857 128.874 39.7651 129.153 39.7651V39.7651L128.385 43.1509V43.1509C128.106 43.1509 127.93 42.9303 127.991 42.6582L128.536 40.2578Z" fill="#FF7E7E"/>
<path d="M136.226 47.299H127.375C127.083 47.299 126.817 47.5607 126.752 47.8441L126.176 50.3834C126.112 50.6668 126.259 50.9285 126.551 50.9285H135.402C135.695 50.9285 135.961 50.6668 136.025 50.3834L136.602 47.8441C136.666 47.5607 136.519 47.299 136.226 47.299Z" fill="#F9F9FF" stroke="#6C79F9" stroke-width="0.25"/>
<path d="M134.929 49.9583C135.323 49.9583 135.724 49.6012 135.824 49.1608C135.924 48.7203 135.685 48.3633 135.291 48.3633C134.897 48.3633 134.496 48.7203 134.396 49.1608C134.296 49.6012 134.535 49.9583 134.929 49.9583Z" fill="#6C79F9"/>
<path d="M126.862 47.9136C126.923 47.6415 127.2 47.4209 127.479 47.4209V47.4209L126.71 50.8067V50.8067C126.431 50.8067 126.255 50.5861 126.317 50.314L126.862 47.9136Z" fill="#7ED2FF"/>
<path d="M127.412 56.3605H118.561C118.268 56.3605 118.002 56.6222 117.938 56.9056L117.361 59.445C117.297 59.7284 117.444 59.9901 117.737 59.9901H126.588C126.88 59.9901 127.146 59.7284 127.211 59.445L127.787 56.9056C127.851 56.6222 127.704 56.3605 127.412 56.3605Z" fill="#F9F9FF" stroke="#6C79F9" stroke-width="0.25"/>
<path d="M126.114 59.0198C126.509 59.0198 126.909 58.6627 127.009 58.2223C127.109 57.7819 126.871 57.4248 126.476 57.4248C126.082 57.4248 125.681 57.7819 125.581 58.2223C125.481 58.6627 125.72 59.0198 126.114 59.0198Z" fill="#6C79F9"/>
<path d="M118.047 56.9751C118.109 56.703 118.385 56.4824 118.664 56.4824V56.4824L117.896 59.8682V59.8682C117.617 59.8682 117.44 59.6476 117.502 59.3755L118.047 56.9751Z" fill="#7ED2FF"/>
<path d="M140.8 56.3605H131.949C131.656 56.3605 131.39 56.6222 131.326 56.9056L130.75 59.445C130.685 59.7284 130.832 59.9901 131.125 59.9901H139.976C140.268 59.9901 140.534 59.7284 140.599 59.445L141.175 56.9056C141.24 56.6222 141.092 56.3605 140.8 56.3605Z" fill="#F9F9FF" stroke="#6C79F9" stroke-width="0.25"/>
<path d="M139.502 59.0198C139.897 59.0198 140.297 58.6627 140.397 58.2223C140.497 57.7819 140.259 57.4248 139.864 57.4248C139.47 57.4248 139.069 57.7819 138.969 58.2223C138.869 58.6627 139.108 59.0198 139.502 59.0198Z" fill="#6C79F9"/>
<path d="M131.435 56.9751C131.497 56.703 131.773 56.4824 132.052 56.4824V56.4824L131.284 59.8682V59.8682C131.005 59.8682 130.829 59.6476 130.89 59.3755L131.435 56.9751Z" fill="#C87EFF"/>
<path d="M132.033 65.4928H123.182C122.889 65.4928 122.623 65.7546 122.559 66.038L121.983 68.5773C121.918 68.8607 122.065 69.1224 122.358 69.1224H131.209C131.501 69.1224 131.767 68.8607 131.832 68.5773L132.408 66.038C132.473 65.7546 132.325 65.4928 132.033 65.4928Z" fill="#F9F9FF" stroke="#6C79F9" stroke-width="0.25"/>
<path d="M130.735 68.1521C131.129 68.1521 131.53 67.7951 131.63 67.3546C131.73 66.9142 131.492 66.5571 131.097 66.5571C130.703 66.5571 130.302 66.9142 130.202 67.3546C130.102 67.7951 130.341 68.1521 130.735 68.1521Z" fill="#6C79F9"/>
<path d="M122.668 66.1074C122.73 65.8353 123.006 65.6147 123.285 65.6147V65.6147L122.517 69.0005V69.0005C122.238 69.0005 122.062 68.7799 122.123 68.5078L122.668 66.1074Z" fill="#41BC70"/>
<path d="M130.302 73.1154H121.451C121.159 73.1154 120.893 73.3771 120.828 73.6605L120.252 76.1998C120.188 76.4832 120.335 76.745 120.627 76.745H129.478C129.771 76.745 130.037 76.4832 130.101 76.1998L130.678 73.6605C130.742 73.3771 130.595 73.1154 130.302 73.1154Z" fill="#F9F9FF" stroke="#6C79F9" stroke-width="0.25"/>
<path d="M129.004 75.7751C129.399 75.7751 129.8 75.4181 129.9 74.9777C130 74.5372 129.761 74.1802 129.367 74.1802C128.972 74.1802 128.572 74.5372 128.472 74.9777C128.372 75.4181 128.61 75.7751 129.004 75.7751Z" fill="#6C79F9"/>
<path d="M120.938 73.73C120.999 73.4579 121.276 73.2373 121.555 73.2373V73.2373L120.786 76.6231V76.6231C120.507 76.6231 120.331 76.4025 120.393 76.1304L120.938 73.73Z" fill="#41BC70"/>
<path d="M128.281 50.8398C126.768 50.8751 123.411 52.0107 122.09 56.2712" stroke="#6C79F9" stroke-width="0.25"/>
<path d="M122.058 56.4123L122.166 56.2519L122.295 56.0596H121.98L122.058 56.4123Z" fill="#6C79F9"/>
<path d="M121.305 59.8686C120.955 61.5498 121.186 65.0108 124.911 65.4058" stroke="#6C79F9" stroke-width="0.25"/>
<path d="M125.037 65.4057L124.912 65.3255L124.762 65.2293L124.681 65.582L125.037 65.4057Z" fill="#6C79F9"/>
<path d="M135.578 59.8686C135.164 61.5498 133.362 65.0108 129.458 65.4058" stroke="#6C79F9" stroke-width="0.25"/>
<path d="M129.332 65.4057L129.494 65.3255L129.688 65.2293L129.607 65.582L129.332 65.4057Z" fill="#6C79F9"/>
<path d="M132.639 50.8398C134.136 50.8751 136.977 52.0107 136.363 56.2712" stroke="#6C79F9" stroke-width="0.25"/>
<path d="M136.332 56.4123L136.296 56.2519L136.254 56.0596L136.569 56.0596L136.332 56.4123Z" fill="#6C79F9"/>
<path d="M132.607 43.189L131.71 47.139" stroke="#6C79F9" stroke-width="0.25"/>
<path d="M131.678 47.2802L131.764 47.1519L131.868 46.998H131.616L131.678 47.2802Z" fill="#6C79F9"/>
<path d="M126.739 69.0381L125.842 72.9881" stroke="#6C79F9" stroke-width="0.25"/>
<path d="M125.81 73.1293L125.897 73.001L126 72.8472H125.748L125.81 73.1293Z" fill="#6C79F9"/>
<path d="M134.393 35.604L133.496 39.554" stroke="#6C79F9" stroke-width="0.25"/>
<path d="M133.464 39.6952L133.55 39.5669L133.654 39.4131H133.401L133.464 39.6952Z" fill="#6C79F9"/>
</g>
<defs>
<filter id="filter0_b_432_524" x="81.2359" y="-9.93359" width="184.587" height="129.363" filterUnits="userSpaceOnUse" color-interpolation-filters="sRGB">
<feFlood flood-opacity="0" result="BackgroundImageFix"/>
<feGaussianBlur in="BackgroundImage" stdDeviation="10"/>
<feComposite in2="SourceAlpha" operator="in" result="effect1_backgroundBlur_432_524"/>
<feBlend mode="normal" in="SourceGraphic" in2="effect1_backgroundBlur_432_524" result="shape"/>
</filter>
<filter id="filter1_d_432_524" x="96.2359" y="5.06641" width="164.587" height="109.363" filterUnits="userSpaceOnUse" color-interpolation-filters="sRGB">
<feFlood flood-opacity="0" result="BackgroundImageFix"/>
<feColorMatrix in="SourceAlpha" type="matrix" values="0 0 0 0 0 0 0 0 0 0 0 0 0 0 0 0 0 0 127 0" result="hardAlpha"/>
<feOffset dx="5" dy="5"/>
<feGaussianBlur stdDeviation="5"/>
<feColorMatrix type="matrix" values="0 0 0 0 0 0 0 0 0 0 0 0 0 0 0 0 0 0 0.102 0"/>
<feBlend mode="normal" in2="BackgroundImageFix" result="effect1_dropShadow_432_524"/>
<feBlend mode="normal" in="SourceGraphic" in2="effect1_dropShadow_432_524" result="shape"/>
</filter>
<filter id="filter2_d_432_524" x="104.689" y="83.8716" width="13.5828" height="14.3726" filterUnits="userSpaceOnUse" color-interpolation-filters="sRGB">
<feFlood flood-opacity="0" result="BackgroundImageFix"/>
<feColorMatrix in="SourceAlpha" type="matrix" values="0 0 0 0 0 0 0 0 0 0 0 0 0 0 0 0 0 0 127 0" result="hardAlpha"/>
<feOffset dx="2" dy="2"/>
<feGaussianBlur stdDeviation="1"/>
<feComposite in2="hardAlpha" operator="out"/>
<feColorMatrix type="matrix" values="0 0 0 0 0 0 0 0 0 0 0 0 0 0 0 0 0 0 0.1 0"/>
<feBlend mode="normal" in2="BackgroundImageFix" result="effect1_dropShadow_432_524"/>
<feBlend mode="normal" in="SourceGraphic" in2="effect1_dropShadow_432_524" result="shape"/>
</filter>
<filter id="filter3_i_432_524" x="107.468" y="90.2915" width="3.06978" height="5.22363" filterUnits="userSpaceOnUse" color-interpolation-filters="sRGB">
<feFlood flood-opacity="0" result="BackgroundImageFix"/>
<feBlend mode="normal" in="SourceGraphic" in2="BackgroundImageFix" result="shape"/>
<feColorMatrix in="SourceAlpha" type="matrix" values="0 0 0 0 0 0 0 0 0 0 0 0 0 0 0 0 0 0 127 0" result="hardAlpha"/>
<feOffset dy="4"/>
<feGaussianBlur stdDeviation="2"/>
<feComposite in2="hardAlpha" operator="arithmetic" k2="-1" k3="1"/>
<feColorMatrix type="matrix" values="0 0 0 0 0.467083 0 0 0 0 0.491854 0 0 0 0 0.7375 0 0 0 0.4 0"/>
<feBlend mode="normal" in2="shape" result="effect1_innerShadow_432_524"/>
</filter>
<linearGradient id="paint0_linear_432_524" x1="1.91283" y1="0" x2="1.91283" y2="4.93035" gradientUnits="userSpaceOnUse">
<stop stop-color="#9EA7FF"/>
<stop offset="1" stop-color="#6C79F9"/>
</linearGradient>
<linearGradient id="paint1_linear_432_524" x1="0.279403" y1="0.879189" x2="0.279403" y2="4.93035" gradientUnits="userSpaceOnUse">
<stop stop-color="#BCC2FF"/>
<stop offset="1" stop-color="#BCC2FF" stop-opacity="0"/>
</linearGradient>
<linearGradient id="paint2_linear_432_524" x1="1.91283" y1="0.879189" x2="1.91283" y2="4.93035" gradientUnits="userSpaceOnUse">
<stop stop-color="#BCC2FF"/>
<stop offset="1" stop-color="#BCC2FF" stop-opacity="0"/>
</linearGradient>
</defs>
</svg>
