<svg width="25" height="30" viewBox="0 0 25 30" fill="none" xmlns="http://www.w3.org/2000/svg">
<path d="M14.4035 15.8498C13.9064 15.8568 14.4975 16.106 15.1465 16.2059C15.3154 16.074 15.4779 15.9341 15.6333 15.7865C15.2292 15.8855 14.8179 15.8878 14.4035 15.8499V15.8498ZM17.0715 15.1848C17.3676 14.7763 17.5833 14.329 17.6594 13.8664C17.593 14.1962 17.414 14.4808 17.2455 14.7812C16.3164 15.3663 17.1582 14.4338 17.245 14.0794C16.2458 15.337 17.1077 14.8336 17.0715 15.1849V15.1848ZM18.0563 12.6221C18.1164 11.727 17.8802 12.01 17.8007 12.3517C17.8935 12.3997 17.9667 12.9826 18.0563 12.6222V12.6221ZM12.5186 0.386963C12.7838 0.434581 13.0917 0.471029 13.0485 0.534362C13.3388 0.470745 13.4046 0.412145 12.5186 0.386963V0.386963ZM13.0485 0.534362L12.8611 0.573176L13.0355 0.55765L13.0485 0.534362Z" fill="#A80030"/>
<path d="M21.3208 12.9617C21.3503 13.7656 21.0857 14.1556 20.8469 14.846L20.4173 15.0607C20.0657 15.7434 20.4514 15.4942 20.1996 16.0372C19.6508 16.5252 18.534 17.5643 18.1767 17.6591C17.9158 17.6532 18.3534 17.3512 18.4107 17.2328C17.676 17.7374 17.8212 17.9902 16.6975 18.2967L16.6646 18.2237C13.8933 19.5274 10.0438 16.9438 10.0944 13.4183C10.0648 13.6421 10.0103 13.5863 9.94893 13.6768C9.80589 11.8629 10.7866 10.041 12.4405 9.29722C14.0582 8.49633 15.9548 8.82502 17.1135 9.905C16.477 9.07115 15.21 8.18733 13.7085 8.27007C12.2377 8.29326 10.8618 9.22812 10.4026 10.2427C9.64902 10.7172 9.56164 12.0715 9.23324 12.3193C8.79151 15.5661 10.0642 16.9689 12.2172 18.619C12.5561 18.8475 12.3127 18.8821 12.3586 19.056C11.6432 18.721 10.9882 18.2154 10.4496 17.5963C10.7353 18.0146 11.0438 18.4212 11.4424 18.7407C10.768 18.5122 9.86704 17.1063 9.60396 17.0492C10.7666 19.1307 14.321 20.6998 16.1821 19.9214C15.321 19.9531 14.2269 19.939 13.2593 19.5814C12.8529 19.3722 12.3003 18.939 12.399 18.858C14.9389 19.8069 17.5627 19.5766 19.7606 17.8147C20.3197 17.3794 20.9305 16.6386 21.107 16.6284C20.8411 17.028 21.1524 16.8205 20.9482 17.1737C21.5053 16.2752 20.7061 16.8079 21.5241 15.622L21.8261 16.038C21.7139 15.2922 22.7523 14.3866 22.6469 13.207C22.8851 12.8463 22.9128 13.5952 22.6599 14.425C23.0107 13.5044 22.7523 13.3564 22.8425 12.5968C22.9399 12.8521 23.0677 13.1235 23.1332 13.393C22.9047 12.5033 23.3678 11.8947 23.4824 11.3777C23.3694 11.3277 23.1296 11.7711 23.0748 10.7202C23.0829 10.2637 23.2019 10.4809 23.2478 10.3686C23.1581 10.3171 22.9231 9.96719 22.78 9.29599C22.8837 9.13837 23.0571 9.70496 23.1983 9.72816C23.1075 9.19451 22.9512 8.78762 22.9448 8.37818C22.5327 7.51679 22.7991 8.49301 22.4646 8.00841C22.0259 6.63988 22.8287 7.69079 22.8829 7.06891C23.5479 8.03245 23.9271 9.52566 24.1011 10.1442C23.9684 9.39009 23.7537 8.65954 23.4917 7.95274C23.6937 8.03766 23.1665 6.40112 23.7543 7.48508C23.1263 5.1746 21.0668 3.01577 19.1722 2.00282C19.4041 2.21488 19.6967 2.48137 19.5916 2.52312C18.6494 1.96211 18.8151 1.91838 18.6801 1.68133C17.9125 1.36901 17.8622 1.70651 17.3536 1.68189C15.9069 0.91451 15.6281 0.996114 14.2967 0.515387L14.3573 0.798446C13.3988 0.479129 13.2405 0.919527 12.2045 0.799392C12.1415 0.750165 12.5365 0.621321 12.8615 0.574081C11.9348 0.696204 11.9782 0.391371 11.0714 0.607783C11.2949 0.450917 11.5312 0.347161 11.7697 0.213867C11.014 0.259781 9.9655 0.653697 10.2891 0.295472C9.05649 0.845401 6.86728 1.61742 5.63877 2.76935L5.59995 2.51119C5.03715 3.18712 3.1452 4.52952 2.99448 5.40474L2.84396 5.43986C2.55106 5.93592 2.36153 6.49797 2.12921 7.00833C1.74609 7.66116 1.56764 7.25958 1.62217 7.36191C0.868606 8.88968 0.494286 10.1736 0.170898 11.2264C0.401416 11.5708 0.176484 13.2996 0.263674 14.6834C-0.114811 21.5172 5.05977 28.1524 10.716 29.6844C11.545 29.9809 12.7779 29.9695 13.8267 30C12.5893 29.6461 12.4293 29.8125 11.2242 29.3922C10.3547 28.9828 10.1641 28.5153 9.54839 27.9809L9.79207 28.4117C8.58428 27.9842 9.08963 27.8827 8.10716 27.5715L8.36749 27.2315C7.97604 27.2019 7.33059 26.5717 7.15413 26.2229L6.72594 26.2398C6.21142 25.6049 5.93726 25.1473 5.95723 24.7931L5.81883 25.0395C5.66196 24.7703 3.92593 22.6586 4.8266 23.1502C4.65923 22.9972 4.43685 22.9012 4.19564 22.463L4.37901 22.2533C3.94552 21.6957 3.58124 20.9808 3.60888 20.7427C3.84016 21.055 4.00062 21.1133 4.15938 21.1668C3.06473 18.4507 3.00338 21.0171 2.17428 18.4021L2.3497 18.388C2.21527 18.1855 2.13366 17.9656 2.02546 17.7499L2.10185 16.989C1.31374 16.0779 1.88128 13.1146 1.99507 11.4895C2.07383 10.8287 2.65282 10.1251 3.09322 9.02193L2.82493 8.97573C3.33775 8.08111 5.75331 5.38287 6.87201 5.52175C7.4139 4.84108 6.76438 5.51928 6.65844 5.34774C7.84871 4.11592 8.22303 4.47746 9.02639 4.25593C9.8927 3.74169 8.28277 4.45644 8.69353 4.05978C10.1912 3.67722 9.75496 3.19006 11.7087 2.99589C11.9149 3.11319 11.2306 3.17709 11.0587 3.32922C12.3066 2.7187 15.0075 2.85758 16.7619 3.66813C18.7977 4.61946 21.0848 7.43159 21.175 10.0776L21.2776 10.1052C21.2256 11.157 21.4386 12.3733 21.0696 13.4906L21.3208 12.9617" fill="#A80030"/>
<path d="M8.97765 16.5324L8.90798 16.8809C9.23458 17.3246 9.49388 17.8054 9.91099 18.1523C9.61089 17.5663 9.38795 17.3244 8.97765 16.5324ZM9.75005 16.502C9.57709 16.3107 9.47476 16.0807 9.3603 15.8513C9.46983 16.2543 9.6941 16.6007 9.90304 16.9529L9.75005 16.502ZM23.4165 13.5315L23.3435 13.7146C23.2097 14.6657 22.9205 15.6068 22.4773 16.4792C22.967 15.5586 23.2838 14.5518 23.4165 13.5315ZM12.6167 0.14863C12.9528 0.0254659 13.443 0.0810363 13.7996 0C13.3348 0.0390035 12.8723 0.0621973 12.4155 0.121176L12.6167 0.14863ZM0.817127 6.42298C0.89466 7.14 0.277705 7.41832 0.953828 6.94555C1.31622 6.12922 0.812204 6.72014 0.817127 6.42298ZM0.0226679 9.7414C0.178398 9.26342 0.206609 8.97629 0.266155 8.69966C-0.164303 9.24988 0.0681088 9.36708 0.0226679 9.7414Z" fill="#A80030"/>
</svg>
