<svg width="40" height="40" viewBox="0 0 40 40" fill="none" xmlns="http://www.w3.org/2000/svg">
<circle cx="20" cy="20" r="20" fill="#6C79F9"/>
<path d="M19.6875 24.6487C17.2831 24.6487 14.8688 24.0319 13.7281 22.7006C13.6944 22.8487 13.6719 23.0006 13.6719 23.1619V25.585C13.6719 27.7319 16.7894 28.7088 19.6875 28.7088C22.5856 28.7088 25.7031 27.7319 25.7031 25.585V23.1619C25.7031 23.0006 25.6806 22.8494 25.6469 22.7012C24.5056 24.0325 22.0919 24.65 19.6869 24.65L19.6875 24.6487ZM19.6875 19.9644C17.2831 19.9644 14.8688 19.3475 13.7288 18.0162C13.6927 18.167 13.6738 18.3213 13.6725 18.4762V20.8994C13.6725 23.0456 16.7894 24.0225 19.6875 24.0225C22.5856 24.0225 25.7031 23.0456 25.7031 20.8987V18.475C25.7031 18.3144 25.6806 18.1625 25.6469 18.0144C24.5056 19.3456 22.0919 19.9631 19.6869 19.9631L19.6875 19.9644ZM19.6875 10.6662C16.7894 10.6662 13.6719 11.6444 13.6719 13.7912V16.2144C13.6719 18.3612 16.7894 19.3381 19.6875 19.3381C22.5856 19.3381 25.7031 18.3619 25.7031 16.215V13.7919C25.7031 11.645 22.5856 10.6669 19.6875 10.6669V10.6662ZM19.6875 15.6662C17.0562 15.6662 14.9219 14.8269 14.9219 13.7912C14.9219 12.7562 17.0556 11.9162 19.6875 11.9162C22.3194 11.9162 24.4531 12.7562 24.4531 13.7912C24.4531 14.8275 22.3194 15.6662 19.6875 15.6662Z" fill="white"/>
</svg>
