<svg width="40" height="40" viewBox="0 0 40 40" fill="none" xmlns="http://www.w3.org/2000/svg">
<circle cx="20" cy="20" r="20" fill="#6C79F9"/>
<path d="M27.0905 19.3498V21.2848C27.0905 21.8653 26.7035 22.2523 26.123 22.2523H14.513C13.9325 22.2523 13.5455 21.8653 13.5455 21.2848V19.3498C13.5455 18.7693 13.9325 18.3823 14.513 18.3823H26.123C26.7035 18.3823 27.0905 18.7693 27.0905 19.3498Z" fill="white"/>
<path d="M21.2852 27.0898L19.3502 27.0898C18.7697 27.0898 18.3827 26.7028 18.3827 26.1223L18.3827 14.5123C18.3827 13.9318 18.7697 13.5448 19.3502 13.5448L21.2852 13.5448C21.8657 13.5448 22.2527 13.9318 22.2527 14.5123L22.2527 26.1223C22.2527 26.7028 21.8657 27.0898 21.2852 27.0898Z" fill="white"/>
</svg>
