<svg width="276" height="167" viewBox="0 0 276 167" fill="none" xmlns="http://www.w3.org/2000/svg">
<path d="M118.799 57.0895C119.679 53.5136 122.886 51 126.568 51L265.403 51C270.595 51 274.411 55.8688 273.171 60.9104L248.821 159.926C247.942 163.502 244.735 166.016 241.052 166.016H102.217C97.0256 166.016 93.2091 161.147 94.4489 156.105L118.799 57.0895Z" fill="#6C79F9"/>
<path d="M266.468 54.0749C266.92 52.2677 268.544 51 270.407 51V51C273.049 51 274.988 53.4831 274.346 56.0461L247.602 162.941C247.15 164.748 245.526 166.016 243.663 166.016V166.016C241.021 166.016 239.082 163.533 239.723 160.97L266.468 54.0749Z" fill="#3B48C2"/>
<rect x="7" y="157.443" width="128.589" height="8.57262" rx="4.28631" fill="#AFB7FF"/>
<rect x="118.444" y="157.443" width="128.589" height="8.57262" rx="4.28631" fill="#3B48C2"/>
<g filter="url(#filter0_b_291_390)">
<g filter="url(#filter1_d_291_390)">
<rect width="127.156" height="91.6367" rx="10" transform="matrix(1 0 -0.221378 0.975188 126.553 61.0663)" fill="white"/>
<path opacity="0.4" d="M125.557 65.4546C126.107 63.031 128.567 61.0663 131.053 61.0663H249.209C251.694 61.0663 253.263 63.031 252.712 65.4546V65.4546H125.557V65.4546Z" fill="#6C79F9"/>
</g>
<path d="M241.559 90.9871H164.765L164.403 92.5829H241.197L241.559 90.9871Z" fill="#D5D5DB"/>
<path d="M208.598 94.5774H163.95L163.588 96.1732H208.235L208.598 94.5774Z" fill="#D5D5DB"/>
<path d="M237.483 108.939H160.689L160.327 110.535H237.121L237.483 108.939Z" fill="#D5D5DB"/>
<path d="M133.973 72.7152L133.74 72.3651C133.922 72.1806 134.051 71.9483 134.107 71.7024C134.169 71.4291 134.133 71.1712 134.003 70.9765C133.736 70.5769 133.153 70.5769 132.703 70.9765C132.486 71.1712 132.333 71.4291 132.27 71.7041C132.208 71.9791 132.244 72.2353 132.375 72.43C132.505 72.6247 132.71 72.7306 132.956 72.7306C133.176 72.7306 133.402 72.6452 133.605 72.488L133.839 72.8382C133.85 72.8552 133.868 72.8638 133.886 72.8638C133.905 72.8638 133.928 72.8552 133.946 72.8382C133.983 72.8023 133.995 72.7476 133.973 72.7152ZM132.994 72.5581C132.789 72.5581 132.616 72.4692 132.51 72.307C132.401 72.1447 132.37 71.9313 132.422 71.7024C132.474 71.4735 132.602 71.2583 132.784 71.0978C133.158 70.7647 133.644 70.7647 133.867 71.0978C133.975 71.26 134.006 71.4735 133.954 71.7024C133.909 71.9022 133.802 72.0884 133.656 72.2404C133.634 72.2626 133.615 72.2865 133.592 72.307C133.569 72.3275 133.544 72.3429 133.52 72.3616C133.357 72.488 133.173 72.5581 132.994 72.5581Z" fill="#707070"/>
<path d="M133.434 71.7271H132.976" stroke="#707070" stroke-width="0.5" stroke-linecap="round"/>
<path d="M129.776 72.6707L129.54 72.3172C129.936 71.9141 130.059 71.3112 129.805 70.9321C129.538 70.5324 128.956 70.5324 128.505 70.9321C128.057 71.3317 127.909 71.9824 128.176 72.3838C128.305 72.5768 128.511 72.6844 128.758 72.6844C128.978 72.6844 129.204 72.599 129.406 72.4419L129.64 72.792C129.651 72.8091 129.669 72.8176 129.688 72.8176C129.706 72.8176 129.729 72.8091 129.747 72.792C129.787 72.7578 129.799 72.7049 129.776 72.6707ZM128.798 72.5136C128.593 72.5136 128.42 72.4248 128.314 72.2625C128.091 71.9295 128.214 71.3864 128.588 71.0533C128.776 70.8859 128.99 70.804 129.186 70.804C129.382 70.804 129.558 70.8877 129.671 71.0533C129.88 71.3659 129.781 71.8612 129.46 72.1959C129.438 72.2181 129.419 72.242 129.396 72.2625C129.373 72.283 129.348 72.2984 129.324 72.3172C129.159 72.4436 128.977 72.5136 128.798 72.5136Z" fill="#707070"/>
<path d="M129.257 71.5971H129.104L129.143 71.4263C129.154 71.3785 129.128 71.3409 129.086 71.3409C129.043 71.3409 129.001 71.3785 128.99 71.4263L128.951 71.5971H128.798C128.755 71.5971 128.713 71.6347 128.702 71.6825C128.691 71.7303 128.716 71.7679 128.759 71.7679H128.912L128.873 71.9387C128.863 71.9865 128.888 72.0241 128.931 72.0241C128.973 72.0241 129.016 71.9865 129.026 71.9387L129.065 71.7679H129.218C129.261 71.7679 129.303 71.7303 129.314 71.6825C129.325 71.6347 129.3 71.5971 129.257 71.5971Z" fill="#707070"/>
<path d="M137.486 70.8063H137.262H137.037" stroke="#707070" stroke-width="0.5" stroke-linecap="round"/>
<path d="M136.923 71.3079L136.98 71.0571L137.037 70.8063" stroke="#707070" stroke-width="0.5" stroke-linecap="round"/>
<path d="M137.428 71.3915L137.238 71.1072L137.037 70.8063" stroke="#707070" stroke-width="0.5" stroke-linecap="round"/>
<path d="M136.733 72.1439L136.676 72.3947L136.62 72.6455" stroke="#707070" stroke-width="0.5" stroke-linecap="round"/>
<path d="M137.069 72.6454H136.844H136.62" stroke="#707070" stroke-width="0.5" stroke-linecap="round"/>
<path d="M137.277 72.06L136.939 72.361L136.62 72.6453" stroke="#707070" stroke-width="0.5" stroke-linecap="round"/>
<path d="M137.817 72.6454H138.041H138.266" stroke="#707070" stroke-width="0.5" stroke-linecap="round"/>
<path d="M138.38 72.1439L138.323 72.3947L138.266 72.6455" stroke="#707070" stroke-width="0.5" stroke-linecap="round"/>
<path d="M137.875 72.06L138.076 72.361L138.266 72.6453" stroke="#707070" stroke-width="0.5" stroke-linecap="round"/>
<path d="M138.57 71.3079L138.627 71.0571L138.684 70.8063" stroke="#707070" stroke-width="0.5" stroke-linecap="round"/>
<path d="M138.235 70.8063H138.459H138.684" stroke="#707070" stroke-width="0.5" stroke-linecap="round"/>
<path d="M138.027 71.3915L138.365 71.0905L138.684 70.8063" stroke="#707070" stroke-width="0.5" stroke-linecap="round"/>
<path fill-rule="evenodd" clip-rule="evenodd" d="M143.396 71.8375C143.317 72.1843 142.804 72.5556 142.412 72.396C142.216 72.3162 142.09 72.5556 142.201 72.7152C142.303 72.8747 142.199 73.0343 142.053 73.0343C141.461 73.0343 141.103 72.4985 141.253 71.8375C141.403 71.1765 142.004 70.6407 142.596 70.6407C143.188 70.6407 143.546 71.1765 143.396 71.8375ZM142.416 71.1194C142.396 71.2075 142.316 71.2789 142.237 71.2789C142.158 71.2789 142.11 71.2075 142.13 71.1194C142.15 71.0312 142.23 70.9598 142.309 70.9598C142.388 70.9598 142.436 71.0312 142.416 71.1194ZM141.736 71.598C141.815 71.598 141.895 71.5266 141.915 71.4385C141.935 71.3503 141.887 71.2789 141.808 71.2789C141.729 71.2789 141.649 71.3503 141.629 71.4385C141.609 71.5266 141.657 71.598 141.736 71.598ZM142.844 71.1194C142.824 71.2075 142.744 71.2789 142.665 71.2789C142.586 71.2789 142.539 71.2075 142.559 71.1194C142.579 71.0312 142.659 70.9598 142.738 70.9598C142.817 70.9598 142.864 71.0312 142.844 71.1194ZM143.022 71.598C143.1 71.598 143.181 71.5266 143.201 71.4385C143.221 71.3503 143.173 71.2789 143.094 71.2789C143.015 71.2789 142.935 71.3503 142.915 71.4385C142.895 71.5266 142.943 71.598 143.022 71.598Z" fill="#707070"/>
<g filter="url(#filter2_d_291_390)">
<ellipse rx="4.64334" ry="5.3182" transform="matrix(1 0 -0.221378 0.975188 116.48 140.058)" fill="#EEEFFA"/>
<rect width="3.82567" height="4.93035" rx="1.91283" transform="matrix(0.891044 0.286108 -0.443354 0.949549 115.929 137.205)" fill="url(#paint0_linear_291_390)"/>
<g filter="url(#filter3_i_291_390)">
<mask id="mask0_291_390" style="mask-type:alpha" maskUnits="userSpaceOnUse" x="114" y="141" width="4" height="2">
<path d="M114.498 141.496C114.569 141.344 114.743 141.257 114.885 141.303L117.538 142.155L117.281 142.706L114.628 141.854C114.485 141.808 114.427 141.648 114.498 141.496V141.496Z" fill="white"/>
</mask>
<g mask="url(#mask0_291_390)">
<rect width="3.82567" height="4.49532" rx="1.91283" transform="matrix(0.891044 0.286108 -0.443354 0.949549 115.737 137.618)" fill="white"/>
</g>
</g>
<mask id="mask1_291_390" style="mask-type:alpha" maskUnits="userSpaceOnUse" x="113" y="137" width="4" height="6">
<rect width="0.558805" height="4.93035" transform="matrix(0.891044 0.286108 -0.443354 0.949549 115.929 137.205)" fill="url(#paint1_linear_291_390)"/>
</mask>
<g mask="url(#mask1_291_390)">
<rect width="3.82567" height="4.93035" rx="1.91283" transform="matrix(0.891044 0.286108 -0.443354 0.949549 115.929 137.205)" fill="url(#paint2_linear_291_390)"/>
</g>
</g>
<ellipse rx="1.07154" ry="1.22728" transform="matrix(1 0 -0.221378 0.975188 118.984 138.461)" fill="#FF0000"/>
<path d="M119.433 138.062L119.252 138.86H119.071L118.84 138.325L118.718 138.86H118.538L118.719 138.062H118.9L119.131 138.598L119.253 138.062H119.433Z" fill="white"/>
<rect x="0.389311" y="0.487594" width="19.4637" height="5.54548" rx="1.5" transform="matrix(1 0 -0.221378 0.975188 169.945 68.6584)" fill="#6C79F9"/>
<rect x="0.389311" y="0.487594" width="19.4637" height="5.54548" rx="1.5" transform="matrix(1 0 -0.221378 0.975188 169.945 68.6584)" stroke="#6C79F9"/>
<rect x="0.389311" y="0.487594" width="17.8121" height="5.54548" rx="1.5" transform="matrix(1 0 -0.221378 0.975188 159.53 114.537)" stroke="#6C79F9"/>
<rect x="0.389311" y="0.487594" width="75.7936" height="11.2728" transform="matrix(1 0 -0.221378 0.975188 168.043 77.0362)" fill="#EEEFFA" stroke="#DBDCEA"/>
<rect x="0.389311" y="0.487594" width="75.7936" height="6.77276" transform="matrix(1 0 -0.221378 0.975188 163.153 98.5787)" fill="#F7F7F7" stroke="#E0E0E0"/>
<rect x="0.389311" y="0.487594" width="75.7936" height="17.0001" transform="matrix(1 0 -0.221378 0.975188 157.719 122.516)" fill="#F7F7F7" stroke="#E0E0E0"/>
<rect width="5.3577" height="3.68183" rx="1.84092" transform="matrix(1 0 -0.221378 0.975188 160.727 69.4441)" fill="#6C79F9"/>
<path d="M146.566 83.0253H137.715C137.423 83.0253 137.157 83.2871 137.092 83.5705L136.516 86.1098C136.452 86.3932 136.599 86.6549 136.891 86.6549H145.742C146.035 86.6549 146.301 86.3932 146.365 86.1098L146.942 83.5705C147.006 83.2871 146.859 83.0253 146.566 83.0253Z" fill="#F9F9FF" stroke="#6C79F9" stroke-width="0.25"/>
<path d="M145.268 85.6848C145.663 85.6848 146.063 85.3277 146.163 84.8873C146.263 84.4469 146.025 84.0898 145.631 84.0898C145.236 84.0898 144.835 84.4469 144.735 84.8873C144.635 85.3277 144.874 85.6848 145.268 85.6848Z" fill="#6C79F9"/>
<path d="M137.202 83.6399C137.263 83.3678 137.54 83.1472 137.819 83.1472V83.1472L137.05 86.533V86.533C136.771 86.533 136.595 86.3124 136.657 86.0403L137.202 83.6399Z" fill="#FF7E7E"/>
<path d="M144.901 90.6432H136.05C135.757 90.6432 135.491 90.9049 135.427 91.1884L134.85 93.7277C134.786 94.0111 134.933 94.2728 135.226 94.2728H144.077C144.369 94.2728 144.635 94.0111 144.7 93.7277L145.276 91.1884C145.34 90.9049 145.193 90.6432 144.901 90.6432Z" fill="#F9F9FF" stroke="#6C79F9" stroke-width="0.25"/>
<path d="M143.604 93.3028C143.998 93.3028 144.399 92.9457 144.499 92.5053C144.599 92.0648 144.36 91.7078 143.966 91.7078C143.572 91.7078 143.171 92.0648 143.071 92.5053C142.971 92.9457 143.21 93.3028 143.604 93.3028Z" fill="#6C79F9"/>
<path d="M135.536 91.2579C135.598 90.9858 135.874 90.7652 136.153 90.7652V90.7652L135.385 94.151V94.151C135.106 94.151 134.929 93.9304 134.991 93.6583L135.536 91.2579Z" fill="#FF7E7E"/>
<path d="M143.226 98.2989H134.375C134.082 98.2989 133.816 98.5606 133.752 98.844L133.176 101.383C133.111 101.667 133.258 101.928 133.551 101.928H142.402C142.694 101.928 142.96 101.667 143.025 101.383L143.601 98.844C143.666 98.5606 143.518 98.2989 143.226 98.2989Z" fill="#F9F9FF" stroke="#6C79F9" stroke-width="0.25"/>
<path d="M141.929 100.958C142.323 100.958 142.724 100.601 142.824 100.161C142.924 99.7204 142.685 99.3634 142.291 99.3634C141.896 99.3634 141.496 99.7204 141.396 100.161C141.296 100.601 141.534 100.958 141.929 100.958Z" fill="#6C79F9"/>
<path d="M133.861 98.9136C133.923 98.6415 134.199 98.4209 134.478 98.4209V98.4209L133.71 101.807V101.807C133.431 101.807 133.255 101.586 133.316 101.314L133.861 98.9136Z" fill="#7ED2FF"/>
<path d="M134.412 107.36H125.56C125.268 107.36 125.002 107.622 124.938 107.906L124.361 110.445C124.297 110.728 124.444 110.99 124.736 110.99H133.588C133.88 110.99 134.146 110.728 134.21 110.445L134.787 107.906C134.851 107.622 134.704 107.36 134.412 107.36Z" fill="#F9F9FF" stroke="#6C79F9" stroke-width="0.25"/>
<path d="M133.114 110.02C133.508 110.02 133.909 109.663 134.009 109.223C134.109 108.782 133.871 108.425 133.476 108.425C133.082 108.425 132.681 108.782 132.581 109.223C132.481 109.663 132.72 110.02 133.114 110.02Z" fill="#6C79F9"/>
<path d="M125.047 107.975C125.109 107.703 125.385 107.482 125.664 107.482V107.482L124.895 110.868V110.868C124.616 110.868 124.44 110.648 124.502 110.375L125.047 107.975Z" fill="#7ED2FF"/>
<path d="M147.8 107.36H138.949C138.656 107.36 138.39 107.622 138.326 107.906L137.749 110.445C137.685 110.728 137.832 110.99 138.125 110.99H146.976C147.268 110.99 147.534 110.728 147.599 110.445L148.175 107.906C148.239 107.622 148.092 107.36 147.8 107.36Z" fill="#F9F9FF" stroke="#6C79F9" stroke-width="0.25"/>
<path d="M146.502 110.02C146.896 110.02 147.297 109.663 147.397 109.223C147.497 108.782 147.258 108.425 146.864 108.425C146.47 108.425 146.069 108.782 145.969 109.223C145.869 109.663 146.107 110.02 146.502 110.02Z" fill="#6C79F9"/>
<path d="M138.435 107.975C138.497 107.703 138.773 107.482 139.052 107.482V107.482L138.283 110.868V110.868C138.004 110.868 137.828 110.648 137.89 110.376L138.435 107.975Z" fill="#C87EFF"/>
<path d="M139.033 116.492H130.181C129.889 116.492 129.623 116.754 129.559 117.038L128.982 119.577C128.918 119.86 129.065 120.122 129.358 120.122H138.209C138.501 120.122 138.767 119.86 138.831 119.577L139.408 117.038C139.472 116.754 139.325 116.492 139.033 116.492Z" fill="#F9F9FF" stroke="#6C79F9" stroke-width="0.25"/>
<path d="M137.735 119.152C138.129 119.152 138.53 118.795 138.63 118.354C138.73 117.914 138.491 117.557 138.097 117.557C137.702 117.557 137.302 117.914 137.202 118.354C137.102 118.795 137.34 119.152 137.735 119.152Z" fill="#6C79F9"/>
<path d="M129.668 117.107C129.73 116.835 130.006 116.614 130.285 116.614V116.614L129.516 120V120C129.237 120 129.061 119.78 129.123 119.507L129.668 117.107Z" fill="#41BC70"/>
<path d="M137.302 124.115H128.451C128.159 124.115 127.893 124.377 127.828 124.66L127.252 127.2C127.187 127.483 127.335 127.745 127.627 127.745H136.478C136.771 127.745 137.037 127.483 137.101 127.2L137.677 124.66C137.742 124.377 137.595 124.115 137.302 124.115Z" fill="#F9F9FF" stroke="#6C79F9" stroke-width="0.25"/>
<path d="M136.004 126.775C136.399 126.775 136.799 126.418 136.899 125.977C136.999 125.537 136.761 125.18 136.366 125.18C135.972 125.18 135.571 125.537 135.471 125.977C135.371 126.418 135.61 126.775 136.004 126.775Z" fill="#6C79F9"/>
<path d="M127.937 124.73C127.999 124.458 128.276 124.237 128.555 124.237V124.237L127.786 127.623V127.623C127.507 127.623 127.331 127.402 127.393 127.13L127.937 124.73Z" fill="#41BC70"/>
<path d="M135.281 101.839C133.768 101.875 130.411 103.01 129.09 107.271" stroke="#6C79F9" stroke-width="0.25"/>
<path d="M129.058 107.412L129.166 107.251L129.296 107.059H128.98L129.058 107.412Z" fill="#6C79F9"/>
<path d="M128.305 110.868C127.955 112.549 128.186 116.01 131.911 116.405" stroke="#6C79F9" stroke-width="0.25"/>
<path d="M132.036 116.405L131.911 116.325L131.761 116.229L131.681 116.582L132.036 116.405Z" fill="#6C79F9"/>
<path d="M142.577 110.868C142.164 112.549 140.362 116.01 136.458 116.405" stroke="#6C79F9" stroke-width="0.25"/>
<path d="M136.332 116.405L136.494 116.325L136.687 116.229L136.607 116.582L136.332 116.405Z" fill="#6C79F9"/>
<path d="M139.639 101.84C141.136 101.875 143.977 103.01 143.363 107.271" stroke="#6C79F9" stroke-width="0.25"/>
<path d="M143.332 107.412L143.296 107.251L143.254 107.059L143.569 107.059L143.332 107.412Z" fill="#6C79F9"/>
<path d="M139.606 94.1886L138.71 98.1386" stroke="#6C79F9" stroke-width="0.25"/>
<path d="M138.678 98.2797L138.764 98.1514L138.868 97.9975H138.615L138.678 98.2797Z" fill="#6C79F9"/>
<path d="M133.739 120.038L132.842 123.988" stroke="#6C79F9" stroke-width="0.25"/>
<path d="M132.81 124.129L132.896 124.001L133 123.847H132.748L132.81 124.129Z" fill="#6C79F9"/>
<path d="M141.393 86.6036L140.496 90.5536" stroke="#6C79F9" stroke-width="0.25"/>
<path d="M140.463 90.6947L140.55 90.5663L140.654 90.4125H140.401L140.463 90.6947Z" fill="#6C79F9"/>
</g>
<g filter="url(#filter4_ddddd_291_390)">
<path fill-rule="evenodd" clip-rule="evenodd" d="M108.775 5.99997C122.154 5.99997 133 16.8458 133 30.2248C133 43.6038 122.154 54.4496 108.775 54.4496H86.2395C86.9934 59.2811 89.4651 64.624 95.694 64.624C89.9491 66.2038 75.7235 65.97 72.917 54.4496H32.2248C18.8458 54.4496 8 43.6038 8 30.2248C8 16.8458 18.8458 5.99997 32.2248 5.99997H108.775Z" fill="url(#paint3_linear_291_390)"/>
</g>
<path d="M44.142 18.2V27.584H33.33V18.2H27.822V42H33.33V32.242H44.142V42H49.65V18.2H44.142ZM72.825 32.922C72.825 27.04 68.677 23.436 63.305 23.436C57.729 23.436 53.547 27.38 53.547 32.854C53.547 38.294 57.661 42.272 63.985 42.272C67.283 42.272 69.833 41.252 71.533 39.314L68.711 36.254C67.453 37.444 66.059 38.022 64.121 38.022C61.333 38.022 59.395 36.628 58.885 34.35H72.723C72.757 33.908 72.825 33.33 72.825 32.922ZM63.339 27.448C65.719 27.448 67.453 28.944 67.827 31.256H58.817C59.191 28.91 60.925 27.448 63.339 27.448ZM76.3562 42H81.6602V16.772H76.3562V42ZM86.5828 42H91.8868V16.772H86.5828V42ZM105.513 42.272C111.327 42.272 115.543 38.362 115.543 32.854C115.543 27.346 111.327 23.436 105.513 23.436C99.6993 23.436 95.4493 27.346 95.4493 32.854C95.4493 38.362 99.6993 42.272 105.513 42.272ZM105.513 37.92C102.861 37.92 100.821 36.016 100.821 32.854C100.821 29.692 102.861 27.788 105.513 27.788C108.165 27.788 110.171 29.692 110.171 32.854C110.171 36.016 108.165 37.92 105.513 37.92Z" fill="white"/>
<defs>
<filter id="filter0_b_291_390" x="88.2358" y="41.0663" width="184.586" height="129.363" filterUnits="userSpaceOnUse" color-interpolation-filters="sRGB">
<feFlood flood-opacity="0" result="BackgroundImageFix"/>
<feGaussianBlur in="BackgroundImage" stdDeviation="10"/>
<feComposite in2="SourceAlpha" operator="in" result="effect1_backgroundBlur_291_390"/>
<feBlend mode="normal" in="SourceGraphic" in2="effect1_backgroundBlur_291_390" result="shape"/>
</filter>
<filter id="filter1_d_291_390" x="103.236" y="56.0663" width="164.586" height="109.363" filterUnits="userSpaceOnUse" color-interpolation-filters="sRGB">
<feFlood flood-opacity="0" result="BackgroundImageFix"/>
<feColorMatrix in="SourceAlpha" type="matrix" values="0 0 0 0 0 0 0 0 0 0 0 0 0 0 0 0 0 0 127 0" result="hardAlpha"/>
<feOffset dx="5" dy="5"/>
<feGaussianBlur stdDeviation="5"/>
<feColorMatrix type="matrix" values="0 0 0 0 0 0 0 0 0 0 0 0 0 0 0 0 0 0 0.102 0"/>
<feBlend mode="normal" in2="BackgroundImageFix" result="effect1_dropShadow_291_390"/>
<feBlend mode="normal" in="SourceGraphic" in2="effect1_dropShadow_291_390" result="shape"/>
</filter>
<filter id="filter2_d_291_390" x="111.689" y="134.871" width="13.5825" height="14.3725" filterUnits="userSpaceOnUse" color-interpolation-filters="sRGB">
<feFlood flood-opacity="0" result="BackgroundImageFix"/>
<feColorMatrix in="SourceAlpha" type="matrix" values="0 0 0 0 0 0 0 0 0 0 0 0 0 0 0 0 0 0 127 0" result="hardAlpha"/>
<feOffset dx="2" dy="2"/>
<feGaussianBlur stdDeviation="1"/>
<feComposite in2="hardAlpha" operator="out"/>
<feColorMatrix type="matrix" values="0 0 0 0 0 0 0 0 0 0 0 0 0 0 0 0 0 0 0.1 0"/>
<feBlend mode="normal" in2="BackgroundImageFix" result="effect1_dropShadow_291_390"/>
<feBlend mode="normal" in="SourceGraphic" in2="effect1_dropShadow_291_390" result="shape"/>
</filter>
<filter id="filter3_i_291_390" x="114.468" y="141.291" width="3.06982" height="5.22394" filterUnits="userSpaceOnUse" color-interpolation-filters="sRGB">
<feFlood flood-opacity="0" result="BackgroundImageFix"/>
<feBlend mode="normal" in="SourceGraphic" in2="BackgroundImageFix" result="shape"/>
<feColorMatrix in="SourceAlpha" type="matrix" values="0 0 0 0 0 0 0 0 0 0 0 0 0 0 0 0 0 0 127 0" result="hardAlpha"/>
<feOffset dy="4"/>
<feGaussianBlur stdDeviation="2"/>
<feComposite in2="hardAlpha" operator="arithmetic" k2="-1" k3="1"/>
<feColorMatrix type="matrix" values="0 0 0 0 0.467083 0 0 0 0 0.491854 0 0 0 0 0.7375 0 0 0 0.4 0"/>
<feBlend mode="normal" in2="shape" result="effect1_innerShadow_291_390"/>
</filter>
<filter id="filter4_ddddd_291_390" x="0" y="-3.05176e-05" width="202" height="154.322" filterUnits="userSpaceOnUse" color-interpolation-filters="sRGB">
<feFlood flood-opacity="0" result="BackgroundImageFix"/>
<feColorMatrix in="SourceAlpha" type="matrix" values="0 0 0 0 0 0 0 0 0 0 0 0 0 0 0 0 0 0 127 0" result="hardAlpha"/>
<feOffset/>
<feColorMatrix type="matrix" values="0 0 0 0 0.117647 0 0 0 0 0.231373 0 0 0 0 0.462745 0 0 0 0.1 0"/>
<feBlend mode="normal" in2="BackgroundImageFix" result="effect1_dropShadow_291_390"/>
<feColorMatrix in="SourceAlpha" type="matrix" values="0 0 0 0 0 0 0 0 0 0 0 0 0 0 0 0 0 0 127 0" result="hardAlpha"/>
<feOffset dx="3" dy="4"/>
<feGaussianBlur stdDeviation="5"/>
<feColorMatrix type="matrix" values="0 0 0 0 0.117647 0 0 0 0 0.231373 0 0 0 0 0.462745 0 0 0 0.1 0"/>
<feBlend mode="normal" in2="effect1_dropShadow_291_390" result="effect2_dropShadow_291_390"/>
<feColorMatrix in="SourceAlpha" type="matrix" values="0 0 0 0 0 0 0 0 0 0 0 0 0 0 0 0 0 0 127 0" result="hardAlpha"/>
<feOffset dx="10" dy="15"/>
<feGaussianBlur stdDeviation="9"/>
<feColorMatrix type="matrix" values="0 0 0 0 0.117647 0 0 0 0 0.231373 0 0 0 0 0.462745 0 0 0 0.09 0"/>
<feBlend mode="normal" in2="effect2_dropShadow_291_390" result="effect3_dropShadow_291_390"/>
<feColorMatrix in="SourceAlpha" type="matrix" values="0 0 0 0 0 0 0 0 0 0 0 0 0 0 0 0 0 0 127 0" result="hardAlpha"/>
<feOffset dx="23" dy="34"/>
<feGaussianBlur stdDeviation="12"/>
<feColorMatrix type="matrix" values="0 0 0 0 0.117647 0 0 0 0 0.231373 0 0 0 0 0.462745 0 0 0 0.05 0"/>
<feBlend mode="normal" in2="effect3_dropShadow_291_390" result="effect4_dropShadow_291_390"/>
<feColorMatrix in="SourceAlpha" type="matrix" values="0 0 0 0 0 0 0 0 0 0 0 0 0 0 0 0 0 0 127 0" result="hardAlpha"/>
<feOffset dx="40" dy="60"/>
<feGaussianBlur stdDeviation="14.5"/>
<feColorMatrix type="matrix" values="0 0 0 0 0.117647 0 0 0 0 0.231373 0 0 0 0 0.462745 0 0 0 0.01 0"/>
<feBlend mode="normal" in2="effect4_dropShadow_291_390" result="effect5_dropShadow_291_390"/>
<feBlend mode="normal" in="SourceGraphic" in2="effect5_dropShadow_291_390" result="shape"/>
</filter>
<linearGradient id="paint0_linear_291_390" x1="1.91283" y1="0" x2="1.91283" y2="4.93035" gradientUnits="userSpaceOnUse">
<stop stop-color="#9EA7FF"/>
<stop offset="1" stop-color="#6C79F9"/>
</linearGradient>
<linearGradient id="paint1_linear_291_390" x1="0.279403" y1="0.879189" x2="0.279403" y2="4.93035" gradientUnits="userSpaceOnUse">
<stop stop-color="#BCC2FF"/>
<stop offset="1" stop-color="#BCC2FF" stop-opacity="0"/>
</linearGradient>
<linearGradient id="paint2_linear_291_390" x1="1.91283" y1="0.879189" x2="1.91283" y2="4.93035" gradientUnits="userSpaceOnUse">
<stop stop-color="#BCC2FF"/>
<stop offset="1" stop-color="#BCC2FF" stop-opacity="0"/>
</linearGradient>
<linearGradient id="paint3_linear_291_390" x1="138.329" y1="31.6783" x2="10.907" y2="33.1318" gradientUnits="userSpaceOnUse">
<stop stop-color="#9578FF"/>
<stop offset="1" stop-color="#6C79F9"/>
</linearGradient>
</defs>
</svg>
