<svg width="89" height="96" viewBox="0 0 89 96" fill="none" xmlns="http://www.w3.org/2000/svg">
<rect x="21.0376" width="70.2496" height="80.5108" rx="10" transform="rotate(15 21.0376 0)" fill="url(#paint0_linear_557_995)"/>
<g filter="url(#filter0_i_557_995)">
<mask id="mask0_557_995" style="mask-type:alpha" maskUnits="userSpaceOnUse" x="12" y="67" width="60" height="25">
<path d="M12.5628 71.2743C13.2398 68.7478 15.8367 67.2485 18.3631 67.9255L71.733 82.2259L69.2815 91.375L15.9116 77.0746C13.3852 76.3976 11.8859 73.8007 12.5628 71.2743V71.2743Z" fill="white"/>
</mask>
<g mask="url(#mask0_557_995)">
<rect x="19.199" y="6.86182" width="70.2496" height="73.4069" rx="10" transform="rotate(15 19.199 6.86182)" fill="white"/>
</g>
</g>
<g filter="url(#filter1_f_557_995)">
<mask id="mask1_557_995" style="mask-type:alpha" maskUnits="userSpaceOnUse" x="0" y="0" width="31" height="81">
<rect x="21.0376" width="10.2612" height="80.5108" transform="rotate(15 21.0376 0)" fill="url(#paint1_linear_557_995)"/>
</mask>
<g mask="url(#mask1_557_995)">
<rect x="21.0376" width="70.2496" height="80.5108" rx="10" transform="rotate(15 21.0376 0)" fill="url(#paint2_linear_557_995)"/>
</g>
</g>
<defs>
<filter id="filter0_i_557_995" x="12.4004" y="67.7627" width="59.3325" height="25.6123" filterUnits="userSpaceOnUse" color-interpolation-filters="sRGB">
<feFlood flood-opacity="0" result="BackgroundImageFix"/>
<feBlend mode="normal" in="SourceGraphic" in2="BackgroundImageFix" result="shape"/>
<feColorMatrix in="SourceAlpha" type="matrix" values="0 0 0 0 0 0 0 0 0 0 0 0 0 0 0 0 0 0 127 0" result="hardAlpha"/>
<feOffset dy="2"/>
<feGaussianBlur stdDeviation="1"/>
<feComposite in2="hardAlpha" operator="arithmetic" k2="-1" k3="1"/>
<feColorMatrix type="matrix" values="0 0 0 0 0.467083 0 0 0 0 0.491854 0 0 0 0 0.7375 0 0 0 0.4 0"/>
<feBlend mode="normal" in2="shape" result="effect1_innerShadow_557_995"/>
</filter>
<filter id="filter1_f_557_995" x="1.94482" y="1.74512" width="29.5044" height="79.1782" filterUnits="userSpaceOnUse" color-interpolation-filters="sRGB">
<feFlood flood-opacity="0" result="BackgroundImageFix"/>
<feBlend mode="normal" in="SourceGraphic" in2="BackgroundImageFix" result="shape"/>
<feGaussianBlur stdDeviation="0.25" result="effect1_foregroundBlur_557_995"/>
</filter>
<linearGradient id="paint0_linear_557_995" x1="56.1624" y1="0" x2="56.1624" y2="80.5108" gradientUnits="userSpaceOnUse">
<stop stop-color="#9EA7FF"/>
<stop offset="1" stop-color="#6C79F9"/>
</linearGradient>
<linearGradient id="paint1_linear_557_995" x1="26.1682" y1="14.3568" x2="26.1682" y2="80.5108" gradientUnits="userSpaceOnUse">
<stop stop-color="#BCC2FF"/>
<stop offset="1" stop-color="#BCC2FF" stop-opacity="0"/>
</linearGradient>
<linearGradient id="paint2_linear_557_995" x1="56.1624" y1="14.3568" x2="56.1624" y2="80.5108" gradientUnits="userSpaceOnUse">
<stop stop-color="#BCC2FF"/>
<stop offset="1" stop-color="#BCC2FF" stop-opacity="0"/>
</linearGradient>
</defs>
</svg>
