<svg width="788" height="887" viewBox="0 0 788 887" fill="none" xmlns="http://www.w3.org/2000/svg">
<path d="M157.92 368.392L57.3697 322.138L1.42065 220.231C1.10057 219.648 1.42821 218.921 2.07697 218.775L125.37 190.934C125.795 190.838 126.233 191.028 126.454 191.404L174.588 273.634L262.415 299.295C263.237 299.535 263.397 300.629 262.679 301.094L158.882 368.323C158.594 368.509 158.232 368.535 157.92 368.392Z" fill="white"/>
<path d="M57.3697 322.138L157.92 368.392C158.232 368.535 158.594 368.509 158.882 368.323L262.679 301.094C263.397 300.629 263.237 299.535 262.415 299.295L174.588 273.634M57.3697 322.138L174.588 273.634M57.3697 322.138L1.42065 220.231C1.10057 219.648 1.42821 218.921 2.07697 218.775L125.37 190.934C125.795 190.838 126.233 191.028 126.454 191.404L174.588 273.634M122.412 201.52L159.874 266.586C160.175 267.109 159.948 267.777 159.392 268.008L64.2541 307.649C63.7858 307.844 63.2456 307.658 62.9974 307.215L17.6023 226.294C17.276 225.712 17.5998 224.98 18.2496 224.83L121.32 201.045C121.749 200.946 122.192 201.139 122.412 201.52Z" stroke="black" stroke-linecap="round"/>
<path d="M346.374 855.685C364.159 839.517 343.68 782.928 334.248 766.76C347.048 757.329 375.679 746.55 380.731 766.76C382.752 774.844 417.109 811.223 417.109 823.349C417.109 835.475 378.71 869.832 362.542 879.937C349.608 888.021 335.595 880.611 330.206 875.895C328.185 875.895 328.589 871.853 346.374 855.685Z" fill="white" stroke="black" stroke-linecap="round"/>
<path d="M223.092 467.651C229.559 462.801 340.311 462.936 394.878 463.609L489.865 528.281L332.227 566.68L407.004 752.613L316.059 795.054C282.375 687.941 216.625 472.502 223.092 467.651Z" fill="#3543CA" stroke="black" stroke-linecap="round"/>
<path d="M378.71 41.2187C374.668 23.0296 425.193 10.9036 427.214 10.9036C433.277 54.0184 445.807 140.652 447.424 142.269C449.041 143.886 425.193 170.563 382.752 154.395C387.467 153.048 398.111 148.736 402.962 142.269C409.025 134.185 386.794 91.7439 388.815 83.6598C390.836 75.5758 382.752 59.4078 378.71 41.2187Z" fill="#0B061C"/>
<path d="M182.672 835.475C197.223 825.774 199.514 799.097 198.84 786.971C202.074 777.27 232.524 786.971 247.344 793.034C246.671 809.876 247.344 847.197 255.428 861.748C265.533 879.937 241.281 881.958 235.218 881.958C229.155 881.958 122.042 888.021 113.958 881.958C107.491 877.108 116.652 873.201 122.042 871.853C136.189 863.769 168.121 845.176 182.672 835.475Z" fill="white" stroke="black" stroke-linecap="round"/>
<path d="M518.159 605.08C569.897 601.846 549.148 453.504 536.348 411.063L407.004 405L400.941 463.609C336.269 469.672 201.265 483.819 178.63 491.903C155.995 499.987 169.199 694.678 178.63 791.012C217.433 781.312 252.734 803.139 265.533 815.265L271.596 605.08C329.532 603.059 466.421 608.313 518.159 605.08Z" fill="#6C79F9" stroke="black" stroke-linecap="round"/>
<path d="M212.389 286.681C221.95 279.624 263.121 277.188 265.135 277.023L281.351 276.951L279.974 309.687C275.912 309.602 265.813 310.093 257.919 312.747C251.685 314.843 238.494 301.383 226.536 300.828C219.569 300.504 211.684 313.941 209.347 312.747C198.593 307.251 209.841 288.561 212.389 286.681Z" fill="white" stroke="black" stroke-linecap="round"/>
<path d="M326.163 267.571C344.352 263.529 415.088 204.92 421.151 200.878L457.529 239.277C440.687 265.55 398.111 322.947 362.542 342.348C326.972 361.75 273.617 336.285 227.134 318.096L237.239 273.634C276.986 274.982 311.612 270.805 326.163 267.571Z" fill="white" stroke="black" stroke-linecap="round"/>
<path d="M155.801 310.933C165.362 303.876 206.532 301.439 208.547 301.274L224.763 301.202L223.386 333.939C219.324 333.853 209.225 334.345 201.331 336.999C195.096 339.095 181.906 325.635 169.948 325.079C162.98 324.755 155.096 338.193 152.759 336.998C142.005 331.502 153.253 312.813 155.801 310.933Z" fill="white" stroke="black" stroke-linecap="round"/>
<path fill-rule="evenodd" clip-rule="evenodd" d="M427.214 164.955L489.865 160.913L483.802 98.262C483.992 97.9038 484.181 97.5462 484.371 97.189C490.238 86.1261 495.928 75.3987 495.928 55.8208C495.928 33.8722 456.528 -17.6262 406.903 35.5276C393.852 37.707 388.626 50.7538 386.794 80.0727C386.609 83.0307 380.73 87.2469 376.688 89.7228C377.684 94.7023 379.662 97.1175 381.653 99.5501C383.703 102.054 385.768 104.577 386.794 109.933C392.109 114.363 393.768 119.957 395.217 124.844C397.074 131.106 398.586 136.206 407.004 136.206C411.441 133.903 415.624 131.935 419.511 130.107C424.611 127.709 429.201 125.55 433.189 123.186C433.135 123.71 433.081 124.243 433.026 124.784C431.728 137.525 429.982 154.675 427.214 164.955Z" fill="white"/>
<path d="M489.865 160.913L489.897 161.412L490.413 161.379L490.363 160.865L489.865 160.913ZM427.214 164.955L426.731 164.825L426.55 165.499L427.246 165.454L427.214 164.955ZM483.802 98.262L483.36 98.028L483.29 98.1607L483.304 98.3101L483.802 98.262ZM484.371 97.189L484.813 97.4233L484.813 97.4233L484.371 97.189ZM406.903 35.5276L406.986 36.0208L407.153 35.9928L407.269 35.8688L406.903 35.5276ZM376.688 89.7228L376.427 89.2965L376.13 89.4787L376.198 89.8209L376.688 89.7228ZM381.653 99.5501L382.04 99.2334L382.04 99.2334L381.653 99.5501ZM386.794 109.933L386.302 110.027L386.336 110.203L386.473 110.317L386.794 109.933ZM395.217 124.844L395.697 124.702L395.697 124.702L395.217 124.844ZM407.004 136.206V136.706H407.126L407.234 136.65L407.004 136.206ZM419.511 130.107L419.298 129.655L419.298 129.655L419.511 130.107ZM433.189 123.186L433.686 123.237L433.787 122.25L432.934 122.756L433.189 123.186ZM433.026 124.784L433.523 124.835L433.523 124.835L433.026 124.784ZM489.833 160.414L427.182 164.456L427.246 165.454L489.897 161.412L489.833 160.414ZM483.304 98.3101L489.367 160.961L490.363 160.865L484.3 98.2138L483.304 98.3101ZM483.929 96.9547C483.74 97.3119 483.55 97.6696 483.36 98.028L484.244 98.4959C484.434 98.1379 484.623 97.7805 484.813 97.4233L483.929 96.9547ZM495.428 55.8208C495.428 75.2729 489.787 85.9109 483.929 96.9547L484.813 97.4233C490.69 86.3412 496.428 75.5245 496.428 55.8208H495.428ZM407.269 35.8688C419.627 22.6322 431.309 15.9529 441.855 13.6763C452.394 11.4012 461.848 13.5123 469.781 17.9472C477.722 22.3863 484.14 29.1554 488.574 36.1824C493.013 43.2189 495.428 50.4602 495.428 55.8208H496.428C496.428 50.2072 493.918 42.7804 489.419 35.6489C484.914 28.5079 478.381 21.6092 470.269 17.0743C462.149 12.5353 452.449 10.3663 441.644 12.6989C430.845 15.03 418.993 21.8461 406.538 35.1864L407.269 35.8688ZM387.293 80.1039C388.208 65.4527 389.97 54.9371 393.099 47.8242C394.66 44.2753 396.554 41.593 398.835 39.6663C401.114 37.7425 403.802 36.5524 406.986 36.0208L406.821 35.0344C403.479 35.5925 400.62 36.8506 398.19 38.9022C395.764 40.951 393.789 43.7714 392.184 47.4215C388.979 54.7066 387.211 65.3738 386.294 80.0415L387.293 80.1039ZM376.95 90.1492C378.982 88.9043 381.488 87.2149 383.515 85.4562C384.528 84.5774 385.435 83.6698 386.104 82.7811C386.766 81.9026 387.237 80.9886 387.293 80.1039L386.294 80.0415C386.257 80.6358 385.924 81.3582 385.306 82.1794C384.695 82.9906 383.845 83.8464 382.86 84.7009C380.891 86.4088 378.437 88.0655 376.427 89.2965L376.95 90.1492ZM382.04 99.2334C380.063 96.8189 378.15 94.4815 377.179 89.6248L376.198 89.8209C377.219 94.9231 379.26 97.4162 381.266 99.8669L382.04 99.2334ZM387.285 109.839C386.236 104.359 384.107 101.758 382.04 99.2334L381.266 99.8669C383.299 102.35 385.301 104.794 386.302 110.027L387.285 109.839ZM395.697 124.702C394.249 119.821 392.558 114.086 387.114 109.549L386.473 110.317C391.66 114.639 393.287 120.093 394.738 124.986L395.697 124.702ZM407.004 135.706C402.912 135.706 400.587 134.475 399.039 132.559C397.452 130.594 396.633 127.861 395.697 124.702L394.738 124.986C395.658 128.089 396.524 131.037 398.261 133.187C400.038 135.387 402.677 136.706 407.004 136.706V135.706ZM419.298 129.655C415.412 131.483 411.22 133.454 406.773 135.762L407.234 136.65C411.661 134.352 415.836 132.388 419.724 130.56L419.298 129.655ZM432.934 122.756C428.971 125.105 424.404 127.254 419.298 129.655L419.724 130.56C424.818 128.164 429.432 125.994 433.444 123.616L432.934 122.756ZM433.523 124.835C433.578 124.294 433.633 123.761 433.686 123.237L432.691 123.135C432.638 123.66 432.584 124.193 432.529 124.734L433.523 124.835ZM427.697 165.085C430.478 154.756 432.228 137.558 433.523 124.835L432.529 124.734C431.229 137.493 429.486 154.594 426.731 164.825L427.697 165.085Z" fill="black"/>
<ellipse cx="398.92" cy="76.0308" rx="2.02101" ry="4.04202" fill="black"/>
<path d="M388.815 111.954C393.531 111.28 396.495 112.358 402.962 105.891" stroke="black" stroke-linecap="round"/>
<path fill-rule="evenodd" clip-rule="evenodd" d="M392.549 374.358C346.042 423.909 257.414 394.156 189.067 357.23L218.206 287.781L333.033 299.632C339.345 295.329 351.104 274.657 364.656 250.833C384.817 215.39 408.946 172.972 425.012 167.101C450.863 145.043 473.271 148.618 491.887 154.395C532.308 158.436 544.19 233.216 542.413 348.412C543.192 355.033 543.745 361.428 544.291 367.728C546.576 394.124 548.717 418.852 566.665 451.483L384.774 443.399C388.241 421.347 390.658 397.906 392.549 374.358Z" fill="white"/>
<path d="M392.549 374.358L393.048 374.398L393.162 372.974L392.185 374.016L392.549 374.358ZM189.067 357.23L188.606 357.036L188.43 357.454L188.829 357.669L189.067 357.23ZM218.206 287.781L218.257 287.284L217.889 287.246L217.745 287.588L218.206 287.781ZM333.033 299.632L332.981 300.129L333.163 300.148L333.314 300.045L333.033 299.632ZM364.656 250.833L365.091 251.08L365.091 251.08L364.656 250.833ZM425.012 167.101L425.183 167.571L425.268 167.54L425.336 167.482L425.012 167.101ZM491.887 154.395L491.739 154.873L491.787 154.887L491.838 154.893L491.887 154.395ZM542.413 348.412L541.913 348.405L541.912 348.438L541.916 348.471L542.413 348.412ZM544.291 367.728L543.793 367.771L543.793 367.771L544.291 367.728ZM566.665 451.483L566.643 451.983L567.532 452.022L567.103 451.242L566.665 451.483ZM384.774 443.399L384.28 443.322L384.193 443.874L384.752 443.899L384.774 443.399ZM392.185 374.016C369.094 398.617 335.514 403.577 299.077 397.729C262.643 391.882 223.456 375.241 189.305 356.79L188.829 357.669C223.024 376.145 262.325 392.844 298.919 398.716C335.509 404.589 369.497 399.649 392.914 374.7L392.185 374.016ZM189.528 357.423L218.667 287.975L217.745 287.588L188.606 357.036L189.528 357.423ZM218.155 288.279L332.981 300.129L333.084 299.134L218.257 287.284L218.155 288.279ZM333.314 300.045C334.965 298.92 336.925 296.764 339.13 293.844C341.345 290.911 343.839 287.165 346.554 282.818C351.983 274.123 358.317 262.989 365.091 251.08L364.222 250.586C357.444 262.501 351.122 273.615 345.705 282.288C342.997 286.625 340.521 290.343 338.332 293.241C336.134 296.151 334.257 298.192 332.751 299.219L333.314 300.045ZM365.091 251.08C375.174 233.355 386.237 213.906 396.785 198.156C402.059 190.28 407.197 183.342 412.01 178.012C416.835 172.668 421.287 168.994 425.183 167.571L424.84 166.632C420.703 168.143 416.115 171.974 411.268 177.342C406.408 182.723 401.241 189.706 395.954 197.599C385.382 213.386 374.3 232.869 364.222 250.586L365.091 251.08ZM425.336 167.482C438.192 156.512 450.164 151.937 461.214 150.807C472.275 149.676 482.454 151.991 491.739 154.873L492.036 153.917C482.705 151.022 472.372 148.661 461.112 149.812C449.841 150.965 437.683 155.632 424.687 166.721L425.336 167.482ZM491.838 154.893C501.771 155.886 509.973 161.219 516.679 170.508C523.394 179.811 528.594 193.064 532.487 209.834C540.274 243.371 542.801 290.814 541.913 348.405L542.913 348.42C543.802 290.815 541.277 243.27 533.461 209.607C529.554 192.777 524.315 179.378 517.49 169.923C510.655 160.454 502.214 154.925 491.937 153.897L491.838 154.893ZM541.916 348.471C542.694 355.082 543.247 361.47 543.793 367.771L544.789 367.685C544.243 361.386 543.689 354.983 542.909 348.354L541.916 348.471ZM543.793 367.771C546.079 394.179 548.226 418.996 566.227 451.724L567.103 451.242C549.209 418.708 547.073 394.069 544.789 367.685L543.793 367.771ZM566.687 450.984L384.796 442.9L384.752 443.899L566.643 451.983L566.687 450.984ZM385.268 443.477C388.738 421.407 391.156 397.952 393.048 374.398L392.051 374.318C390.16 397.859 387.745 421.286 384.28 443.322L385.268 443.477Z" fill="black"/>
<path d="M417.11 85.6808C402.962 73.5548 382.752 43.2392 390.836 23.029C455.508 -29.5172 495.363 25.0505 497.95 41.2186C506.034 91.7437 489.866 77.5967 497.95 109.933C506.034 142.269 534.328 122.059 520.181 138.227C501.939 159.075 440.723 162.019 441.362 160.457C459.551 115.995 433.314 116.45 433.279 106.345C433.278 105.89 432.467 102.792 433.279 97.8064C443.384 87.7014 438.486 65.2311 435.3 66.6778C421.153 59.4073 422.726 90.4947 417.11 85.6808Z" fill="#0D1033"/>
<path d="M396.899 63.4497C398.246 62.776 401.749 61.4287 404.983 61.4287" stroke="black" stroke-linecap="round"/>
<rect x="381.231" y="603.559" width="285.983" height="281.941" fill="#33333D" stroke="black"/>
<path d="M29.0754 886H786.953" stroke="black" stroke-linecap="round"/>
<path d="M388.815 378.727C411.046 350.433 465.613 286.569 465.613 241.298" stroke="black" stroke-linecap="round"/>
</svg>
