<svg width="109" height="102" viewBox="0 0 109 102" fill="none" xmlns="http://www.w3.org/2000/svg">
<path d="M100.857 69.3224L40.9539 61.0226C36.6513 60.3747 33.4726 56.6976 33.4726 52.3551V17.0373C33.4726 12.6948 36.6513 9.01774 40.9539 8.36987L100.857 0.0701012C105.107 -0.560261 108.918 2.71412 108.918 7.00408V62.3884C108.918 66.6784 105.107 69.9527 100.857 69.3224V69.3224Z" fill="#6C79F9"/>
<path d="M8.06082 32.2711L67.9637 40.5709C72.2664 41.2187 75.445 44.8958 75.445 49.2383V84.5561C75.445 88.8986 72.2664 92.5758 67.9637 93.2236L8.06082 101.506C3.81089 102.154 0 98.8619 0 94.5894V39.1876C0 34.8976 3.81089 31.6232 8.06082 32.2536V32.2711Z" fill="#9578FF"/>
<path d="M67.9637 40.5708L33.455 35.7905V52.3725C33.455 56.715 36.6337 60.3922 40.9363 61.04L75.445 65.8203V49.2382C75.445 44.8958 72.2664 41.2186 67.9637 40.5708V40.5708Z" fill="#5D5DF4"/>
</svg>
