<svg width="110" height="102" viewBox="0 0 110 102" fill="none" xmlns="http://www.w3.org/2000/svg">
<path d="M101.449 69.6035L41.192 61.2662C36.8665 60.6222 33.6641 56.9238 33.6641 52.5703V17.1118C33.6641 12.7583 36.8665 9.06004 41.192 8.41598L101.449 0.0786488C105.721 -0.556555 109.562 2.73677 109.562 7.03491V62.6473C109.562 66.9454 105.721 70.2387 101.449 69.6035Z" fill="#6C79F9"/>
<path d="M8.11281 32.3933L68.3696 40.7306C72.6951 41.3747 75.8975 45.073 75.8975 49.4265V84.885C75.8975 89.2385 72.6951 92.9368 68.3696 93.5809L8.11281 101.918C3.84069 102.553 0 99.2601 0 94.962V39.3474C0 35.0492 3.84069 31.7559 8.11281 32.3911V32.3933Z" fill="#877BF6"/>
<path d="M68.3681 40.7304L33.6641 35.9277V52.5691C33.6641 56.9226 36.8665 60.621 41.192 61.265L75.896 66.0678V49.4263C75.896 45.0729 72.6936 41.3745 68.3681 40.7304Z" fill="#4533F3"/>
</svg>
