<svg width="625" height="587" viewBox="0 0 625 587" fill="none" xmlns="http://www.w3.org/2000/svg">
<g opacity="0.4" filter="url(#filter0_d_197_704)">
<g clip-path="url(#clip0_197_704)">
<path d="M600.419 227.469H322.292C316.448 227.469 311.711 232.206 311.711 238.05V404.892C311.711 410.736 316.448 415.473 322.292 415.473H600.419C606.263 415.473 611.001 410.736 611.001 404.892V238.05C611.001 232.206 606.263 227.469 600.419 227.469Z" fill="white"/>
<path d="M364.266 249.175C364.266 248.006 365.213 247.059 366.382 247.059H406.591C407.76 247.059 408.707 248.006 408.707 249.175V255.524C408.707 256.692 407.76 257.64 406.591 257.64H366.382C365.213 257.64 364.266 256.692 364.266 255.524V249.175Z" fill="#A6AFF8"/>
<path fill-rule="evenodd" clip-rule="evenodd" d="M406.591 337H366.382C365.798 337 365.324 337.473 365.324 338.058V344.406C365.324 344.991 365.798 345.465 366.382 345.465H406.591C407.175 345.465 407.649 344.991 407.649 344.406V338.058C407.649 337.473 407.175 337 406.591 337ZM366.382 335.941C365.213 335.941 364.266 336.889 364.266 338.058V344.406C364.266 345.575 365.213 346.523 366.382 346.523H406.591C407.76 346.523 408.707 345.575 408.707 344.406V338.058C408.707 336.889 407.76 335.941 406.591 335.941H366.382Z" fill="#A6AFF8"/>
<path d="M328.812 261.192C415.1 259.711 582.364 260.37 602.995 260.458C604.16 260.463 605.099 261.409 605.099 262.574V284.367C605.099 285.536 604.151 286.484 602.982 286.484H328.812C321.725 286.484 315.926 282.69 315.926 278.053V269.622C315.926 264.985 321.725 261.192 328.812 261.192Z" fill="#F7F7F7"/>
<path d="M328.812 297.817C415.1 296.336 582.364 296.995 602.995 297.083C604.16 297.088 605.099 298.034 605.099 299.199V320.992C605.099 322.161 604.151 323.109 602.982 323.109H328.812C321.725 323.109 315.926 319.315 315.926 314.678V306.247C315.926 301.61 321.725 297.817 328.812 297.817Z" fill="#F7F7F7"/>
<path d="M328.934 350.073C415.174 346.948 582.354 348.339 602.937 348.525C604.098 348.535 605.031 349.479 605.031 350.64V401.345C605.031 402.514 604.084 403.462 602.915 403.462H328.934C321.852 403.462 316.057 395.453 316.057 385.665V367.869C316.057 358.082 321.852 350.073 328.934 350.073Z" fill="#F7F7F7"/>
<path d="M514.863 290.479H316.057V292.651H514.863V290.479Z" fill="#D5D5DB"/>
<path d="M481.185 327.414H316.057V330.673H481.185V327.414Z" fill="#D5D5DB"/>
<path d="M311.711 238.05C311.711 232.206 316.448 227.469 322.292 227.469H600.419C606.263 227.469 611.001 232.206 611.001 238.05V243.487H311.711V238.05Z" fill="#A6AFF8"/>
<path d="M375.228 253.78C375.49 253.78 375.778 253.691 376.007 253.492L375.757 253.081C375.626 253.191 375.465 253.272 375.295 253.272C374.957 253.272 374.707 252.984 374.707 252.535C374.707 252.091 374.953 251.799 375.317 251.799C375.448 251.799 375.558 251.854 375.676 251.955L375.973 251.553C375.799 251.405 375.575 251.291 375.283 251.291C374.639 251.291 374.072 251.748 374.072 252.535C374.072 253.322 374.572 253.78 375.228 253.78Z" fill="white"/>
<path d="M377.315 253.78C377.907 253.78 378.453 253.322 378.453 252.535C378.453 251.748 377.907 251.291 377.315 251.291C376.722 251.291 376.176 251.748 376.176 252.535C376.176 253.322 376.722 253.78 377.315 253.78ZM377.315 253.272C376.993 253.272 376.811 252.984 376.811 252.535C376.811 252.091 376.993 251.799 377.315 251.799C377.636 251.799 377.818 252.091 377.818 252.535C377.818 252.984 377.636 253.272 377.315 253.272Z" fill="white"/>
<path d="M378.974 253.72H379.596V252.091C379.761 251.913 379.913 251.824 380.049 251.824C380.273 251.824 380.383 251.951 380.383 252.319V253.72H381.001V252.091C381.17 251.913 381.323 251.824 381.458 251.824C381.683 251.824 381.788 251.951 381.788 252.319V253.72H382.411V252.243C382.411 251.646 382.178 251.291 381.674 251.291C381.365 251.291 381.137 251.477 380.921 251.706C380.806 251.443 380.608 251.291 380.269 251.291C379.96 251.291 379.74 251.46 379.541 251.668H379.528L379.482 251.35H378.974V253.72Z" fill="white"/>
<path d="M383.053 254.63H383.676V253.911L383.654 253.521C383.836 253.686 384.035 253.78 384.243 253.78C384.763 253.78 385.25 253.31 385.25 252.497C385.25 251.769 384.903 251.291 384.319 251.291C384.065 251.291 383.819 251.426 383.621 251.596H383.608L383.561 251.35H383.053V254.63ZM384.103 253.267C383.976 253.267 383.824 253.221 383.676 253.09V252.048C383.836 251.883 383.98 251.803 384.141 251.803C384.467 251.803 384.611 252.053 384.611 252.506C384.611 253.022 384.391 253.267 384.103 253.267Z" fill="white"/>
<path d="M386.768 253.78C387.36 253.78 387.906 253.322 387.906 252.535C387.906 251.748 387.36 251.291 386.768 251.291C386.175 251.291 385.629 251.748 385.629 252.535C385.629 253.322 386.175 253.78 386.768 253.78ZM386.768 253.272C386.446 253.272 386.264 252.984 386.264 252.535C386.264 252.091 386.446 251.799 386.768 251.799C387.089 251.799 387.271 252.091 387.271 252.535C387.271 252.984 387.089 253.272 386.768 253.272Z" fill="white"/>
<path d="M388.427 253.72H389.049V252.091C389.222 251.917 389.345 251.824 389.54 251.824C389.773 251.824 389.874 251.951 389.874 252.319V253.72H390.496V252.243C390.496 251.646 390.276 251.291 389.764 251.291C389.443 251.291 389.201 251.46 388.994 251.663H388.981L388.935 251.35H388.427V253.72Z" fill="white"/>
<path d="M392.171 253.78C392.463 253.78 392.763 253.678 392.996 253.517L392.785 253.136C392.615 253.242 392.446 253.301 392.251 253.301C391.9 253.301 391.646 253.098 391.595 252.709H393.056C393.072 252.654 393.085 252.539 393.085 252.421C393.085 251.769 392.747 251.291 392.095 251.291C391.532 251.291 390.99 251.769 390.99 252.535C390.99 253.318 391.506 253.78 392.171 253.78ZM391.587 252.294C391.633 251.951 391.853 251.773 392.103 251.773C392.408 251.773 392.552 251.976 392.552 252.294H391.587Z" fill="white"/>
<path d="M393.598 253.72H394.22V252.091C394.393 251.917 394.516 251.824 394.711 251.824C394.943 251.824 395.045 251.951 395.045 252.319V253.72H395.667V252.243C395.667 251.646 395.447 251.291 394.935 251.291C394.613 251.291 394.372 251.46 394.165 251.663H394.152L394.105 251.35H393.598V253.72Z" fill="white"/>
<path d="M397.177 253.78C397.384 253.78 397.549 253.733 397.676 253.691L397.575 253.238C397.511 253.263 397.418 253.289 397.342 253.289C397.13 253.289 397.02 253.162 397.02 252.891V251.841H397.604V251.35H397.02V250.711H396.504L396.432 251.35L396.063 251.38V251.841H396.398V252.891C396.398 253.42 396.614 253.78 397.177 253.78Z" fill="white"/>
<path d="M399.001 253.78C399.644 253.78 400.059 253.217 400.059 252.18C400.059 251.151 399.644 250.609 399.001 250.609C398.357 250.609 397.938 251.147 397.938 252.18C397.938 253.217 398.357 253.78 399.001 253.78ZM399.001 253.293C398.73 253.293 398.527 253.03 398.527 252.18C398.527 251.333 398.73 251.096 399.001 251.096C399.271 251.096 399.47 251.333 399.47 252.18C399.47 253.03 399.271 253.293 399.001 253.293Z" fill="white"/>
<path d="M400.591 253.72H402.475V253.217H401.887V250.669H401.425C401.226 250.791 401.01 250.872 400.697 250.931V251.316H401.264V253.217H400.591V253.72Z" fill="white"/>
<path d="M375.228 342.664C375.49 342.664 375.778 342.575 376.007 342.377L375.757 341.966C375.626 342.076 375.465 342.156 375.295 342.156C374.957 342.156 374.707 341.869 374.707 341.42C374.707 340.976 374.953 340.683 375.317 340.683C375.448 340.683 375.558 340.739 375.676 340.84L375.973 340.438C375.799 340.29 375.575 340.176 375.283 340.176C374.639 340.176 374.072 340.633 374.072 341.42C374.072 342.207 374.572 342.664 375.228 342.664Z" fill="#A6AFF8"/>
<path d="M377.315 342.664C377.907 342.664 378.453 342.207 378.453 341.42C378.453 340.633 377.907 340.176 377.315 340.176C376.722 340.176 376.176 340.633 376.176 341.42C376.176 342.207 376.722 342.664 377.315 342.664ZM377.315 342.156C376.993 342.156 376.811 341.869 376.811 341.42C376.811 340.976 376.993 340.683 377.315 340.683C377.636 340.683 377.818 340.976 377.818 341.42C377.818 341.869 377.636 342.156 377.315 342.156Z" fill="#A6AFF8"/>
<path d="M378.974 342.605H379.596V340.976C379.761 340.798 379.913 340.709 380.049 340.709C380.273 340.709 380.383 340.836 380.383 341.204V342.605H381.001V340.976C381.17 340.798 381.323 340.709 381.458 340.709C381.683 340.709 381.788 340.836 381.788 341.204V342.605H382.411V341.128C382.411 340.531 382.178 340.176 381.674 340.176C381.365 340.176 381.137 340.362 380.921 340.59C380.806 340.328 380.608 340.176 380.269 340.176C379.96 340.176 379.74 340.345 379.541 340.552H379.528L379.482 340.235H378.974V342.605Z" fill="#A6AFF8"/>
<path d="M383.053 343.515H383.676V342.796L383.654 342.406C383.836 342.571 384.035 342.664 384.243 342.664C384.763 342.664 385.25 342.195 385.25 341.382C385.25 340.654 384.903 340.176 384.319 340.176C384.065 340.176 383.819 340.311 383.621 340.48H383.608L383.561 340.235H383.053V343.515ZM384.103 342.152C383.976 342.152 383.824 342.106 383.676 341.974V340.933C383.836 340.768 383.98 340.688 384.141 340.688C384.467 340.688 384.611 340.937 384.611 341.39C384.611 341.907 384.391 342.152 384.103 342.152Z" fill="#A6AFF8"/>
<path d="M386.768 342.664C387.36 342.664 387.906 342.207 387.906 341.42C387.906 340.633 387.36 340.176 386.768 340.176C386.175 340.176 385.629 340.633 385.629 341.42C385.629 342.207 386.175 342.664 386.768 342.664ZM386.768 342.156C386.446 342.156 386.264 341.869 386.264 341.42C386.264 340.976 386.446 340.683 386.768 340.683C387.089 340.683 387.271 340.976 387.271 341.42C387.271 341.869 387.089 342.156 386.768 342.156Z" fill="#A6AFF8"/>
<path d="M388.427 342.605H389.049V340.976C389.222 340.802 389.345 340.709 389.54 340.709C389.773 340.709 389.874 340.836 389.874 341.204V342.605H390.496V341.128C390.496 340.531 390.276 340.176 389.764 340.176C389.443 340.176 389.201 340.345 388.994 340.548H388.981L388.935 340.235H388.427V342.605Z" fill="#A6AFF8"/>
<path d="M392.171 342.664C392.463 342.664 392.763 342.563 392.996 342.402L392.785 342.021C392.615 342.127 392.446 342.186 392.251 342.186C391.9 342.186 391.646 341.983 391.595 341.593H393.056C393.072 341.538 393.085 341.424 393.085 341.306C393.085 340.654 392.747 340.176 392.095 340.176C391.532 340.176 390.99 340.654 390.99 341.42C390.99 342.203 391.506 342.664 392.171 342.664ZM391.587 341.179C391.633 340.836 391.853 340.658 392.103 340.658C392.408 340.658 392.552 340.861 392.552 341.179H391.587Z" fill="#A6AFF8"/>
<path d="M393.598 342.605H394.22V340.976C394.393 340.802 394.516 340.709 394.711 340.709C394.943 340.709 395.045 340.836 395.045 341.204V342.605H395.667V341.128C395.667 340.531 395.447 340.176 394.935 340.176C394.613 340.176 394.372 340.345 394.165 340.548H394.152L394.105 340.235H393.598V342.605Z" fill="#A6AFF8"/>
<path d="M397.177 342.664C397.384 342.664 397.549 342.618 397.676 342.575L397.575 342.123C397.511 342.148 397.418 342.173 397.342 342.173C397.13 342.173 397.02 342.046 397.02 341.775V340.726H397.604V340.235H397.02V339.596H396.504L396.432 340.235L396.063 340.264V340.726H396.398V341.775C396.398 342.305 396.614 342.664 397.177 342.664Z" fill="#A6AFF8"/>
<path d="M399.001 342.664C399.644 342.664 400.059 342.101 400.059 341.064C400.059 340.036 399.644 339.494 399.001 339.494C398.357 339.494 397.938 340.032 397.938 341.064C397.938 342.101 398.357 342.664 399.001 342.664ZM399.001 342.178C398.73 342.178 398.527 341.915 398.527 341.064C398.527 340.218 398.73 339.981 399.001 339.981C399.271 339.981 399.47 340.218 399.47 341.064C399.47 341.915 399.271 342.178 399.001 342.178Z" fill="#A6AFF8"/>
<path d="M400.426 342.605H402.526V342.08H401.84C401.692 342.08 401.484 342.097 401.328 342.114C401.887 341.53 402.378 340.98 402.378 340.446C402.378 339.871 401.984 339.494 401.391 339.494C400.964 339.494 400.685 339.663 400.397 339.972L400.735 340.311C400.896 340.137 401.082 339.985 401.311 339.985C401.611 339.985 401.781 340.171 401.781 340.48C401.781 340.933 401.243 341.467 400.426 342.245V342.605Z" fill="#A6AFF8"/>
<path d="M363.705 356.275H412.883V359.086H363.705V356.275Z" fill="#D5D5DB"/>
<path d="M363.705 301.477H397.427V304.287H363.705V301.477Z" fill="#D5D5DB"/>
<path d="M363.705 266.35H397.427V269.16H363.705V266.35Z" fill="#D5D5DB"/>
<path d="M363.705 367.516H404.453V370.326H363.705V367.516Z" fill="#D5D5DB"/>
<path d="M363.705 312.719H431.15V315.529H363.705V312.719Z" fill="#D5D5DB"/>
<path d="M363.705 277.59H457.846V280.4H363.705V277.59Z" fill="#D5D5DB"/>
<path d="M363.705 378.758H435.365V381.568H363.705V378.758Z" fill="#D5D5DB"/>
<path d="M363.705 389.998H405.858V392.808H363.705V389.998Z" fill="#D5D5DB"/>
</g>
<g opacity="0.5" clip-path="url(#clip1_197_704)">
<path d="M603.132 256.515H596.388C595.924 256.515 595.545 256.135 595.545 255.671V248.927C595.545 248.463 595.924 248.084 596.388 248.084H603.132C603.596 248.084 603.975 248.463 603.975 248.927V255.671C603.975 256.135 603.596 256.515 603.132 256.515ZM596.388 248.927V255.671H603.132V248.927H596.388ZM596.388 248.506V248.927V248.506Z" fill="#6C79F9"/>
<path d="M597.23 251.457H598.916C599.169 251.457 599.338 251.668 599.338 251.879V252.722C599.338 252.932 599.169 253.143 598.916 253.143H597.23C596.977 253.143 596.809 252.932 596.809 252.722V251.879C596.809 251.668 596.977 251.457 597.23 251.457Z" fill="#6C79F9"/>
<path d="M599.759 253.564H601.446C601.698 253.564 601.867 253.775 601.867 253.986V254.829C601.867 255.04 601.698 255.251 601.446 255.251H599.759C599.507 255.251 599.338 255.04 599.338 254.829V253.986C599.338 253.775 599.507 253.564 599.759 253.564Z" fill="#6C79F9"/>
<path d="M598.369 254.788C598.243 254.788 598.158 254.746 598.032 254.661C597.948 254.577 597.863 254.451 597.863 254.324V252.807H598.285V254.324C598.285 254.324 598.285 254.366 598.327 254.366H598.369H599.592V254.788H598.369Z" fill="#6C79F9"/>
<path d="M602.71 250.613V251.035C602.71 251.161 602.626 251.245 602.5 251.245H599.971C599.844 251.245 599.76 251.161 599.76 251.035V250.613C599.76 250.487 599.844 250.402 599.971 250.402H602.5C602.626 250.402 602.71 250.487 602.71 250.613Z" fill="#6C79F9"/>
<path d="M601.445 252.298L601.024 252.298C600.897 252.298 600.813 252.214 600.813 252.088L600.813 249.558C600.813 249.432 600.897 249.348 601.024 249.348L601.445 249.348C601.572 249.348 601.656 249.432 601.656 249.558L601.656 252.088C601.656 252.214 601.572 252.298 601.445 252.298Z" fill="#6C79F9"/>
</g>
<g opacity="0.5" clip-path="url(#clip2_197_704)">
<path d="M603.132 343.63H596.388C595.924 343.63 595.545 343.25 595.545 342.787V336.042C595.545 335.579 595.924 335.199 596.388 335.199H603.132C603.596 335.199 603.975 335.579 603.975 336.042V342.787C603.975 343.25 603.596 343.63 603.132 343.63ZM596.388 336.042V342.787H603.132V336.042H596.388ZM596.388 335.621V336.042V335.621Z" fill="#6C79F9"/>
<path d="M597.23 338.572H598.916C599.169 338.572 599.338 338.783 599.338 338.994V339.837C599.338 340.048 599.169 340.258 598.916 340.258H597.23C596.977 340.258 596.809 340.048 596.809 339.837V338.994C596.809 338.783 596.977 338.572 597.23 338.572Z" fill="#6C79F9"/>
<path d="M599.759 340.68H601.446C601.698 340.68 601.867 340.89 601.867 341.101V341.944C601.867 342.155 601.698 342.366 601.446 342.366H599.759C599.507 342.366 599.338 342.155 599.338 341.944V341.101C599.338 340.89 599.507 340.68 599.759 340.68Z" fill="#6C79F9"/>
<path d="M598.369 341.903C598.243 341.903 598.158 341.861 598.032 341.777C597.948 341.692 597.863 341.566 597.863 341.439V339.922H598.285V341.439C598.285 341.439 598.285 341.482 598.327 341.482H598.369H599.592V341.903H598.369Z" fill="#6C79F9"/>
<path d="M602.71 337.728V338.15C602.71 338.276 602.626 338.361 602.5 338.361H599.971C599.844 338.361 599.76 338.276 599.76 338.15V337.728C599.76 337.602 599.844 337.518 599.971 337.518H602.5C602.626 337.518 602.71 337.602 602.71 337.728Z" fill="#6C79F9"/>
<path d="M601.445 339.414L601.024 339.414C600.897 339.414 600.813 339.329 600.813 339.203L600.813 336.674C600.813 336.547 600.897 336.463 601.024 336.463L601.445 336.463C601.572 336.463 601.656 336.547 601.656 336.674L601.656 339.203C601.656 339.329 601.572 339.414 601.445 339.414Z" fill="#6C79F9"/>
</g>
</g>
<g filter="url(#filter1_bd_197_704)">
<path d="M0 114.395C0 100.37 11.3698 89 25.3953 89H418.052C432.077 89 443.447 100.37 443.447 114.395V464.899C443.447 478.924 432.077 490.294 418.052 490.294H25.3952C11.3698 490.294 0 478.924 0 464.899V114.395Z" fill="url(#paint0_linear_197_704)" shape-rendering="crispEdges"/>
</g>
<path fill-rule="evenodd" clip-rule="evenodd" d="M362.272 184.938L362.162 163.502L362.797 163.499L362.907 184.935L362.272 184.938Z" fill="#6C79F9" fill-opacity="0.5"/>
<path fill-rule="evenodd" clip-rule="evenodd" d="M323.344 301.45L323.344 275.963L323.979 275.963L323.979 301.45L323.344 301.45Z" fill="#6C79F9" fill-opacity="0.5"/>
<g opacity="0.5">
<path d="M337.344 145.604C337.344 144.201 338.481 143.064 339.883 143.064H386.316C387.719 143.064 388.856 144.201 388.856 145.604V162.37C388.856 163.773 387.719 164.91 386.316 164.91H339.883C338.481 164.91 337.344 163.773 337.344 162.37V145.604Z" fill="#F9F9FF"/>
<path fill-rule="evenodd" clip-rule="evenodd" d="M386.316 144.334H339.883C339.182 144.334 338.614 144.903 338.614 145.604V162.37C338.614 163.072 339.182 163.64 339.883 163.64H386.316C387.018 163.64 387.586 163.072 387.586 162.37V145.604C387.586 144.903 387.018 144.334 386.316 144.334ZM339.883 143.064C338.481 143.064 337.344 144.201 337.344 145.604V162.37C337.344 163.773 338.481 164.91 339.883 164.91H386.316C387.719 164.91 388.856 163.773 388.856 162.37V145.604C388.856 144.201 387.719 143.064 386.316 143.064H339.883Z" fill="#6C79F9"/>
<path d="M347.262 155.953C347.576 155.953 347.922 155.846 348.196 155.607L347.896 155.115C347.739 155.247 347.546 155.343 347.343 155.343C346.937 155.343 346.637 154.998 346.637 154.459C346.637 153.926 346.931 153.576 347.368 153.576C347.526 153.576 347.658 153.642 347.8 153.764L348.155 153.281C347.947 153.103 347.678 152.966 347.328 152.966C346.556 152.966 345.875 153.515 345.875 154.459C345.875 155.404 346.474 155.953 347.262 155.953Z" fill="#6C79F9"/>
<path d="M349.766 155.953C350.477 155.953 351.132 155.404 351.132 154.459C351.132 153.515 350.477 152.966 349.766 152.966C349.055 152.966 348.4 153.515 348.4 154.459C348.4 155.404 349.055 155.953 349.766 155.953ZM349.766 155.343C349.38 155.343 349.162 154.998 349.162 154.459C349.162 153.926 349.38 153.576 349.766 153.576C350.152 153.576 350.37 153.926 350.37 154.459C350.37 154.998 350.152 155.343 349.766 155.343Z" fill="#6C79F9"/>
<path d="M351.757 155.882H352.503V153.926C352.701 153.713 352.884 153.606 353.047 153.606C353.316 153.606 353.448 153.758 353.448 154.2V155.882H354.19V153.926C354.393 153.713 354.576 153.606 354.738 153.606C355.007 153.606 355.134 153.758 355.134 154.2V155.882H355.881V154.109C355.881 153.393 355.602 152.966 354.997 152.966C354.626 152.966 354.352 153.19 354.093 153.464C353.956 153.149 353.717 152.966 353.311 152.966C352.94 152.966 352.676 153.169 352.437 153.418H352.422L352.366 153.037H351.757V155.882Z" fill="#6C79F9"/>
<path d="M356.652 156.974H357.399V156.11L357.374 155.643C357.592 155.841 357.831 155.953 358.08 155.953C358.704 155.953 359.288 155.389 359.288 154.414C359.288 153.54 358.872 152.966 358.171 152.966C357.866 152.966 357.572 153.129 357.333 153.332H357.318L357.262 153.037H356.652V156.974ZM357.912 155.338C357.76 155.338 357.577 155.282 357.399 155.125V153.875C357.592 153.677 357.765 153.581 357.958 153.581C358.349 153.581 358.521 153.88 358.521 154.424C358.521 155.043 358.257 155.338 357.912 155.338Z" fill="#6C79F9"/>
<path d="M361.109 155.953C361.821 155.953 362.476 155.404 362.476 154.459C362.476 153.515 361.821 152.966 361.109 152.966C360.398 152.966 359.743 153.515 359.743 154.459C359.743 155.404 360.398 155.953 361.109 155.953ZM361.109 155.343C360.723 155.343 360.505 154.998 360.505 154.459C360.505 153.926 360.723 153.576 361.109 153.576C361.495 153.576 361.714 153.926 361.714 154.459C361.714 154.998 361.495 155.343 361.109 155.343Z" fill="#6C79F9"/>
<path d="M363.1 155.882H363.847V153.926C364.055 153.718 364.202 153.606 364.436 153.606C364.715 153.606 364.837 153.758 364.837 154.2V155.882H365.584V154.109C365.584 153.393 365.32 152.966 364.705 152.966C364.319 152.966 364.03 153.169 363.781 153.413H363.766L363.71 153.037H363.1V155.882Z" fill="#6C79F9"/>
<path d="M367.593 155.953C367.944 155.953 368.304 155.831 368.584 155.638L368.33 155.181C368.127 155.308 367.924 155.379 367.69 155.379C367.268 155.379 366.964 155.135 366.903 154.668H368.655C368.675 154.602 368.69 154.464 368.69 154.322C368.69 153.54 368.284 152.966 367.502 152.966C366.826 152.966 366.176 153.54 366.176 154.459C366.176 155.399 366.796 155.953 367.593 155.953ZM366.892 154.17C366.948 153.758 367.212 153.545 367.512 153.545C367.878 153.545 368.05 153.789 368.05 154.17H366.892Z" fill="#6C79F9"/>
<path d="M369.305 155.882H370.052V153.926C370.26 153.718 370.407 153.606 370.641 153.606C370.92 153.606 371.042 153.758 371.042 154.2V155.882H371.789V154.109C371.789 153.393 371.525 152.966 370.91 152.966C370.524 152.966 370.235 153.169 369.986 153.413H369.971L369.915 153.037H369.305V155.882Z" fill="#6C79F9"/>
<path d="M373.6 155.953C373.849 155.953 374.047 155.897 374.2 155.846L374.078 155.303C374.002 155.333 373.89 155.363 373.798 155.363C373.544 155.363 373.412 155.211 373.412 154.886V153.626H374.113V153.037H373.412V152.27H372.793L372.706 153.037L372.264 153.073V153.626H372.666V154.886C372.666 155.521 372.925 155.953 373.6 155.953Z" fill="#6C79F9"/>
<path d="M375.789 155.953C376.561 155.953 377.059 155.277 377.059 154.033C377.059 152.799 376.561 152.148 375.789 152.148C375.017 152.148 374.514 152.793 374.514 154.033C374.514 155.277 375.017 155.953 375.789 155.953ZM375.789 155.369C375.464 155.369 375.22 155.054 375.22 154.033C375.22 153.017 375.464 152.733 375.789 152.733C376.114 152.733 376.353 153.017 376.353 154.033C376.353 155.054 376.114 155.369 375.789 155.369Z" fill="#6C79F9"/>
<path d="M377.698 155.882H379.958V155.277H379.252V152.22H378.699C378.46 152.367 378.201 152.463 377.825 152.534V152.997H378.506V155.277H377.698V155.882Z" fill="#6C79F9"/>
</g>
<path fill-rule="evenodd" clip-rule="evenodd" d="M282.455 220.203C282.433 219.806 282.422 219.405 282.422 219.002L283.057 219.002C283.057 219.393 283.068 219.782 283.089 220.168L282.455 220.203ZM283.254 224.933C283.034 224.169 282.856 223.387 282.721 222.591L283.347 222.485C283.478 223.258 283.651 224.017 283.864 224.758L283.254 224.933ZM285.091 229.364C284.704 228.666 284.355 227.944 284.047 227.2L284.634 226.957C284.933 227.678 285.271 228.379 285.646 229.056L285.091 229.364ZM287.869 233.274C287.336 232.677 286.836 232.051 286.371 231.397L286.888 231.029C287.339 231.663 287.825 232.271 288.343 232.85L287.869 233.274ZM291.445 236.471C290.791 236.006 290.164 235.505 289.568 234.972L289.991 234.499C290.57 235.016 291.178 235.502 291.812 235.953L291.445 236.471ZM295.641 238.794C294.898 238.486 294.176 238.137 293.477 237.75L293.785 237.195C294.462 237.57 295.163 237.909 295.884 238.208L295.641 238.794ZM300.25 240.12C299.454 239.986 298.672 239.807 297.908 239.587L298.084 238.977C298.825 239.191 299.583 239.364 300.356 239.494L300.25 240.12ZM303.839 240.42C303.436 240.42 303.036 240.408 302.638 240.386L302.673 239.752C303.059 239.774 303.448 239.785 303.839 239.785L305.422 239.785L305.422 240.42L303.839 240.42ZM311.752 240.42L308.587 240.42L308.587 239.785L311.752 239.785L311.752 240.42ZM316.5 240.42L314.917 240.42L314.917 239.785L316.5 239.785L316.5 240.42Z" fill="#ED9696"/>
<path fill-rule="evenodd" clip-rule="evenodd" d="M343.233 239.917C355.116 239.917 364.642 230.868 364.642 219.578L365.293 219.589C365.293 231.216 355.483 240.535 343.245 240.535L322.795 240.535L322.784 239.917L343.233 239.917Z" fill="#5587EA" fill-opacity="0.5"/>
<path d="M290.896 304.061C290.896 301.256 293.17 298.982 295.976 298.982H352.047C354.853 298.982 357.126 301.256 357.126 304.061V331.353C357.126 334.158 354.853 336.432 352.047 336.432H295.976C293.17 336.432 290.896 334.158 290.896 331.353V304.061Z" fill="#BEEFCC"/>
<path d="M297.139 309.325C297.139 307.922 298.276 306.785 299.678 306.785H346.111C347.514 306.785 348.651 307.922 348.651 309.325V326.091C348.651 327.494 347.514 328.631 346.111 328.631H299.678C298.276 328.631 297.139 327.494 297.139 326.091V309.325Z" fill="#F9F9FF"/>
<path fill-rule="evenodd" clip-rule="evenodd" d="M346.111 308.055H299.678C298.977 308.055 298.408 308.623 298.408 309.325V326.091C298.408 326.792 298.977 327.361 299.678 327.361H346.111C346.813 327.361 347.381 326.792 347.381 326.091V309.325C347.381 308.623 346.813 308.055 346.111 308.055ZM299.678 306.785C298.276 306.785 297.139 307.922 297.139 309.325V326.091C297.139 327.494 298.276 328.631 299.678 328.631H346.111C347.514 328.631 348.651 327.494 348.651 326.091V309.325C348.651 307.922 347.514 306.785 346.111 306.785H299.678Z" fill="#6C79F9" fill-opacity="0.5"/>
<path d="M357.158 300.74C357.158 303.972 354.538 306.592 351.307 306.592C348.075 306.592 345.455 303.972 345.455 300.74C345.455 297.508 348.075 294.889 351.307 294.889C354.538 294.889 357.158 297.508 357.158 300.74Z" fill="#4AD571"/>
<path d="M251.09 189.204C251.09 186.399 253.364 184.125 256.169 184.125H312.241C315.046 184.125 317.32 186.399 317.32 189.204V216.495C317.32 219.3 315.046 221.574 312.241 221.574H256.169C253.364 221.574 251.09 219.3 251.09 216.495V189.204Z" fill="#F0C4C9"/>
<path d="M256.707 194.467C256.707 193.065 257.844 191.928 259.247 191.928H305.68C307.082 191.928 308.219 193.065 308.219 194.467V211.234C308.219 212.636 307.082 213.773 305.68 213.773H259.247C257.844 213.773 256.707 212.636 256.707 211.234V194.467Z" fill="#F9F9FF"/>
<path fill-rule="evenodd" clip-rule="evenodd" d="M305.68 193.197H259.247C258.545 193.197 257.977 193.766 257.977 194.467V211.234C257.977 211.935 258.545 212.503 259.247 212.503H305.68C306.381 212.503 306.949 211.935 306.949 211.234V194.467C306.949 193.766 306.381 193.197 305.68 193.197ZM259.247 191.928C257.844 191.928 256.707 193.065 256.707 194.467V211.234C256.707 212.636 257.844 213.773 259.247 213.773H305.68C307.082 213.773 308.219 212.636 308.219 211.234V194.467C308.219 193.065 307.082 191.928 305.68 191.928H259.247Z" fill="#6C79F9" fill-opacity="0.5"/>
<path d="M318.16 186.664C318.16 189.896 315.54 192.515 312.308 192.515C309.077 192.515 306.457 189.896 306.457 186.664C306.457 183.432 309.077 180.812 312.308 180.812C315.54 180.812 318.16 183.432 318.16 186.664Z" fill="#F96C6C"/>
<path d="M291.025 246.163C291.025 243.358 293.299 241.084 296.104 241.084H352.176C354.981 241.084 357.255 243.358 357.255 246.163V273.454C357.255 276.259 354.981 278.533 352.176 278.533H296.104C293.299 278.533 291.025 276.259 291.025 273.454V246.163Z" fill="#CBE2FA"/>
<path d="M296.643 251.426C296.643 250.024 297.78 248.887 299.182 248.887H345.615C347.018 248.887 348.155 250.024 348.155 251.426V268.193C348.155 269.595 347.018 270.732 345.615 270.732H299.182C297.78 270.732 296.643 269.595 296.643 268.193V251.426Z" fill="#F9F9FF"/>
<path fill-rule="evenodd" clip-rule="evenodd" d="M345.615 250.156H299.182C298.481 250.156 297.912 250.725 297.912 251.426V268.193C297.912 268.894 298.481 269.462 299.182 269.462H345.615C346.317 269.462 346.885 268.894 346.885 268.193V251.426C346.885 250.725 346.317 250.156 345.615 250.156ZM299.182 248.887C297.78 248.887 296.643 250.024 296.643 251.426V268.193C296.643 269.595 297.78 270.732 299.182 270.732H345.615C347.018 270.732 348.155 269.595 348.155 268.193V251.426C348.155 250.024 347.018 248.887 345.615 248.887H299.182Z" fill="#6C79F9" fill-opacity="0.5"/>
<path d="M358.16 241.637C358.16 244.868 355.54 247.488 352.308 247.488C349.077 247.488 346.457 244.868 346.457 241.637C346.457 238.405 349.077 235.785 352.308 235.785C355.54 235.785 358.16 238.405 358.16 241.637Z" fill="#6CB5F9"/>
<path d="M330.734 189.206C330.734 186.401 333.008 184.127 335.813 184.127H391.885C394.69 184.127 396.964 186.401 396.964 189.206V216.497C396.964 219.302 394.69 221.576 391.885 221.576H335.813C333.008 221.576 330.734 219.302 330.734 216.497V189.206Z" fill="#CBE2FA"/>
<path d="M398.09 184.015C398.09 187.247 395.47 189.867 392.238 189.867C389.006 189.867 386.387 187.247 386.387 184.015C386.387 180.784 389.006 178.164 392.238 178.164C395.47 178.164 398.09 180.784 398.09 184.015Z" fill="#6CB5F9"/>
<path d="M384.181 184.015C384.181 187.247 381.562 189.867 378.33 189.867C375.098 189.867 372.479 187.247 372.479 184.015C372.479 180.784 375.098 178.164 378.33 178.164C381.562 178.164 384.181 180.784 384.181 184.015Z" fill="#6CB5F9"/>
<path d="M339.625 194.467C339.625 193.065 340.762 191.928 342.165 191.928H386.145C387.547 191.928 388.684 193.065 388.684 194.467V211.234C388.684 212.636 387.547 213.773 386.145 213.773H342.165C340.762 213.773 339.625 212.636 339.625 211.234V194.467Z" fill="#F9F9FF"/>
<path fill-rule="evenodd" clip-rule="evenodd" d="M386.145 193.197H342.165C341.463 193.197 340.895 193.766 340.895 194.467V211.234C340.895 211.935 341.463 212.503 342.165 212.503H386.145C386.846 212.503 387.415 211.935 387.415 211.234V194.467C387.415 193.766 386.846 193.197 386.145 193.197ZM342.165 191.928C340.762 191.928 339.625 193.065 339.625 194.467V211.234C339.625 212.636 340.762 213.773 342.165 213.773H386.145C387.547 213.773 388.684 212.636 388.684 211.234V194.467C388.684 193.065 387.547 191.928 386.145 191.928H342.165Z" fill="#6C79F9" fill-opacity="0.5"/>
<g opacity="0.5">
<path d="M346.318 205.017C346.633 205.017 346.978 204.91 347.253 204.672L346.953 204.179C346.796 204.311 346.603 204.408 346.399 204.408C345.993 204.408 345.693 204.062 345.693 203.524C345.693 202.991 345.988 202.64 346.425 202.64C346.582 202.64 346.714 202.706 346.857 202.828L347.212 202.346C347.004 202.168 346.735 202.031 346.384 202.031C345.612 202.031 344.932 202.579 344.932 203.524C344.932 204.469 345.531 205.017 346.318 205.017Z" fill="#6C79F9"/>
<path d="M348.823 205.017C349.534 205.017 350.189 204.469 350.189 203.524C350.189 202.579 349.534 202.031 348.823 202.031C348.111 202.031 347.456 202.579 347.456 203.524C347.456 204.469 348.111 205.017 348.823 205.017ZM348.823 204.408C348.437 204.408 348.218 204.062 348.218 203.524C348.218 202.991 348.437 202.64 348.823 202.64C349.209 202.64 349.427 202.991 349.427 203.524C349.427 204.062 349.209 204.408 348.823 204.408Z" fill="#6C79F9"/>
<path d="M350.813 204.946H351.56V202.991C351.758 202.777 351.941 202.671 352.103 202.671C352.373 202.671 352.505 202.823 352.505 203.265V204.946H353.246V202.991C353.449 202.777 353.632 202.671 353.795 202.671C354.064 202.671 354.191 202.823 354.191 203.265V204.946H354.938V203.173C354.938 202.457 354.658 202.031 354.054 202.031C353.683 202.031 353.409 202.254 353.15 202.528C353.013 202.213 352.774 202.031 352.368 202.031C351.997 202.031 351.733 202.234 351.494 202.483H351.479L351.423 202.102H350.813V204.946Z" fill="#6C79F9"/>
<path d="M355.709 206.038H356.456V205.175L356.43 204.707C356.649 204.905 356.887 205.017 357.136 205.017C357.761 205.017 358.345 204.453 358.345 203.478C358.345 202.605 357.928 202.031 357.228 202.031C356.923 202.031 356.628 202.193 356.39 202.396H356.374L356.318 202.102H355.709V206.038ZM356.969 204.403C356.816 204.403 356.633 204.347 356.456 204.189V202.94C356.649 202.742 356.821 202.645 357.014 202.645C357.405 202.645 357.578 202.945 357.578 203.488C357.578 204.108 357.314 204.403 356.969 204.403Z" fill="#6C79F9"/>
<path d="M360.166 205.017C360.877 205.017 361.532 204.469 361.532 203.524C361.532 202.579 360.877 202.031 360.166 202.031C359.455 202.031 358.8 202.579 358.8 203.524C358.8 204.469 359.455 205.017 360.166 205.017ZM360.166 204.408C359.78 204.408 359.562 204.062 359.562 203.524C359.562 202.991 359.78 202.64 360.166 202.64C360.552 202.64 360.771 202.991 360.771 203.524C360.771 204.062 360.552 204.408 360.166 204.408Z" fill="#6C79F9"/>
<path d="M362.157 204.946H362.904V202.991C363.112 202.782 363.259 202.671 363.493 202.671C363.772 202.671 363.894 202.823 363.894 203.265V204.946H364.641V203.173C364.641 202.457 364.377 202.031 363.762 202.031C363.376 202.031 363.086 202.234 362.838 202.478H362.822L362.766 202.102H362.157V204.946Z" fill="#6C79F9"/>
<path d="M366.65 205.017C367 205.017 367.361 204.895 367.64 204.702L367.386 204.245C367.183 204.372 366.98 204.443 366.747 204.443C366.325 204.443 366.02 204.199 365.959 203.732H367.712C367.732 203.666 367.747 203.529 367.747 203.387C367.747 202.605 367.341 202.031 366.559 202.031C365.883 202.031 365.233 202.605 365.233 203.524C365.233 204.463 365.853 205.017 366.65 205.017ZM365.949 203.234C366.005 202.823 366.269 202.61 366.569 202.61C366.934 202.61 367.107 202.853 367.107 203.234H365.949Z" fill="#6C79F9"/>
<path d="M368.362 204.946H369.109V202.991C369.317 202.782 369.464 202.671 369.698 202.671C369.977 202.671 370.099 202.823 370.099 203.265V204.946H370.846V203.173C370.846 202.457 370.581 202.031 369.967 202.031C369.581 202.031 369.291 202.234 369.043 202.478H369.027L368.971 202.102H368.362V204.946Z" fill="#6C79F9"/>
<path d="M372.657 205.017C372.906 205.017 373.104 204.961 373.256 204.91L373.134 204.367C373.058 204.397 372.946 204.428 372.855 204.428C372.601 204.428 372.469 204.276 372.469 203.95V202.691H373.17V202.102H372.469V201.335H371.849L371.763 202.102L371.321 202.137V202.691H371.722V203.95C371.722 204.585 371.981 205.017 372.657 205.017Z" fill="#6C79F9"/>
<path d="M374.846 205.017C375.618 205.017 376.115 204.342 376.115 203.097C376.115 201.863 375.618 201.213 374.846 201.213C374.074 201.213 373.571 201.858 373.571 203.097C373.571 204.342 374.074 205.017 374.846 205.017ZM374.846 204.433C374.521 204.433 374.277 204.118 374.277 203.097C374.277 202.081 374.521 201.797 374.846 201.797C375.171 201.797 375.409 202.081 375.409 203.097C375.409 204.118 375.171 204.433 374.846 204.433Z" fill="#6C79F9"/>
<path d="M376.557 204.946H379.076V204.316H378.253C378.075 204.316 377.826 204.337 377.638 204.357C378.309 203.656 378.898 202.996 378.898 202.356C378.898 201.665 378.426 201.213 377.715 201.213C377.202 201.213 376.866 201.416 376.521 201.787L376.927 202.193C377.12 201.985 377.344 201.802 377.618 201.802C377.979 201.802 378.182 202.026 378.182 202.396C378.182 202.94 377.537 203.58 376.557 204.514V204.946Z" fill="#6C79F9"/>
<path d="M379.578 203.757H380.964V203.224H379.578V203.757Z" fill="#6C79F9"/>
<path d="M381.625 204.946H383.886V204.342H383.18V201.284H382.626C382.387 201.431 382.128 201.528 381.752 201.599V202.061H382.433V204.342H381.625V204.946Z" fill="#6C79F9"/>
</g>
<g opacity="0.5">
<path d="M266.318 204.205C266.633 204.205 266.978 204.098 267.253 203.859L266.953 203.367C266.796 203.499 266.603 203.595 266.399 203.595C265.993 203.595 265.693 203.25 265.693 202.711C265.693 202.178 265.988 201.828 266.425 201.828C266.582 201.828 266.714 201.894 266.857 202.016L267.212 201.533C267.004 201.355 266.735 201.218 266.384 201.218C265.612 201.218 264.932 201.767 264.932 202.711C264.932 203.656 265.531 204.205 266.318 204.205Z" fill="#6C79F9"/>
<path d="M268.823 204.205C269.534 204.205 270.189 203.656 270.189 202.711C270.189 201.767 269.534 201.218 268.823 201.218C268.111 201.218 267.456 201.767 267.456 202.711C267.456 203.656 268.111 204.205 268.823 204.205ZM268.823 203.595C268.437 203.595 268.218 203.25 268.218 202.711C268.218 202.178 268.437 201.828 268.823 201.828C269.209 201.828 269.427 202.178 269.427 202.711C269.427 203.25 269.209 203.595 268.823 203.595Z" fill="#6C79F9"/>
<path d="M270.813 204.133H271.56V202.178C271.758 201.965 271.941 201.858 272.103 201.858C272.373 201.858 272.505 202.01 272.505 202.452V204.133H273.246V202.178C273.449 201.965 273.632 201.858 273.795 201.858C274.064 201.858 274.191 202.01 274.191 202.452V204.133H274.938V202.361C274.938 201.645 274.658 201.218 274.054 201.218C273.683 201.218 273.409 201.442 273.15 201.716C273.013 201.401 272.774 201.218 272.368 201.218C271.997 201.218 271.733 201.421 271.494 201.67H271.479L271.423 201.289H270.813V204.133Z" fill="#6C79F9"/>
<path d="M275.709 205.225H276.456V204.362L276.43 203.895C276.649 204.093 276.887 204.205 277.136 204.205C277.761 204.205 278.345 203.641 278.345 202.666C278.345 201.792 277.928 201.218 277.228 201.218C276.923 201.218 276.628 201.381 276.39 201.584H276.374L276.318 201.289H275.709V205.225ZM276.969 203.59C276.816 203.59 276.633 203.534 276.456 203.377V202.127C276.649 201.929 276.821 201.833 277.014 201.833C277.405 201.833 277.578 202.132 277.578 202.676C277.578 203.295 277.314 203.59 276.969 203.59Z" fill="#6C79F9"/>
<path d="M280.166 204.205C280.877 204.205 281.532 203.656 281.532 202.711C281.532 201.767 280.877 201.218 280.166 201.218C279.455 201.218 278.8 201.767 278.8 202.711C278.8 203.656 279.455 204.205 280.166 204.205ZM280.166 203.595C279.78 203.595 279.562 203.25 279.562 202.711C279.562 202.178 279.78 201.828 280.166 201.828C280.552 201.828 280.771 202.178 280.771 202.711C280.771 203.25 280.552 203.595 280.166 203.595Z" fill="#6C79F9"/>
<path d="M282.157 204.133H282.904V202.178C283.112 201.97 283.259 201.858 283.493 201.858C283.772 201.858 283.894 202.01 283.894 202.452V204.133H284.641V202.361C284.641 201.645 284.377 201.218 283.762 201.218C283.376 201.218 283.086 201.421 282.838 201.665H282.822L282.766 201.289H282.157V204.133Z" fill="#6C79F9"/>
<path d="M286.65 204.205C287 204.205 287.361 204.083 287.64 203.89L287.386 203.433C287.183 203.56 286.98 203.631 286.747 203.631C286.325 203.631 286.02 203.387 285.959 202.92H287.712C287.732 202.854 287.747 202.716 287.747 202.574C287.747 201.792 287.341 201.218 286.559 201.218C285.883 201.218 285.233 201.792 285.233 202.711C285.233 203.651 285.853 204.205 286.65 204.205ZM285.949 202.422C286.005 202.01 286.269 201.797 286.569 201.797C286.934 201.797 287.107 202.041 287.107 202.422H285.949Z" fill="#6C79F9"/>
<path d="M288.362 204.133H289.109V202.178C289.317 201.97 289.464 201.858 289.698 201.858C289.977 201.858 290.099 202.01 290.099 202.452V204.133H290.846V202.361C290.846 201.645 290.581 201.218 289.967 201.218C289.581 201.218 289.291 201.421 289.043 201.665H289.027L288.971 201.289H288.362V204.133Z" fill="#6C79F9"/>
<path d="M292.657 204.205C292.906 204.205 293.104 204.149 293.256 204.098L293.134 203.554C293.058 203.585 292.946 203.615 292.855 203.615C292.601 203.615 292.469 203.463 292.469 203.138V201.878H293.17V201.289H292.469V200.522H291.849L291.763 201.289L291.321 201.325V201.878H291.722V203.138C291.722 203.773 291.981 204.205 292.657 204.205Z" fill="#6C79F9"/>
<path d="M294.846 204.205C295.618 204.205 296.115 203.529 296.115 202.285C296.115 201.051 295.618 200.4 294.846 200.4C294.074 200.4 293.571 201.045 293.571 202.285C293.571 203.529 294.074 204.205 294.846 204.205ZM294.846 203.621C294.521 203.621 294.277 203.306 294.277 202.285C294.277 201.269 294.521 200.984 294.846 200.984C295.171 200.984 295.409 201.269 295.409 202.285C295.409 203.306 295.171 203.621 294.846 203.621Z" fill="#6C79F9"/>
<path d="M296.557 204.133H299.076V203.504H298.253C298.075 203.504 297.826 203.524 297.638 203.544C298.309 202.843 298.898 202.183 298.898 201.543C298.898 200.852 298.426 200.4 297.715 200.4C297.202 200.4 296.866 200.604 296.521 200.974L296.927 201.381C297.12 201.172 297.344 200.99 297.618 200.99C297.979 200.99 298.182 201.213 298.182 201.584C298.182 202.127 297.537 202.767 296.557 203.702V204.133Z" fill="#6C79F9"/>
</g>
<g opacity="0.5">
<path d="M305.109 261.343C305.424 261.343 305.77 261.237 306.044 260.998L305.744 260.505C305.587 260.637 305.394 260.734 305.191 260.734C304.784 260.734 304.485 260.388 304.485 259.85C304.485 259.317 304.779 258.966 305.216 258.966C305.373 258.966 305.505 259.032 305.648 259.154L306.003 258.672C305.795 258.494 305.526 258.357 305.175 258.357C304.403 258.357 303.723 258.905 303.723 259.85C303.723 260.795 304.322 261.343 305.109 261.343Z" fill="#6C79F9"/>
<path d="M307.614 261.343C308.325 261.343 308.98 260.795 308.98 259.85C308.98 258.905 308.325 258.357 307.614 258.357C306.902 258.357 306.247 258.905 306.247 259.85C306.247 260.795 306.902 261.343 307.614 261.343ZM307.614 260.734C307.228 260.734 307.009 260.388 307.009 259.85C307.009 259.317 307.228 258.966 307.614 258.966C308 258.966 308.218 259.317 308.218 259.85C308.218 260.388 308 260.734 307.614 260.734Z" fill="#6C79F9"/>
<path d="M309.604 261.272H310.351V259.317C310.549 259.103 310.732 258.997 310.895 258.997C311.164 258.997 311.296 259.149 311.296 259.591V261.272H312.037V259.317C312.24 259.103 312.423 258.997 312.586 258.997C312.855 258.997 312.982 259.149 312.982 259.591V261.272H313.729V259.5C313.729 258.783 313.449 258.357 312.845 258.357C312.474 258.357 312.2 258.58 311.941 258.855C311.804 258.54 311.565 258.357 311.159 258.357C310.788 258.357 310.524 258.56 310.285 258.809H310.27L310.214 258.428H309.604V261.272Z" fill="#6C79F9"/>
<path d="M314.5 262.364H315.247V261.501L315.221 261.033C315.44 261.232 315.678 261.343 315.927 261.343C316.552 261.343 317.136 260.779 317.136 259.804C317.136 258.931 316.72 258.357 316.019 258.357C315.714 258.357 315.419 258.519 315.181 258.722H315.165L315.109 258.428H314.5V262.364ZM315.76 260.729C315.607 260.729 315.424 260.673 315.247 260.515V259.266C315.44 259.068 315.612 258.971 315.805 258.971C316.196 258.971 316.369 259.271 316.369 259.814C316.369 260.434 316.105 260.729 315.76 260.729Z" fill="#6C79F9"/>
<path d="M318.957 261.343C319.668 261.343 320.323 260.795 320.323 259.85C320.323 258.905 319.668 258.357 318.957 258.357C318.246 258.357 317.591 258.905 317.591 259.85C317.591 260.795 318.246 261.343 318.957 261.343ZM318.957 260.734C318.571 260.734 318.353 260.388 318.353 259.85C318.353 259.317 318.571 258.966 318.957 258.966C319.343 258.966 319.562 259.317 319.562 259.85C319.562 260.388 319.343 260.734 318.957 260.734Z" fill="#6C79F9"/>
<path d="M320.948 261.272H321.695V259.317C321.903 259.108 322.05 258.997 322.284 258.997C322.563 258.997 322.685 259.149 322.685 259.591V261.272H323.432V259.5C323.432 258.783 323.168 258.357 322.553 258.357C322.167 258.357 321.877 258.56 321.629 258.804H321.613L321.557 258.428H320.948V261.272Z" fill="#6C79F9"/>
<path d="M325.441 261.343C325.791 261.343 326.152 261.221 326.431 261.028L326.177 260.571C325.974 260.698 325.771 260.769 325.538 260.769C325.116 260.769 324.811 260.526 324.75 260.058H326.503C326.523 259.992 326.538 259.855 326.538 259.713C326.538 258.931 326.132 258.357 325.35 258.357C324.674 258.357 324.024 258.931 324.024 259.85C324.024 260.79 324.644 261.343 325.441 261.343ZM324.74 259.561C324.796 259.149 325.06 258.936 325.36 258.936C325.725 258.936 325.898 259.18 325.898 259.561H324.74Z" fill="#6C79F9"/>
<path d="M327.153 261.272H327.9V259.317C328.108 259.108 328.255 258.997 328.489 258.997C328.768 258.997 328.89 259.149 328.89 259.591V261.272H329.637V259.5C329.637 258.783 329.372 258.357 328.758 258.357C328.372 258.357 328.082 258.56 327.834 258.804H327.818L327.762 258.428H327.153V261.272Z" fill="#6C79F9"/>
<path d="M331.448 261.343C331.697 261.343 331.895 261.287 332.047 261.237L331.925 260.693C331.849 260.724 331.737 260.754 331.646 260.754C331.392 260.754 331.26 260.602 331.26 260.277V259.017H331.961V258.428H331.26V257.661H330.64L330.554 258.428L330.112 258.463V259.017H330.513V260.277C330.513 260.912 330.772 261.343 331.448 261.343Z" fill="#6C79F9"/>
<path d="M333.637 261.343C334.409 261.343 334.906 260.668 334.906 259.423C334.906 258.189 334.409 257.539 333.637 257.539C332.865 257.539 332.362 258.184 332.362 259.423C332.362 260.668 332.865 261.343 333.637 261.343ZM333.637 260.759C333.312 260.759 333.068 260.444 333.068 259.423C333.068 258.408 333.312 258.123 333.637 258.123C333.962 258.123 334.2 258.408 334.2 259.423C334.2 260.444 333.962 260.759 333.637 260.759Z" fill="#6C79F9"/>
<path d="M335.962 259.789L336.546 258.865C336.653 258.662 336.754 258.474 336.846 258.276H336.866C336.856 258.494 336.841 258.839 336.841 259.058V259.789H335.962ZM336.841 261.272H337.537V260.363H337.979V259.789H337.537V257.61H336.638L335.236 259.85V260.363H336.841V261.272Z" fill="#6C79F9"/>
</g>
<g opacity="0.5">
<path d="M306.797 319.751C307.112 319.751 307.457 319.645 307.731 319.406L307.432 318.913C307.274 319.045 307.081 319.142 306.878 319.142C306.472 319.142 306.172 318.797 306.172 318.258C306.172 317.725 306.467 317.374 306.903 317.374C307.061 317.374 307.193 317.441 307.335 317.562L307.691 317.08C307.482 316.902 307.213 316.765 306.863 316.765C306.091 316.765 305.41 317.314 305.41 318.258C305.41 319.203 306.009 319.751 306.797 319.751Z" fill="#6C79F9"/>
<path d="M309.301 319.751C310.012 319.751 310.667 319.203 310.667 318.258C310.667 317.314 310.012 316.765 309.301 316.765C308.59 316.765 307.935 317.314 307.935 318.258C307.935 319.203 308.59 319.751 309.301 319.751ZM309.301 319.142C308.915 319.142 308.697 318.797 308.697 318.258C308.697 317.725 308.915 317.374 309.301 317.374C309.687 317.374 309.905 317.725 309.905 318.258C309.905 318.797 309.687 319.142 309.301 319.142Z" fill="#6C79F9"/>
<path d="M311.292 319.68H312.039V317.725C312.237 317.512 312.419 317.405 312.582 317.405C312.851 317.405 312.983 317.557 312.983 317.999V319.68H313.725V317.725C313.928 317.512 314.111 317.405 314.273 317.405C314.543 317.405 314.67 317.557 314.67 317.999V319.68H315.416V317.908C315.416 317.192 315.137 316.765 314.532 316.765C314.162 316.765 313.887 316.988 313.628 317.263C313.491 316.948 313.252 316.765 312.846 316.765C312.475 316.765 312.211 316.968 311.973 317.217H311.957L311.901 316.836H311.292V319.68Z" fill="#6C79F9"/>
<path d="M316.187 320.772H316.934V319.909L316.909 319.442C317.127 319.64 317.366 319.751 317.615 319.751C318.239 319.751 318.823 319.188 318.823 318.213C318.823 317.339 318.407 316.765 317.706 316.765C317.401 316.765 317.107 316.928 316.868 317.131H316.853L316.797 316.836H316.187V320.772ZM317.447 319.137C317.295 319.137 317.112 319.081 316.934 318.924V317.674C317.127 317.476 317.3 317.38 317.493 317.38C317.884 317.38 318.057 317.679 318.057 318.223C318.057 318.842 317.792 319.137 317.447 319.137Z" fill="#6C79F9"/>
<path d="M320.645 319.751C321.356 319.751 322.011 319.203 322.011 318.258C322.011 317.314 321.356 316.765 320.645 316.765C319.934 316.765 319.278 317.314 319.278 318.258C319.278 319.203 319.934 319.751 320.645 319.751ZM320.645 319.142C320.259 319.142 320.04 318.797 320.04 318.258C320.04 317.725 320.259 317.374 320.645 317.374C321.031 317.374 321.249 317.725 321.249 318.258C321.249 318.797 321.031 319.142 320.645 319.142Z" fill="#6C79F9"/>
<path d="M322.635 319.68H323.382V317.725C323.59 317.517 323.738 317.405 323.971 317.405C324.251 317.405 324.373 317.557 324.373 317.999V319.68H325.119V317.908C325.119 317.192 324.855 316.765 324.24 316.765C323.854 316.765 323.565 316.968 323.316 317.212H323.301L323.245 316.836H322.635V319.68Z" fill="#6C79F9"/>
<path d="M327.129 319.751C327.479 319.751 327.84 319.63 328.119 319.437L327.865 318.979C327.662 319.106 327.459 319.178 327.225 319.178C326.803 319.178 326.499 318.934 326.438 318.466H328.19C328.21 318.4 328.226 318.263 328.226 318.121C328.226 317.339 327.819 316.765 327.037 316.765C326.362 316.765 325.711 317.339 325.711 318.258C325.711 319.198 326.331 319.751 327.129 319.751ZM326.428 317.969C326.483 317.557 326.748 317.344 327.047 317.344C327.413 317.344 327.586 317.588 327.586 317.969H326.428Z" fill="#6C79F9"/>
<path d="M328.84 319.68H329.587V317.725C329.795 317.517 329.943 317.405 330.176 317.405C330.456 317.405 330.577 317.557 330.577 317.999V319.68H331.324V317.908C331.324 317.192 331.06 316.765 330.445 316.765C330.059 316.765 329.77 316.968 329.521 317.212H329.506L329.45 316.836H328.84V319.68Z" fill="#6C79F9"/>
<path d="M333.135 319.751C333.384 319.751 333.582 319.696 333.735 319.645L333.613 319.101C333.537 319.132 333.425 319.162 333.334 319.162C333.08 319.162 332.947 319.01 332.947 318.685V317.425H333.648V316.836H332.947V316.069H332.328L332.242 316.836L331.8 316.872V317.425H332.201V318.685C332.201 319.32 332.46 319.751 333.135 319.751Z" fill="#6C79F9"/>
<path d="M335.324 319.751C336.096 319.751 336.594 319.076 336.594 317.832C336.594 316.597 336.096 315.947 335.324 315.947C334.552 315.947 334.049 316.592 334.049 317.832C334.049 319.076 334.552 319.751 335.324 319.751ZM335.324 319.167C334.999 319.167 334.755 318.852 334.755 317.832C334.755 316.816 334.999 316.531 335.324 316.531C335.649 316.531 335.888 316.816 335.888 317.832C335.888 318.852 335.649 319.167 335.324 319.167Z" fill="#6C79F9"/>
<path d="M338.218 319.751C338.914 319.751 339.534 319.284 339.534 318.477C339.534 317.694 339.006 317.339 338.376 317.339C338.203 317.339 338.076 317.374 337.924 317.441L337.995 316.643H339.361V316.018H337.35L337.248 317.847L337.589 318.065C337.807 317.923 337.929 317.867 338.152 317.867C338.533 317.867 338.787 318.096 338.787 318.502C338.787 318.913 338.513 319.142 338.122 319.142C337.772 319.142 337.507 318.969 337.294 318.761L336.949 319.238C337.228 319.518 337.624 319.751 338.218 319.751Z" fill="#6C79F9"/>
</g>
<g opacity="0.5">
<path d="M233.029 357.529H234.74V357.056H233.593V354.706H233.029V357.529Z" fill="#6C79F9"/>
<path d="M235.186 357.529H235.746V355.396H235.186V357.529ZM235.468 355.053C235.658 355.053 235.792 354.931 235.792 354.744C235.792 354.561 235.658 354.439 235.468 354.439C235.273 354.439 235.14 354.561 235.14 354.744C235.14 354.931 235.273 355.053 235.468 355.053Z" fill="#6C79F9"/>
<path d="M236.343 357.529H236.903V356.062C237.059 355.906 237.169 355.822 237.345 355.822C237.554 355.822 237.646 355.937 237.646 356.268V357.529H238.205V356.199C238.205 355.662 238.007 355.342 237.546 355.342C237.257 355.342 237.04 355.495 236.853 355.677H236.842L236.8 355.396H236.343V357.529Z" fill="#6C79F9"/>
<path d="M239.713 357.582C239.975 357.582 240.246 357.491 240.455 357.346L240.265 357.003C240.113 357.098 239.96 357.152 239.785 357.152C239.469 357.152 239.24 356.969 239.194 356.618H240.509C240.524 356.569 240.535 356.466 240.535 356.359C240.535 355.773 240.231 355.342 239.644 355.342C239.137 355.342 238.65 355.773 238.65 356.462C238.65 357.167 239.114 357.582 239.713 357.582ZM239.187 356.245C239.229 355.937 239.427 355.777 239.652 355.777C239.926 355.777 240.055 355.959 240.055 356.245H239.187Z" fill="#6C79F9"/>
<path d="M241.08 358.188H241.953V357.883H241.499V354.767H241.953V354.47H241.08V358.188Z" fill="#6C79F9"/>
<path d="M242.448 357.529H244.143V357.075H243.613V354.782H243.198C243.019 354.893 242.825 354.965 242.543 355.018V355.365H243.053V357.075H242.448V357.529Z" fill="#6C79F9"/>
<path d="M244.561 358.188H245.434V354.47H244.561V354.767H245.015V357.883H244.561V358.188Z" fill="#6C79F9"/>
</g>
<g opacity="0.5">
<path d="M25.6387 357.529H27.349V357.056H26.2024V354.706H25.6387V357.529Z" fill="#6C79F9"/>
<path d="M27.7952 357.529H28.3552V355.396H27.7952V357.529ZM28.0771 355.053C28.2676 355.053 28.4009 354.931 28.4009 354.744C28.4009 354.561 28.2676 354.439 28.0771 354.439C27.8828 354.439 27.7495 354.561 27.7495 354.744C27.7495 354.931 27.8828 355.053 28.0771 355.053Z" fill="#6C79F9"/>
<path d="M28.9521 357.529H29.5121V356.062C29.6683 355.906 29.7787 355.822 29.954 355.822C30.1635 355.822 30.2549 355.937 30.2549 356.268V357.529H30.8149V356.199C30.8149 355.662 30.6168 355.342 30.1559 355.342C29.8664 355.342 29.6492 355.495 29.4626 355.677H29.4511L29.4092 355.396H28.9521V357.529Z" fill="#6C79F9"/>
<path d="M32.3219 357.582C32.5848 357.582 32.8552 357.491 33.0647 357.346L32.8743 357.003C32.7219 357.098 32.5695 357.152 32.3943 357.152C32.0781 357.152 31.8496 356.969 31.8039 356.618H33.1181C33.1333 356.569 33.1447 356.466 33.1447 356.359C33.1447 355.773 32.84 355.342 32.2534 355.342C31.7467 355.342 31.2591 355.773 31.2591 356.462C31.2591 357.167 31.7239 357.582 32.3219 357.582ZM31.7962 356.245C31.8381 355.937 32.0362 355.777 32.261 355.777C32.5352 355.777 32.6648 355.959 32.6648 356.245H31.7962Z" fill="#6C79F9"/>
<path d="M33.6897 358.188H34.562V357.883H34.1087V354.767H34.562V354.47H33.6897V358.188Z" fill="#6C79F9"/>
<path d="M35.0569 357.529H36.7521V357.075H36.2226V354.782H35.8074C35.6283 354.893 35.434 354.965 35.1522 355.018V355.365H35.6626V357.075H35.0569V357.529Z" fill="#6C79F9"/>
<path d="M37.1706 358.188H38.0429V354.47H37.1706V354.767H37.6239V357.883H37.1706V358.188Z" fill="#6C79F9"/>
</g>
<g opacity="0.5">
<path d="M25.6387 409.798H27.349V409.326H26.2024V406.976H25.6387V409.798Z" fill="#6C79F9"/>
<path d="M27.7952 409.798H28.3552V407.665H27.7952V409.798ZM28.0771 407.322C28.2676 407.322 28.4009 407.2 28.4009 407.014C28.4009 406.831 28.2676 406.709 28.0771 406.709C27.8828 406.709 27.7495 406.831 27.7495 407.014C27.7495 407.2 27.8828 407.322 28.0771 407.322Z" fill="#6C79F9"/>
<path d="M28.9521 409.798H29.5121V408.332C29.6683 408.176 29.7787 408.092 29.954 408.092C30.1635 408.092 30.2549 408.206 30.2549 408.537V409.798H30.8149V408.469C30.8149 407.932 30.6168 407.612 30.1559 407.612C29.8664 407.612 29.6492 407.764 29.4626 407.947H29.4511L29.4092 407.665H28.9521V409.798Z" fill="#6C79F9"/>
<path d="M32.3219 409.852C32.5848 409.852 32.8552 409.76 33.0647 409.615L32.8743 409.273C32.7219 409.368 32.5695 409.421 32.3943 409.421C32.0781 409.421 31.8496 409.238 31.8039 408.888H33.1181C33.1333 408.838 33.1447 408.736 33.1447 408.629C33.1447 408.042 32.84 407.612 32.2534 407.612C31.7467 407.612 31.2591 408.042 31.2591 408.732C31.2591 409.436 31.7239 409.852 32.3219 409.852ZM31.7962 408.515C31.8381 408.206 32.0362 408.046 32.261 408.046C32.5352 408.046 32.6648 408.229 32.6648 408.515H31.7962Z" fill="#6C79F9"/>
<path d="M33.6897 410.457H34.562V410.153H34.1087V407.037H34.562V406.739H33.6897V410.457Z" fill="#6C79F9"/>
<path d="M34.9084 409.798H36.7978V409.326H36.1807C36.0473 409.326 35.8607 409.341 35.7197 409.356C36.2226 408.831 36.6644 408.336 36.6644 407.856C36.6644 407.338 36.3102 406.998 35.7769 406.998C35.3921 406.998 35.1407 407.151 34.8817 407.429L35.1864 407.734C35.3312 407.578 35.4988 407.44 35.7045 407.44C35.975 407.44 36.1273 407.608 36.1273 407.886C36.1273 408.294 35.6436 408.774 34.9084 409.475V409.798Z" fill="#6C79F9"/>
<path d="M37.1706 410.457H38.0429V406.739H37.1706V407.037H37.6239V410.153H37.1706V410.457Z" fill="#6C79F9"/>
</g>
<g opacity="0.5">
<path d="M233.029 409.798H234.74V409.326H233.593V406.976H233.029V409.798Z" fill="#6C79F9"/>
<path d="M235.186 409.798H235.746V407.665H235.186V409.798ZM235.468 407.322C235.658 407.322 235.792 407.2 235.792 407.014C235.792 406.831 235.658 406.709 235.468 406.709C235.273 406.709 235.14 406.831 235.14 407.014C235.14 407.2 235.273 407.322 235.468 407.322Z" fill="#6C79F9"/>
<path d="M236.343 409.798H236.903V408.332C237.059 408.176 237.169 408.092 237.345 408.092C237.554 408.092 237.646 408.206 237.646 408.537V409.798H238.205V408.469C238.205 407.932 238.007 407.612 237.546 407.612C237.257 407.612 237.04 407.764 236.853 407.947H236.842L236.8 407.665H236.343V409.798Z" fill="#6C79F9"/>
<path d="M239.713 409.852C239.975 409.852 240.246 409.76 240.455 409.615L240.265 409.273C240.113 409.368 239.96 409.421 239.785 409.421C239.469 409.421 239.24 409.238 239.194 408.888H240.509C240.524 408.838 240.535 408.736 240.535 408.629C240.535 408.042 240.231 407.612 239.644 407.612C239.137 407.612 238.65 408.042 238.65 408.732C238.65 409.436 239.114 409.852 239.713 409.852ZM239.187 408.515C239.229 408.206 239.427 408.046 239.652 408.046C239.926 408.046 240.055 408.229 240.055 408.515H239.187Z" fill="#6C79F9"/>
<path d="M241.08 410.457H241.953V410.153H241.499V407.037H241.953V406.739H241.08V410.457Z" fill="#6C79F9"/>
<path d="M242.299 409.798H244.188V409.326H243.571C243.438 409.326 243.251 409.341 243.11 409.356C243.613 408.831 244.055 408.336 244.055 407.856C244.055 407.338 243.701 406.998 243.168 406.998C242.783 406.998 242.531 407.151 242.272 407.429L242.577 407.734C242.722 407.578 242.889 407.44 243.095 407.44C243.366 407.44 243.518 407.608 243.518 407.886C243.518 408.294 243.034 408.774 242.299 409.475V409.798Z" fill="#6C79F9"/>
<path d="M244.561 410.457H245.434V406.739H244.561V407.037H245.015V410.153H244.561V410.457Z" fill="#6C79F9"/>
</g>
<path d="M23.209 368.002C23.209 366.6 24.346 365.463 25.7485 365.463H204.383C205.786 365.463 206.923 366.6 206.923 368.002V395.497C206.923 396.9 205.786 398.037 204.383 398.037H25.7485C24.346 398.037 23.209 396.9 23.209 395.497V368.002Z" fill="#FFEEF0"/>
<path d="M24.1289 418.645C24.1289 417.242 25.2659 416.105 26.6684 416.105H205.303C206.706 416.105 207.843 417.242 207.843 418.645V442.904C207.843 444.307 206.706 445.444 205.303 445.444H26.6684C25.2659 445.444 24.1289 444.307 24.1289 442.904V418.645Z" fill="#F1F8FF" fill-opacity="0.5"/>
<path d="M230.953 418.645C230.953 417.242 232.09 416.105 233.493 416.105H416.278C417.68 416.105 418.817 417.242 418.817 418.645V432.525C418.817 433.927 417.68 435.064 416.278 435.064H233.493C232.09 435.064 230.953 433.927 230.953 432.525V418.645Z" fill="#F1F8FF"/>
<path d="M35.4082 372.266H94.4221V375.638H35.4082V372.266Z" fill="#FFBFC7"/>
<path d="M35.4082 380.695H80.9332V384.068H35.4082V380.695Z" fill="#FFBFC7"/>
<path d="M35.4082 389.127H64.0721V392.499H35.4082V389.127Z" fill="#FFBFC7"/>
<path d="M35.4082 421.162H94.4221V424.534H35.4082V421.162Z" fill="#D7E2F0"/>
<path d="M35.4082 429.592H80.9332V432.964H35.4082V429.592Z" fill="#D7E2F0"/>
<path d="M35.4082 438.023H64.0721V441.396H35.4082V438.023Z" fill="#D7E2F0"/>
<path d="M242.801 419.479H269.779V422.851H242.801V419.479Z" fill="#D7E2F0"/>
<path d="M242.801 427.908H301.333V431.28H242.801V427.908Z" fill="#D7E2F0"/>
<path fill-rule="evenodd" clip-rule="evenodd" d="M157.77 193.426L157.77 164.561L158.404 164.561L158.404 193.426L157.77 193.426Z" fill="#6C79F9" fill-opacity="0.5"/>
<path d="M130.115 145.723C130.115 144.321 131.252 143.184 132.655 143.184H179.84C181.242 143.184 182.379 144.321 182.379 145.723V162.808C182.379 164.211 181.242 165.348 179.84 165.348H132.655C131.252 165.348 130.115 164.211 130.115 162.808V145.723Z" fill="#F9F9FF"/>
<path fill-rule="evenodd" clip-rule="evenodd" d="M179.84 144.453H132.655C131.953 144.453 131.385 145.022 131.385 145.723V162.808C131.385 163.51 131.953 164.078 132.655 164.078H179.84C180.541 164.078 181.11 163.51 181.11 162.808V145.723C181.11 145.022 180.541 144.453 179.84 144.453ZM132.655 143.184C131.252 143.184 130.115 144.321 130.115 145.723V162.808C130.115 164.211 131.252 165.348 132.655 165.348H179.84C181.242 165.348 182.379 164.211 182.379 162.808V145.723C182.379 144.321 181.242 143.184 179.84 143.184H132.655Z" fill="#6C79F9" fill-opacity="0.5"/>
<path fill-rule="evenodd" clip-rule="evenodd" d="M103.142 251.023C86.2651 246.411 74.224 231.529 73.2363 214.061L73.8702 214.025C74.8425 231.221 86.6957 245.871 103.31 250.411L108.687 251.88L108.52 252.493L103.142 251.023Z" fill="#6C79F9" fill-opacity="0.5"/>
<path fill-rule="evenodd" clip-rule="evenodd" d="M129.734 250.2C146.195 246.124 157.494 231 156.736 214.058L157.37 214.03C158.142 231.273 146.641 246.667 129.887 250.817L123.11 252.495L122.957 251.879L129.734 250.2Z" fill="#6C79F9" fill-opacity="0.5"/>
<path d="M48.8516 195.243C48.8516 193.84 49.9885 192.703 51.3911 192.703H98.5762C99.9787 192.703 101.116 193.84 101.116 195.243V212.328C101.116 213.73 99.9787 214.867 98.5762 214.867H51.3911C49.9885 214.867 48.8516 213.73 48.8516 212.328V195.243Z" fill="#F9F9FF"/>
<path fill-rule="evenodd" clip-rule="evenodd" d="M98.5762 193.973H51.3911C50.6898 193.973 50.1213 194.541 50.1213 195.243V212.328C50.1213 213.029 50.6898 213.598 51.3911 213.598H98.5762C99.2774 213.598 99.8459 213.029 99.8459 212.328V195.243C99.8459 194.541 99.2774 193.973 98.5762 193.973ZM51.3911 192.703C49.9885 192.703 48.8516 193.84 48.8516 195.243V212.328C48.8516 213.73 49.9885 214.867 51.3911 214.867H98.5762C99.9787 214.867 101.116 213.73 101.116 212.328V195.243C101.116 193.84 99.9787 192.703 98.5762 192.703H51.3911Z" fill="#6C79F9" fill-opacity="0.5"/>
<path d="M89.0469 253.219C89.0469 251.817 90.1839 250.68 91.5864 250.68H138.771C140.174 250.68 141.311 251.817 141.311 253.219V270.304C141.311 271.707 140.174 272.844 138.771 272.844H91.5864C90.1839 272.844 89.0469 271.707 89.0469 270.304V253.219Z" fill="#F9F9FF"/>
<path fill-rule="evenodd" clip-rule="evenodd" d="M138.771 251.949H91.5864C90.8851 251.949 90.3166 252.518 90.3166 253.219V270.304C90.3166 271.006 90.8851 271.574 91.5864 271.574H138.771C139.473 271.574 140.041 271.006 140.041 270.304V253.219C140.041 252.518 139.473 251.949 138.771 251.949ZM91.5864 250.68C90.1839 250.68 89.0469 251.817 89.0469 253.219V270.304C89.0469 271.707 90.1839 272.844 91.5864 272.844H138.771C140.174 272.844 141.311 271.707 141.311 270.304V253.219C141.311 251.817 140.174 250.68 138.771 250.68H91.5864Z" fill="#6C79F9" fill-opacity="0.5"/>
<path d="M130.115 195.243C130.115 193.84 131.252 192.703 132.655 192.703H177.351C178.754 192.703 179.891 193.84 179.891 195.243V212.328C179.891 213.73 178.754 214.867 177.351 214.867H132.655C131.252 214.867 130.115 213.73 130.115 212.328V195.243Z" fill="#F9F9FF"/>
<path fill-rule="evenodd" clip-rule="evenodd" d="M177.351 193.973H132.655C131.953 193.973 131.385 194.541 131.385 195.243V212.328C131.385 213.029 131.953 213.598 132.655 213.598H177.351C178.052 213.598 178.621 213.029 178.621 212.328V195.243C178.621 194.541 178.052 193.973 177.351 193.973ZM132.655 192.703C131.252 192.703 130.115 193.84 130.115 195.243V212.328C130.115 213.73 131.252 214.867 132.655 214.867H177.351C178.754 214.867 179.891 213.73 179.891 212.328V195.243C179.891 193.84 178.754 192.703 177.351 192.703H132.655Z" fill="#6C79F9" fill-opacity="0.5"/>
<path d="M139.344 157.224C139.659 157.224 140.004 157.117 140.278 156.879L139.978 156.386C139.821 156.518 139.628 156.615 139.425 156.615C139.019 156.615 138.719 156.269 138.719 155.731C138.719 155.198 139.013 154.847 139.45 154.847C139.608 154.847 139.74 154.913 139.882 155.035L140.238 154.553C140.029 154.375 139.76 154.238 139.41 154.238C138.638 154.238 137.957 154.786 137.957 155.731C137.957 156.676 138.556 157.224 139.344 157.224Z" fill="#6C79F9" fill-opacity="0.5"/>
<path d="M141.848 157.224C142.559 157.224 143.214 156.676 143.214 155.731C143.214 154.786 142.559 154.238 141.848 154.238C141.137 154.238 140.482 154.786 140.482 155.731C140.482 156.676 141.137 157.224 141.848 157.224ZM141.848 156.615C141.462 156.615 141.244 156.269 141.244 155.731C141.244 155.198 141.462 154.847 141.848 154.847C142.234 154.847 142.452 155.198 142.452 155.731C142.452 156.269 142.234 156.615 141.848 156.615Z" fill="#6C79F9" fill-opacity="0.5"/>
<path d="M143.839 157.153H144.585V155.198C144.784 154.984 144.966 154.878 145.129 154.878C145.398 154.878 145.53 155.03 145.53 155.472V157.153H146.272V155.198C146.475 154.984 146.658 154.878 146.82 154.878C147.089 154.878 147.216 155.03 147.216 155.472V157.153H147.963V155.38C147.963 154.664 147.684 154.238 147.079 154.238C146.708 154.238 146.434 154.461 146.175 154.735C146.038 154.42 145.799 154.238 145.393 154.238C145.022 154.238 144.758 154.441 144.519 154.69H144.504L144.448 154.309H143.839V157.153Z" fill="#6C79F9" fill-opacity="0.5"/>
<path d="M148.734 158.245H149.481V157.382L149.456 156.914C149.674 157.112 149.913 157.224 150.162 157.224C150.786 157.224 151.37 156.66 151.37 155.685C151.37 154.812 150.954 154.238 150.253 154.238C149.948 154.238 149.654 154.4 149.415 154.603H149.4L149.344 154.309H148.734V158.245ZM149.994 156.61C149.842 156.61 149.659 156.554 149.481 156.396V155.147C149.674 154.949 149.847 154.852 150.04 154.852C150.431 154.852 150.603 155.152 150.603 155.695C150.603 156.315 150.339 156.61 149.994 156.61Z" fill="#6C79F9" fill-opacity="0.5"/>
<path d="M153.191 157.224C153.903 157.224 154.558 156.676 154.558 155.731C154.558 154.786 153.903 154.238 153.191 154.238C152.48 154.238 151.825 154.786 151.825 155.731C151.825 156.676 152.48 157.224 153.191 157.224ZM153.191 156.615C152.805 156.615 152.587 156.269 152.587 155.731C152.587 155.198 152.805 154.847 153.191 154.847C153.577 154.847 153.796 155.198 153.796 155.731C153.796 156.269 153.577 156.615 153.191 156.615Z" fill="#6C79F9" fill-opacity="0.5"/>
<path d="M155.182 157.153H155.929V155.198C156.137 154.989 156.285 154.878 156.518 154.878C156.797 154.878 156.919 155.03 156.919 155.472V157.153H157.666V155.38C157.666 154.664 157.402 154.238 156.787 154.238C156.401 154.238 156.112 154.441 155.863 154.685H155.848L155.792 154.309H155.182V157.153Z" fill="#6C79F9" fill-opacity="0.5"/>
<path d="M159.675 157.224C160.026 157.224 160.386 157.102 160.666 156.909L160.412 156.452C160.209 156.579 160.006 156.65 159.772 156.65C159.35 156.65 159.046 156.406 158.985 155.939H160.737C160.757 155.873 160.772 155.736 160.772 155.594C160.772 154.812 160.366 154.238 159.584 154.238C158.908 154.238 158.258 154.812 158.258 155.731C158.258 156.671 158.878 157.224 159.675 157.224ZM158.975 155.441C159.03 155.03 159.294 154.817 159.594 154.817C159.96 154.817 160.133 155.06 160.133 155.441H158.975Z" fill="#6C79F9" fill-opacity="0.5"/>
<path d="M161.387 157.153H162.134V155.198C162.342 154.989 162.489 154.878 162.723 154.878C163.002 154.878 163.124 155.03 163.124 155.472V157.153H163.871V155.38C163.871 154.664 163.607 154.238 162.992 154.238C162.606 154.238 162.317 154.441 162.068 154.685H162.053L161.997 154.309H161.387V157.153Z" fill="#6C79F9" fill-opacity="0.5"/>
<path d="M165.682 157.224C165.931 157.224 166.129 157.168 166.282 157.117L166.16 156.574C166.084 156.604 165.972 156.635 165.88 156.635C165.626 156.635 165.494 156.483 165.494 156.158V154.898H166.195V154.309H165.494V153.542H164.875L164.788 154.309L164.347 154.344V154.898H164.748V156.158C164.748 156.792 165.007 157.224 165.682 157.224Z" fill="#6C79F9" fill-opacity="0.5"/>
<path d="M167.871 157.224C168.643 157.224 169.141 156.549 169.141 155.304C169.141 154.07 168.643 153.42 167.871 153.42C167.099 153.42 166.596 154.065 166.596 155.304C166.596 156.549 167.099 157.224 167.871 157.224ZM167.871 156.64C167.546 156.64 167.302 156.325 167.302 155.304C167.302 154.288 167.546 154.004 167.871 154.004C168.196 154.004 168.435 154.288 168.435 155.304C168.435 156.325 168.196 156.64 167.871 156.64Z" fill="#6C79F9" fill-opacity="0.5"/>
<path d="M169.78 157.153H172.04V156.549H171.334V153.491H170.781C170.542 153.638 170.283 153.735 169.907 153.806V154.268H170.588V156.549H169.78V157.153Z" fill="#6C79F9" fill-opacity="0.5"/>
<path d="M139.344 206.742C139.659 206.742 140.004 206.635 140.278 206.396L139.978 205.904C139.821 206.036 139.628 206.132 139.425 206.132C139.019 206.132 138.719 205.787 138.719 205.248C138.719 204.715 139.013 204.365 139.45 204.365C139.608 204.365 139.74 204.431 139.882 204.553L140.238 204.07C140.029 203.892 139.76 203.755 139.41 203.755C138.638 203.755 137.957 204.304 137.957 205.248C137.957 206.193 138.556 206.742 139.344 206.742Z" fill="#6C79F9" fill-opacity="0.5"/>
<path d="M141.848 206.742C142.559 206.742 143.214 206.193 143.214 205.248C143.214 204.304 142.559 203.755 141.848 203.755C141.137 203.755 140.482 204.304 140.482 205.248C140.482 206.193 141.137 206.742 141.848 206.742ZM141.848 206.132C141.462 206.132 141.244 205.787 141.244 205.248C141.244 204.715 141.462 204.365 141.848 204.365C142.234 204.365 142.452 204.715 142.452 205.248C142.452 205.787 142.234 206.132 141.848 206.132Z" fill="#6C79F9" fill-opacity="0.5"/>
<path d="M143.839 206.671H144.585V204.715C144.784 204.502 144.966 204.395 145.129 204.395C145.398 204.395 145.53 204.548 145.53 204.989V206.671H146.272V204.715C146.475 204.502 146.658 204.395 146.82 204.395C147.089 204.395 147.216 204.548 147.216 204.989V206.671H147.963V204.898C147.963 204.182 147.684 203.755 147.079 203.755C146.708 203.755 146.434 203.979 146.175 204.253C146.038 203.938 145.799 203.755 145.393 203.755C145.022 203.755 144.758 203.958 144.519 204.207H144.504L144.448 203.826H143.839V206.671Z" fill="#6C79F9" fill-opacity="0.5"/>
<path d="M148.734 207.763H149.481V206.899L149.456 206.432C149.674 206.63 149.913 206.742 150.162 206.742C150.786 206.742 151.37 206.178 151.37 205.203C151.37 204.329 150.954 203.755 150.253 203.755C149.948 203.755 149.654 203.918 149.415 204.121H149.4L149.344 203.826H148.734V207.763ZM149.994 206.127C149.842 206.127 149.659 206.071 149.481 205.914V204.664C149.674 204.466 149.847 204.37 150.04 204.37C150.431 204.37 150.603 204.669 150.603 205.213C150.603 205.833 150.339 206.127 149.994 206.127Z" fill="#6C79F9" fill-opacity="0.5"/>
<path d="M153.191 206.742C153.903 206.742 154.558 206.193 154.558 205.248C154.558 204.304 153.903 203.755 153.191 203.755C152.48 203.755 151.825 204.304 151.825 205.248C151.825 206.193 152.48 206.742 153.191 206.742ZM153.191 206.132C152.805 206.132 152.587 205.787 152.587 205.248C152.587 204.715 152.805 204.365 153.191 204.365C153.577 204.365 153.796 204.715 153.796 205.248C153.796 205.787 153.577 206.132 153.191 206.132Z" fill="#6C79F9" fill-opacity="0.5"/>
<path d="M155.182 206.671H155.929V204.715C156.137 204.507 156.285 204.395 156.518 204.395C156.797 204.395 156.919 204.548 156.919 204.989V206.671H157.666V204.898C157.666 204.182 157.402 203.755 156.787 203.755C156.401 203.755 156.112 203.958 155.863 204.202H155.848L155.792 203.826H155.182V206.671Z" fill="#6C79F9" fill-opacity="0.5"/>
<path d="M159.675 206.742C160.026 206.742 160.386 206.62 160.666 206.427L160.412 205.97C160.209 206.097 160.006 206.168 159.772 206.168C159.35 206.168 159.046 205.924 158.985 205.457H160.737C160.757 205.391 160.772 205.254 160.772 205.111C160.772 204.329 160.366 203.755 159.584 203.755C158.908 203.755 158.258 204.329 158.258 205.248C158.258 206.188 158.878 206.742 159.675 206.742ZM158.975 204.959C159.03 204.548 159.294 204.334 159.594 204.334C159.96 204.334 160.133 204.578 160.133 204.959H158.975Z" fill="#6C79F9" fill-opacity="0.5"/>
<path d="M161.387 206.671H162.134V204.715C162.342 204.507 162.489 204.395 162.723 204.395C163.002 204.395 163.124 204.548 163.124 204.989V206.671H163.871V204.898C163.871 204.182 163.607 203.755 162.992 203.755C162.606 203.755 162.317 203.958 162.068 204.202H162.053L161.997 203.826H161.387V206.671Z" fill="#6C79F9" fill-opacity="0.5"/>
<path d="M165.682 206.742C165.931 206.742 166.129 206.686 166.282 206.635L166.16 206.092C166.084 206.122 165.972 206.153 165.88 206.153C165.626 206.153 165.494 206 165.494 205.675V204.416H166.195V203.826H165.494V203.059H164.875L164.788 203.826L164.347 203.862V204.416H164.748V205.675C164.748 206.31 165.007 206.742 165.682 206.742Z" fill="#6C79F9" fill-opacity="0.5"/>
<path d="M167.871 206.742C168.643 206.742 169.141 206.066 169.141 204.822C169.141 203.588 168.643 202.938 167.871 202.938C167.099 202.938 166.596 203.583 166.596 204.822C166.596 206.066 167.099 206.742 167.871 206.742ZM167.871 206.158C167.546 206.158 167.302 205.843 167.302 204.822C167.302 203.806 167.546 203.522 167.871 203.522C168.196 203.522 168.435 203.806 168.435 204.822C168.435 205.843 168.196 206.158 167.871 206.158Z" fill="#6C79F9" fill-opacity="0.5"/>
<path d="M170.755 206.742C171.471 206.742 172.076 206.351 172.076 205.68C172.076 205.198 171.751 204.888 171.329 204.776V204.751C171.72 204.593 171.954 204.319 171.954 203.923C171.954 203.293 171.461 202.938 170.735 202.938C170.293 202.938 169.932 203.12 169.607 203.405L169.988 203.862C170.212 203.654 170.43 203.527 170.699 203.527C171.019 203.527 171.202 203.694 171.202 203.979C171.202 204.294 170.979 204.522 170.288 204.522V205.061C171.106 205.061 171.324 205.279 171.324 205.634C171.324 205.949 171.065 206.132 170.684 206.132C170.344 206.132 170.07 205.965 169.846 205.746L169.496 206.219C169.76 206.518 170.161 206.742 170.755 206.742Z" fill="#6C79F9" fill-opacity="0.5"/>
<path d="M99.4061 264.302C99.721 264.302 100.066 264.196 100.341 263.957L100.041 263.464C99.8835 263.596 99.6905 263.693 99.4874 263.693C99.0811 263.693 98.7814 263.347 98.7814 262.809C98.7814 262.276 99.076 261.925 99.5128 261.925C99.6702 261.925 99.8023 261.991 99.9445 262.113L100.3 261.631C100.092 261.453 99.8226 261.316 99.4721 261.316C98.7001 261.316 98.0195 261.864 98.0195 262.809C98.0195 263.754 98.6189 264.302 99.4061 264.302Z" fill="#6C79F9" fill-opacity="0.5"/>
<path d="M101.91 264.302C102.622 264.302 103.277 263.754 103.277 262.809C103.277 261.864 102.622 261.316 101.91 261.316C101.199 261.316 100.544 261.864 100.544 262.809C100.544 263.754 101.199 264.302 101.91 264.302ZM101.91 263.693C101.524 263.693 101.306 263.347 101.306 262.809C101.306 262.276 101.524 261.925 101.91 261.925C102.296 261.925 102.515 262.276 102.515 262.809C102.515 263.347 102.296 263.693 101.91 263.693Z" fill="#6C79F9" fill-opacity="0.5"/>
<path d="M103.901 264.231H104.648V262.276C104.846 262.062 105.029 261.956 105.191 261.956C105.461 261.956 105.593 262.108 105.593 262.55V264.231H106.334V262.276C106.537 262.062 106.72 261.956 106.883 261.956C107.152 261.956 107.279 262.108 107.279 262.55V264.231H108.025V262.459C108.025 261.742 107.746 261.316 107.142 261.316C106.771 261.316 106.497 261.539 106.238 261.814C106.101 261.499 105.862 261.316 105.455 261.316C105.085 261.316 104.821 261.519 104.582 261.768H104.567L104.511 261.387H103.901V264.231Z" fill="#6C79F9" fill-opacity="0.5"/>
<path d="M108.797 265.323H109.543V264.46L109.518 263.992C109.736 264.191 109.975 264.302 110.224 264.302C110.849 264.302 111.433 263.738 111.433 262.763C111.433 261.89 111.016 261.316 110.315 261.316C110.011 261.316 109.716 261.478 109.477 261.681H109.462L109.406 261.387H108.797V265.323ZM110.056 263.688C109.904 263.688 109.721 263.632 109.543 263.474V262.225C109.736 262.027 109.909 261.93 110.102 261.93C110.493 261.93 110.666 262.23 110.666 262.773C110.666 263.393 110.402 263.688 110.056 263.688Z" fill="#6C79F9" fill-opacity="0.5"/>
<path d="M113.254 264.302C113.965 264.302 114.62 263.754 114.62 262.809C114.62 261.864 113.965 261.316 113.254 261.316C112.543 261.316 111.888 261.864 111.888 262.809C111.888 263.754 112.543 264.302 113.254 264.302ZM113.254 263.693C112.868 263.693 112.65 263.347 112.65 262.809C112.65 262.276 112.868 261.925 113.254 261.925C113.64 261.925 113.858 262.276 113.858 262.809C113.858 263.347 113.64 263.693 113.254 263.693Z" fill="#6C79F9" fill-opacity="0.5"/>
<path d="M115.245 264.231H115.991V262.276C116.2 262.067 116.347 261.956 116.581 261.956C116.86 261.956 116.982 262.108 116.982 262.55V264.231H117.729V262.459C117.729 261.742 117.464 261.316 116.85 261.316C116.464 261.316 116.174 261.519 115.925 261.763H115.91L115.854 261.387H115.245V264.231Z" fill="#6C79F9" fill-opacity="0.5"/>
<path d="M119.738 264.302C120.088 264.302 120.449 264.18 120.728 263.987L120.474 263.53C120.271 263.657 120.068 263.728 119.834 263.728C119.413 263.728 119.108 263.485 119.047 263.017H120.799C120.82 262.951 120.835 262.814 120.835 262.672C120.835 261.89 120.429 261.316 119.646 261.316C118.971 261.316 118.321 261.89 118.321 262.809C118.321 263.749 118.94 264.302 119.738 264.302ZM119.037 262.52C119.093 262.108 119.357 261.895 119.657 261.895C120.022 261.895 120.195 262.139 120.195 262.52H119.037Z" fill="#6C79F9" fill-opacity="0.5"/>
<path d="M121.45 264.231H122.196V262.276C122.405 262.067 122.552 261.956 122.786 261.956C123.065 261.956 123.187 262.108 123.187 262.55V264.231H123.933V262.459C123.933 261.742 123.669 261.316 123.055 261.316C122.669 261.316 122.379 261.519 122.13 261.763H122.115L122.059 261.387H121.45V264.231Z" fill="#6C79F9" fill-opacity="0.5"/>
<path d="M125.745 264.302C125.994 264.302 126.192 264.246 126.344 264.196L126.222 263.652C126.146 263.683 126.034 263.713 125.943 263.713C125.689 263.713 125.557 263.561 125.557 263.236V261.976H126.258V261.387H125.557V260.62H124.937L124.851 261.387L124.409 261.422V261.976H124.81V263.236C124.81 263.871 125.069 264.302 125.745 264.302Z" fill="#6C79F9" fill-opacity="0.5"/>
<path d="M127.933 264.302C128.705 264.302 129.203 263.627 129.203 262.382C129.203 261.148 128.705 260.498 127.933 260.498C127.161 260.498 126.659 261.143 126.659 262.382C126.659 263.627 127.161 264.302 127.933 264.302ZM127.933 263.718C127.608 263.718 127.365 263.403 127.365 262.382C127.365 261.367 127.608 261.082 127.933 261.082C128.259 261.082 128.497 261.367 128.497 262.382C128.497 263.403 128.259 263.718 127.933 263.718Z" fill="#6C79F9" fill-opacity="0.5"/>
<path d="M130.259 262.748L130.843 261.824C130.95 261.621 131.051 261.433 131.143 261.235H131.163C131.153 261.453 131.138 261.798 131.138 262.017V262.748H130.259ZM131.138 264.231H131.834V263.322H132.275V262.748H131.834V260.569H130.935L129.533 262.809V263.322H131.138V264.231Z" fill="#6C79F9" fill-opacity="0.5"/>
<path d="M58.078 206.742C58.3929 206.742 58.7383 206.635 59.0125 206.396L58.7129 205.904C58.5554 206.036 58.3624 206.132 58.1593 206.132C57.7529 206.132 57.4533 205.787 57.4533 205.248C57.4533 204.715 57.7478 204.365 58.1846 204.365C58.3421 204.365 58.4742 204.431 58.6164 204.553L58.9719 204.07C58.7637 203.892 58.4945 203.755 58.144 203.755C57.372 203.755 56.6914 204.304 56.6914 205.248C56.6914 206.193 57.2907 206.742 58.078 206.742Z" fill="#6C79F9" fill-opacity="0.5"/>
<path d="M60.5823 206.742C61.2934 206.742 61.9486 206.193 61.9486 205.248C61.9486 204.304 61.2934 203.755 60.5823 203.755C59.8712 203.755 59.2161 204.304 59.2161 205.248C59.2161 206.193 59.8712 206.742 60.5823 206.742ZM60.5823 206.132C60.1963 206.132 59.9779 205.787 59.9779 205.248C59.9779 204.715 60.1963 204.365 60.5823 204.365C60.9683 204.365 61.1867 204.715 61.1867 205.248C61.1867 205.787 60.9683 206.132 60.5823 206.132Z" fill="#6C79F9" fill-opacity="0.5"/>
<path d="M62.5732 206.671H63.3198V204.715C63.5179 204.502 63.7007 204.395 63.8633 204.395C64.1325 204.395 64.2645 204.548 64.2645 204.989V206.671H65.0061V204.715C65.2092 204.502 65.3921 204.395 65.5546 204.395C65.8238 204.395 65.9508 204.548 65.9508 204.989V206.671H66.6974V204.898C66.6974 204.182 66.418 203.755 65.8136 203.755C65.4428 203.755 65.1686 203.979 64.9095 204.253C64.7724 203.938 64.5337 203.755 64.1274 203.755C63.7566 203.755 63.4925 203.958 63.2538 204.207H63.2385L63.1827 203.826H62.5732V206.671Z" fill="#6C79F9" fill-opacity="0.5"/>
<path d="M67.4687 207.763H68.2153V206.899L68.1899 206.432C68.4083 206.63 68.6471 206.742 68.8959 206.742C69.5207 206.742 70.1047 206.178 70.1047 205.203C70.1047 204.329 69.6883 203.755 68.9874 203.755C68.6826 203.755 68.388 203.918 68.1493 204.121H68.1341L68.0782 203.826H67.4687V207.763ZM68.7283 206.127C68.5759 206.127 68.3931 206.071 68.2153 205.914V204.664C68.4083 204.466 68.581 204.37 68.774 204.37C69.1651 204.37 69.3378 204.669 69.3378 205.213C69.3378 205.833 69.0737 206.127 68.7283 206.127Z" fill="#6C79F9" fill-opacity="0.5"/>
<path d="M71.9259 206.742C72.6369 206.742 73.2921 206.193 73.2921 205.248C73.2921 204.304 72.6369 203.755 71.9259 203.755C71.2148 203.755 70.5596 204.304 70.5596 205.248C70.5596 206.193 71.2148 206.742 71.9259 206.742ZM71.9259 206.132C71.5399 206.132 71.3215 205.787 71.3215 205.248C71.3215 204.715 71.5399 204.365 71.9259 204.365C72.3119 204.365 72.5303 204.715 72.5303 205.248C72.5303 205.787 72.3119 206.132 71.9259 206.132Z" fill="#6C79F9" fill-opacity="0.5"/>
<path d="M73.9167 206.671H74.6633V204.715C74.8716 204.507 75.0189 204.395 75.2525 204.395C75.5319 204.395 75.6538 204.548 75.6538 204.989V206.671H76.4004V204.898C76.4004 204.182 76.1363 203.755 75.5217 203.755C75.1357 203.755 74.8462 203.958 74.5973 204.202H74.5821L74.5262 203.826H73.9167V206.671Z" fill="#6C79F9" fill-opacity="0.5"/>
<path d="M78.4098 206.742C78.7602 206.742 79.1209 206.62 79.4002 206.427L79.1462 205.97C78.9431 206.097 78.7399 206.168 78.5063 206.168C78.0847 206.168 77.78 205.924 77.719 205.457H79.4713C79.4916 205.391 79.5069 205.254 79.5069 205.111C79.5069 204.329 79.1005 203.755 78.3184 203.755C77.6428 203.755 76.9927 204.329 76.9927 205.248C76.9927 206.188 77.6124 206.742 78.4098 206.742ZM77.7089 204.959C77.7647 204.548 78.0289 204.334 78.3285 204.334C78.6942 204.334 78.8669 204.578 78.8669 204.959H77.7089Z" fill="#6C79F9" fill-opacity="0.5"/>
<path d="M80.1217 206.671H80.8683V204.715C81.0766 204.507 81.2239 204.395 81.4575 204.395C81.7368 204.395 81.8587 204.548 81.8587 204.989V206.671H82.6054V204.898C82.6054 204.182 82.3412 203.755 81.7267 203.755C81.3407 203.755 81.0512 203.958 80.8023 204.202H80.7871L80.7312 203.826H80.1217V206.671Z" fill="#6C79F9" fill-opacity="0.5"/>
<path d="M84.4167 206.742C84.6655 206.742 84.8636 206.686 85.016 206.635L84.8941 206.092C84.8179 206.122 84.7062 206.153 84.6148 206.153C84.3608 206.153 84.2287 206 84.2287 205.675V204.416H84.9297V203.826H84.2287V203.059H83.6091L83.5228 203.826L83.0809 203.862V204.416H83.4821V205.675C83.4821 206.31 83.7412 206.742 84.4167 206.742Z" fill="#6C79F9" fill-opacity="0.5"/>
<path d="M86.6053 206.742C87.3774 206.742 87.8751 206.066 87.8751 204.822C87.8751 203.588 87.3774 202.938 86.6053 202.938C85.8333 202.938 85.3305 203.583 85.3305 204.822C85.3305 206.066 85.8333 206.742 86.6053 206.742ZM86.6053 206.158C86.2803 206.158 86.0365 205.843 86.0365 204.822C86.0365 203.806 86.2803 203.522 86.6053 203.522C86.9304 203.522 87.1691 203.806 87.1691 204.822C87.1691 205.843 86.9304 206.158 86.6053 206.158Z" fill="#6C79F9" fill-opacity="0.5"/>
<path d="M88.3163 206.671H90.8355V206.041H90.0127C89.8349 206.041 89.5861 206.061 89.3982 206.081C90.0686 205.381 90.6578 204.72 90.6578 204.08C90.6578 203.39 90.1854 202.938 89.4743 202.938C88.9614 202.938 88.6261 203.141 88.2808 203.511L88.6871 203.918C88.8801 203.71 89.1036 203.527 89.3778 203.527C89.7384 203.527 89.9416 203.75 89.9416 204.121C89.9416 204.664 89.2966 205.304 88.3163 206.239V206.671Z" fill="#6C79F9" fill-opacity="0.5"/>
<path d="M215.822 131.152H217.508V478.491H215.822V131.152Z" fill="#E0E0E0"/>
<path d="M39.9355 116.457H41.8148V113.117H43.0719C45.0908 113.117 46.7034 112.152 46.7034 110.007C46.7034 107.784 45.1035 107.048 43.0211 107.048H39.9355V116.457ZM41.8148 111.632V108.546H42.8814C44.1766 108.546 44.8622 108.915 44.8622 110.007C44.8622 111.086 44.24 111.632 42.9449 111.632H41.8148Z" fill="#6C79F9"/>
<path d="M48.2524 116.457H50.1189V109.346H48.2524V116.457ZM49.192 108.203C49.8269 108.203 50.2713 107.797 50.2713 107.175C50.2713 106.566 49.8269 106.159 49.192 106.159C48.5444 106.159 48.1 106.566 48.1 107.175C48.1 107.797 48.5444 108.203 49.192 108.203Z" fill="#6C79F9"/>
<path d="M52.1088 119.187H53.9754V117.028L53.9119 115.86C54.4579 116.355 55.0547 116.635 55.6768 116.635C57.2386 116.635 58.6989 115.225 58.6989 112.787C58.6989 110.603 57.6577 109.169 55.9054 109.169C55.1435 109.169 54.4071 109.575 53.8103 110.083H53.7722L53.6325 109.346H52.1088V119.187ZM55.2578 115.098C54.8769 115.098 54.4198 114.959 53.9754 114.565V111.441C54.4579 110.946 54.8896 110.705 55.3721 110.705C56.3498 110.705 56.7815 111.454 56.7815 112.813C56.7815 114.362 56.1213 115.098 55.2578 115.098Z" fill="#6C79F9"/>
<path d="M63.3786 116.635C64.2548 116.635 65.1563 116.33 65.8547 115.847L65.2198 114.705C64.7119 115.022 64.204 115.2 63.6199 115.2C62.566 115.2 61.8041 114.59 61.6518 113.422H66.0324C66.0832 113.257 66.1213 112.914 66.1213 112.559C66.1213 110.603 65.1055 109.169 63.1501 109.169C61.4613 109.169 59.836 110.603 59.836 112.902C59.836 115.251 61.3851 116.635 63.3786 116.635ZM61.6264 112.178C61.766 111.149 62.4263 110.616 63.1755 110.616C64.0897 110.616 64.5214 111.226 64.5214 112.178H61.6264Z" fill="#6C79F9"/>
<path d="M69.4107 116.635C69.8551 116.635 70.1599 116.559 70.3757 116.47L70.1472 115.086C70.0202 115.111 69.9694 115.111 69.8932 115.111C69.7155 115.111 69.525 114.971 69.525 114.54V106.324H67.6584V114.463C67.6584 115.784 68.1156 116.635 69.4107 116.635Z" fill="#6C79F9"/>
<path d="M71.6636 116.457H73.5302V109.346H71.6636V116.457ZM72.6033 108.203C73.2382 108.203 73.6826 107.797 73.6826 107.175C73.6826 106.566 73.2382 106.159 72.6033 106.159C71.9557 106.159 71.5113 106.566 71.5113 107.175C71.5113 107.797 71.9557 108.203 72.6033 108.203Z" fill="#6C79F9"/>
<path d="M75.5201 116.457H77.3866V111.568C77.9072 111.048 78.2754 110.768 78.8595 110.768C79.5579 110.768 79.8626 111.149 79.8626 112.254V116.457H81.7292V112.025C81.7292 110.235 81.0689 109.169 79.5325 109.169C78.5675 109.169 77.8437 109.676 77.2215 110.286H77.1834L77.0438 109.346H75.5201V116.457Z" fill="#6C79F9"/>
<path d="M86.7527 116.635C87.6288 116.635 88.5304 116.33 89.2287 115.847L88.5938 114.705C88.0859 115.022 87.578 115.2 86.9939 115.2C85.94 115.2 85.1782 114.59 85.0258 113.422H89.4065C89.4573 113.257 89.4954 112.914 89.4954 112.559C89.4954 110.603 88.4796 109.169 86.5241 109.169C84.8353 109.169 83.2101 110.603 83.2101 112.902C83.2101 115.251 84.7592 116.635 86.7527 116.635ZM85.0004 112.178C85.1401 111.149 85.8004 110.616 86.5495 110.616C87.4638 110.616 87.8955 111.226 87.8955 112.178H85.0004Z" fill="#6C79F9"/>
<path d="M96.4107 116.635C97.1472 116.635 97.8583 116.228 98.3789 115.72H98.4296L98.5693 116.457H100.08V106.324H98.2265V108.826L98.29 109.943C97.7821 109.473 97.2869 109.169 96.4869 109.169C94.9505 109.169 93.503 110.591 93.503 112.902C93.503 115.238 94.6458 116.635 96.4107 116.635ZM96.8932 115.098C95.9536 115.098 95.4203 114.362 95.4203 112.889C95.4203 111.467 96.0933 110.705 96.8932 110.705C97.3377 110.705 97.7948 110.845 98.2265 111.238V114.362C97.8075 114.895 97.3884 115.098 96.8932 115.098Z" fill="#6C79F9"/>
<path d="M102.081 116.457H103.947V109.346H102.081V116.457ZM103.021 108.203C103.655 108.203 104.1 107.797 104.1 107.175C104.1 106.566 103.655 106.159 103.021 106.159C102.373 106.159 101.929 106.566 101.929 107.175C101.929 107.797 102.373 108.203 103.021 108.203Z" fill="#6C79F9"/>
<path d="M110.686 116.457H112.54V110.819H113.886V109.346H112.54V108.737C112.54 107.95 112.845 107.619 113.404 107.619C113.645 107.619 113.911 107.67 114.165 107.772L114.508 106.388C114.191 106.273 113.708 106.146 113.15 106.146C111.372 106.146 110.686 107.289 110.686 108.775V109.346H108.121V108.864C108.121 108.127 108.49 107.759 109.036 107.759C109.404 107.759 109.645 107.823 109.899 107.937L110.242 106.553C109.899 106.413 109.378 106.286 108.82 106.286C107.004 106.286 106.255 107.404 106.255 108.864V109.359L105.302 109.435V110.819H106.255V116.457H108.121V110.819H110.686V116.457Z" fill="#6C79F9"/>
<path d="M126.305 112.669C126.305 107.082 130.834 102.553 136.421 102.553H156.655C162.242 102.553 166.771 107.082 166.771 112.669V112.669C166.771 118.257 162.242 122.786 156.655 122.786H136.421C130.834 122.786 126.305 118.257 126.305 112.669V112.669Z" fill="#6C79F9"/>
<path d="M163.399 112.67C163.399 116.395 160.379 119.415 156.655 119.415C152.93 119.415 149.91 116.395 149.91 112.67C149.91 108.945 152.93 105.926 156.655 105.926C160.379 105.926 163.399 108.945 163.399 112.67Z" fill="white"/>
<g filter="url(#filter2_d_197_704)">
<path d="M458.016 11.4752C458.016 8.535 455.491 6.22951 452.563 6.4957L397.2 11.5287C394.624 11.7629 392.652 13.9222 392.652 16.5082V54.9131C392.652 57.4991 394.624 59.6584 397.2 59.8925L452.563 64.9256C455.491 65.1918 458.016 62.8863 458.016 59.9461V11.4752Z" fill="#6C79F9"/>
</g>
<g filter="url(#filter3_bd_197_704)">
<path d="M357 35.2427C357 32.3026 359.525 29.9971 362.453 30.2633L417.816 35.2963C420.391 35.5304 422.363 37.6898 422.363 40.2758V78.6806C422.363 81.2667 420.391 83.426 417.816 83.6601L362.453 88.6931C359.525 88.9593 357 86.6538 357 83.7137V35.2427Z" fill="#A16CF9" fill-opacity="0.7" shape-rendering="crispEdges"/>
</g>
<path d="M388.59 67.4287C384.817 67.4287 381.931 66.7676 379.932 65.4454C377.949 64.1394 376.957 62.3013 376.957 59.9311C376.957 58.3026 377.465 56.9402 378.481 55.8437C379.497 54.7473 380.988 53.9653 382.955 53.4977C382.197 53.1753 381.536 52.6512 380.972 51.9257C380.408 51.184 380.125 50.402 380.125 49.5797C380.125 48.5477 380.424 47.6932 381.02 47.016C381.617 46.3227 382.479 45.6455 383.608 44.9844C382.189 44.3717 381.061 43.3881 380.222 42.0337C379.4 40.6794 378.989 39.0831 378.989 37.245C378.989 35.2779 379.416 33.6091 380.27 32.2386C381.141 30.8519 382.399 29.7958 384.043 29.0702C385.704 28.3447 387.72 27.9819 390.09 27.9819C390.59 27.9819 391.17 28.0141 391.831 28.0786C392.492 28.1431 393.097 28.2157 393.645 28.2963C394.209 28.3769 394.588 28.4414 394.782 28.4898H404.214V32.2386L399.982 33.3269C400.369 33.9235 400.659 34.5604 400.852 35.2376C401.046 35.9148 401.143 36.6323 401.143 37.3901C401.143 40.2924 400.127 42.5578 398.095 44.1863C396.08 45.7986 393.274 46.6048 389.679 46.6048C388.824 46.5565 388.018 46.492 387.26 46.4113C386.889 46.7016 386.607 47.0079 386.414 47.3304C386.22 47.6529 386.123 47.9915 386.123 48.3462C386.123 48.7009 386.269 48.9992 386.559 49.2411C386.865 49.4668 387.317 49.6442 387.913 49.7731C388.526 49.886 389.284 49.9424 390.187 49.9424H394.782C397.749 49.9424 400.006 50.5793 401.554 51.8531C403.118 53.1269 403.9 54.9972 403.9 57.4642C403.9 60.6244 402.578 63.0752 399.933 64.8166C397.305 66.558 393.524 67.4287 388.59 67.4287ZM388.905 62.6157C390.662 62.6157 392.17 62.4464 393.427 62.1078C394.701 61.7853 395.677 61.3178 396.354 60.7051C397.031 60.1085 397.37 59.391 397.37 58.5525C397.37 57.8753 397.168 57.3352 396.765 56.9321C396.378 56.5451 395.782 56.271 394.975 56.1098C394.185 55.9485 393.169 55.8679 391.928 55.8679H388.107C387.204 55.8679 386.389 56.013 385.664 56.3033C384.954 56.5935 384.39 56.9966 383.971 57.5126C383.552 58.0446 383.342 58.6573 383.342 59.3507C383.342 60.3665 383.826 61.1646 384.793 61.745C385.777 62.3255 387.147 62.6157 388.905 62.6157ZM390.09 42.1063C391.476 42.1063 392.492 41.679 393.137 40.8245C393.782 39.9699 394.105 38.809 394.105 37.3417C394.105 35.7132 393.766 34.4959 393.089 33.6897C392.428 32.8674 391.428 32.4562 390.09 32.4562C388.735 32.4562 387.72 32.8674 387.042 33.6897C386.365 34.4959 386.027 35.7132 386.027 37.3417C386.027 38.809 386.357 39.9699 387.018 40.8245C387.695 41.679 388.719 42.1063 390.09 42.1063Z" fill="white"/>
<path d="M416.065 28.4898V55.5293H408.689V28.4898H416.065ZM412.389 17.8965C413.485 17.8965 414.429 18.1545 415.219 18.6704C416.009 19.1703 416.404 20.1135 416.404 21.5001C416.404 22.8707 416.009 23.822 415.219 24.354C414.429 24.87 413.485 25.128 412.389 25.128C411.276 25.128 410.325 24.87 409.535 24.354C408.761 23.822 408.374 22.8707 408.374 21.5001C408.374 20.1135 408.761 19.1703 409.535 18.6704C410.325 18.1545 411.276 17.8965 412.389 17.8965Z" fill="white"/>
<path d="M435.22 50.1359C436.026 50.1359 436.808 50.0553 437.566 49.8941C438.34 49.7328 439.106 49.5313 439.864 49.2894V54.7796C439.074 55.1343 438.09 55.4245 436.913 55.6503C435.752 55.8921 434.479 56.013 433.092 56.013C431.48 56.013 430.028 55.7551 428.738 55.2391C427.465 54.707 426.457 53.796 425.715 52.5061C424.99 51.2001 424.627 49.3862 424.627 47.0644V34.0283H421.096V30.9084L425.159 28.4414L427.287 22.7336H432.004V28.4898H439.574V34.0283H432.004V47.0644C432.004 48.0963 432.294 48.8702 432.874 49.3862C433.471 49.886 434.253 50.1359 435.22 50.1359Z" fill="white"/>
<defs>
<filter id="filter0_d_197_704" x="305.711" y="221.469" width="319.289" height="208.004" filterUnits="userSpaceOnUse" color-interpolation-filters="sRGB">
<feFlood flood-opacity="0" result="BackgroundImageFix"/>
<feColorMatrix in="SourceAlpha" type="matrix" values="0 0 0 0 0 0 0 0 0 0 0 0 0 0 0 0 0 0 127 0" result="hardAlpha"/>
<feOffset dx="4" dy="4"/>
<feGaussianBlur stdDeviation="5"/>
<feComposite in2="hardAlpha" operator="out"/>
<feColorMatrix type="matrix" values="0 0 0 0 0 0 0 0 0 0 0 0 0 0 0 0 0 0 0.1 0"/>
<feBlend mode="normal" in2="BackgroundImageFix" result="effect1_dropShadow_197_704"/>
<feBlend mode="normal" in="SourceGraphic" in2="effect1_dropShadow_197_704" result="shape"/>
</filter>
<filter id="filter1_bd_197_704" x="-12" y="77" width="551.447" height="509.295" filterUnits="userSpaceOnUse" color-interpolation-filters="sRGB">
<feFlood flood-opacity="0" result="BackgroundImageFix"/>
<feGaussianBlur in="BackgroundImage" stdDeviation="6"/>
<feComposite in2="SourceAlpha" operator="in" result="effect1_backgroundBlur_197_704"/>
<feColorMatrix in="SourceAlpha" type="matrix" values="0 0 0 0 0 0 0 0 0 0 0 0 0 0 0 0 0 0 127 0" result="hardAlpha"/>
<feOffset dx="48" dy="48"/>
<feGaussianBlur stdDeviation="24"/>
<feComposite in2="hardAlpha" operator="out"/>
<feColorMatrix type="matrix" values="0 0 0 0 0 0 0 0 0 0 0 0 0 0 0 0 0 0 0.1 0"/>
<feBlend mode="normal" in2="effect1_backgroundBlur_197_704" result="effect2_dropShadow_197_704"/>
<feBlend mode="normal" in="SourceGraphic" in2="effect2_dropShadow_197_704" result="shape"/>
</filter>
<filter id="filter2_d_197_704" x="386.652" y="0.474609" width="85.3633" height="78.4727" filterUnits="userSpaceOnUse" color-interpolation-filters="sRGB">
<feFlood flood-opacity="0" result="BackgroundImageFix"/>
<feColorMatrix in="SourceAlpha" type="matrix" values="0 0 0 0 0 0 0 0 0 0 0 0 0 0 0 0 0 0 127 0" result="hardAlpha"/>
<feOffset dx="4" dy="4"/>
<feGaussianBlur stdDeviation="5"/>
<feComposite in2="hardAlpha" operator="out"/>
<feColorMatrix type="matrix" values="0 0 0 0 0 0 0 0 0 0 0 0 0 0 0 0 0 0 0.1 0"/>
<feBlend mode="normal" in2="BackgroundImageFix" result="effect1_dropShadow_197_704"/>
<feBlend mode="normal" in="SourceGraphic" in2="effect1_dropShadow_197_704" result="shape"/>
</filter>
<filter id="filter3_bd_197_704" x="356" y="28.2422" width="70.3633" height="62.4727" filterUnits="userSpaceOnUse" color-interpolation-filters="sRGB">
<feFlood flood-opacity="0" result="BackgroundImageFix"/>
<feGaussianBlur in="BackgroundImage" stdDeviation="0.5"/>
<feComposite in2="SourceAlpha" operator="in" result="effect1_backgroundBlur_197_704"/>
<feColorMatrix in="SourceAlpha" type="matrix" values="0 0 0 0 0 0 0 0 0 0 0 0 0 0 0 0 0 0 127 0" result="hardAlpha"/>
<feOffset dx="2"/>
<feGaussianBlur stdDeviation="1"/>
<feComposite in2="hardAlpha" operator="out"/>
<feColorMatrix type="matrix" values="0 0 0 0 0 0 0 0 0 0 0 0 0 0 0 0 0 0 0.1 0"/>
<feBlend mode="normal" in2="effect1_backgroundBlur_197_704" result="effect2_dropShadow_197_704"/>
<feBlend mode="normal" in="SourceGraphic" in2="effect2_dropShadow_197_704" result="shape"/>
</filter>
<linearGradient id="paint0_linear_197_704" x1="25.4437" y1="109.645" x2="283.655" y2="583.225" gradientUnits="userSpaceOnUse">
<stop stop-color="white"/>
<stop offset="0.911458" stop-color="white" stop-opacity="0.0885417"/>
<stop offset="1" stop-color="#E2E5FF" stop-opacity="0"/>
</linearGradient>
<clipPath id="clip0_197_704">
<rect width="299.29" height="188.005" fill="white" transform="translate(311.711 227.469)"/>
</clipPath>
<clipPath id="clip1_197_704">
<rect width="8.43055" height="8.43055" fill="white" transform="translate(595.545 248.084)"/>
</clipPath>
<clipPath id="clip2_197_704">
<rect width="8.43055" height="8.43055" fill="white" transform="translate(595.545 335.199)"/>
</clipPath>
</defs>
</svg>
