<svg width="311" height="102" viewBox="0 0 311 102" fill="none" xmlns="http://www.w3.org/2000/svg">
<g clip-path="url(#clip0_287_630)">
<path d="M100.857 69.3224L40.9539 61.0226C36.6513 60.3747 33.4726 56.6976 33.4726 52.3551V17.0373C33.4726 12.6948 36.6513 9.01774 40.9539 8.36987L100.857 0.0701012C105.107 -0.560261 108.918 2.71412 108.918 7.00408V62.3884C108.918 66.6784 105.107 69.9527 100.857 69.3224V69.3224Z" fill="#6C79F9"/>
<path d="M8.06082 32.2711L67.9637 40.5709C72.2664 41.2187 75.445 44.8958 75.445 49.2383V84.5561C75.445 88.8986 72.2664 92.5758 67.9637 93.2236L8.06082 101.506C3.81089 102.154 0 98.8619 0 94.5894V39.1876C0 34.8976 3.81089 31.6232 8.06082 32.2536V32.2711Z" fill="#9578FF"/>
<path d="M67.9637 40.5708L33.455 35.7905V52.3725C33.455 56.715 36.6337 60.3922 40.9363 61.04L75.445 65.8203V49.2382C75.445 44.8958 72.2664 41.2186 67.9637 40.5708V40.5708Z" fill="#5D5DF4"/>
<path d="M195.093 34.5298C197.867 34.5298 200.115 32.2877 200.115 29.5219C200.115 26.7561 197.867 24.514 195.093 24.514C192.319 24.514 190.07 26.7561 190.07 29.5219C190.07 32.2877 192.319 34.5298 195.093 34.5298Z" fill="#33333D"/>
<path d="M241.017 43.6001C238.295 40.098 233.992 37.8743 228.267 37.8743C222.542 37.8743 218.661 39.8879 215.921 43.1273C215.921 40.886 214.095 39.065 211.847 39.065C209.493 39.065 207.597 40.956 207.597 43.3024V79.0754H215.921V54.789C216.167 49.3784 219.714 45.0884 226.001 45.0884C232.289 45.0884 236.082 49.6936 236.082 55.3843V79.0754H244.424V54.3687C244.424 50.2539 243.247 46.5067 241.017 43.6176V43.6001Z" fill="#33333D"/>
<path d="M310.245 37.7692C309.946 37.7692 309.683 37.9443 309.56 38.207L306.891 44.1604L304.221 38.207C304.098 37.9443 303.835 37.7692 303.536 37.7692C303.115 37.7692 302.781 38.1019 302.781 38.5222V45.7888H303.975V40.1856L306.487 45.7888H307.312L309.806 40.2031V45.7888H311V38.5046C311 38.1019 310.666 37.7517 310.245 37.7517V37.7692Z" fill="#33333D"/>
<path d="M300.779 37.7692H294.264C293.983 37.7692 293.772 37.9968 293.772 38.2594C293.772 38.5221 294 38.7497 294.264 38.7497H296.933V45.7713H298.127V38.7497H300.779C301.06 38.7497 301.271 38.5221 301.271 38.2594C301.271 37.9968 301.043 37.7692 300.779 37.7692Z" fill="#33333D"/>
<path d="M154.086 72.0714V31.0104C154.086 28.7165 152.225 26.8605 149.907 26.8605C147.606 26.8605 145.744 28.7165 145.744 31.0104V79.0404H182.571V72.0714H154.086V72.0714Z" fill="#33333D"/>
<path d="M199.255 79.0579V43.2148C199.255 40.921 197.393 39.0649 195.075 39.0649C192.775 39.0649 190.913 40.921 190.913 43.2148V79.0579H199.255Z" fill="#33333D"/>
<path d="M290.769 79.0404L269.941 59.4117L285.588 44.5106C287.116 43.0398 287.151 40.6059 285.676 39.0825L285.641 39.0475C284.166 37.5241 281.725 37.4891 280.197 38.9599L261.125 57.1704V31.0104C261.125 28.7165 259.263 26.8605 256.963 26.8605C254.662 26.8605 252.801 28.7165 252.801 31.0104V79.0404H261.142V61.9156L279.319 79.0229H290.804L290.769 79.0404Z" fill="#33333D"/>
</g>
<defs>
<clipPath id="clip0_287_630">
<rect width="311" height="101.593" fill="white"/>
</clipPath>
</defs>
</svg>
