<svg width="311" height="102" viewBox="0 0 311 102" fill="none" xmlns="http://www.w3.org/2000/svg">
<path d="M101.449 69.6055L41.192 61.2682C36.8665 60.6242 33.6641 56.9258 33.6641 52.5723V17.1138C33.6641 12.7603 36.8665 9.06199 41.192 8.41793L101.449 0.0806019C105.721 -0.554602 109.562 2.73872 109.562 7.03686V62.6493C109.562 66.9474 105.721 70.2407 101.449 69.6055Z" fill="#6C79F9"/>
<path d="M8.11281 32.3953L68.3696 40.7326C72.6951 41.3767 75.8975 45.075 75.8975 49.4285V84.887C75.8975 89.2405 72.6951 92.9388 68.3696 93.5829L8.11281 101.92C3.84069 102.555 0 99.2621 0 94.964V39.3494C0 35.0512 3.84069 31.7579 8.11281 32.3931V32.3953Z" fill="#877BF6"/>
<path d="M155.709 73.2127H180.528V80.2287H145.857V32.6504C145.857 29.9436 148.064 27.748 150.783 27.748C153.503 27.748 155.709 29.9436 155.709 32.6504V73.2127Z" fill="#464555"/>
<path d="M197.674 44.1801V80.2273H189.285V44.1801C189.285 41.8738 191.162 40.0059 193.479 40.0059C195.797 40.0059 197.674 41.8738 197.674 44.1801Z" fill="#464555"/>
<path d="M193.479 35.2696C196.296 35.2696 198.58 32.9965 198.58 30.1924C198.58 27.3884 196.296 25.1152 193.479 25.1152C190.661 25.1152 188.377 27.3884 188.377 30.1924C188.377 32.9965 190.661 35.2696 193.479 35.2696Z" fill="#464555"/>
<path d="M240.113 44.5934C237.373 41.0655 233.043 38.8301 227.283 38.8301C221.523 38.8301 217.602 40.8596 214.851 44.102C214.851 41.8445 213.012 40.0142 210.744 40.0142C208.38 40.0142 206.463 41.922 206.463 44.2747V80.2312H214.851V55.8168C215.094 50.3788 218.666 46.0652 224.993 46.0652C231.32 46.0652 235.149 50.6975 235.149 56.4144L235.156 80.2334H243.544V55.4007C243.544 51.2708 242.368 47.4972 240.113 44.5956V44.5934Z" fill="#464555"/>
<path d="M290.469 80.2377L269.538 60.5154L285.305 45.4011C286.844 43.916 286.88 41.4703 285.388 39.9388L285.359 39.91C283.867 38.3784 281.409 38.343 279.87 39.8281L260.611 58.2888V31.8803C260.611 29.5874 258.743 27.7305 256.441 27.7305C254.137 27.7305 252.271 29.5896 252.271 31.8803V80.2266H260.613V63.0031L278.901 80.2355H290.469V80.2377Z" fill="#464555"/>
<path d="M310.245 38.7676C309.949 38.7676 309.677 38.9424 309.557 39.2102L306.864 45.1993L304.173 39.2147C304.051 38.9424 303.78 38.7676 303.479 38.7676C303.061 38.7676 302.719 39.1062 302.719 39.5245V46.8371H303.917V41.2044L306.446 46.8371H307.28L309.797 41.2176V46.8371H310.996V39.5179C310.996 39.104 310.658 38.7676 310.242 38.7676H310.245Z" fill="#464555"/>
<path d="M300.718 38.7676H294.151C293.875 38.7676 293.648 38.9911 293.648 39.2678C293.648 39.5444 293.873 39.768 294.151 39.768H296.837V46.8282H297.963L298.041 46.815V39.768H300.718C300.994 39.768 301.221 39.5444 301.221 39.2678C301.221 38.9911 300.996 38.7676 300.718 38.7676Z" fill="#464555"/>
<path d="M68.3681 40.7324L33.6641 35.9297V52.5711C33.6641 56.9246 36.8665 60.623 41.192 61.267L75.896 66.0698V49.4283C75.896 45.0749 72.6936 41.3765 68.3681 40.7324Z" fill="#4533F3"/>
</svg>
