<svg xmlns="http://www.w3.org/2000/svg" width="157.018" height="19.056" viewBox="0 0 157.018 19.056">
  <g id="마키나락스로고" transform="translate(0 -0.223)">
    <path id="패스_1" data-name="패스 1" d="M17.706,2.64a1.832,1.832,0,0,0-2.089.961L9.556,14.741,3.5,3.6A1.833,1.833,0,0,0,1.406,2.64,1.912,1.912,0,0,0,0,4.508v16.18H2.877V8.735l5.049,9.174a1.819,1.819,0,0,0,3.261,0l5.049-9.173V20.688h2.877V4.508A1.91,1.91,0,0,0,17.706,2.64Z" transform="translate(0 -1.409)" fill="#6a77d7"/>
    <path id="패스_2" data-name="패스 2" d="M370.78,20.368a3.739,3.739,0,0,0-2.769-1.175H363.8a1.369,1.369,0,0,1-1.022-.443,1.493,1.493,0,0,1-.428-1.078,1.472,1.472,0,0,1,.428-1.06,1.368,1.368,0,0,1,1.022-.444h6.964V13.627H363.8a3.654,3.654,0,0,0-2.751,1.194,3.922,3.922,0,0,0-1.152,2.851,3.985,3.985,0,0,0,1.152,2.869,3.677,3.677,0,0,0,2.751,1.175l4.21.019a1.4,1.4,0,0,1,1.022.424,1.5,1.5,0,0,1,.427,1.078,1.471,1.471,0,0,1-.427,1.06,1.37,1.37,0,0,1-1.022.444h-7.649v2.542h7.649a3.737,3.737,0,0,0,2.769-1.175,4.2,4.2,0,0,0,0-5.739Z" transform="translate(-214.897 -8.004)" fill="#6a77d7"/>
    <path id="패스_3" data-name="패스 3" d="M127.716.223a1.564,1.564,0,0,0-1.162.5,1.681,1.681,0,0,0-.483,1.2,1.7,1.7,0,0,0,.477,1.187,1.575,1.575,0,0,0,2.335,0,1.694,1.694,0,0,0,.478-1.187,1.679,1.679,0,0,0-.483-1.2A1.564,1.564,0,0,0,127.716.223Z" transform="translate(-75.278)" fill="#6a77d7"/>
    <path id="패스_4" data-name="패스 4" d="M128.139,12.568a1.359,1.359,0,0,0-1.359,1.359V26.65H129.5V13.927A1.359,1.359,0,0,0,128.139,12.568Z" transform="translate(-75.701 -7.371)" fill="#6a77d7"/>
    <path id="패스_5" data-name="패스 5" d="M150.657,14.335h0a5.711,5.711,0,0,0-2.094-1.327,8.18,8.18,0,0,0-5.3,0,5.7,5.7,0,0,0-2.094,1.327,5.9,5.9,0,0,0-1.352,2.2,8.759,8.759,0,0,0-.465,2.958V26.65h2.717V19.493a4.407,4.407,0,0,1,1.029-3.18,4.275,4.275,0,0,1,5.628,0,4.412,4.412,0,0,1,1.029,3.181V26.65h2.718V19.493a8.758,8.758,0,0,0-.466-2.958A5.913,5.913,0,0,0,150.657,14.335Z" transform="translate(-83.208 -7.371)" fill="#6a77d7"/>
    <path id="패스_6" data-name="패스 6" d="M92.93,2.594A1.384,1.384,0,0,0,91.571,4V20.694h2.718V4A1.384,1.384,0,0,0,92.93,2.594Z" transform="translate(-54.678 -1.416)" fill="#6a77d7"/>
    <path id="패스_7" data-name="패스 7" d="M107.744,14.942a1.376,1.376,0,0,0,0-1.9,1.263,1.263,0,0,0-1.832,0l-4.989,5.184a2.062,2.062,0,0,0,0,2.842l4.615,5.629h3.66l-5.983-7.049Z" transform="translate(-59.923 -7.421)" fill="#6a77d7"/>
    <path id="패스_8" data-name="패스 8" d="M328.486,1.885a1.384,1.384,0,0,0-1.359,1.408V20.271h2.718V3.293A1.384,1.384,0,0,0,328.486,1.885Z" transform="translate(-195.329 -0.992)" fill="#6a77d7"/>
    <path id="패스_9" data-name="패스 9" d="M343.3,14.942a1.376,1.376,0,0,0,0-1.9,1.263,1.263,0,0,0-1.832,0l-4.989,5.184a2.062,2.062,0,0,0,0,2.842l4.615,5.629h3.66l-5.983-7.049Z" transform="translate(-200.575 -7.421)" fill="#6a77d7"/>
    <path id="패스_10" data-name="패스 10" d="M262.184,13.627h-2.195a5.381,5.381,0,0,0-4.181,1.68,7.435,7.435,0,0,0-1.535,5.147,7.432,7.432,0,0,0,1.535,5.147,5.379,5.379,0,0,0,4.181,1.681h2.195a5.386,5.386,0,0,0,4.168-1.681,7.391,7.391,0,0,0,1.548-5.147,7.4,7.4,0,0,0-1.548-5.134A5.368,5.368,0,0,0,262.184,13.627Zm2.259,10.021a3.039,3.039,0,0,1-2.508.971h-1.7a3.04,3.04,0,0,1-2.508-.971,5.1,5.1,0,0,1-.786-3.193,5.165,5.165,0,0,1,.786-3.207,3.021,3.021,0,0,1,2.508-.983h1.7a3.02,3.02,0,0,1,2.508.983,5.164,5.164,0,0,1,.786,3.207A5.1,5.1,0,0,1,264.443,23.648Z" transform="translate(-151.828 -8.004)" fill="#6a77d7"/>
    <path id="패스_11" data-name="패스 11" d="M294.424,15.307a7.434,7.434,0,0,0-1.535,5.147,7.432,7.432,0,0,0,1.535,5.147,5.378,5.378,0,0,0,4.181,1.681h5.82V24.618h-5.57a3.04,3.04,0,0,1-2.508-.971,5.1,5.1,0,0,1-.786-3.193,5.165,5.165,0,0,1,.786-3.207,3.021,3.021,0,0,1,2.508-.983h5.57V13.627H298.6A5.38,5.38,0,0,0,294.424,15.307Z" transform="translate(-174.886 -8.004)" fill="#6a77d7"/>
    <path id="패스_12" data-name="패스 12" d="M234.759,12.6a6.2,6.2,0,0,0,1.079-3.653,6.937,6.937,0,0,0-.351-2.232,4.914,4.914,0,0,0-1.114-1.845,5.174,5.174,0,0,0-1.9-1.215,7.444,7.444,0,0,0-2.655-.431h-3.651V6.013h3.676a4.244,4.244,0,0,1,1.519.234,2.483,2.483,0,0,1,.929.6,2.248,2.248,0,0,1,.505.885,4.118,4.118,0,0,1,.173,1.215,4.263,4.263,0,0,1-.173,1.23,2.346,2.346,0,0,1-.51.913,2.413,2.413,0,0,1-.924.606,4.262,4.262,0,0,1-1.519.234h-1.6a.557.557,0,0,0-.459.873l1.32,1.917,4.351,6.316.023.033h3.484l-4.825-6.676A4.786,4.786,0,0,0,234.759,12.6Z" transform="translate(-135.047 -1.791)" fill="#6a77d7"/>
    <path id="패스_13" data-name="패스 13" d="M187.326,13.627H182.57a5.38,5.38,0,0,0-4.181,1.68,7.435,7.435,0,0,0-1.535,5.147A7.432,7.432,0,0,0,178.39,25.6a5.377,5.377,0,0,0,4.181,1.681h1.809a1.332,1.332,0,1,0,0-2.664h-1.56a3.043,3.043,0,0,1-2.508-.969,5.1,5.1,0,0,1-.786-3.194,5.167,5.167,0,0,1,.786-3.207,3.021,3.021,0,0,1,2.508-.983h3.362a1.144,1.144,0,0,1,1.144,1.145v9.873h2.718V16.344A2.717,2.717,0,0,0,187.326,13.627Z" transform="translate(-105.601 -8.004)" fill="#6a77d7"/>
    <path id="패스_14" data-name="패스 14" d="M63.567,13.627H58.812a5.379,5.379,0,0,0-4.18,1.68A7.432,7.432,0,0,0,53.1,20.455,7.43,7.43,0,0,0,54.631,25.6a5.376,5.376,0,0,0,4.18,1.681h1.809a1.332,1.332,0,1,0,0-2.664H59.062a3.042,3.042,0,0,1-2.509-.969,5.1,5.1,0,0,1-.786-3.194,5.165,5.165,0,0,1,.786-3.207,3.021,3.021,0,0,1,2.509-.983h3.361a1.144,1.144,0,0,1,1.144,1.145v9.873h2.718V16.344A2.717,2.717,0,0,0,63.567,13.627Z" transform="translate(-31.704 -8.004)" fill="#6a77d7"/>
    <path id="패스_15" data-name="패스 15" d="M216.791,3.222a1.421,1.421,0,0,0-1.421,1.421V21.069h2.841V4.643A1.421,1.421,0,0,0,216.791,3.222Z" transform="translate(-128.599 -1.791)" fill="#6a77d7"/>
  </g>
</svg>
