<svg width="27" height="27" viewBox="0 0 27 27" fill="none" xmlns="http://www.w3.org/2000/svg">
<g clip-path="url(#clip0_201_346)">
<path fill-rule="evenodd" clip-rule="evenodd" d="M13.8662 8.84756C15.4322 6.72975 17.1636 5.0625 19.3776 5.0625C23.5575 5.0625 27 10.3832 27.0017 16.7181C27.0017 20.5824 25.3378 23.004 22.3493 23.004C19.7454 23.004 18.3077 21.5426 15.7275 17.226L14.6019 15.3309L14.4028 14.9985C14.1093 14.5024 13.8112 14.0091 13.5084 13.5186L11.5206 17.0286C8.69738 21.9645 7.10775 23.004 4.9005 23.004C1.83263 23.004 0 20.6162 0 16.8294C0 10.7797 3.36656 5.0625 7.75913 5.0625C8.29744 5.0625 8.81381 5.12831 9.31837 5.26837C9.8415 5.4135 10.3494 5.63963 10.8591 5.95519C11.8327 6.561 12.8064 7.49925 13.8662 8.84756ZM16.4244 12.6006C15.9992 11.9087 15.5908 11.2725 15.1976 10.6886L15.1875 10.6751C16.6134 8.47294 17.7913 7.37775 19.1902 7.37775C22.0978 7.37775 24.4249 11.6589 24.4249 16.9172C24.4249 18.9219 23.7668 20.0846 22.4083 20.0846C21.1039 20.0846 20.4812 19.224 18.0039 15.2415L16.4228 12.6006H16.4244ZM8.17763 8.02575C9.40106 8.1945 10.5148 9.09562 12.1264 11.4024C11.1965 12.8263 10.2768 14.2568 9.36731 15.6938C7.07738 19.2814 6.28594 20.0863 5.01188 20.0863C3.70069 20.0863 2.91938 18.9354 2.91938 16.8801C2.91938 12.4892 5.10975 7.99706 7.722 7.99706C7.87556 7.99706 8.02744 8.00719 8.17763 8.02744V8.02575Z" fill="black"/>
</g>
<defs>
<clipPath id="clip0_201_346">
<rect width="27" height="27" fill="white"/>
</clipPath>
</defs>
</svg>
