<svg width="54" height="54" viewBox="0 0 54 54" fill="none" xmlns="http://www.w3.org/2000/svg">
<path d="M45.5625 28.6875H28.6875C28.2399 28.6875 27.8107 28.8653 27.4943 29.1818C27.1778 29.4982 27 29.9274 27 30.375V42.5039C27.0038 42.8975 27.145 43.2773 27.3992 43.5778C27.6534 43.8782 28.0047 44.0804 28.3922 44.1492L45.2672 47.2289H45.5625C45.959 47.2368 46.3436 47.0935 46.6383 46.8281C46.8263 46.6745 46.9785 46.4816 47.0841 46.263C47.1898 46.0444 47.2464 45.8053 47.25 45.5625V30.375C47.25 29.9274 47.0722 29.4982 46.7557 29.1818C46.4393 28.8653 46.0101 28.6875 45.5625 28.6875Z" fill="#FFC940"/>
<path d="M45.9965 6.80284C46.2341 6.86862 46.4535 6.98761 46.6383 7.15079C46.829 7.30671 46.9828 7.50298 47.0886 7.72548C47.1944 7.94797 47.2495 8.19115 47.25 8.43751V23.625C47.25 24.0726 47.0722 24.5018 46.7557 24.8183C46.4393 25.1347 46.0101 25.3125 45.5625 25.3125H28.6875C28.2399 25.3125 27.8107 25.1347 27.4943 24.8183C27.1778 24.5018 27 24.0726 27 23.625V11.4961C27.0038 11.1025 27.145 10.7227 27.3992 10.4222C27.6534 10.1218 28.0047 9.91965 28.3922 9.85079L45.2672 6.7711C45.5096 6.7262 45.759 6.73705 45.9965 6.80284Z" fill="#91D358"/>
<path d="M22.3672 11.1026C22.604 11.1645 22.8244 11.2772 23.0133 11.4328C23.2045 11.5929 23.3584 11.793 23.4641 12.0189C23.5698 12.2449 23.6247 12.4912 23.625 12.7406V23.625C23.625 24.0726 23.4472 24.5018 23.1308 24.8183C22.8143 25.1347 22.3851 25.3125 21.9375 25.3125H8.43751C7.98995 25.3125 7.56073 25.1347 7.24426 24.8183C6.9278 24.5018 6.75001 24.0726 6.75001 23.625V15.1875C6.74884 14.7903 6.88782 14.4054 7.14247 14.1006C7.39712 13.7958 7.75113 13.5906 8.14219 13.5211L21.6422 11.0742C21.8831 11.031 22.1305 11.0407 22.3672 11.1026Z" fill="#FF5C43"/>
<path d="M23.625 41.2594V30.375C23.625 29.9274 23.4472 29.4982 23.1307 29.1818C22.8142 28.8653 22.385 28.6875 21.9375 28.6875H8.43746C7.9899 28.6875 7.56068 28.8653 7.24421 29.1818C6.92775 29.4982 6.74996 29.9274 6.74996 30.375V38.8125C6.74378 39.2133 6.88047 39.6032 7.13556 39.9124C7.39065 40.2216 7.74748 40.4299 8.14214 40.5L21.6421 42.9469H21.9375C22.3299 42.9527 22.7114 42.818 23.0132 42.5672C23.2045 42.4071 23.3583 42.207 23.464 41.9811C23.5697 41.7551 23.6246 41.5088 23.625 41.2594Z" fill="#2BB9E8"/>
</svg>
