<svg width="51" height="51" viewBox="0 0 51 51" fill="none" xmlns="http://www.w3.org/2000/svg">
<path d="M42.3332 35.5598C42.815 35.7528 43.2303 36.0817 43.5285 36.5064C43.7963 36.9049 43.9843 37.3862 44.1023 37.9504C44.166 38.2819 44.2425 38.5879 44.3254 38.8748C44.4816 39.4123 44.7169 39.9236 45.0235 40.392C45.1733 40.6247 45.3741 40.8797 45.6227 41.1634C45.8363 41.3961 46.0275 41.6957 46.1965 42.0591C46.3522 42.386 46.4359 42.7425 46.4419 43.1046C46.4542 43.4526 46.3499 43.7948 46.1455 44.0768C45.9375 44.3505 45.6841 44.5866 45.3964 44.7748C45.0139 45.0394 44.6155 45.2721 44.2011 45.4729C43.7867 45.6705 43.3723 45.8777 42.958 46.0944C42.3384 46.3897 41.7464 46.7396 41.1889 47.1399C40.6917 47.5065 40.1912 47.9687 39.694 48.5361C39.1143 49.1854 38.4432 49.747 37.7018 50.2031C37.3231 50.4433 36.912 50.6279 36.481 50.7514C36.0666 50.8661 35.6522 50.9426 35.2378 50.9745C34.2752 50.9745 33.4783 50.8088 32.8472 50.4773C32.2161 50.1458 31.6678 49.5401 31.2025 48.6604C31.0686 48.4086 30.9379 48.2524 30.804 48.1854C30.5973 48.0978 30.3796 48.0389 30.157 48.0101L27.6357 47.8125C26.8069 47.7488 25.9622 47.7137 25.0984 47.7137C24.381 47.7147 23.6648 47.7722 22.9564 47.8858C22.2265 48.0037 21.5029 48.144 20.7889 48.3098C20.6423 48.3416 20.4925 48.4691 20.3427 48.6827C20.1561 48.9418 19.9471 49.1839 19.7179 49.4062C19.4074 49.7019 19.0455 49.9385 18.6501 50.1043C18.0866 50.3244 17.4859 50.4337 16.881 50.4262C16.3328 50.4262 15.7431 50.3689 15.112 50.2541C14.5215 50.1514 13.9506 49.9579 13.4194 49.6804C12.4612 49.1903 11.4385 48.8383 10.3817 48.6349C9.38403 48.4532 8.33215 48.2843 7.21971 48.1376C6.851 48.0896 6.48502 48.0226 6.12321 47.9368C5.78899 47.8612 5.47418 47.7168 5.19884 47.5129C4.94617 47.326 4.73551 47.0882 4.58046 46.8148C4.41049 46.4666 4.32426 46.0835 4.32865 45.696C4.32865 45.1796 4.39559 44.6824 4.52946 44.2011C4.66334 43.7229 4.73665 43.2129 4.75259 42.6838C4.75259 42.3172 4.72709 41.9603 4.67928 41.6128C4.62656 41.2408 4.59252 40.8663 4.57728 40.4908C4.57728 39.6461 4.77809 39.0246 5.17653 38.6229C5.57496 38.2245 6.15509 37.9089 6.92009 37.6762C7.25995 37.5734 7.58 37.4139 7.86678 37.2045C8.12985 37.006 8.37905 36.7899 8.61265 36.5574C8.84982 36.3191 9.06629 36.0611 9.25971 35.7861C9.46053 35.5024 9.68365 35.2187 9.93228 34.9382C9.98188 34.8744 10.0088 34.7959 10.0088 34.7151C10.0088 34.5142 9.99921 34.323 9.98328 34.1413L9.93228 33.5421C9.93228 32.4137 10.1076 31.2789 10.455 30.1314C10.8057 28.9839 11.2615 27.8683 11.8257 26.7686C12.389 25.6755 13.0214 24.6193 13.719 23.6066C14.4139 22.5962 15.1056 21.6559 15.7845 20.7921C16.7067 19.6375 17.4385 18.343 17.952 16.9575C18.4302 15.6315 18.682 14.1844 18.6979 12.6225C18.6979 11.9627 18.666 11.3061 18.5991 10.659C18.5322 9.99706 18.4992 9.33213 18.5003 8.66681C18.5003 7.33763 18.6501 6.14231 18.9465 5.08087C19.2462 4.01625 19.7115 3.10463 20.3427 2.33963C20.9738 1.57463 21.7962 1.00406 22.8066 0.621562C23.8234 0.239062 25.0347 0.031875 26.4435 0C28.1233 0 29.4589 0.3315 30.4566 0.997687C31.4511 1.66069 32.2161 2.53088 32.7452 3.61144C33.2775 4.68881 33.6186 5.89369 33.7652 7.22288C33.9182 8.54888 34.0011 9.894 34.017 11.2551V11.679C34.017 12.3611 34.0234 12.9668 34.0425 13.4959C34.0722 14.5716 34.3172 15.6305 34.7629 16.6101C34.9956 17.1232 35.343 17.6811 35.8084 18.2771C36.6053 19.3258 37.4213 20.3809 38.25 21.4423C39.0788 22.5038 39.8342 23.6002 40.5132 24.7254C41.1953 25.857 41.7531 27.0364 42.1834 28.2636C42.6169 29.4939 42.84 30.8199 42.856 32.2479C42.8602 33.3738 42.6838 34.493 42.3332 35.5629V35.5598ZM21.4423 9.6135C21.6718 9.6135 21.8631 9.67087 22.0161 9.78562C22.1715 9.91074 22.2914 10.0745 22.3635 10.2606C22.4435 10.452 22.5013 10.652 22.5357 10.8566C22.5675 11.0574 22.5867 11.2646 22.5867 11.4814C22.5919 11.6183 22.5657 11.7546 22.5102 11.8798C22.4555 11.9856 22.3796 12.079 22.287 12.1539L21.9874 12.4026C21.8806 12.493 21.7814 12.5922 21.691 12.699C21.5714 12.8851 21.4084 13.0393 21.216 13.1484C21.0186 13.263 20.8271 13.3875 20.6423 13.5214C20.4657 13.6495 20.2994 13.7912 20.145 13.9453C20.0678 14.0285 20.0083 14.1265 19.9699 14.2333C19.9316 14.3401 19.9153 14.4536 19.9219 14.5669C19.9219 14.7167 19.9952 14.841 20.145 14.9398C20.5167 15.1739 20.8115 15.5119 20.9929 15.912C21.1587 16.2945 21.3435 16.6674 21.5412 17.034C21.7388 17.3974 21.997 17.7034 22.3125 17.9552C22.6281 18.2038 23.119 18.3281 23.7788 18.3281H23.9318C24.5948 18.2963 25.2259 18.1209 25.8252 17.8054C26.4212 17.4898 27.0205 17.1583 27.6165 16.8077C27.7204 16.7493 27.8292 16.7002 27.9417 16.6611C28.0574 16.6198 28.1661 16.5606 28.2636 16.4857L30.0805 15.0673C30.1121 14.9605 30.1376 14.8519 30.157 14.7422C30.1763 14.6257 30.1933 14.5088 30.208 14.3916C30.2136 14.2331 30.1689 14.0769 30.0805 13.9453C29.999 13.8297 29.8988 13.7284 29.784 13.6457C29.6566 13.5588 29.512 13.5001 29.3601 13.4736C29.2082 13.4431 29.0589 13.4004 28.9138 13.3461C28.5165 13.2644 28.1367 13.1133 27.7918 12.8998C27.4495 12.6872 27.0809 12.52 26.6953 12.4026C26.6316 12.3834 26.5806 12.3356 26.5455 12.2528C26.5076 12.1546 26.4746 12.0546 26.4467 11.9531C26.4139 11.848 26.4052 11.7369 26.4212 11.628C26.4394 11.5445 26.4304 11.4574 26.3957 11.3794C26.3957 11.1817 26.4117 10.9746 26.4467 10.7578C26.4811 10.5384 26.5568 10.3275 26.6698 10.1363C26.767 9.95916 26.9033 9.80654 27.0683 9.69C27.2648 9.57532 27.4878 9.5138 27.7153 9.5115C28.2317 9.5115 28.6047 9.70275 28.8373 10.0853C29.07 10.4678 29.1943 10.8821 29.2103 11.3284C29.2144 11.5267 29.1718 11.7233 29.086 11.9021C29.0009 12.0723 28.9572 12.2601 28.9585 12.4504C28.9585 12.5842 29.0031 12.6735 29.086 12.7245C29.1864 12.7795 29.2971 12.8132 29.4111 12.8233C29.7936 12.8233 30.039 12.7341 30.157 12.5524C30.2911 12.2993 30.3591 12.0164 30.3546 11.73C30.3546 11.3475 30.3227 10.9236 30.259 10.4582C30.1959 10.0079 30.0603 9.57091 29.8573 9.16406C29.6716 8.78199 29.409 8.44235 29.086 8.16638C28.7401 7.89156 28.3065 7.75117 27.8652 7.77112C27.0045 7.77112 26.3798 7.98469 25.9973 8.41819C25.6148 8.8485 25.4172 9.49556 25.4012 10.3594C25.4012 10.608 25.4172 10.8566 25.449 11.1052C25.4809 11.3571 25.5 11.6057 25.5 11.8543C25.5 11.9372 25.4905 11.9786 25.4745 11.9786C25.4228 11.9674 25.3725 11.9503 25.3247 11.9276C25.2254 11.8874 25.1266 11.8459 25.0283 11.8033C24.9064 11.7519 24.7807 11.7103 24.6522 11.679C24.4403 11.6275 24.2203 11.6189 24.0051 11.6535C23.8729 11.6703 23.7399 11.6788 23.6067 11.679C23.374 11.679 23.256 11.6376 23.256 11.5547C23.256 11.3061 23.2433 10.9905 23.2082 10.608C23.1763 10.2255 23.0935 9.843 22.9596 9.4605C22.8483 9.12019 22.6802 8.80118 22.4623 8.517C22.2615 8.26837 21.9651 8.1345 21.5667 8.11856C21.299 8.11238 21.0395 8.21071 20.8431 8.39269C20.6385 8.58199 20.4624 8.79994 20.3203 9.03975C20.1676 9.29872 20.074 9.58825 20.0462 9.88762C20.0195 10.154 19.9865 10.4197 19.9474 10.6845C19.9602 11.1243 20.0353 11.56 20.1705 11.9786C20.2534 12.2432 20.3458 12.4759 20.4447 12.6767C20.5435 12.8743 20.6614 12.9731 20.7953 12.9731C20.875 12.9731 20.9865 12.9157 21.1172 12.801C21.2511 12.6831 21.318 12.5779 21.318 12.4759C21.318 12.4249 21.2925 12.393 21.2415 12.3771C21.1933 12.3605 21.1427 12.3519 21.0917 12.3516C20.977 12.3516 20.875 12.2942 20.7921 12.1762C20.7067 12.0541 20.6401 11.9198 20.5945 11.7778C20.5422 11.6213 20.4922 11.4641 20.4447 11.3061C20.3454 10.876 20.4078 10.4245 20.62 10.0374C20.7698 9.76969 21.0439 9.62944 21.4423 9.6135V9.6135ZM16.0108 48.3863C16.4093 48.3863 16.8013 48.3544 17.1838 48.2842C17.5625 48.2191 17.9257 48.084 18.2548 47.8858C18.5705 47.7032 18.8288 47.436 19.0007 47.1144C19.1821 46.741 19.2841 46.334 19.3003 45.9191C19.3004 45.6226 19.2497 45.3283 19.1505 45.0489C19.0493 44.7639 18.9064 44.4953 18.7266 44.2521C18.5299 43.9403 18.3137 43.6411 18.0795 43.3564C17.8452 43.0706 17.6291 42.7704 17.4325 42.4575C17.1225 42.0019 16.8143 41.545 16.5081 41.0869C16.2117 40.6406 15.912 40.1689 15.6156 39.6684C15.3535 39.2444 15.1037 38.8128 14.8665 38.3743C14.6228 37.9267 14.339 37.5021 14.0187 37.1057C13.8163 36.8531 13.5829 36.6271 13.3238 36.4331C13.0576 36.2331 12.7323 36.1277 12.3994 36.1335C12.0521 36.1284 11.7155 36.2535 11.4559 36.4841C11.1592 36.7427 10.8841 37.0253 10.6335 37.3288C10.3396 37.6733 10.0234 37.998 9.68684 38.301C9.33621 38.6166 8.88996 38.8652 8.34171 39.0469C7.97071 39.1464 7.62942 39.3345 7.34721 39.5951C7.11453 39.8278 6.99659 40.1848 6.99659 40.6661C6.99659 40.9976 7.02209 41.3291 7.07309 41.6606C7.1209 41.9921 7.15596 42.3268 7.1719 42.6583C7.1719 43.1046 7.10815 43.5285 6.97109 43.9269C6.84251 44.3037 6.77578 44.6987 6.77346 45.0967C6.77346 45.5462 6.93284 45.8617 7.24521 46.0434C7.56396 46.2283 7.91778 46.3526 8.31621 46.4164C8.81665 46.5024 9.2884 46.5662 9.73784 46.6172C10.1841 46.6682 10.624 46.7447 11.0575 46.8403C11.4878 46.9423 11.9181 47.0475 12.3516 47.1654C12.7819 47.2802 13.2409 47.4651 13.7222 47.7137C13.8178 47.7615 13.9708 47.8221 14.1685 47.8858L14.841 48.1089C15.0897 48.195 15.3223 48.2619 15.5391 48.3098C15.6933 48.3511 15.8514 48.3768 16.0108 48.3863V48.3863ZM25.1271 45.3964C25.5925 45.3964 26.0897 45.3486 26.622 45.2466C27.7058 45.0435 28.7539 44.6826 29.733 44.1756C30.1889 43.9432 30.6221 43.6689 31.0272 43.3564C31.0674 43.311 31.1017 43.2607 31.1292 43.2066C31.1609 43.1425 31.1855 43.0752 31.2025 43.0057V42.9803C31.3013 42.6169 31.3842 42.2153 31.4511 41.7849C31.5202 41.3465 31.5786 40.9065 31.6264 40.4653C31.6746 40.0241 31.7331 39.5841 31.8017 39.1457C31.8655 38.7154 31.926 38.2914 31.9738 37.8771C32.0408 37.4308 32.1237 36.9973 32.2225 36.5829C32.3245 36.1686 32.4552 35.7765 32.6209 35.4099C32.7848 35.049 33.0126 34.7207 33.2935 34.4409C33.6204 34.1259 33.9894 33.8577 34.39 33.6441V33.5931L34.3645 33.5197C34.37 33.3507 34.4218 33.1864 34.5143 33.0448C34.6259 32.8618 34.7505 32.6871 34.8872 32.5221C35.0199 32.3544 35.1806 32.211 35.3622 32.0981C35.528 31.9987 35.7031 31.9154 35.8849 31.8495C35.7844 31.449 35.676 31.0504 35.5598 30.6542C35.4443 30.2598 35.3444 29.8611 35.2602 29.4589C35.1786 28.9499 35.0797 28.4439 34.9637 27.9416C34.8714 27.5521 34.7542 27.1688 34.6131 26.7941C34.4704 26.429 34.2773 26.0857 34.0393 25.7741C33.7939 25.4426 33.4847 25.041 33.1213 24.5788C32.9825 24.4237 32.8567 24.2574 32.7452 24.0816C32.6587 23.884 32.609 23.6723 32.5986 23.4568C32.5589 23.2389 32.5089 23.023 32.4488 22.8098C32.2249 22.0025 31.9676 21.205 31.6774 20.4191C31.5243 19.9995 31.3411 19.5915 31.1292 19.1983C30.9598 18.8834 30.7769 18.5761 30.5809 18.2771C30.4152 18.0285 30.2398 17.9042 30.0582 17.9042C29.6597 17.9042 29.1848 18.0636 28.6365 18.3791C28.0915 18.6947 27.5082 19.0421 26.8962 19.4246C26.281 19.8071 25.6849 20.1641 25.1016 20.4956C24.5215 20.8271 23.9987 20.9833 23.5333 20.9674C23.0367 20.967 22.5544 20.801 22.1627 20.4956C21.7406 20.174 21.3557 19.8062 21.0152 19.3991C20.6678 18.9847 20.3777 18.6277 20.145 18.3281C19.9123 18.0285 19.7402 17.8627 19.6223 17.8309C19.4916 17.8309 19.4151 17.9297 19.3992 18.1273C19.3814 18.3511 19.3729 18.5754 19.3737 18.7999V19.2238C19.3737 19.3258 19.3577 19.3896 19.3227 19.4246C19.141 19.8071 18.9402 20.1801 18.7266 20.5434C18.5098 20.91 18.2963 21.2829 18.0795 21.6654C17.6502 22.4005 17.4103 23.2308 17.3815 24.0816C17.3815 24.3302 17.3974 24.5788 17.4325 24.8274C17.4643 25.0761 17.5472 25.3183 17.6811 25.551L17.6301 25.6466C17.5021 25.8243 17.3604 25.9916 17.2062 26.1471C17.0491 26.3071 16.9082 26.4822 16.7854 26.6698C16.1757 27.5705 15.736 28.5752 15.4881 29.6342C15.2395 30.6956 15.1056 31.7762 15.0897 32.8695C15.0897 33.1532 15.1088 33.4369 15.1407 33.7174C15.1725 34.0011 15.1917 34.2816 15.1917 34.5652C15.1907 34.6572 15.1822 34.7489 15.1662 34.8394C15.1501 34.9299 15.1416 35.0216 15.1407 35.1135C15.495 35.1535 15.8358 35.2722 16.1383 35.4609C16.5208 35.6777 16.9352 35.9518 17.3815 36.2833C17.8277 36.6148 18.2548 36.9973 18.6533 37.4308C19.0517 37.8611 19.431 38.2819 19.7976 38.6994C20.1642 39.1138 20.4287 39.5282 20.5945 39.9426C20.7602 40.3569 20.8686 40.698 20.9164 40.9626C20.925 41.1553 20.894 41.3477 20.8255 41.5281C20.757 41.7084 20.6523 41.8728 20.518 42.0113C20.2321 42.2901 19.8942 42.5099 19.5235 42.6583C19.8072 43.1556 20.1546 43.5795 20.569 43.9269C20.9833 44.2776 21.4328 44.5581 21.9141 44.7748C22.3954 44.9916 22.9182 45.1477 23.4823 45.2466C24.0465 45.3486 24.598 45.3964 25.1271 45.3964V45.3964ZM35.1135 48.9345C35.461 48.9345 35.802 48.8835 36.1335 48.7847C36.6359 48.6407 37.1139 48.4226 37.552 48.1376C37.9855 47.8539 38.3807 47.5065 38.7473 47.0889C39.6132 46.0899 40.6726 45.2766 41.8615 44.6983L42.6838 44.3254C42.966 44.2024 43.2397 44.0607 43.503 43.9014C43.6933 43.7809 43.8696 43.6398 44.029 43.4807C44.1092 43.4031 44.1726 43.3099 44.2154 43.2068C44.2582 43.1038 44.2793 42.993 44.2776 42.8814C44.2778 42.7532 44.2518 42.6263 44.2011 42.5085C44.1416 42.3758 44.0667 42.2507 43.978 42.1356C43.7508 41.8193 43.535 41.495 43.3309 41.1634C43.1463 40.8617 42.9874 40.545 42.856 40.2167L42.4575 39.2222C42.3138 38.8571 42.1966 38.4821 42.1069 38.1002C42.0723 37.9822 42.0137 37.8726 41.9348 37.7783C41.7746 37.5387 41.5557 37.3441 41.2991 37.213C41.0424 37.0819 40.7565 37.0186 40.4685 37.0292C40.1712 37.0281 39.8789 37.105 39.6207 37.2523L38.7728 37.7273C38.4777 37.8909 38.179 38.0482 37.8771 38.199C37.5835 38.3468 37.2591 38.4232 36.9304 38.4221C36.6365 38.435 36.3468 38.3485 36.108 38.1767C35.8789 37.9947 35.6918 37.7653 35.5598 37.5041C35.4181 37.2382 35.2935 36.9635 35.1868 36.6818L34.8872 35.8594C34.7574 36.0726 34.608 36.2732 34.441 36.4586C34.2703 36.6486 34.1353 36.8678 34.0425 37.1057C33.8258 37.6029 33.6919 38.1576 33.6441 38.7727C33.5612 39.7354 33.4528 40.6725 33.319 41.5873C33.1826 42.5201 32.9585 43.4379 32.6496 44.3286C32.5615 44.6133 32.4944 44.9042 32.4488 45.1988C32.3993 45.5039 32.3652 45.8114 32.3468 46.1199C32.3468 46.9327 32.5986 47.6053 33.0958 48.1376C33.5931 48.6668 34.2657 48.9345 35.1135 48.9345V48.9345Z" fill="black"/>
</svg>
