<svg width="215" height="212" viewBox="0 0 215 212" fill="none" xmlns="http://www.w3.org/2000/svg">
<circle cx="106" cy="106" r="105.5" fill="#F4F7FF" stroke="#EAEAEA"/>
<mask id="path-2-inside-1_304_413" fill="white">
<path fill-rule="evenodd" clip-rule="evenodd" d="M60 122.299L152.765 122.299L152.765 99.1074C152.765 73.4912 131.999 52.7251 106.382 52.7251C80.766 52.7251 60 73.4911 60 99.1074L60 122.299Z"/>
</mask>
<path d="M152.765 122.299L152.765 132.299L162.765 132.299L162.765 122.299L152.765 122.299ZM60 122.299L50 122.299L50 132.299L60 132.299L60 122.299ZM152.765 99.1074L162.765 99.1074L162.765 99.1074L152.765 99.1074ZM152.765 112.299L60 112.299L60 132.299L152.765 132.299L152.765 112.299ZM142.765 99.1074L142.765 122.299L162.765 122.299L162.765 99.1074L142.765 99.1074ZM162.765 99.1074C162.765 67.9683 137.521 42.7251 106.382 42.7251L106.382 62.7251C126.476 62.7251 142.765 79.014 142.765 99.1074L162.765 99.1074ZM106.382 42.7251C75.2432 42.7251 50 67.9683 50 99.1074L70 99.1074C70 79.014 86.2889 62.7251 106.382 62.7251L106.382 42.7251ZM70 122.299L70 99.1074L50 99.1074L50 122.299L70 122.299Z" fill="url(#paint0_linear_304_413)" mask="url(#path-2-inside-1_304_413)"/>
<g filter="url(#filter0_i_304_413)">
<path fill-rule="evenodd" clip-rule="evenodd" d="M152.765 101.427H60V124.618C60 150.234 80.7661 171 106.382 171C131.999 171 152.765 150.234 152.765 124.618V101.427Z" fill="url(#paint1_linear_304_413)"/>
</g>
<circle cx="106.465" cy="123.127" r="7.04018" fill="white"/>
<rect x="104.353" y="126.647" width="4.22411" height="22.5286" fill="white"/>
<circle cx="199" cy="152" r="16" fill="#6C79F9"/>
<circle cx="11" cy="65" r="8" fill="#9578FF"/>
<defs>
<filter id="filter0_i_304_413" x="60" y="101.427" width="92.7646" height="73.5735" filterUnits="userSpaceOnUse" color-interpolation-filters="sRGB">
<feFlood flood-opacity="0" result="BackgroundImageFix"/>
<feBlend mode="normal" in="SourceGraphic" in2="BackgroundImageFix" result="shape"/>
<feColorMatrix in="SourceAlpha" type="matrix" values="0 0 0 0 0 0 0 0 0 0 0 0 0 0 0 0 0 0 127 0" result="hardAlpha"/>
<feOffset dy="4"/>
<feGaussianBlur stdDeviation="2"/>
<feComposite in2="hardAlpha" operator="arithmetic" k2="-1" k3="1"/>
<feColorMatrix type="matrix" values="0 0 0 0 1 0 0 0 0 1 0 0 0 0 1 0 0 0 0.25 0"/>
<feBlend mode="normal" in2="shape" result="effect1_innerShadow_304_413"/>
</filter>
<linearGradient id="paint0_linear_304_413" x1="106.382" y1="122" x2="106.382" y2="52.7251" gradientUnits="userSpaceOnUse">
<stop stop-color="#9578FF"/>
<stop offset="1" stop-color="#BCC2FF"/>
</linearGradient>
<linearGradient id="paint1_linear_304_413" x1="106.382" y1="101.427" x2="106.382" y2="171" gradientUnits="userSpaceOnUse">
<stop stop-color="#9578FF"/>
<stop offset="1" stop-color="#6C79F9"/>
</linearGradient>
</defs>
</svg>
