<svg width="131" height="154" viewBox="0 0 131 154" fill="none" xmlns="http://www.w3.org/2000/svg">
<path d="M91.6438 52.0991C93.0678 50.2223 92.6997 47.5538 90.8228 46.1297C88.9459 44.7057 86.2774 45.0739 84.8534 46.9508" stroke="#2E2E2E" stroke-width="2" stroke-miterlimit="10" stroke-linecap="round"/>
<path fill-rule="evenodd" clip-rule="evenodd" d="M108.39 63.7808L69.0873 33.9704C66.4532 31.9724 62.6915 32.4891 60.6935 35.1232L17.3977 92.2047L17.3973 92.2045L6.49441 106.579C4.49645 109.213 5.01309 112.975 7.64721 114.973L46.9536 144.786C49.5878 146.784 53.3495 146.268 55.3474 143.634L66.2504 129.259L66.2465 129.256L109.542 72.1746C111.54 69.5405 111.024 65.7788 108.39 63.7808Z" fill="url(#paint0_linear_559_1527)"/>
<path d="M84.6881 60.716C85.9946 58.99 85.6589 56.5287 83.9329 55.2222C82.207 53.9158 79.7457 54.2515 78.4392 55.9775C77.1327 57.7034 77.4685 60.1647 79.1944 61.4712C80.9203 62.7777 83.3817 62.4419 84.6881 60.716Z" fill="white"/>
<path d="M84.2643 57.5975C85.4641 47.0907 90.8477 31.8915 91.8276 23.2983C92.41 18.1988 91.2628 14.7182 87.8073 13.9576C84.2906 13.1834 82.2832 17.4113 81.7425 22.1463C80.7627 30.7394 82.0109 45.0185 80.811 55.5254" stroke="#2E2E2E" stroke-width="2" stroke-miterlimit="10" stroke-linecap="round"/>
<g clip-path="url(#clip0_559_1527)">
<path d="M38.3993 100.648L34.6417 107.36C34.3765 107.845 34.5107 108.461 34.9539 108.798L36.8744 110.259L40.0172 107.148C40.0429 107.123 40.0656 107.102 40.0955 107.079C40.4939 106.76 41.0633 106.744 41.4778 107.059L43.1767 108.351L45.4923 106.056C45.8858 105.675 45.8472 105.036 45.403 104.691L39.7237 100.372C39.2887 100.041 38.6584 100.171 38.3921 100.649" fill="white"/>
<path d="M38.5663 111.551L36.8674 110.259L36.8736 110.251L34.558 112.546C34.1645 112.927 34.2031 113.566 34.636 113.908L40.3194 118.231C40.7544 118.562 41.3847 118.431 41.651 117.954L45.4086 111.242C45.6738 110.756 45.5396 110.141 45.0964 109.804L43.1759 108.343L40.0269 111.462C39.6304 111.847 39.0013 111.882 38.5581 111.545" fill="white"/>
</g>
<g clip-path="url(#clip1_559_1527)">
<path d="M54.0253 98.4803L57.3181 94.1508L58.5659 95.0998L53.9663 101.147L45.5009 94.709C45.2702 94.5329 45.1178 94.2737 45.0771 93.9885C45.0364 93.7033 45.1108 93.4153 45.2839 93.1876C45.457 92.9602 45.7147 92.8117 46.0004 92.7748C46.286 92.7379 46.5763 92.8157 46.8076 92.9909L54.0253 98.4803Z" fill="white"/>
<path d="M54.428 87.2311L60.8405 92.1081L59.7273 93.5717L53.3149 88.6947C53.2173 88.6205 53.1351 88.5282 53.0729 88.4229C53.0107 88.3176 52.9698 88.2014 52.9525 88.081C52.9352 87.9606 52.9419 87.8384 52.9721 87.7212C53.0024 87.6041 53.0556 87.4943 53.1287 87.3983C53.2017 87.3021 53.2932 87.2214 53.3981 87.1609C53.5029 87.1005 53.619 87.0613 53.7397 87.0458C53.8604 87.0303 53.9833 87.0386 54.1014 87.0704C54.2195 87.1022 54.3305 87.1568 54.428 87.2311Z" fill="white"/>
<path d="M52.2863 86.7575C52.66 86.266 52.5587 85.56 52.0598 85.1806C51.561 84.8012 50.8536 84.8921 50.4798 85.3836C50.106 85.875 50.2074 86.581 50.7062 86.9604C51.2051 87.3398 51.9125 87.249 52.2863 86.7575Z" fill="white"/>
<path d="M60.1314 79.8843C59.1403 79.8848 58.1686 80.3404 57.4054 81.3439C56.6772 82.3013 56.4825 83.3067 56.6941 84.2257C56.5986 84.1527 56.4898 84.0989 56.3741 84.0675C56.2583 84.0362 56.1378 84.0277 56.0195 84.0428C55.9011 84.0578 55.7872 84.096 55.6843 84.1552C55.5815 84.2143 55.4916 84.2933 55.4199 84.3876C55.2693 84.5856 55.2047 84.8363 55.2403 85.0844C55.276 85.3326 55.4089 85.5579 55.6099 85.7108L62.0063 90.5755L63.1191 89.1123L58.7762 85.8092C57.8409 85.0312 57.5469 83.8242 58.3863 82.7206C59.2563 81.5767 60.5582 81.5761 61.5748 82.3493L65.8122 85.5721L66.9251 84.1089L62.5073 80.7489C61.7735 80.189 60.9473 79.882 60.1314 79.8843Z" fill="white"/>
<path d="M73.1529 75.9239L66.867 76.9062L66.2688 72.1124C66.2399 71.8874 66.1227 71.6818 65.9431 71.5406C65.7634 71.3994 65.5359 71.3341 65.3104 71.359L65.3017 71.3598C65.1899 71.3724 65.0819 71.4069 64.984 71.4613C64.8862 71.5157 64.8003 71.5889 64.7313 71.6768C64.6624 71.7647 64.6117 71.8655 64.5821 71.9735C64.5525 72.0814 64.5447 72.1944 64.559 72.3061L65.2867 78.162L60.5886 74.5888C60.3927 74.44 60.1465 74.3739 59.9043 74.4051C59.6621 74.4362 59.4436 74.5621 59.2968 74.7551C59.1502 74.948 59.0874 75.1922 59.1221 75.4338C59.1568 75.6755 59.2862 75.8949 59.4819 76.0439L68.0832 82.5856L69.1898 81.1306L66.1257 78.8002L71.6178 77.9422L73.1529 75.9239Z" fill="white"/>
<path d="M68.3984 66.8629C68.3792 66.8882 68.3679 66.9187 68.3657 66.9506C68.3635 66.9824 68.3705 67.0144 68.386 67.0426L69.0952 68.3223L67.6751 67.9831C67.6375 67.9741 67.5982 67.9783 67.5637 67.9948C67.5292 68.0112 67.5015 68.0391 67.4854 68.0737C67.4693 68.1083 67.4656 68.1475 67.4751 68.1848C67.4845 68.2221 67.5065 68.2553 67.5373 68.2787L68.8366 69.2669L68.9956 69.0579L67.9932 68.2954L69.3301 68.6173L69.441 68.4714L68.7749 67.2717L69.775 68.0323L69.934 67.8232L68.6319 66.8329C68.6144 66.8196 68.5944 66.8098 68.5732 66.804C68.552 66.7983 68.5299 66.7968 68.5082 66.7996C68.4866 66.8024 68.4657 66.8094 68.4469 66.8203C68.428 66.8311 68.4116 66.8456 68.3984 66.8629Z" fill="white"/>
<path d="M67.1347 68.5246L66.2635 69.6701C66.2458 69.6934 66.2382 69.7228 66.2424 69.752C66.2466 69.7811 66.2622 69.8075 66.2858 69.8255C66.3094 69.8434 66.339 69.8514 66.3682 69.8477C66.3974 69.8439 66.4237 69.8288 66.4414 69.8055L66.7978 69.3369L68.0535 70.2919L68.2039 70.094L68.2116 70.0791L66.9583 69.1259L67.3138 68.6584C67.3315 68.6352 67.3391 68.6058 67.3349 68.5766C67.3307 68.5475 67.3151 68.521 67.2915 68.5031C67.2679 68.4851 67.2383 68.4772 67.2091 68.4809C67.1799 68.4847 67.1535 68.4998 67.1359 68.5231L67.1347 68.5246Z" fill="white"/>
</g>
<defs>
<linearGradient id="paint0_linear_559_1527" x1="17.3966" y1="94.2787" x2="52.7507" y2="145.054" gradientUnits="userSpaceOnUse">
<stop stop-color="#A9B1FF"/>
<stop offset="1" stop-color="#6C79F9"/>
</linearGradient>
<clipPath id="clip0_559_1527">
<rect width="13.86" height="13.09" fill="white" transform="translate(30.6226 110.856) rotate(-52.7451)"/>
</clipPath>
<clipPath id="clip1_559_1527">
<rect width="36.19" height="12.32" fill="white" transform="translate(44.1621 93.6904) rotate(-52.7451)"/>
</clipPath>
</defs>
</svg>
