<svg width="30" height="30" viewBox="0 0 30 30" fill="none" xmlns="http://www.w3.org/2000/svg">
<path d="M30 15.0005C30 6.71602 23.2841 0 14.9998 0C6.71906 0 0.00585938 6.71039 0 14.9899V26.5978C0.00445312 28.4777 1.52918 29.9996 3.41027 29.9996H15.0059C23.2875 29.9964 30 23.2827 30 15.0005Z" fill="#294172"/>
<path d="M19.4037 3.55151C15.5237 3.55151 12.3671 6.70796 12.3671 10.588V14.3228H8.64785C4.76789 14.3228 1.61133 17.4795 1.61133 21.3594C1.61133 25.2393 4.76789 28.396 8.64785 28.396C12.5278 28.396 15.6844 25.2393 15.6844 21.3594V17.6246H19.4037C23.2836 17.6246 26.4403 14.468 26.4403 10.588C26.4403 6.70796 23.2836 3.55151 19.4037 3.55151V3.55151ZM12.3932 21.3594C12.3932 23.4245 10.713 25.1046 8.64785 25.1046C6.58266 25.1046 4.90254 23.4245 4.90254 21.3594C4.90254 19.2942 6.58266 17.6141 8.64785 17.6141H12.3671V17.6246H12.3932V21.3594V21.3594ZM19.4037 14.3333H15.6844V14.3228H15.6585V10.588C15.6585 8.52284 17.3386 6.84272 19.4037 6.84272C21.4688 6.84272 23.149 8.52284 23.149 10.588C23.149 12.6532 21.4688 14.3333 19.4037 14.3333V14.3333Z" fill="#3C6EB4"/>
<path d="M20.9587 3.76496C20.4127 3.62223 19.9934 3.55566 19.4035 3.55566C15.5156 3.55566 12.3635 6.70789 12.3635 10.5956V14.3271H9.41508C8.49574 14.3271 7.75277 15.0495 7.75336 15.9672C7.75336 16.8792 8.48812 17.6047 9.39773 17.6047L11.8389 17.6052C12.1287 17.6052 12.3637 17.8395 12.3637 18.1289V21.3577C12.3601 23.4075 10.6975 25.0678 8.64773 25.0678C7.9534 25.0678 7.78148 24.9768 7.30746 24.9768C6.31172 24.9768 5.64551 25.6443 5.64551 26.5622C5.64574 27.3214 6.29637 27.9741 7.09254 28.1825C7.63863 28.3252 8.05793 28.3919 8.64773 28.3919C12.5357 28.3919 15.6878 25.2397 15.6878 21.3519V17.6205H18.6362C19.5555 17.6205 20.2985 16.898 20.2979 15.9804C20.2979 15.0683 19.5632 14.3429 18.6535 14.3429L16.2124 14.3424C16.0734 14.3425 15.9399 14.2874 15.8415 14.1892C15.7431 14.091 15.6877 13.9577 15.6875 13.8186V10.5897C15.6912 8.54 17.3538 6.87969 19.4035 6.87969C20.0979 6.87969 20.2698 6.97074 20.7438 6.97074C21.7396 6.97074 22.4058 6.30313 22.4058 5.38543C22.4055 4.62606 21.7549 3.97332 20.9587 3.76496Z" fill="white"/>
</svg>
