<svg width="247" height="177" viewBox="0 0 247 177" fill="none" xmlns="http://www.w3.org/2000/svg">
<path d="M126.1 37.1567C128.013 35.2442 126.897 27.5945 126.1 24.0087L122.216 22.5146L111.16 29.3874L117.136 53.2927C120.124 54.1892 126.459 55.743 127.893 54.7868C129.686 53.5916 127.296 47.914 124.606 45.2247C121.917 42.5353 123.71 39.5472 126.1 37.1567Z" fill="#432727" stroke="black" stroke-linecap="round"/>
<path d="M58.3187 116.876C66.119 121.554 66.8488 150.391 66.2388 164.224C63.7584 168.51 53.4967 172.091 32.2929 152.133C11.0891 132.174 13.7997 86.0116 17.8055 65.4249C19.1545 75.3621 48.5685 111.027 58.3187 116.876Z" fill="#73AD18" stroke="black" stroke-width="0.5"/>
<path d="M56.7877 33.7796C57.9704 44.3288 55.8836 70.8523 47.3665 90.1305C37.4932 112.479 53.4881 172.521 63.7788 173.706C74.0694 174.89 77.6861 155.488 80.9616 140.83C84.2372 126.171 78.878 104.503 77.6861 89.5529C76.7327 77.5932 68.429 44.6277 56.7877 33.7796Z" fill="#299959" stroke="black" stroke-width="0.5"/>
<path d="M128.841 144.442C128.841 136.464 129.466 132.782 130.089 125.417C130.713 118.053 134.458 108.847 134.458 108.847L127.594 105.779L134.458 98.4141C139.242 99.4369 148.81 102.096 148.81 104.551C148.81 107.62 133.21 149.966 132.586 151.807C131.962 153.648 133.834 165.922 134.458 167.15C135.082 168.377 140.074 168.377 140.698 170.832C141.322 173.287 130.089 170.832 128.841 170.832C127.593 170.832 122.602 157.33 121.978 154.875C121.354 152.421 125.722 152.421 126.346 151.193C126.97 149.966 128.841 148.738 128.841 144.442Z" fill="#D8A488" stroke="black" stroke-width="0.5"/>
<path d="M146.125 103.314C145.147 101.347 142.049 99.6263 140.622 99.0117L132.674 100.855C134.508 106.591 138.421 119.17 139.4 123.594C140.622 129.126 162.021 157.396 162.021 159.239C162.021 161.083 160.187 167.843 162.021 170.302C163.855 172.76 185.865 172.145 185.253 170.302C184.642 168.458 168.135 160.468 166.912 159.239C165.689 158.01 147.348 105.772 146.125 103.314Z" fill="#FFCCAF" stroke="black" stroke-width="0.5"/>
<rect x="77.3447" y="114.8" width="44.9201" height="56.8727" fill="#9578FF" stroke="black" stroke-width="0.5"/>
<path d="M77.5868 111.206C71.7326 103.318 82.4624 89.4306 89.1704 83.4731C93.6426 85.322 102.952 86.1848 104.416 87.1709C105.879 88.1569 130.638 94.5663 142.834 97.6477L123.93 116.136C110.514 116.753 83.4411 119.094 77.5868 111.206Z" fill="#6C79F9" stroke="black" stroke-width="0.5"/>
<path d="M128.461 61.7773C128.956 56.8514 123.306 44.126 120.419 38.379C118.563 37.1477 114.233 37.1477 106.809 38.379C92.1237 40.8149 80.6212 66.7033 76.4971 78.4024L108.046 88.2544C114.645 81.4812 127.966 66.7033 128.461 61.7773Z" fill="#91B3FA" stroke="black" stroke-width="0.5"/>
<path d="M92.2162 83.1497C88.8064 83.1497 80.2412 79.7797 76.3848 78.0947C71.5136 87.1937 75.5729 89.0473 78.2115 88.8366H129.968C131.186 88.2048 131.186 86.941 129.968 85.6772C128.75 84.4136 125.097 79.3585 123.27 79.3585C121.443 79.3585 115.354 80.6222 112.919 81.886C110.483 83.1497 96.4785 83.1497 92.2162 83.1497Z" fill="#FFCCAF" stroke="black" stroke-width="0.5"/>
<path d="M118.331 35.9614C117.853 32.5101 119.725 29.7051 120.124 29.9105L112.952 22.5146C110.96 26.8288 106.976 35.9502 106.976 37.9224C106.976 39.8946 117.733 43.133 119.228 42.5353C120.722 41.9377 118.809 39.4127 118.331 35.9614Z" fill="#FFCCAF" stroke="black" stroke-width="0.5"/>
<path d="M132.463 24.1433C133.929 21.7059 136.274 15.7962 135.663 12.9525C136.274 12.5463 133.074 10.9811 128.186 9.51866C122.077 7.69057 114.746 22.9246 114.746 24.7527C114.746 26.5808 120.59 32.3256 123.5 32.5C126.41 32.6744 130.63 27.1901 132.463 24.1433Z" fill="#FFCCAF" stroke="black" stroke-width="0.5"/>
<path d="M125.031 26.0556C125.436 26.212 125.858 26.3578 126.248 26.4834C126.802 26.6618 127.072 27.2775 126.579 27.5861C126.194 27.8267 125.642 28.0044 124.884 27.9682C124.205 27.9358 123.791 27.5666 123.549 27.0848C123.18 26.3498 124.264 25.7591 125.031 26.0556Z" fill="#FFAEAE" stroke="black" stroke-width="0.5"/>
<ellipse cx="125.104" cy="20.8647" rx="0.597417" ry="0.896125" transform="rotate(13.3351 125.104 20.8647)" fill="black"/>
<ellipse cx="131.199" cy="22.3808" rx="0.597417" ry="0.896125" transform="rotate(13.3351 131.199 22.3808)" fill="black"/>
<path d="M129.192 23.1123C129.716 23.4923 129.567 24.1852 129.491 24.3073C129.415 24.4295 129.193 24.6062 128.595 24.6061" stroke="black" stroke-width="0.5" stroke-linecap="round"/>
<path d="M127.093 18.1759C126.677 17.7704 125.543 17.0718 124.332 17.5214" stroke="black" stroke-width="0.5" stroke-linecap="round"/>
<path d="M133.524 20.4972C133.109 20.0917 131.975 19.3931 130.763 19.8427" stroke="black" stroke-width="0.5" stroke-linecap="round"/>
<path d="M138.95 10.5621C138.95 5.17593 130.882 0.852937 126.997 1.46501C115.343 -0.983151 114.117 6.9735 112.89 8.19763C111.663 9.42177 109.21 8.8097 105.53 10.0338C101.85 11.258 100.01 15.5424 98.1694 16.7666C96.3293 17.9907 94.4892 16.7666 90.809 19.2148C87.8649 21.1735 87.9467 25.7436 88.3556 27.7838C87.3332 27.7838 83.979 26.5828 81.6086 28.3959C76.796 32.0769 77.315 36.9648 79.7685 41.2493C82.2219 45.5338 78.5414 46.3795 78.5414 51.0424C78.5414 56.281 82.426 56.959 85.2884 57.7751C91.2176 51.2464 103.812 38.1889 106.756 38.1889C110.436 38.1889 109.21 31.4562 112.89 27.7838C115.834 24.8459 116.57 20.0309 116.57 17.9907C119.023 17.7867 124.544 17.1338 126.997 16.1545C130.064 14.9304 130.552 12.0562 131.778 12.0562C132.76 12.0562 131.904 20.6784 134.468 22.5148C136.308 20.4746 138.95 15.9483 138.95 10.5621Z" fill="#432727" stroke="black" stroke-width="0.5"/>
<path d="M119.126 9.0301C119.126 7.07669 126.7 2.92571 126.698 1.70483C126.697 0.484163 125.436 1.09432 124.175 1.70452L124.175 1.70483C122.914 2.31514 114.078 9.0301 111.554 13.9136C109.535 17.8204 110.924 20.6282 112.817 21.8491C114.711 23.07 117.107 22.5818 119.126 20.6284C121.65 18.1867 119.126 11.4719 119.126 9.0301Z" fill="#91B3FA" stroke="black" stroke-width="0.5"/>
<path d="M115.941 22.5146C117.02 24.9052 120.085 29.6862 123.71 29.6862" stroke="black"/>
<ellipse cx="124.009" cy="29.6865" rx="2.09171" ry="1.7929" fill="black"/>
<rect x="92.6333" y="87.0591" width="153.592" height="7.17159" rx="3.5858" fill="black"/>
<rect x="98.8594" y="83.1255" width="79.5828" height="3.68343" rx="1.84171" fill="#AFB7FF" stroke="black" stroke-width="0.5"/>
<path d="M147.247 46.6699H187.925C190.527 46.6699 192.338 49.2544 191.45 51.6999L179.598 84.3389C179.06 85.8217 177.651 86.8089 176.073 86.8089H135.395C132.793 86.8089 130.982 84.2244 131.87 81.779L143.722 49.14C144.26 47.6572 145.669 46.6699 147.247 46.6699Z" fill="#6C79F9" stroke="black" stroke-width="0.5"/>
<rect x="206.433" y="91.1826" width="6.14043" height="83.5063" rx="3.07021" transform="rotate(15 206.433 91.1826)" fill="black"/>
<rect x="122.923" y="91.1826" width="6.14043" height="83.5063" rx="3.07021" transform="rotate(15 122.923 91.1826)" fill="black"/>
<rect x="209.382" y="92.7725" width="6.14043" height="83.5063" rx="3.07021" transform="rotate(-15 209.382 92.7725)" fill="black"/>
<rect x="125.872" y="92.7725" width="6.14043" height="83.5063" rx="3.07021" transform="rotate(-15 125.872 92.7725)" fill="black"/>
<path d="M92.0356 82.8755L103.391 58.9702" stroke="black" stroke-width="0.5" stroke-linecap="round"/>
<path d="M58.8667 41.0415C63.1497 54.8867 70.2217 100.446 64.2454 171.923" stroke="black" stroke-width="0.5" stroke-linecap="round"/>
<path d="M18.5 77.5C21.289 105.888 33.5867 158.416 57.9702 164.154" stroke="black" stroke-width="0.5" stroke-linecap="round"/>
</svg>
