<svg width="189" height="169" viewBox="0 0 189 169" fill="none" xmlns="http://www.w3.org/2000/svg">
<mask id="mask0_557_1419" style="mask-type:alpha" maskUnits="userSpaceOnUse" x="10" y="0" width="169" height="169">
<circle cx="94.5" cy="84.5" r="84" fill="#F4F7FF" stroke="#EAEAEA"/>
</mask>
<g mask="url(#mask0_557_1419)">
<path d="M92.5788 78.1564C92.9247 79.9087 86.9571 85.0195 83.9301 87.3559L79.6057 95.2412H35.9299C47.6056 87.0639 71.649 69.7455 74.4165 65.8905C77.876 61.0717 79.6057 54.0626 79.6057 48.3677C79.6057 42.6728 81.3355 42.2347 82.6328 38.7302C83.9301 35.2256 83.9301 18.5789 85.6598 13.3221C87.0436 9.11659 90.849 11.5698 92.5788 13.3221C92.4346 34.2034 92.2328 76.4041 92.5788 78.1564Z" fill="#FFCCAF" stroke="black" stroke-linecap="round"/>
<path d="M10.1998 165.057L82.072 92.7273C83.1223 91.6704 82.7037 89.8386 81.336 89.2475C78.836 88.167 75.2971 86.3731 72.7523 84C69.946 81.3829 67.6746 77.3425 66.4153 74.803C65.8344 73.6316 64.3143 73.2241 63.2668 74.0066L-18.5813 135.146C-19.5487 135.869 -19.66 137.277 -18.818 138.143L7.34748 165.042C8.12693 165.843 9.41186 165.85 10.1998 165.057Z" fill="white" stroke="black" stroke-linecap="round"/>
<path d="M77.7085 91.5C77.7085 92.0561 77.2624 92.5 76.7205 92.5C76.1786 92.5 75.7324 92.0561 75.7324 91.5C75.7324 90.9439 76.1786 90.5 76.7205 90.5C77.2624 90.5 77.7085 90.9439 77.7085 91.5Z" stroke="black"/>
<path d="M56.3838 82C56.3838 82 57.3758 86.5 62.832 92C68.2882 97.5 74.2405 97.5 74.2405 97.5" stroke="black" stroke-linecap="round"/>
<path d="M93.0145 78.1564C92.6685 79.9087 98.6361 85.0195 101.663 87.3559L105.987 95.2412H149.663C137.988 87.0639 113.944 69.7455 111.177 65.8905C107.717 61.0717 105.987 54.0626 105.987 48.3677C105.987 42.6728 104.258 42.2347 102.96 38.7302C101.663 35.2256 101.663 18.5789 99.9334 13.3221C98.5496 9.11659 94.7442 11.5698 93.0145 13.3221C93.1586 34.2034 93.3604 76.4041 93.0145 78.1564Z" fill="#FFCCAF" stroke="black" stroke-linecap="round"/>
<path d="M175.393 165.057L103.521 92.7273C102.471 91.6704 102.889 89.8386 104.257 89.2475C106.757 88.167 110.296 86.3731 112.841 84C115.647 81.3829 117.919 77.3425 119.178 74.803C119.759 73.6316 121.279 73.2241 122.326 74.0066L204.175 135.146C205.142 135.868 205.253 137.277 204.411 138.143L178.246 165.042C177.466 165.843 176.181 165.85 175.393 165.057Z" fill="white" stroke="black" stroke-linecap="round"/>
<path d="M107.885 91.5C107.885 92.0561 108.331 92.5 108.873 92.5C109.415 92.5 109.861 92.0561 109.861 91.5C109.861 90.9439 109.415 90.5 108.873 90.5C108.331 90.5 107.885 90.9439 107.885 91.5Z" stroke="black"/>
<path d="M129.209 82C129.209 82 128.217 86.5 122.761 92C117.305 97.5 111.353 97.5 111.353 97.5" stroke="black" stroke-linecap="round"/>
</g>
</svg>
