<svg width="223" height="161" viewBox="0 0 223 161" fill="none" xmlns="http://www.w3.org/2000/svg">
<path d="M135.509 27.8857C134.805 29.5689 134.196 31.2999 133.707 33.0428L189.957 89.2925C191.699 88.8031 193.418 88.1942 195.114 87.4899L135.509 27.8857Z" fill="#B8BBFF"/>
<path d="M139.377 20.6045C138.434 22.037 137.598 23.5173 136.834 25.0214L197.979 86.1655C199.483 85.4015 200.963 84.5659 202.396 83.6228L139.377 20.6045Z" fill="#B8BBFF"/>
<path d="M144.284 14.3848C143.15 15.6024 142.087 16.8558 141.096 18.157L204.843 81.9035C206.144 80.9247 207.41 79.8622 208.615 78.7162L144.284 14.3848Z" fill="#B8BBFF"/>
<path d="M220.6 30.7991C218.428 24.4125 214.799 18.396 209.701 13.3106C204.604 8.21326 198.599 4.58426 192.213 2.41162L220.6 30.7991Z" fill="#B8BBFF"/>
<path d="M168.517 90.1401C171.095 90.6534 173.722 90.94 176.348 91.0116L132 46.6636C132.072 49.2898 132.346 51.9042 132.871 54.4946L168.517 90.1401Z" fill="#B8BBFF"/>
<path d="M132.895 36.4092C132.477 38.4386 132.215 40.4918 132.083 42.557L180.454 90.928C182.52 90.7967 184.573 90.5221 186.602 90.1162L132.895 36.4092Z" fill="#B8BBFF"/>
<path d="M157.021 4.83398C155.517 5.59799 154.037 6.4336 152.604 7.37667L215.635 70.4069C216.578 68.9744 217.413 67.4942 218.177 65.9901L157.021 4.83398Z" fill="#B8BBFF"/>
<path d="M186.483 0.871436C183.905 0.358121 181.278 0.0716253 178.652 0L223 44.348C222.928 41.7217 222.654 39.1074 222.129 36.517L186.483 0.871436Z" fill="#B8BBFF"/>
<path d="M134.399 60.2012C136.572 66.5878 140.201 72.6043 145.298 77.6897C150.395 82.787 156.4 86.416 162.787 88.5887L134.399 60.2012Z" fill="#B8BBFF"/>
<path d="M165.043 1.70703C163.3 2.19647 161.581 2.8053 159.886 3.50961L219.49 63.1138C220.195 61.4306 220.804 59.6997 221.293 57.9568L165.043 1.70703Z" fill="#B8BBFF"/>
<path d="M174.545 0.0830078C172.48 0.214321 170.427 0.488894 168.397 0.894771L222.104 54.6018C222.522 52.5724 222.785 50.5192 222.916 48.454L174.545 0.0830078Z" fill="#B8BBFF"/>
<path d="M150.157 9.10791C148.856 10.0868 147.59 11.1492 146.385 12.2952L210.728 76.6386C211.862 75.421 212.924 74.1675 213.915 72.8664L150.157 9.10791Z" fill="#B8BBFF"/>
<rect x="24.35" y="44.35" width="150.5" height="96.6" fill="white" stroke="black" stroke-width="0.7"/>
<rect x="29.9501" y="49.9501" width="140" height="85.4" fill="#C4C4C4" stroke="black" stroke-width="0.7"/>
<rect x="30.2998" y="50.3008" width="139.3" height="84.7" fill="white"/>
<path opacity="0.4" d="M30.2998 50.3008H169.6V54.4602H30.2998V50.3008Z" fill="#6C79F9"/>
<path d="M163.731 78.6602H79.6028V80.1727H163.731V78.6602Z" fill="#D5D5DB"/>
<path d="M128.514 82.063H79.6028V83.5755H128.514V82.063Z" fill="#D5D5DB"/>
<path d="M163.731 95.6753H79.6028V97.1878H163.731V95.6753Z" fill="#D5D5DB"/>
<path d="M41.3261 61.3417L40.9827 61.0098C41.1369 60.835 41.2206 60.6149 41.2206 60.3818C41.2206 60.1227 41.1168 59.8783 40.9258 59.6938C40.5338 59.315 39.8956 59.315 39.5019 59.6938C39.3126 59.8783 39.2087 60.1227 39.2087 60.3834C39.2087 60.644 39.3126 60.8868 39.5036 61.0714C39.6945 61.2559 39.9458 61.3563 40.2155 61.3563C40.4567 61.3563 40.6829 61.2753 40.8655 61.1264L41.2089 61.4583C41.2256 61.4744 41.2474 61.4825 41.2675 61.4825C41.2876 61.4825 41.3111 61.4744 41.3261 61.4583C41.358 61.4243 41.358 61.3725 41.3261 61.3417ZM40.2138 61.1928C39.9894 61.1928 39.7783 61.1086 39.6208 60.9548C39.4617 60.801 39.3746 60.5987 39.3746 60.3818C39.3746 60.1648 39.4617 59.9609 39.6208 59.8087C39.9475 59.493 40.4802 59.493 40.8068 59.8087C40.966 59.9625 41.0531 60.1648 41.0531 60.3818C41.0531 60.5712 40.9827 60.7476 40.8605 60.8917C40.842 60.9127 40.8269 60.9354 40.8068 60.9548C40.7867 60.9742 40.7633 60.9888 40.7415 61.0066C40.5941 61.1264 40.4098 61.1928 40.2138 61.1928Z" fill="#707070"/>
<path d="M40.4894 60.4058H39.9868" stroke="#707070" stroke-width="0.141509" stroke-linecap="round"/>
<path d="M36.7166 61.2987L36.3699 60.9636C36.7032 60.5816 36.6882 60.0102 36.3163 59.6508C35.9243 59.272 35.286 59.272 34.8924 59.6508C34.5004 60.0296 34.5004 60.6464 34.8924 61.0268C35.0817 61.2097 35.3346 61.3117 35.6043 61.3117C35.8455 61.3117 36.0717 61.2307 36.2543 61.0818L36.5977 61.4137C36.6144 61.4299 36.6362 61.4379 36.6563 61.4379C36.6764 61.4379 36.6999 61.4299 36.715 61.4137C36.7501 61.3813 36.7501 61.3311 36.7166 61.2987ZM35.606 61.1498C35.3815 61.1498 35.1705 61.0656 35.013 60.9118C34.6863 60.5962 34.6863 60.0814 35.013 59.7657C35.1772 59.6071 35.3916 59.5294 35.606 59.5294C35.8204 59.5294 36.0348 59.6087 36.199 59.7657C36.5056 60.062 36.5206 60.5314 36.2526 60.8487C36.2342 60.8698 36.2191 60.8924 36.199 60.9118C36.1789 60.9313 36.1555 60.9458 36.1337 60.9636C35.9846 61.0834 35.802 61.1498 35.606 61.1498Z" fill="#707070"/>
<path d="M35.881 60.2819H35.7135V60.12C35.7135 60.0747 35.6766 60.0391 35.6297 60.0391C35.5828 60.0391 35.546 60.0747 35.546 60.12V60.2819H35.3784C35.3315 60.2819 35.2947 60.3175 35.2947 60.3628C35.2947 60.4081 35.3315 60.4438 35.3784 60.4438H35.546V60.6056C35.546 60.651 35.5828 60.6866 35.6297 60.6866C35.6766 60.6866 35.7135 60.651 35.7135 60.6056V60.4438H35.881C35.9279 60.4438 35.9647 60.4081 35.9647 60.3628C35.9647 60.3175 35.9279 60.2819 35.881 60.2819Z" fill="#707070"/>
<path d="M44.7 59.5327H44.454H44.208" stroke="#707070" stroke-width="0.141509" stroke-linecap="round"/>
<path d="M44.208 60.0082V59.7704V59.5327" stroke="#707070" stroke-width="0.141509" stroke-linecap="round"/>
<path d="M44.782 60.0874L44.5032 59.818L44.208 59.5327" stroke="#707070" stroke-width="0.141509" stroke-linecap="round"/>
<path d="M44.208 60.8003V61.038V61.2757" stroke="#707070" stroke-width="0.141509" stroke-linecap="round"/>
<path d="M44.7 61.2759H44.454H44.208" stroke="#707070" stroke-width="0.141509" stroke-linecap="round"/>
<path d="M44.782 60.7207L44.4868 61.006L44.208 61.2754" stroke="#707070" stroke-width="0.141509" stroke-linecap="round"/>
<path d="M45.52 61.2759H45.766H46.012" stroke="#707070" stroke-width="0.141509" stroke-linecap="round"/>
<path d="M46.0115 60.8003V61.038V61.2757" stroke="#707070" stroke-width="0.141509" stroke-linecap="round"/>
<path d="M45.4375 60.7207L45.7327 61.006L46.0115 61.2754" stroke="#707070" stroke-width="0.141509" stroke-linecap="round"/>
<path d="M46.0115 60.0082V59.7704V59.5327" stroke="#707070" stroke-width="0.141509" stroke-linecap="round"/>
<path d="M45.52 59.5327H45.766H46.012" stroke="#707070" stroke-width="0.141509" stroke-linecap="round"/>
<path d="M45.4375 60.0874L45.7327 59.8021L46.0115 59.5327" stroke="#707070" stroke-width="0.141509" stroke-linecap="round"/>
<path fill-rule="evenodd" clip-rule="evenodd" d="M51.4303 60.5099C51.4303 60.8385 50.9607 61.1905 50.4912 61.0392C50.2564 60.9636 50.1781 61.1905 50.3391 61.3417C50.4912 61.493 50.4169 61.6442 50.2564 61.6442C49.6081 61.6442 49.0825 61.1364 49.0825 60.5099C49.0825 59.8834 49.6081 59.3755 50.2564 59.3755C50.9047 59.3755 51.4303 59.8834 51.4303 60.5099ZM50.1783 59.8292C50.1783 59.9127 50.1082 59.9805 50.0218 59.9805C49.9353 59.9805 49.8653 59.9127 49.8653 59.8292C49.8653 59.7457 49.9353 59.678 50.0218 59.678C50.1082 59.678 50.1783 59.7457 50.1783 59.8292ZM49.5522 60.2829C49.6387 60.2829 49.7087 60.2152 49.7087 60.1317C49.7087 60.0481 49.6387 59.9804 49.5522 59.9804C49.4658 59.9804 49.3957 60.0481 49.3957 60.1317C49.3957 60.2152 49.4658 60.2829 49.5522 60.2829ZM50.6475 59.8292C50.6475 59.9127 50.5775 59.9805 50.491 59.9805C50.4046 59.9805 50.3345 59.9127 50.3345 59.8292C50.3345 59.7457 50.4046 59.678 50.491 59.678C50.5775 59.678 50.6475 59.7457 50.6475 59.8292ZM50.9607 60.2829C51.0472 60.2829 51.1172 60.2152 51.1172 60.1317C51.1172 60.0481 51.0472 59.9804 50.9607 59.9804C50.8743 59.9804 50.8042 60.0481 50.8042 60.1317C50.8042 60.2152 50.8743 60.2829 50.9607 60.2829Z" fill="#707070"/>
<g filter="url(#filter0_d_557_1013)">
<ellipse cx="38.9088" cy="125.17" rx="5.0868" ry="4.91563" fill="#EEEFFA"/>
<rect width="4.13874" height="4.60474" rx="0.566038" transform="matrix(0.968074 0.250666 -0.267198 0.963642 37.5957 122.466)" fill="url(#paint0_linear_557_1013)"/>
<g filter="url(#filter1_i_557_1013)">
<mask id="mask0_557_1013" style="mask-type:alpha" maskUnits="userSpaceOnUse" x="37" y="126" width="4" height="2">
<path d="M37.0958 126.533C37.1358 126.389 37.2856 126.302 37.4304 126.34L40.5896 127.158L40.4448 127.68L37.2857 126.862C37.1409 126.824 37.0559 126.677 37.0958 126.533Z" fill="white"/>
</mask>
<g mask="url(#mask0_557_1013)">
<rect width="4.13874" height="4.19844" rx="0.566038" transform="matrix(0.968074 0.250666 -0.267198 0.963642 37.488 122.858)" fill="white"/>
</g>
</g>
<mask id="mask1_557_1013" style="mask-type:alpha" maskUnits="userSpaceOnUse" x="36" y="122" width="3" height="6">
<rect width="0.604535" height="4.60474" transform="matrix(0.968074 0.250666 -0.267198 0.963642 37.5959 122.466)" fill="url(#paint1_linear_557_1013)"/>
</mask>
<g mask="url(#mask1_557_1013)">
<rect width="4.13874" height="4.60474" rx="0.566038" transform="matrix(0.968074 0.250666 -0.267198 0.963642 37.5959 122.466)" fill="url(#paint2_linear_557_1013)"/>
</g>
</g>
<ellipse cx="41.2562" cy="123.657" rx="1.17388" ry="1.13438" fill="#FF0000"/>
<path d="M41.6481 123.279V124.036H41.4499L41.0636 123.529V124.036H40.8655V123.279H41.0636L41.4506 123.787V123.279H41.6481Z" fill="white"/>
<path d="M64.1671 85.3828C64.1671 85.3828 60.7269 89.4002 55.0254 90.5048" stroke="#6A77D7" stroke-width="0.0849057"/>
<path d="M58.5129 77.1201C58.5129 77.1201 63.8874 78.4721 63.7668 82.4141" stroke="#6A77D7" stroke-width="0.0849057" stroke-miterlimit="10"/>
<path d="M53.6372 82.2793L53.6708 82.2783C53.664 82.0544 53.675 81.8343 53.7037 81.6183C53.7324 81.4024 53.7789 81.1907 53.8429 80.9835C53.907 80.7763 53.9887 80.5736 54.0879 80.3758C54.1871 80.1781 54.3038 79.9852 54.4379 79.7976C54.5453 79.6474 54.6638 79.5004 54.7932 79.357C54.9226 79.2135 55.0629 79.0736 55.2139 78.9374C55.3648 78.8012 55.5264 78.6687 55.6983 78.5402C55.8702 78.4117 56.0525 78.2872 56.2448 78.1669C56.4161 78.0598 56.5876 77.9611 56.7557 77.8705C56.9238 77.78 57.0884 77.6977 57.2459 77.6234C57.4034 77.5491 57.5538 77.4828 57.6934 77.4244C57.833 77.3659 57.9617 77.3154 58.0761 77.2725C58.1999 77.226 58.3139 77.1858 58.4152 77.1516C58.5165 77.1175 58.6052 77.0893 58.6786 77.0669C58.7519 77.0446 58.8099 77.028 58.8497 77.0169C58.8895 77.0059 58.9112 77.0004 58.9121 77.0002L58.9036 76.9688C58.9028 76.969 58.8809 76.9745 58.8409 76.9856C58.8009 76.9967 58.7426 77.0134 58.6689 77.0358C58.5952 77.0583 58.5061 77.0866 58.4044 77.1209C58.3026 77.1552 58.1882 77.1955 58.0639 77.2422C57.9492 77.2852 57.82 77.3359 57.68 77.3946C57.5399 77.4532 57.389 77.5197 57.231 77.5942C57.073 77.6688 56.9078 77.7514 56.7392 77.8422C56.5705 77.9331 56.3984 78.0321 56.2266 78.1396C56.0333 78.2605 55.8501 78.3856 55.6773 78.5148C55.5046 78.644 55.3422 78.7771 55.1905 78.9141C55.0387 79.051 54.8977 79.1917 54.7676 79.336C54.6374 79.4803 54.5182 79.6281 54.4102 79.7792C54.2751 79.9682 54.1575 80.1626 54.0575 80.3619C53.9576 80.5612 53.8752 80.7654 53.8107 80.9742C53.7461 81.1831 53.6993 81.3965 53.6704 81.6141C53.6414 81.8317 53.6303 82.0536 53.6372 82.2793Z" fill="#6A77D7"/>
<path d="M53.6965 101.558V106.313" stroke="#6A77D7" stroke-width="0.0849057" stroke-miterlimit="10"/>
<path d="M53.6968 106.271L53.8668 105.971H53.5266L53.6968 106.271Z" fill="#6A77D7" stroke="#6A77D7" stroke-width="0.0849057"/>
<path d="M53.697 93.5947V98.5838" stroke="#6A77D7" stroke-width="0.0849057" stroke-miterlimit="10"/>
<path d="M53.6968 98.5413L53.8668 98.2412H53.5266L53.6968 98.5413Z" fill="#6A77D7" stroke="#6A77D7" stroke-width="0.0849057"/>
<path d="M53.697 85.6309V90.6955" stroke="#6A77D7" stroke-width="0.0849057" stroke-miterlimit="10"/>
<path d="M53.6968 90.7068L53.8668 90.4067H53.5266L53.6968 90.7068Z" fill="#6A77D7" stroke="#6A77D7" stroke-width="0.0849057"/>
<path d="M53.652 82.5092L53.7294 82.3851L53.8221 82.2363H53.4819L53.652 82.5092Z" fill="#6A77D7" stroke="#6A77D7" stroke-width="0.0707547"/>
<path d="M52.2806 90.5211L52.2874 90.4893C51.9642 90.4243 51.6418 90.3486 51.3206 90.2624C50.9995 90.1761 50.6796 90.0793 50.3616 89.9722C50.0436 89.865 49.7275 89.7475 49.4137 89.6199C49.1 89.4922 48.7887 89.3544 48.4803 89.2066C48.2336 89.0884 47.9887 88.9637 47.7459 88.8329C47.5031 88.7021 47.2624 88.5651 47.0244 88.4222C46.7864 88.2792 46.5509 88.1304 46.3184 87.9759C46.086 87.8214 45.8565 87.6613 45.6305 87.4957C45.4293 87.3484 45.2403 87.2035 45.064 87.0635C44.8878 86.9235 44.7244 86.7883 44.5745 86.6603C44.4246 86.5323 44.2882 86.4116 44.1661 86.3005C44.0441 86.1894 43.9363 86.088 43.8435 85.9985C43.743 85.9017 43.6542 85.8133 43.5775 85.7352C43.5009 85.6572 43.4363 85.5894 43.3842 85.5336C43.3322 85.4778 43.2926 85.4341 43.266 85.4042C43.2393 85.3742 43.2255 85.358 43.2249 85.3574L43.199 85.378C43.1995 85.3787 43.2134 85.3949 43.2402 85.425C43.267 85.4551 43.3067 85.499 43.359 85.555C43.4112 85.611 43.476 85.6791 43.5529 85.7574C43.6299 85.8357 43.7189 85.9244 43.8197 86.0215C43.9127 86.1111 44.0207 86.2128 44.143 86.3241C44.2654 86.4354 44.402 86.5564 44.5522 86.6846C44.7023 86.8128 44.8661 86.9483 45.0427 87.0886C45.2192 87.2289 45.4087 87.374 45.6101 87.5216C45.8366 87.6875 46.0665 87.8479 46.2994 88.0027C46.5323 88.1575 46.7682 88.3066 47.0067 88.4498C47.2452 88.5929 47.4863 88.7302 47.7295 88.8613C47.9728 88.9924 48.2182 89.1172 48.4654 89.2357C48.7744 89.3838 49.0864 89.5219 49.4008 89.6499C49.7151 89.7778 50.032 89.8955 50.3506 90.0029C50.6693 90.1102 50.9898 90.2072 51.3117 90.2937C51.6335 90.3801 51.9567 90.456 52.2806 90.5211Z" fill="#6A77D7"/>
<path d="M52.5096 90.5315L52.2046 90.6464L52.2636 90.3228L52.5096 90.5315Z" fill="#6A77D7"/>
<path d="M52.536 90.5367L52.5187 90.5221L52.2727 90.3133L52.254 90.2974L52.2497 90.3211L52.1906 90.6448L52.1863 90.6685L52.2095 90.6598L52.5145 90.5448L52.536 90.5367ZM52.2729 90.3495L52.4829 90.5277L52.2225 90.6258L52.2729 90.3495Z" fill="#6A77D7"/>
<path d="M62.5701 75.2573H55.0525C54.743 75.2573 54.4922 75.4997 54.4922 75.7988V77.3871C54.4922 77.6861 54.743 77.9286 55.0525 77.9286H62.5701C62.8796 77.9286 63.1304 77.6861 63.1304 77.3871V75.7988C63.1304 75.4997 62.8796 75.2573 62.5701 75.2573Z" fill="#EEFFF1" stroke="#47B55B" stroke-width="0.141509"/>
<path d="M61.7475 77.1838C62.0973 77.1838 62.3809 76.9097 62.3809 76.5716C62.3809 76.2335 62.0973 75.9595 61.7475 75.9595C61.3976 75.9595 61.114 76.2335 61.114 76.5716C61.114 76.9097 61.3976 77.1838 61.7475 77.1838Z" fill="#47B55B"/>
<path d="M61.5417 76.5665L61.6673 76.6865L61.9522 76.4585" stroke="#EEFFF1" stroke-width="0.141509" stroke-linecap="round" stroke-linejoin="round"/>
<path d="M57.4961 83.0469H49.9785C49.6691 83.0469 49.4182 83.2893 49.4182 83.5883V85.1767C49.4182 85.4757 49.6691 85.7181 49.9785 85.7181H57.4961C57.8056 85.7181 58.0564 85.4757 58.0564 85.1767V83.5883C58.0564 83.2893 57.8056 83.0469 57.4961 83.0469Z" fill="#F5FFF7" stroke="#47B55B" stroke-width="0.141509"/>
<path d="M56.675 84.9743C57.0248 84.9743 57.3084 84.7002 57.3084 84.3621C57.3084 84.0241 57.0248 83.75 56.675 83.75C56.3251 83.75 56.0415 84.0241 56.0415 84.3621C56.0415 84.7002 56.3251 84.9743 56.675 84.9743Z" fill="#47B55B"/>
<path d="M56.4697 84.357L56.5952 84.4771L56.8802 84.249" stroke="#F5FFF7" stroke-width="0.141509" stroke-linecap="round" stroke-linejoin="round"/>
<path d="M57.4954 90.9502H49.9778C49.6683 90.9502 49.4175 91.1926 49.4175 91.4916V93.08C49.4175 93.379 49.6683 93.6214 49.9778 93.6214H57.4954C57.8048 93.6214 58.0557 93.379 58.0557 93.08V91.4916C58.0557 91.1926 57.8048 90.9502 57.4954 90.9502Z" fill="#6A77D7"/>
<path d="M56.6745 92.8762C57.0243 92.8762 57.3079 92.6021 57.3079 92.264C57.3079 91.9259 57.0243 91.6519 56.6745 91.6519C56.3246 91.6519 56.041 91.9259 56.041 92.264C56.041 92.6021 56.3246 92.8762 56.6745 92.8762Z" fill="white"/>
<path d="M56.6804 92.3647L56.6712 92.6441H56.6049L56.5955 92.3647H56.6804ZM56.5933 92.7306C56.5933 92.7188 56.5973 92.709 56.6055 92.7013C56.6137 92.6934 56.6246 92.6894 56.6381 92.6894C56.6517 92.6894 56.6626 92.6934 56.6707 92.7013C56.6788 92.709 56.6828 92.7188 56.6828 92.7306C56.6828 92.742 56.6788 92.7517 56.6707 92.7596C56.6626 92.7676 56.6517 92.7715 56.6381 92.7715C56.6246 92.7715 56.6137 92.7676 56.6055 92.7596C56.5973 92.7517 56.5933 92.742 56.5933 92.7306Z" fill="#6A77D7"/>
<path d="M57.4954 106.562H49.9778C49.6683 106.562 49.4175 106.805 49.4175 107.104V108.692C49.4175 108.991 49.6683 109.234 49.9778 109.234H57.4954C57.8048 109.234 58.0557 108.991 58.0557 108.692V107.104C58.0557 106.805 57.8048 106.562 57.4954 106.562Z" fill="white" stroke="#6A77D7" stroke-width="0.141509"/>
<path d="M56.6745 108.489C57.0243 108.489 57.3079 108.215 57.3079 107.877C57.3079 107.539 57.0243 107.265 56.6745 107.265C56.3246 107.265 56.041 107.539 56.041 107.877C56.041 108.215 56.3246 108.489 56.6745 108.489Z" fill="#6A77D7"/>
<path d="M56.6804 107.976L56.6712 108.256H56.6049L56.5955 107.976H56.6804ZM56.5933 108.342C56.5933 108.331 56.5973 108.321 56.6055 108.313C56.6137 108.305 56.6246 108.301 56.6381 108.301C56.6517 108.301 56.6626 108.305 56.6707 108.313C56.6788 108.321 56.6828 108.331 56.6828 108.342C56.6828 108.354 56.6788 108.364 56.6707 108.371C56.6626 108.379 56.6517 108.383 56.6381 108.383C56.6246 108.383 56.6137 108.379 56.6055 108.371C56.5973 108.364 56.5933 108.354 56.5933 108.342Z" fill="white"/>
<path d="M46.9869 83.0469H39.4692C39.1598 83.0469 38.9089 83.2893 38.9089 83.5883V85.1767C38.9089 85.4757 39.1598 85.7181 39.4692 85.7181H46.9869C47.2963 85.7181 47.5472 85.4757 47.5472 85.1767V83.5883C47.5472 83.2893 47.2963 83.0469 46.9869 83.0469Z" fill="#F5FFF7" stroke="#47B55B" stroke-width="0.141509"/>
<path d="M46.165 84.9743C46.5148 84.9743 46.7984 84.7002 46.7984 84.3621C46.7984 84.0241 46.5148 83.75 46.165 83.75C45.8151 83.75 45.5315 84.0241 45.5315 84.3621C45.5315 84.7002 45.8151 84.9743 46.165 84.9743Z" fill="#47B55B"/>
<path d="M45.9597 84.357L46.0852 84.4771L46.3702 84.249" stroke="#EEFFF1" stroke-width="0.141509" stroke-linecap="round" stroke-linejoin="round"/>
<path d="M67.827 83.0469H60.3093C59.9999 83.0469 59.749 83.2893 59.749 83.5883V85.1767C59.749 85.4757 59.9999 85.7181 60.3093 85.7181H67.827C68.1364 85.7181 68.3872 85.4757 68.3872 85.1767V83.5883C68.3872 83.2893 68.1364 83.0469 67.827 83.0469Z" fill="#F5FFF7" stroke="#47B55B" stroke-width="0.141509"/>
<path d="M67.005 84.9743C67.3549 84.9743 67.6385 84.7002 67.6385 84.3621C67.6385 84.0241 67.3549 83.75 67.005 83.75C66.6552 83.75 66.3716 84.0241 66.3716 84.3621C66.3716 84.7002 66.6552 84.9743 67.005 84.9743Z" fill="#47B55B"/>
<path d="M66.7993 84.357L66.9248 84.4771L67.2098 84.249" fill="#47B55B"/>
<path d="M66.7993 84.357L66.9248 84.4771L67.2098 84.249" stroke="#F5FFF7" stroke-width="0.141509" stroke-linecap="round" stroke-linejoin="round"/>
<path d="M54.7817 90.5423L55.012 90.3174L55.0943 90.6364L54.7817 90.5423Z" fill="#6A77D7"/>
<path d="M54.7559 90.5483L54.7779 90.555L55.0904 90.649L55.1142 90.6562L55.1082 90.6328L55.0259 90.3139L55.0199 90.2905L55.0023 90.3076L54.7721 90.5325L54.7559 90.5483ZM55.075 90.616L54.8082 90.5357L55.0047 90.3438L55.075 90.616Z" fill="#6A77D7"/>
<path d="M57.4954 98.8843H49.9778C49.6683 98.8843 49.4175 99.1267 49.4175 99.4257V101.014C49.4175 101.313 49.6683 101.556 49.9778 101.556H57.4954C57.8048 101.556 58.0557 101.313 58.0557 101.014V99.4257C58.0557 99.1267 57.8048 98.8843 57.4954 98.8843Z" fill="#FFEDED" stroke="#D4666A" stroke-width="0.141509"/>
<path d="M56.7321 100.833C57.0819 100.833 57.3656 100.559 57.3656 100.221C57.3656 99.883 57.0819 99.6089 56.7321 99.6089C56.3822 99.6089 56.0986 99.883 56.0986 100.221C56.0986 100.559 56.3822 100.833 56.7321 100.833Z" fill="#D4666A"/>
<path d="M56.5598 100.389L56.9053 100.055" stroke="white" stroke-width="0.141509" stroke-linecap="round" stroke-linejoin="round"/>
<path d="M56.5598 100.055L56.9053 100.389" stroke="white" stroke-width="0.141509" stroke-linecap="round" stroke-linejoin="round"/>
<path d="M63.7682 82.5092L63.8456 82.3851L63.9384 82.2363H63.5981L63.7682 82.5092Z" fill="#6A77D7" stroke="#6A77D7" stroke-width="0.0707547"/>
<rect x="79.7448" y="57.6269" width="15.3412" height="4.24652" rx="0.424528" fill="#6C79F9"/>
<rect x="79.7448" y="57.6269" width="15.3412" height="4.24652" rx="0.424528" stroke="#6C79F9" stroke-width="0.283019"/>
<rect x="79.6579" y="102.72" width="15.3412" height="4.24652" rx="0.424528" stroke="#6C79F9" stroke-width="0.283019"/>
<rect x="79.7448" y="65.5673" width="83.8448" height="11.0607" fill="#EEEFFA" stroke="#DBDCEA" stroke-width="0.283019"/>
<rect x="79.7448" y="85.9857" width="83.8448" height="6.90136" fill="#F7F7F7" stroke="#E0E0E0" stroke-width="0.283019"/>
<rect x="79.7448" y="108.673" width="83.8448" height="16.3545" fill="#F7F7F7" stroke="#E0E0E0" stroke-width="0.283019"/>
<rect x="69.7512" y="58.6045" width="5.85909" height="3.0197" rx="0.566038" fill="#6C79F9"/>
<rect x="10.35" y="153.55" width="178.5" height="4.9" fill="#414141" stroke="black" stroke-width="0.7"/>
<path d="M10.9522 152.85L24.1287 141.65H175.071L188.248 152.85H10.9522Z" fill="white" stroke="black" stroke-width="0.7"/>
<path d="M18.6712 150.75L27.1229 143.75H172.077L180.529 150.75H18.6712Z" fill="#6C79F9" stroke="black" stroke-width="0.7"/>
<rect x="24.35" y="44.35" width="150.5" height="96.6" fill="white" stroke="black" stroke-width="0.7"/>
<rect x="29.9501" y="49.9501" width="140" height="85.4" fill="#C4C4C4" stroke="black" stroke-width="0.7"/>
<rect x="30.2998" y="50.3008" width="139.3" height="84.7" fill="white"/>
<path opacity="0.4" d="M30.2998 50.3008H169.6V54.4602H30.2998V50.3008Z" fill="#6C79F9"/>
<path d="M163.731 78.6602H79.6028V80.1727H163.731V78.6602Z" fill="#D5D5DB"/>
<path d="M128.514 82.063H79.6028V83.5755H128.514V82.063Z" fill="#D5D5DB"/>
<path d="M163.731 95.6753H79.6028V97.1878H163.731V95.6753Z" fill="#D5D5DB"/>
<path d="M41.3261 61.3417L40.9827 61.0098C41.1369 60.835 41.2206 60.6149 41.2206 60.3818C41.2206 60.1227 41.1168 59.8783 40.9258 59.6938C40.5338 59.315 39.8956 59.315 39.5019 59.6938C39.3126 59.8783 39.2087 60.1227 39.2087 60.3834C39.2087 60.644 39.3126 60.8868 39.5036 61.0714C39.6945 61.2559 39.9458 61.3563 40.2155 61.3563C40.4567 61.3563 40.6829 61.2753 40.8655 61.1264L41.2089 61.4583C41.2256 61.4744 41.2474 61.4825 41.2675 61.4825C41.2876 61.4825 41.3111 61.4744 41.3261 61.4583C41.358 61.4243 41.358 61.3725 41.3261 61.3417ZM40.2138 61.1928C39.9894 61.1928 39.7783 61.1086 39.6208 60.9548C39.4617 60.801 39.3746 60.5987 39.3746 60.3818C39.3746 60.1648 39.4617 59.9609 39.6208 59.8087C39.9475 59.493 40.4802 59.493 40.8068 59.8087C40.966 59.9625 41.0531 60.1648 41.0531 60.3818C41.0531 60.5712 40.9827 60.7476 40.8605 60.8917C40.842 60.9127 40.8269 60.9354 40.8068 60.9548C40.7867 60.9742 40.7633 60.9888 40.7415 61.0066C40.5941 61.1264 40.4098 61.1928 40.2138 61.1928Z" fill="#707070"/>
<path d="M40.4894 60.4058H39.9868" stroke="#707070" stroke-width="0.141509" stroke-linecap="round"/>
<path d="M36.7166 61.2987L36.3699 60.9636C36.7032 60.5816 36.6882 60.0102 36.3163 59.6508C35.9243 59.272 35.286 59.272 34.8924 59.6508C34.5004 60.0296 34.5004 60.6464 34.8924 61.0268C35.0817 61.2097 35.3346 61.3117 35.6043 61.3117C35.8455 61.3117 36.0717 61.2307 36.2543 61.0818L36.5977 61.4137C36.6144 61.4299 36.6362 61.4379 36.6563 61.4379C36.6764 61.4379 36.6999 61.4299 36.715 61.4137C36.7501 61.3813 36.7501 61.3311 36.7166 61.2987ZM35.606 61.1498C35.3815 61.1498 35.1705 61.0656 35.013 60.9118C34.6863 60.5962 34.6863 60.0814 35.013 59.7657C35.1772 59.6071 35.3916 59.5294 35.606 59.5294C35.8204 59.5294 36.0348 59.6087 36.199 59.7657C36.5056 60.062 36.5206 60.5314 36.2526 60.8487C36.2342 60.8698 36.2191 60.8924 36.199 60.9118C36.1789 60.9313 36.1555 60.9458 36.1337 60.9636C35.9846 61.0834 35.802 61.1498 35.606 61.1498Z" fill="#707070"/>
<path d="M35.881 60.2819H35.7135V60.12C35.7135 60.0747 35.6766 60.0391 35.6297 60.0391C35.5828 60.0391 35.546 60.0747 35.546 60.12V60.2819H35.3784C35.3315 60.2819 35.2947 60.3175 35.2947 60.3628C35.2947 60.4081 35.3315 60.4438 35.3784 60.4438H35.546V60.6056C35.546 60.651 35.5828 60.6866 35.6297 60.6866C35.6766 60.6866 35.7135 60.651 35.7135 60.6056V60.4438H35.881C35.9279 60.4438 35.9647 60.4081 35.9647 60.3628C35.9647 60.3175 35.9279 60.2819 35.881 60.2819Z" fill="#707070"/>
<path d="M44.7 59.5327H44.454H44.208" stroke="#707070" stroke-width="0.141509" stroke-linecap="round"/>
<path d="M44.208 60.0082V59.7704V59.5327" stroke="#707070" stroke-width="0.141509" stroke-linecap="round"/>
<path d="M44.782 60.0874L44.5032 59.818L44.208 59.5327" stroke="#707070" stroke-width="0.141509" stroke-linecap="round"/>
<path d="M44.208 60.8003V61.038V61.2757" stroke="#707070" stroke-width="0.141509" stroke-linecap="round"/>
<path d="M44.7 61.2759H44.454H44.208" stroke="#707070" stroke-width="0.141509" stroke-linecap="round"/>
<path d="M44.782 60.7207L44.4868 61.006L44.208 61.2754" stroke="#707070" stroke-width="0.141509" stroke-linecap="round"/>
<path d="M45.52 61.2759H45.766H46.012" stroke="#707070" stroke-width="0.141509" stroke-linecap="round"/>
<path d="M46.0115 60.8003V61.038V61.2757" stroke="#707070" stroke-width="0.141509" stroke-linecap="round"/>
<path d="M45.4375 60.7207L45.7327 61.006L46.0115 61.2754" stroke="#707070" stroke-width="0.141509" stroke-linecap="round"/>
<path d="M46.0115 60.0082V59.7704V59.5327" stroke="#707070" stroke-width="0.141509" stroke-linecap="round"/>
<path d="M45.52 59.5327H45.766H46.012" stroke="#707070" stroke-width="0.141509" stroke-linecap="round"/>
<path d="M45.4375 60.0874L45.7327 59.8021L46.0115 59.5327" stroke="#707070" stroke-width="0.141509" stroke-linecap="round"/>
<path fill-rule="evenodd" clip-rule="evenodd" d="M51.4303 60.5099C51.4303 60.8385 50.9607 61.1905 50.4912 61.0392C50.2564 60.9636 50.1781 61.1905 50.3391 61.3417C50.4912 61.493 50.4169 61.6442 50.2564 61.6442C49.6081 61.6442 49.0825 61.1364 49.0825 60.5099C49.0825 59.8834 49.6081 59.3755 50.2564 59.3755C50.9047 59.3755 51.4303 59.8834 51.4303 60.5099ZM50.1783 59.8292C50.1783 59.9127 50.1082 59.9805 50.0218 59.9805C49.9353 59.9805 49.8653 59.9127 49.8653 59.8292C49.8653 59.7457 49.9353 59.678 50.0218 59.678C50.1082 59.678 50.1783 59.7457 50.1783 59.8292ZM49.5522 60.2829C49.6387 60.2829 49.7087 60.2152 49.7087 60.1317C49.7087 60.0481 49.6387 59.9804 49.5522 59.9804C49.4658 59.9804 49.3957 60.0481 49.3957 60.1317C49.3957 60.2152 49.4658 60.2829 49.5522 60.2829ZM50.6475 59.8292C50.6475 59.9127 50.5775 59.9805 50.491 59.9805C50.4046 59.9805 50.3345 59.9127 50.3345 59.8292C50.3345 59.7457 50.4046 59.678 50.491 59.678C50.5775 59.678 50.6475 59.7457 50.6475 59.8292ZM50.9607 60.2829C51.0472 60.2829 51.1172 60.2152 51.1172 60.1317C51.1172 60.0481 51.0472 59.9804 50.9607 59.9804C50.8743 59.9804 50.8042 60.0481 50.8042 60.1317C50.8042 60.2152 50.8743 60.2829 50.9607 60.2829Z" fill="#707070"/>
<g filter="url(#filter2_d_557_1013)">
<ellipse cx="38.9088" cy="125.17" rx="5.0868" ry="4.91563" fill="#EEEFFA"/>
<rect width="4.13874" height="4.60474" rx="0.566038" transform="matrix(0.968074 0.250666 -0.267198 0.963642 37.5957 122.466)" fill="url(#paint3_linear_557_1013)"/>
<g filter="url(#filter3_i_557_1013)">
<mask id="mask2_557_1013" style="mask-type:alpha" maskUnits="userSpaceOnUse" x="37" y="126" width="4" height="2">
<path d="M37.0958 126.533C37.1358 126.389 37.2856 126.302 37.4304 126.34L40.5896 127.158L40.4448 127.68L37.2857 126.862C37.1409 126.824 37.0559 126.677 37.0958 126.533Z" fill="white"/>
</mask>
<g mask="url(#mask2_557_1013)">
<rect width="4.13874" height="4.19844" rx="0.566038" transform="matrix(0.968074 0.250666 -0.267198 0.963642 37.488 122.858)" fill="white"/>
</g>
</g>
<mask id="mask3_557_1013" style="mask-type:alpha" maskUnits="userSpaceOnUse" x="36" y="122" width="3" height="6">
<rect width="0.604535" height="4.60474" transform="matrix(0.968074 0.250666 -0.267198 0.963642 37.5959 122.466)" fill="url(#paint4_linear_557_1013)"/>
</mask>
<g mask="url(#mask3_557_1013)">
<rect width="4.13874" height="4.60474" rx="0.566038" transform="matrix(0.968074 0.250666 -0.267198 0.963642 37.5959 122.466)" fill="url(#paint5_linear_557_1013)"/>
</g>
</g>
<ellipse cx="41.2562" cy="123.657" rx="1.17388" ry="1.13438" fill="#FF0000"/>
<path d="M41.6481 123.279V124.036H41.4499L41.0636 123.529V124.036H40.8655V123.279H41.0636L41.4506 123.787V123.279H41.6481Z" fill="white"/>
<path d="M64.1671 85.3828C64.1671 85.3828 60.7269 89.4002 55.0254 90.5048" stroke="#6A77D7" stroke-width="0.0849057"/>
<path d="M58.5129 77.1201C58.5129 77.1201 63.8874 78.4721 63.7668 82.4141" stroke="#6A77D7" stroke-width="0.0849057" stroke-miterlimit="10"/>
<path d="M53.6372 82.2793L53.6708 82.2783C53.664 82.0544 53.675 81.8343 53.7037 81.6183C53.7324 81.4024 53.7789 81.1907 53.8429 80.9835C53.907 80.7763 53.9887 80.5736 54.0879 80.3758C54.1871 80.1781 54.3038 79.9852 54.4379 79.7976C54.5453 79.6474 54.6638 79.5004 54.7932 79.357C54.9226 79.2135 55.0629 79.0736 55.2139 78.9374C55.3648 78.8012 55.5264 78.6687 55.6983 78.5402C55.8702 78.4117 56.0525 78.2872 56.2448 78.1669C56.4161 78.0598 56.5876 77.9611 56.7557 77.8705C56.9238 77.78 57.0884 77.6977 57.2459 77.6234C57.4034 77.5491 57.5538 77.4828 57.6934 77.4244C57.833 77.3659 57.9617 77.3154 58.0761 77.2725C58.1999 77.226 58.3139 77.1858 58.4152 77.1516C58.5165 77.1175 58.6052 77.0893 58.6786 77.0669C58.7519 77.0446 58.8099 77.028 58.8497 77.0169C58.8895 77.0059 58.9112 77.0004 58.9121 77.0002L58.9036 76.9688C58.9028 76.969 58.8809 76.9745 58.8409 76.9856C58.8009 76.9967 58.7426 77.0134 58.6689 77.0358C58.5952 77.0583 58.5061 77.0866 58.4044 77.1209C58.3026 77.1552 58.1882 77.1955 58.0639 77.2422C57.9492 77.2852 57.82 77.3359 57.68 77.3946C57.5399 77.4532 57.389 77.5197 57.231 77.5942C57.073 77.6688 56.9078 77.7514 56.7392 77.8422C56.5705 77.9331 56.3984 78.0321 56.2266 78.1396C56.0333 78.2605 55.8501 78.3856 55.6773 78.5148C55.5046 78.644 55.3422 78.7771 55.1905 78.9141C55.0387 79.051 54.8977 79.1917 54.7676 79.336C54.6374 79.4803 54.5182 79.6281 54.4102 79.7792C54.2751 79.9682 54.1575 80.1626 54.0575 80.3619C53.9576 80.5612 53.8752 80.7654 53.8107 80.9742C53.7461 81.1831 53.6993 81.3965 53.6704 81.6141C53.6414 81.8317 53.6303 82.0536 53.6372 82.2793Z" fill="#6A77D7"/>
<path d="M53.6965 101.558V106.313" stroke="#6A77D7" stroke-width="0.0849057" stroke-miterlimit="10"/>
<path d="M53.6968 106.271L53.8668 105.971H53.5266L53.6968 106.271Z" fill="#6A77D7" stroke="#6A77D7" stroke-width="0.0849057"/>
<path d="M53.697 93.5947V98.5838" stroke="#6A77D7" stroke-width="0.0849057" stroke-miterlimit="10"/>
<path d="M53.6968 98.5413L53.8668 98.2412H53.5266L53.6968 98.5413Z" fill="#6A77D7" stroke="#6A77D7" stroke-width="0.0849057"/>
<path d="M53.697 85.6309V90.6955" stroke="#6A77D7" stroke-width="0.0849057" stroke-miterlimit="10"/>
<path d="M53.6968 90.7068L53.8668 90.4067H53.5266L53.6968 90.7068Z" fill="#6A77D7" stroke="#6A77D7" stroke-width="0.0849057"/>
<path d="M53.652 82.5092L53.7294 82.3851L53.8221 82.2363H53.4819L53.652 82.5092Z" fill="#6A77D7" stroke="#6A77D7" stroke-width="0.0707547"/>
<path d="M52.2806 90.5211L52.2874 90.4893C51.9642 90.4243 51.6418 90.3486 51.3206 90.2624C50.9995 90.1761 50.6796 90.0793 50.3616 89.9722C50.0436 89.865 49.7275 89.7475 49.4137 89.6199C49.1 89.4922 48.7887 89.3544 48.4803 89.2066C48.2336 89.0884 47.9887 88.9637 47.7459 88.8329C47.5031 88.7021 47.2624 88.5651 47.0244 88.4222C46.7864 88.2792 46.5509 88.1304 46.3184 87.9759C46.086 87.8214 45.8565 87.6613 45.6305 87.4957C45.4293 87.3484 45.2403 87.2035 45.064 87.0635C44.8878 86.9235 44.7244 86.7883 44.5745 86.6603C44.4246 86.5323 44.2882 86.4116 44.1661 86.3005C44.0441 86.1894 43.9363 86.088 43.8435 85.9985C43.743 85.9017 43.6542 85.8133 43.5775 85.7352C43.5009 85.6572 43.4363 85.5894 43.3842 85.5336C43.3322 85.4778 43.2926 85.4341 43.266 85.4042C43.2393 85.3742 43.2255 85.358 43.2249 85.3574L43.199 85.378C43.1995 85.3787 43.2134 85.3949 43.2402 85.425C43.267 85.4551 43.3067 85.499 43.359 85.555C43.4112 85.611 43.476 85.6791 43.5529 85.7574C43.6299 85.8357 43.7189 85.9244 43.8197 86.0215C43.9127 86.1111 44.0207 86.2128 44.143 86.3241C44.2654 86.4354 44.402 86.5564 44.5522 86.6846C44.7023 86.8128 44.8661 86.9483 45.0427 87.0886C45.2192 87.2289 45.4087 87.374 45.6101 87.5216C45.8366 87.6875 46.0665 87.8479 46.2994 88.0027C46.5323 88.1575 46.7682 88.3066 47.0067 88.4498C47.2452 88.5929 47.4863 88.7302 47.7295 88.8613C47.9728 88.9924 48.2182 89.1172 48.4654 89.2357C48.7744 89.3838 49.0864 89.5219 49.4008 89.6499C49.7151 89.7778 50.032 89.8955 50.3506 90.0029C50.6693 90.1102 50.9898 90.2072 51.3117 90.2937C51.6335 90.3801 51.9567 90.456 52.2806 90.5211Z" fill="#6A77D7"/>
<path d="M52.5096 90.5315L52.2046 90.6464L52.2636 90.3228L52.5096 90.5315Z" fill="#6A77D7"/>
<path d="M52.536 90.5367L52.5187 90.5221L52.2727 90.3133L52.254 90.2974L52.2497 90.3211L52.1906 90.6448L52.1863 90.6685L52.2095 90.6598L52.5145 90.5448L52.536 90.5367ZM52.2729 90.3495L52.4829 90.5277L52.2225 90.6258L52.2729 90.3495Z" fill="#6A77D7"/>
<path d="M62.5701 75.2573H55.0525C54.743 75.2573 54.4922 75.4997 54.4922 75.7988V77.3871C54.4922 77.6861 54.743 77.9286 55.0525 77.9286H62.5701C62.8796 77.9286 63.1304 77.6861 63.1304 77.3871V75.7988C63.1304 75.4997 62.8796 75.2573 62.5701 75.2573Z" fill="#EEFFF1" stroke="#47B55B" stroke-width="0.141509"/>
<path d="M61.7475 77.1838C62.0973 77.1838 62.3809 76.9097 62.3809 76.5716C62.3809 76.2335 62.0973 75.9595 61.7475 75.9595C61.3976 75.9595 61.114 76.2335 61.114 76.5716C61.114 76.9097 61.3976 77.1838 61.7475 77.1838Z" fill="#47B55B"/>
<path d="M61.5417 76.5665L61.6673 76.6865L61.9522 76.4585" stroke="#EEFFF1" stroke-width="0.141509" stroke-linecap="round" stroke-linejoin="round"/>
<path d="M57.4961 83.0469H49.9785C49.6691 83.0469 49.4182 83.2893 49.4182 83.5883V85.1767C49.4182 85.4757 49.6691 85.7181 49.9785 85.7181H57.4961C57.8056 85.7181 58.0564 85.4757 58.0564 85.1767V83.5883C58.0564 83.2893 57.8056 83.0469 57.4961 83.0469Z" fill="#F5FFF7" stroke="#47B55B" stroke-width="0.141509"/>
<path d="M56.675 84.9743C57.0248 84.9743 57.3084 84.7002 57.3084 84.3621C57.3084 84.0241 57.0248 83.75 56.675 83.75C56.3251 83.75 56.0415 84.0241 56.0415 84.3621C56.0415 84.7002 56.3251 84.9743 56.675 84.9743Z" fill="#47B55B"/>
<path d="M56.4697 84.357L56.5952 84.4771L56.8802 84.249" stroke="#F5FFF7" stroke-width="0.141509" stroke-linecap="round" stroke-linejoin="round"/>
<path d="M57.4954 90.9502H49.9778C49.6683 90.9502 49.4175 91.1926 49.4175 91.4916V93.08C49.4175 93.379 49.6683 93.6214 49.9778 93.6214H57.4954C57.8048 93.6214 58.0557 93.379 58.0557 93.08V91.4916C58.0557 91.1926 57.8048 90.9502 57.4954 90.9502Z" fill="#6A77D7"/>
<path d="M56.6745 92.8762C57.0243 92.8762 57.3079 92.6021 57.3079 92.264C57.3079 91.9259 57.0243 91.6519 56.6745 91.6519C56.3246 91.6519 56.041 91.9259 56.041 92.264C56.041 92.6021 56.3246 92.8762 56.6745 92.8762Z" fill="white"/>
<path d="M56.6804 92.3647L56.6712 92.6441H56.6049L56.5955 92.3647H56.6804ZM56.5933 92.7306C56.5933 92.7188 56.5973 92.709 56.6055 92.7013C56.6137 92.6934 56.6246 92.6894 56.6381 92.6894C56.6517 92.6894 56.6626 92.6934 56.6707 92.7013C56.6788 92.709 56.6828 92.7188 56.6828 92.7306C56.6828 92.742 56.6788 92.7517 56.6707 92.7596C56.6626 92.7676 56.6517 92.7715 56.6381 92.7715C56.6246 92.7715 56.6137 92.7676 56.6055 92.7596C56.5973 92.7517 56.5933 92.742 56.5933 92.7306Z" fill="#6A77D7"/>
<path d="M57.4954 106.562H49.9778C49.6683 106.562 49.4175 106.805 49.4175 107.104V108.692C49.4175 108.991 49.6683 109.234 49.9778 109.234H57.4954C57.8048 109.234 58.0557 108.991 58.0557 108.692V107.104C58.0557 106.805 57.8048 106.562 57.4954 106.562Z" fill="white" stroke="#6A77D7" stroke-width="0.141509"/>
<path d="M56.6745 108.489C57.0243 108.489 57.3079 108.215 57.3079 107.877C57.3079 107.539 57.0243 107.265 56.6745 107.265C56.3246 107.265 56.041 107.539 56.041 107.877C56.041 108.215 56.3246 108.489 56.6745 108.489Z" fill="#6A77D7"/>
<path d="M56.6804 107.976L56.6712 108.256H56.6049L56.5955 107.976H56.6804ZM56.5933 108.342C56.5933 108.331 56.5973 108.321 56.6055 108.313C56.6137 108.305 56.6246 108.301 56.6381 108.301C56.6517 108.301 56.6626 108.305 56.6707 108.313C56.6788 108.321 56.6828 108.331 56.6828 108.342C56.6828 108.354 56.6788 108.364 56.6707 108.371C56.6626 108.379 56.6517 108.383 56.6381 108.383C56.6246 108.383 56.6137 108.379 56.6055 108.371C56.5973 108.364 56.5933 108.354 56.5933 108.342Z" fill="white"/>
<path d="M46.9869 83.0469H39.4692C39.1598 83.0469 38.9089 83.2893 38.9089 83.5883V85.1767C38.9089 85.4757 39.1598 85.7181 39.4692 85.7181H46.9869C47.2963 85.7181 47.5472 85.4757 47.5472 85.1767V83.5883C47.5472 83.2893 47.2963 83.0469 46.9869 83.0469Z" fill="#F5FFF7" stroke="#47B55B" stroke-width="0.141509"/>
<path d="M46.165 84.9743C46.5148 84.9743 46.7984 84.7002 46.7984 84.3621C46.7984 84.0241 46.5148 83.75 46.165 83.75C45.8151 83.75 45.5315 84.0241 45.5315 84.3621C45.5315 84.7002 45.8151 84.9743 46.165 84.9743Z" fill="#47B55B"/>
<path d="M45.9597 84.357L46.0852 84.4771L46.3702 84.249" stroke="#EEFFF1" stroke-width="0.141509" stroke-linecap="round" stroke-linejoin="round"/>
<path d="M67.827 83.0469H60.3093C59.9999 83.0469 59.749 83.2893 59.749 83.5883V85.1767C59.749 85.4757 59.9999 85.7181 60.3093 85.7181H67.827C68.1364 85.7181 68.3872 85.4757 68.3872 85.1767V83.5883C68.3872 83.2893 68.1364 83.0469 67.827 83.0469Z" fill="#F5FFF7" stroke="#47B55B" stroke-width="0.141509"/>
<path d="M67.005 84.9743C67.3549 84.9743 67.6385 84.7002 67.6385 84.3621C67.6385 84.0241 67.3549 83.75 67.005 83.75C66.6552 83.75 66.3716 84.0241 66.3716 84.3621C66.3716 84.7002 66.6552 84.9743 67.005 84.9743Z" fill="#47B55B"/>
<path d="M66.7993 84.357L66.9248 84.4771L67.2098 84.249" fill="#47B55B"/>
<path d="M66.7993 84.357L66.9248 84.4771L67.2098 84.249" stroke="#F5FFF7" stroke-width="0.141509" stroke-linecap="round" stroke-linejoin="round"/>
<path d="M54.7817 90.5423L55.012 90.3174L55.0943 90.6364L54.7817 90.5423Z" fill="#6A77D7"/>
<path d="M54.7559 90.5483L54.7779 90.555L55.0904 90.649L55.1142 90.6562L55.1082 90.6328L55.0259 90.3139L55.0199 90.2905L55.0023 90.3076L54.7721 90.5325L54.7559 90.5483ZM55.075 90.616L54.8082 90.5357L55.0047 90.3438L55.075 90.616Z" fill="#6A77D7"/>
<path d="M57.4954 98.8843H49.9778C49.6683 98.8843 49.4175 99.1267 49.4175 99.4257V101.014C49.4175 101.313 49.6683 101.556 49.9778 101.556H57.4954C57.8048 101.556 58.0557 101.313 58.0557 101.014V99.4257C58.0557 99.1267 57.8048 98.8843 57.4954 98.8843Z" fill="#FFEDED" stroke="#D4666A" stroke-width="0.141509"/>
<path d="M56.7321 100.833C57.0819 100.833 57.3656 100.559 57.3656 100.221C57.3656 99.883 57.0819 99.6089 56.7321 99.6089C56.3822 99.6089 56.0986 99.883 56.0986 100.221C56.0986 100.559 56.3822 100.833 56.7321 100.833Z" fill="#D4666A"/>
<path d="M56.5598 100.389L56.9053 100.055" stroke="white" stroke-width="0.141509" stroke-linecap="round" stroke-linejoin="round"/>
<path d="M56.5598 100.055L56.9053 100.389" stroke="white" stroke-width="0.141509" stroke-linecap="round" stroke-linejoin="round"/>
<path d="M63.7682 82.5092L63.8456 82.3851L63.9384 82.2363H63.5981L63.7682 82.5092Z" fill="#6A77D7" stroke="#6A77D7" stroke-width="0.0707547"/>
<rect x="79.7448" y="57.6269" width="15.3412" height="4.24652" rx="0.424528" fill="#6C79F9"/>
<rect x="79.7448" y="57.6269" width="15.3412" height="4.24652" rx="0.424528" stroke="#6C79F9" stroke-width="0.283019"/>
<rect x="79.6579" y="102.72" width="15.3412" height="4.24652" rx="0.424528" stroke="#6C79F9" stroke-width="0.283019"/>
<rect x="79.7448" y="65.5673" width="83.8448" height="11.0607" fill="#EEEFFA" stroke="#DBDCEA" stroke-width="0.283019"/>
<rect x="79.7448" y="85.9857" width="83.8448" height="6.90136" fill="#F7F7F7" stroke="#E0E0E0" stroke-width="0.283019"/>
<rect x="79.7448" y="108.673" width="83.8448" height="16.3545" fill="#F7F7F7" stroke="#E0E0E0" stroke-width="0.283019"/>
<rect x="69.7512" y="58.6045" width="5.85909" height="3.0197" rx="0.566038" fill="#6C79F9"/>
<rect x="10.35" y="153.55" width="178.5" height="4.9" fill="#414141" stroke="black" stroke-width="0.7"/>
<path d="M9.95999 158.377C10.0206 158.359 10.0835 158.35 10.1468 158.35H188.853C188.916 158.35 188.979 158.359 189.04 158.377L192.373 159.377C193.091 159.593 192.935 160.65 192.187 160.65H6.81343C6.06469 160.65 5.90947 159.593 6.62666 159.377L9.95999 158.377Z" fill="black" stroke="black" stroke-width="0.7"/>
<path d="M10.9522 152.85L24.1287 141.65H175.071L188.248 152.85H10.9522Z" fill="white" stroke="black" stroke-width="0.7"/>
<path d="M18.6712 150.75L27.1229 143.75H172.077L180.529 150.75H18.6712Z" fill="#6C79F9" stroke="black" stroke-width="0.7"/>
<defs>
<filter id="filter0_d_557_1013" x="33.822" y="120.254" width="11.3057" height="10.9631" filterUnits="userSpaceOnUse" color-interpolation-filters="sRGB">
<feFlood flood-opacity="0" result="BackgroundImageFix"/>
<feColorMatrix in="SourceAlpha" type="matrix" values="0 0 0 0 0 0 0 0 0 0 0 0 0 0 0 0 0 0 127 0" result="hardAlpha"/>
<feOffset dx="0.566038" dy="0.566038"/>
<feGaussianBlur stdDeviation="0.283019"/>
<feComposite in2="hardAlpha" operator="out"/>
<feColorMatrix type="matrix" values="0 0 0 0 0 0 0 0 0 0 0 0 0 0 0 0 0 0 0.1 0"/>
<feBlend mode="normal" in2="BackgroundImageFix" result="effect1_dropShadow_557_1013"/>
<feBlend mode="normal" in="SourceGraphic" in2="effect1_dropShadow_557_1013" result="shape"/>
</filter>
<filter id="filter1_i_557_1013" x="37.0859" y="126.331" width="3.50366" height="2.48071" filterUnits="userSpaceOnUse" color-interpolation-filters="sRGB">
<feFlood flood-opacity="0" result="BackgroundImageFix"/>
<feBlend mode="normal" in="SourceGraphic" in2="BackgroundImageFix" result="shape"/>
<feColorMatrix in="SourceAlpha" type="matrix" values="0 0 0 0 0 0 0 0 0 0 0 0 0 0 0 0 0 0 127 0" result="hardAlpha"/>
<feOffset dy="1.13208"/>
<feGaussianBlur stdDeviation="0.566038"/>
<feComposite in2="hardAlpha" operator="arithmetic" k2="-1" k3="1"/>
<feColorMatrix type="matrix" values="0 0 0 0 0.467083 0 0 0 0 0.491854 0 0 0 0 0.7375 0 0 0 0.4 0"/>
<feBlend mode="normal" in2="shape" result="effect1_innerShadow_557_1013"/>
</filter>
<filter id="filter2_d_557_1013" x="33.822" y="120.254" width="11.3057" height="10.9631" filterUnits="userSpaceOnUse" color-interpolation-filters="sRGB">
<feFlood flood-opacity="0" result="BackgroundImageFix"/>
<feColorMatrix in="SourceAlpha" type="matrix" values="0 0 0 0 0 0 0 0 0 0 0 0 0 0 0 0 0 0 127 0" result="hardAlpha"/>
<feOffset dx="0.566038" dy="0.566038"/>
<feGaussianBlur stdDeviation="0.283019"/>
<feComposite in2="hardAlpha" operator="out"/>
<feColorMatrix type="matrix" values="0 0 0 0 0 0 0 0 0 0 0 0 0 0 0 0 0 0 0.1 0"/>
<feBlend mode="normal" in2="BackgroundImageFix" result="effect1_dropShadow_557_1013"/>
<feBlend mode="normal" in="SourceGraphic" in2="effect1_dropShadow_557_1013" result="shape"/>
</filter>
<filter id="filter3_i_557_1013" x="37.0859" y="126.331" width="3.50366" height="2.48071" filterUnits="userSpaceOnUse" color-interpolation-filters="sRGB">
<feFlood flood-opacity="0" result="BackgroundImageFix"/>
<feBlend mode="normal" in="SourceGraphic" in2="BackgroundImageFix" result="shape"/>
<feColorMatrix in="SourceAlpha" type="matrix" values="0 0 0 0 0 0 0 0 0 0 0 0 0 0 0 0 0 0 127 0" result="hardAlpha"/>
<feOffset dy="1.13208"/>
<feGaussianBlur stdDeviation="0.566038"/>
<feComposite in2="hardAlpha" operator="arithmetic" k2="-1" k3="1"/>
<feColorMatrix type="matrix" values="0 0 0 0 0.467083 0 0 0 0 0.491854 0 0 0 0 0.7375 0 0 0 0.4 0"/>
<feBlend mode="normal" in2="shape" result="effect1_innerShadow_557_1013"/>
</filter>
<linearGradient id="paint0_linear_557_1013" x1="2.06937" y1="0" x2="2.06937" y2="4.60474" gradientUnits="userSpaceOnUse">
<stop stop-color="#9EA7FF"/>
<stop offset="1" stop-color="#6C79F9"/>
</linearGradient>
<linearGradient id="paint1_linear_557_1013" x1="0.302267" y1="0.821126" x2="0.302267" y2="4.60474" gradientUnits="userSpaceOnUse">
<stop stop-color="#BCC2FF"/>
<stop offset="1" stop-color="#BCC2FF" stop-opacity="0"/>
</linearGradient>
<linearGradient id="paint2_linear_557_1013" x1="2.06937" y1="0.821126" x2="2.06937" y2="4.60474" gradientUnits="userSpaceOnUse">
<stop stop-color="#BCC2FF"/>
<stop offset="1" stop-color="#BCC2FF" stop-opacity="0"/>
</linearGradient>
<linearGradient id="paint3_linear_557_1013" x1="2.06937" y1="0" x2="2.06937" y2="4.60474" gradientUnits="userSpaceOnUse">
<stop stop-color="#9EA7FF"/>
<stop offset="1" stop-color="#6C79F9"/>
</linearGradient>
<linearGradient id="paint4_linear_557_1013" x1="0.302267" y1="0.821126" x2="0.302267" y2="4.60474" gradientUnits="userSpaceOnUse">
<stop stop-color="#BCC2FF"/>
<stop offset="1" stop-color="#BCC2FF" stop-opacity="0"/>
</linearGradient>
<linearGradient id="paint5_linear_557_1013" x1="2.06937" y1="0.821126" x2="2.06937" y2="4.60474" gradientUnits="userSpaceOnUse">
<stop stop-color="#BCC2FF"/>
<stop offset="1" stop-color="#BCC2FF" stop-opacity="0"/>
</linearGradient>
</defs>
</svg>
