<svg width="132" height="105" viewBox="0 0 132 105" fill="none" xmlns="http://www.w3.org/2000/svg">
<path d="M50.5902 12.6357C50.2711 13.3984 49.9952 14.1828 49.7734 14.9725L75.2617 40.4608C76.0515 40.2391 76.8304 39.9632 77.5985 39.644L50.5902 12.6357Z" fill="#B8BBFF"/>
<path d="M52.3428 9.33643C51.9155 9.98553 51.5369 10.6563 51.1907 11.3378L78.8968 39.0439C79.5784 38.6977 80.2491 38.3191 80.8982 37.8918L52.3428 9.33643Z" fill="#B8BBFF"/>
<path d="M54.5661 6.51807C54.0522 7.06981 53.5708 7.63778 53.1218 8.22739L82.0071 37.1127C82.5968 36.6691 83.1701 36.1877 83.7165 35.6684L54.5661 6.51807Z" fill="#B8BBFF"/>
<path d="M89.1474 13.9559C88.1629 11.062 86.5185 8.33573 84.2087 6.0314C81.899 3.72166 79.1781 2.07725 76.2842 1.09277L89.1474 13.9559Z" fill="#B8BBFF"/>
<path d="M65.5468 40.845C66.7152 41.0776 67.9053 41.2074 69.0953 41.2398L49 21.1445C49.0325 22.3346 49.1569 23.5192 49.3949 24.693L65.5468 40.845Z" fill="#B8BBFF"/>
<path d="M49.4057 16.498C49.2163 17.4176 49.0973 18.348 49.0378 19.2838L70.9561 41.202C71.8919 41.1425 72.8222 41.0181 73.7418 40.8342L49.4057 16.498Z" fill="#B8BBFF"/>
<path d="M60.3378 2.19043C59.6563 2.53662 58.9855 2.91526 58.3364 3.34259L86.8972 31.9034C87.3245 31.2542 87.7032 30.5835 88.0493 29.9019L60.3378 2.19043Z" fill="#B8BBFF"/>
<path d="M73.6879 0.394872C72.5195 0.162275 71.3294 0.0324554 70.1394 0L90.2347 20.0953C90.2022 18.9053 90.0778 17.7206 89.8398 16.5468L73.6879 0.394872Z" fill="#B8BBFF"/>
<path d="M50.0872 27.2788C51.0716 30.1727 52.716 32.899 55.0258 35.2033C57.3355 37.5131 60.0564 39.1575 62.9503 40.142L50.0872 27.2788Z" fill="#B8BBFF"/>
<path d="M63.9728 0.773438C63.183 0.995216 62.4041 1.27109 61.636 1.59024L88.6443 28.5985C88.9634 27.8358 89.2393 27.0515 89.4611 26.2618L63.9728 0.773438Z" fill="#B8BBFF"/>
<path d="M68.2784 0.0375977C67.3426 0.0970992 66.4122 0.221516 65.4927 0.40543L89.8288 24.7416C90.0181 23.822 90.1371 22.8916 90.1966 21.9558L68.2784 0.0375977Z" fill="#B8BBFF"/>
<path d="M57.2274 4.12695C56.6378 4.57051 56.0644 5.05193 55.5181 5.57122L84.6739 34.727C85.1877 34.1752 85.6691 33.6073 86.1181 33.0177L57.2274 4.12695Z" fill="#B8BBFF"/>
<path d="M84.0067 97.6932C82.7186 95.5577 74.6681 95.4984 70.8038 95.7357L69.3547 102.937L78.7739 102.676H89.1591C87.9783 101.905 85.2948 99.8287 84.0067 97.6932Z" fill="#FFCCAF" stroke="black" stroke-width="0.5"/>
<path d="M40.0818 15.0144C47.2399 10.8115 56.8252 13.2604 60.4907 21.1705C60.4907 21.1705 52.8385 42.4418 58.5791 51.85C64.3197 61.2583 46.6195 74.4936 46.6195 74.4936C41.5927 75.6509 5.88456 68.0117 5.00002 64.0001C4.51121 61.7831 -0.9999 46.0001 22.5312 38.0131C26.3583 20.6318 35.0898 17.9455 40.0818 15.0144Z" fill="black" stroke="black"/>
<path d="M6.92717 56.2752C11.6851 46.4488 23.3638 45.6084 36.1819 45.6084C49 45.6084 54.2572 63.4575 54 68.5C53.8258 71.9155 55.7018 78.6325 55.7613 90.5L63.9701 91.511C67.9988 91.8336 71.9981 92.1551 72 92.5C72.027 97.3765 71.9697 99.0158 72 102.5L36.9857 103.63C26.3999 104.101 2.7507 104.388 1.62281 102.498C0.176147 100.074 0.979781 68.5582 6.92717 56.2752Z" fill="#7871CB"/>
<path d="M55.7613 90.5C55.7018 78.6325 53.8258 71.9155 54 68.5C54.2572 63.4575 49 45.6084 36.1819 45.6084C23.3638 45.6084 11.6851 46.4488 6.92717 56.2752C0.979781 68.5582 0.176147 100.074 1.62281 102.498C2.7507 104.388 26.3999 104.101 36.9857 103.63L72 102.5C71.9697 99.0158 72.027 97.3765 72 92.5M55.7613 90.5C55.7649 91.2051 71.9962 91.8052 72 92.5M55.7613 90.5L72 92.5" stroke="black" stroke-width="0.5"/>
<path d="M39.5 57.5C34.3802 57.1862 32.5 51.5 31.2278 45.764C31.2278 45.764 33.54 42.4693 34.3657 39.3314C35.1915 36.1936 36.1824 31.0161 36.1824 31.0161C38.3295 34.2586 45.0348 42.9086 44.7705 43.4106C44.5063 43.9127 43.6695 47.699 43.2841 49.5294C42.5014 54.3123 42.2157 57.6664 39.5 57.5Z" fill="#FFCCAF" stroke="black" stroke-width="0.5"/>
<g style="mix-blend-mode:darken">
<path d="M42.6936 54.4682L35.3972 35.1851L44.2571 44.5661L42.6936 54.4682Z" fill="#FA9F6C"/>
</g>
<path d="M47 46C53.2984 44.8709 58.0128 36.8248 59.3618 29.0598C60.5754 23.9396 55.0724 16.7354 46.2272 18.0998C39.926 19.4947 37.1547 31.4853 37.3724 30.5666C37.7035 29.1702 35.989 27.6178 35.1312 27.5772C33.4999 27.4999 32.3949 28.0235 31.9999 30C31.3951 33.0265 34 36 35.1312 35.9041C35.8053 35.847 39.127 47.4114 47 46Z" fill="#FFCCAF" stroke="black" stroke-width="0.5"/>
<path d="M45.768 38.785C45.7606 38.5702 49.8139 40.1031 50.0446 40.5515C50.2754 40.9999 49.1482 41.8864 47.4868 41.8071C45.8254 41.7277 45.7753 38.9999 45.768 38.785Z" fill="#FFB4B4" stroke="black" stroke-width="0.5"/>
<path d="M53.2081 27.2928C56.6424 22.2072 54.8779 20.1165 55.2399 20.2024C54.3055 16.5394 49.2377 14.1468 44.7908 14.2399C40.344 14.333 38.3619 21.8879 37.8998 25.2198C37.5302 27.8854 36.1831 33.6335 37.2993 35.7065C37.7777 32.0389 38.3624 32.763 40.7701 30.482C43.7999 27.6117 47.0195 27.0364 48.933 23.3222C48.933 26.1925 48.933 27.2928 45.235 29.5253C50.1841 29.3873 52.239 28.728 53.2081 27.2928Z" fill="black" stroke="black"/>
<path d="M57.104 28.4106C56.3335 25.1745 56.0696 23.3627 55.2685 20.0591C55.2237 19.5568 56.921 17.4003 60.1808 20.0763C61.9791 21.5526 62.5122 26.5497 62.3156 29.453C62.1584 31.7756 58.8 35.7561 57.104 36.2281C57.0986 35.7899 57.9013 31.7593 57.104 28.4106Z" fill="black" stroke="black"/>
<ellipse cx="47.6961" cy="33.5859" rx="0.637845" ry="0.956768" transform="rotate(13.3351 47.6961 33.5859)" fill="black"/>
<ellipse cx="53.7999" cy="35.8418" rx="0.637845" ry="0.956768" transform="rotate(13.3351 53.7999 35.8418)" fill="black"/>
<path d="M51.4111 36C51.8576 36.3239 52.2846 36.7303 52.0726 37.0725C51.8607 37.4147 51.3793 37.6059 51.0001 37.734" stroke="black" stroke-width="0.5" stroke-linecap="round"/>
<path d="M48.9859 31.3527C48.5422 30.9198 47.3315 30.1739 46.0378 30.6539" stroke="black" stroke-width="0.5" stroke-linecap="round"/>
<path d="M56.9202 33.8317C56.4765 33.3988 55.2658 32.6529 53.9721 33.1329" stroke="black" stroke-width="0.5" stroke-linecap="round"/>
<path d="M48.5 63.5C49.7349 67.0884 50.9721 72 49.48 78.246C47.6277 86 47.6277 95.641 49.4801 101.895" stroke="black" stroke-width="0.5" stroke-linecap="round"/>
<path d="M48.9071 97.8845C47.8838 96.0033 38.8666 97.6755 35.7969 97.8845L34.5 103.5L44.7502 102.274H53C52.062 101.595 49.9303 99.7657 48.9071 97.8845Z" fill="#FFCCAF" stroke="black" stroke-width="0.5"/>
<path d="M17.5104 63.3286C17.5605 71.6533 14.5835 88.4438 15.7077 90.5298C16.5 92 28.4385 95.8637 36 96.5L35.5 99L34.5 103.5" stroke="black" stroke-width="0.5"/>
<g clip-path="url(#clip0_502_936)">
<path d="M46 102.632C46 101.876 46.6123 101.264 47.3682 101.264H85.6421C86.3979 101.264 87.0103 101.876 87.0103 102.632C87.0103 103.388 86.3979 104.001 85.6421 104.001H47.3682C46.6123 104.001 46 103.388 46 102.632Z" fill="#AFB7FF"/>
<path d="M81.5408 102.632C81.5408 101.876 82.1531 101.264 82.9089 101.264H121.186C121.942 101.264 122.554 101.876 122.554 102.632C122.554 103.388 121.942 104.001 121.186 104.001H82.9089C82.1531 104.001 81.5408 103.388 81.5408 102.632Z" fill="#3B48C2"/>
<path d="M81.6555 69.2601C81.9361 68.1184 82.9599 67.3179 84.1335 67.3179H128.413C130.068 67.3179 131.286 68.871 130.891 70.4784L123.125 102.058C122.844 103.2 121.821 104 120.647 104H76.3677C74.7125 104 73.4942 102.447 73.8897 100.84L81.6555 69.2601Z" fill="#6C79F9"/>
</g>
<circle cx="38.524" cy="12.254" r="6.254" fill="black"/>
<defs>
<clipPath id="clip0_502_936">
<rect width="85.3022" height="36.6825" fill="white" transform="translate(46 67.3179)"/>
</clipPath>
</defs>
</svg>
