<svg width="126" height="136" viewBox="0 0 126 136" fill="none" xmlns="http://www.w3.org/2000/svg">
<circle cx="38.9054" cy="59.9743" r="38.9054" fill="#DED6FF"/>
<circle cx="82.9583" cy="86.071" r="38.9054" fill="#DED6FF"/>
<circle cx="109.055" cy="30.2862" r="16.1607" fill="#C6CBFF"/>
<path d="M54.2282 74.939C57.2928 71.2041 67.2366 70.2692 70.1495 70.0298C76.2547 70.3091 90.7092 71.3491 91.9936 74.939C94.7469 82.6345 94.9293 91.6982 94.9293 91.6982C96.2461 91.6982 98.5801 85.7017 98.76 86.7902C103.189 87.6281 105.014 87.3037 106.421 91.6982C107.248 94.2799 104.506 96.0078 102.71 101.874C96.1264 115.879 91.3231 107.154 91.338 108.458C91.5139 123.835 91.9936 127.198 91.9936 128.209H50.3976C50.3976 117.935 52.4326 108.403 52.4326 97.3246C49.4399 98.8808 42.9756 100.112 38.5407 97.3246C34.1058 94.5372 31.1244 75.1784 28.3711 67.9959C25.6177 60.8133 35.9124 61.4119 38.4262 63.0879C40.4374 64.4286 45.6662 74.2548 49.3772 83.233C50.4945 80.2403 51.1637 78.6739 54.2282 74.939Z" fill="#6C79F9" stroke="black" stroke-width="0.25" stroke-linecap="round"/>
<path d="M99.0507 91.4806C98.6258 92.0776 102.144 93.7646 103.602 94.2936C104.85 93.5576 104.651 91.9605 105.944 91.5119C107.098 91.1115 109.724 91.0331 110.158 87.6263C110.171 87.5274 114.274 83.6228 113.402 83.0166C112.53 82.4104 110.145 85.7447 110.333 85.1422C110.929 83.2344 113.584 80.5118 112.779 80.1279C111.975 79.7441 109.225 84.4758 109.025 84.2328C109.374 82.2873 111.854 78.783 110.646 78.4447C110.222 78.1483 107.284 83.4736 106.851 83.6238C106.63 83.019 108.265 79.044 108.406 78.5407C108.547 78.0374 108.256 77.6844 107.799 77.9184C107.343 78.1524 104.092 81.9577 102.948 83.6158C102.189 85.3936 101.292 88.1446 101.348 88.8476C100.327 89.8583 99.4802 90.8771 99.0507 91.4806Z" fill="#FFCCAF" stroke="black" stroke-width="0.25"/>
<path d="M105.508 87.9524C106.659 87.0986 105.315 84.5508 105.989 84.3777C106.831 84.1612 107.197 81.4593 106.332 81.7596C105.466 82.06 104.728 83.3006 104.03 83.467" stroke="black" stroke-width="0.25"/>
<path d="M67.6355 128.208L68.3538 70.39C75.7757 67.9958 76.0949 69.6443 79.9655 70.7491L84.7539 128.208H67.6355Z" fill="white" stroke="black" stroke-width="0.25"/>
<path d="M68.1144 77.9307L67.7552 70.5086C70.748 69.1917 79.367 69.9102 79.9656 70.8678C80.5641 71.8254 80.4444 77.9307 80.4444 77.9307L74.2195 73.8606L68.1144 77.9307Z" fill="white" stroke="black" stroke-width="0.25"/>
<path d="M62.7273 50.3976C62.4879 53.0312 64.1639 55.9841 64.8821 56.6225L79.0077 63.9248C80.4442 61.2912 83.4609 55.6648 84.0355 54.2283C84.7538 52.4327 83.5567 45.6093 78.0501 42.6166C73.6448 40.2224 69.1916 42.5766 67.5157 44.0531C66.9969 44.4521 65.744 45.3699 64.8821 45.8487C63.8047 46.4472 62.9667 47.764 62.7273 50.3976Z" fill="#272727" stroke="black" stroke-width="0.25"/>
<path d="M68.5932 72.0646C69.0721 69.3113 69.3114 65.4806 69.3114 65.4806C67.2763 65.8397 65.3611 62.7273 64.7625 61.0514C64.164 59.3754 64.5231 56.0236 64.5231 54.5871C64.5231 54.1745 64.5231 53.39 65.0019 53.0309C65.4808 52.6717 66.9173 54.228 66.4385 48.4819L67.3961 47.7637C67.8749 48.0829 70.3649 51.5225 70.748 52.1929C71.2268 53.0309 75.0575 52.4323 76.0152 53.2703C76.9728 54.1082 76.8531 54.3477 77.0926 54.5871C77.332 54.8265 77.332 58.2981 77.9305 58.6572C78.0263 57.8911 79.6463 55.7842 80.0852 55.7842C83.4371 55.1856 83.4372 58.7769 82.4795 60.2134C81.9897 60.948 80.2847 62.3682 79.367 62.4879C79.0392 66.0934 79.3669 71.7055 79.367 72.9026C79.367 74.0997 68.1144 74.8179 68.5932 72.0646Z" fill="#FFCCAF" stroke="black" stroke-width="0.25"/>
<path d="M67.1667 56.0239C66.8475 56.1436 66.233 56.5028 66.3287 56.9816C66.4245 57.4604 66.9273 57.6599 67.1667 57.6999" stroke="black" stroke-width="0.5" stroke-linecap="round"/>
<path d="M66.3187 59.9744C66.9173 60.2139 70.1973 59.9744 70.8677 59.4956" stroke="black" stroke-width="0.5" stroke-linecap="round"/>
<rect x="43.5846" y="0.25" width="38.7645" height="14.5833" rx="2.75" fill="#F9F9FF" stroke="#6C79F9" stroke-width="0.5"/>
<g filter="url(#filter0_b_485_520)">
<rect x="78.0503" y="40.2222" width="39.2645" height="15.0833" rx="3" fill="#F9F9FF" fill-opacity="0.8"/>
<rect x="78.3003" y="40.4722" width="38.7645" height="14.5833" rx="2.75" stroke="#6C79F9" stroke-width="0.5"/>
</g>
<g filter="url(#filter1_b_485_520)">
<rect x="78.0503" y="80.4443" width="39.2645" height="15.0833" rx="3" fill="#F9F9FF" fill-opacity="0.8"/>
<rect x="78.3003" y="80.6943" width="38.7645" height="14.5833" rx="2.75" stroke="#5D7BFF" stroke-width="0.5"/>
</g>
<rect x="43.5846" y="120.917" width="38.7645" height="14.5833" rx="2.75" fill="#F9F9FF" fill-opacity="0.8" stroke="#5D7BFF" stroke-width="0.5"/>
<ellipse cx="65.9596" cy="55.4252" rx="0.359127" ry="0.598545" fill="#272727"/>
<ellipse cx="70.2692" cy="55.4252" rx="0.359127" ry="0.598545" fill="#272727"/>
<path d="M64.523 53.6275C64.7768 53.492 65.4435 53.2792 66.0795 53.5118" stroke="black" stroke-width="0.75" stroke-linecap="round"/>
<path d="M70.1493 53.2967C70.4173 53.1919 71.1044 53.0587 71.7087 53.3642" stroke="black" stroke-width="0.75" stroke-linecap="round"/>
<path d="M77.9305 60.9316C76.494 63.5174 71.6658 65.0416 69.4312 65.4806L69.1918 69.0719C76.1828 66.7734 77.9305 62.6874 77.9305 60.9316Z" fill="#FA9F6C"/>
<path d="M55.7822 14.9639C41.1758 17.0787 24.8943 23.4871 25.1395 39.3845" stroke="#5D7BFF" stroke-width="0.5"/>
<path d="M24.5403 95.8867C24.8595 104.226 31.7468 120.906 56.742 120.906" stroke="#5D7BFF" stroke-width="0.5"/>
<path d="M102.351 96.0068C102.032 104.307 95.1447 120.906 70.1495 120.906" stroke="#5D7BFF" stroke-width="0.5"/>
<path d="M71.8253 15.0835C86.4317 17.1984 102.713 23.6068 102.468 39.5041" stroke="#5D7BFF" stroke-width="0.5"/>
<path d="M30.7272 68.9571C29.7695 68.5979 28.8118 66.3235 28.9316 64.4081C29.0513 62.4928 35.2761 61.176 36.2338 62.4928C37.1915 63.8096 38.197 66.6108 37.4309 67.2811C36.6648 67.9515 31.6849 69.3163 30.7272 68.9571Z" fill="white" stroke="black" stroke-width="0.25"/>
<path d="M35.3956 63.4506C35.6325 64.398 31.964 65.326 30.4876 65.4856C29.5299 64.0491 30.1239 62.0095 29.0511 60.9367C28.0934 59.979 25.6991 58.9016 26.178 54.233C26.1919 54.0975 23.425 47.4096 24.3827 46.9307C25.3403 46.4519 26.6747 51.7482 26.6567 50.8811C26.6 48.1357 24.8611 43.5491 25.6995 43.3395C26.5379 43.1298 27.8466 50.41 28.0938 50.1629C28.2738 47.4591 26.8967 41.9029 28.0938 41.9029C28.5602 41.668 29.8897 49.8037 30.2485 50.1629C30.6079 49.4446 30.1285 43.5789 30.1285 42.8606C30.1285 42.1424 30.487 41.7832 30.8464 42.262C31.2059 42.7409 33.2144 48.9812 33.8389 51.5993C34.0783 54.2329 34.1947 58.2056 33.9621 59.1151C34.6404 60.8309 35.1562 62.4929 35.3956 63.4506Z" fill="#FFCCAF" stroke="black" stroke-width="0.25"/>
<path d="M30.3682 56.3876C29.5303 54.8314 31.4219 51.9584 30.8473 51.4795C30.129 50.881 30.4882 47.17 31.2064 47.8882C31.9247 48.6065 32.2838 50.5218 32.8823 51.0007" stroke="black" stroke-width="0.25"/>
<g filter="url(#filter2_b_485_520)">
<rect x="4.07007" y="40.2222" width="39.2645" height="15.0833" rx="3" fill="#6C79F9" fill-opacity="0.8"/>
</g>
<g style="mix-blend-mode:multiply">
<path d="M53.3901 90.022L52.6719 97.2046C50.3974 98.4017 46.0879 99.2396 42.736 98.8805C41.0692 98.7019 39.072 98.0583 37.7083 96.4863C36.0895 94.6205 35.207 91.8093 34.117 88.825C32.2727 83.7751 30.6773 78.0065 30.0469 73.8613C33.8377 81.1636 37.4688 93.1345 43.6937 94.2119C49.9186 95.2892 52.632 92.3364 53.3901 90.022Z" fill="#C2C7DE"/>
</g>
<rect x="4.32007" y="80.6943" width="38.7645" height="14.5833" rx="2.75" fill="#F9F9FF" fill-opacity="0.8" stroke="#5D7BFF" stroke-width="0.5"/>
<circle cx="55.7843" cy="15.0832" r="0.957672" fill="#6C79F9"/>
<circle cx="72.5436" cy="15.0832" r="0.957672" fill="#6C79F9"/>
<circle cx="24.4206" cy="55.0661" r="0.957672" fill="#6C79F9"/>
<circle cx="24.4206" cy="96.2462" r="0.957672" fill="#6C79F9"/>
<circle cx="103.428" cy="96.2462" r="0.957672" fill="#6C79F9"/>
<path d="M25.1389 40.4614L24.3095 39.0249L25.9683 39.0249L25.1389 40.4614Z" fill="#5D7BFF"/>
<path d="M102.471 40.4614L101.642 39.0249L103.3 39.0249L102.471 40.4614Z" fill="#5D7BFF"/>
<path d="M24.4206 80.4443L23.5913 79.0078L25.25 79.0078L24.4206 80.4443Z" fill="#5D7BFF"/>
<path d="M24.4207 54.9463L24.4207 79.1275" stroke="#5D7BFF" stroke-width="0.5"/>
<circle cx="102.471" cy="55.0661" r="0.957672" fill="#6C79F9"/>
<path d="M102.471 80.4443L101.642 79.0078L103.3 79.0078L102.471 80.4443Z" fill="#5D7BFF"/>
<path d="M102.471 54.9463L102.471 79.1275" stroke="#5D7BFF" stroke-width="0.5"/>
<defs>
<filter id="filter0_b_485_520" x="77.0503" y="39.2222" width="41.2645" height="17.0835" filterUnits="userSpaceOnUse" color-interpolation-filters="sRGB">
<feFlood flood-opacity="0" result="BackgroundImageFix"/>
<feGaussianBlur in="BackgroundImage" stdDeviation="0.5"/>
<feComposite in2="SourceAlpha" operator="in" result="effect1_backgroundBlur_485_520"/>
<feBlend mode="normal" in="SourceGraphic" in2="effect1_backgroundBlur_485_520" result="shape"/>
</filter>
<filter id="filter1_b_485_520" x="77.0503" y="79.4443" width="41.2645" height="17.0835" filterUnits="userSpaceOnUse" color-interpolation-filters="sRGB">
<feFlood flood-opacity="0" result="BackgroundImageFix"/>
<feGaussianBlur in="BackgroundImage" stdDeviation="0.5"/>
<feComposite in2="SourceAlpha" operator="in" result="effect1_backgroundBlur_485_520"/>
<feBlend mode="normal" in="SourceGraphic" in2="effect1_backgroundBlur_485_520" result="shape"/>
</filter>
<filter id="filter2_b_485_520" x="3.07007" y="39.2222" width="41.2645" height="17.0835" filterUnits="userSpaceOnUse" color-interpolation-filters="sRGB">
<feFlood flood-opacity="0" result="BackgroundImageFix"/>
<feGaussianBlur in="BackgroundImage" stdDeviation="0.5"/>
<feComposite in2="SourceAlpha" operator="in" result="effect1_backgroundBlur_485_520"/>
<feBlend mode="normal" in="SourceGraphic" in2="effect1_backgroundBlur_485_520" result="shape"/>
</filter>
</defs>
</svg>
