<svg width="32" height="32" viewBox="0 0 32 32" fill="none" xmlns="http://www.w3.org/2000/svg">
<path d="M16.9471 15.0534C16.6979 14.8091 16.3628 14.6722 16.0138 14.6722C15.6648 14.6722 15.3297 14.8091 15.0804 15.0534L11.0804 18.9201C10.9389 19.0368 10.8231 19.1815 10.7401 19.345C10.6571 19.5086 10.6087 19.6875 10.598 19.8707C10.5873 20.0538 10.6145 20.2371 10.6779 20.4093C10.7412 20.5814 10.8395 20.7386 10.9664 20.871C11.0933 21.0034 11.2462 21.1083 11.4154 21.1789C11.5847 21.2496 11.7668 21.2845 11.9502 21.2816C12.1336 21.2787 12.3144 21.238 12.4813 21.162C12.6483 21.086 12.7978 20.9764 12.9204 20.8401L14.6671 19.1467V26.6667C14.6671 27.0203 14.8076 27.3595 15.0576 27.6095C15.3077 27.8596 15.6468 28.0001 16.0004 28.0001C16.3541 28.0001 16.6932 27.8596 16.9432 27.6095C17.1933 27.3595 17.3338 27.0203 17.3338 26.6667V19.2134L19.0538 20.9467C19.1777 21.0717 19.3252 21.1709 19.4877 21.2386C19.6501 21.3063 19.8244 21.3411 20.0004 21.3411C20.1764 21.3411 20.3507 21.3063 20.5132 21.2386C20.6757 21.1709 20.8231 21.0717 20.9471 20.9467C21.0721 20.8228 21.1713 20.6753 21.2389 20.5128C21.3066 20.3503 21.3415 20.1761 21.3415 20.0001C21.3415 19.824 21.3066 19.6498 21.2389 19.4873C21.1713 19.3248 21.0721 19.1773 20.9471 19.0534L16.9471 15.0534Z" fill="#6C79F9"/>
<path d="M23.5599 9.33339C23.0158 7.76146 21.9953 6.39821 20.6403 5.43334C19.2853 4.46846 17.6633 3.94995 15.9999 3.94995C14.3364 3.94995 12.7144 4.46846 11.3594 5.43334C10.0044 6.39821 8.98392 7.76146 8.43986 9.33339C7.24193 9.49384 6.11015 9.97692 5.16559 10.731C4.22104 11.485 3.49924 12.4817 3.07742 13.6143C2.65559 14.7469 2.54961 15.9729 2.7708 17.1611C2.992 18.3494 3.53205 19.4551 4.33319 20.3601C4.42997 20.5305 4.56313 20.6775 4.72321 20.7907C4.88328 20.9038 5.06633 20.9802 5.25931 21.0145C5.4523 21.0488 5.65047 21.0402 5.83973 20.9892C6.02899 20.9381 6.20467 20.846 6.35426 20.7194C6.50385 20.5927 6.62368 20.4346 6.70522 20.2564C6.78675 20.0781 6.82797 19.8841 6.82596 19.6881C6.82395 19.4921 6.77875 19.2989 6.69358 19.1224C6.60841 18.9459 6.48536 18.7903 6.33319 18.6667C5.81735 18.09 5.47984 17.376 5.36158 16.6114C5.24331 15.8467 5.34937 15.0642 5.66689 14.3586C5.98442 13.6529 6.49978 13.0546 7.15052 12.636C7.80126 12.2173 8.55944 11.9965 9.33319 12.0001H9.46653C9.77846 12.0063 10.0827 11.9031 10.3263 11.7082C10.57 11.5133 10.7375 11.2391 10.7999 10.9334C11.0447 9.72775 11.6988 8.64382 12.6513 7.86525C13.6039 7.08669 14.7963 6.66137 16.0265 6.66137C17.2568 6.66137 18.4492 7.08669 19.4017 7.86525C20.3543 8.64382 21.0084 9.72775 21.2532 10.9334C21.3155 11.2391 21.4831 11.5133 21.7267 11.7082C21.9703 11.9031 22.2746 12.0063 22.5865 12.0001H22.6665C23.4403 11.9965 24.1985 12.2173 24.8492 12.636C25.4999 13.0546 26.0153 13.6529 26.3328 14.3586C26.6504 15.0642 26.7564 15.8467 26.6381 16.6114C26.5199 17.376 26.1824 18.09 25.6665 18.6667C25.5491 18.7984 25.4589 18.9521 25.4013 19.119C25.3438 19.2858 25.3198 19.4623 25.331 19.6385C25.3422 19.8146 25.3882 19.9867 25.4664 20.1449C25.5446 20.3031 25.6534 20.4442 25.7865 20.5601C26.0296 20.7744 26.3424 20.8929 26.6665 20.8934C26.8558 20.8931 27.0429 20.8526 27.2154 20.7744C27.3878 20.6963 27.5416 20.5823 27.6665 20.4401C28.4899 19.5366 29.049 18.4243 29.2828 17.2245C29.5166 16.0248 29.4161 14.7838 28.9922 13.6374C28.5683 12.4909 27.8373 11.483 26.8793 10.724C25.9212 9.9649 24.7729 9.48385 23.5599 9.33339V9.33339Z" fill="#6C79F9"/>
</svg>
